<svg width="58" height="71" viewBox="0 0 58 71" fill="none" xmlns="http://www.w3.org/2000/svg">
<path d="M27.7382 69.5C28.1231 70.1667 29.0853 70.1667 29.4702 69.5L52.5102 29.5937C52.8951 28.927 52.4139 28.0937 51.6441 28.0937H5.56429C4.79449 28.0937 4.31336 28.927 4.69826 29.5937L27.7382 69.5Z" fill="#13364D"/>
<path d="M26.6788 43.6879C27.224 45.6358 29.9855 45.6358 30.5307 43.6879L42.0494 2.53913C42.4064 1.26385 41.4477 -2.12369e-06 40.1234 -2.12369e-06H17.0861C15.7618 -2.12369e-06 14.8031 1.26385 15.1601 2.53913L26.6788 43.6879Z" fill="#13364D"/>
<path d="M25.1065 53V38.4545H27.7415V50.7912H34.1477V53H25.1065Z" fill="white"/>
</svg>
