<svg width="122" height="70" viewBox="0 0 122 70" fill="none" xmlns="http://www.w3.org/2000/svg">
<path fill-rule="evenodd" clip-rule="evenodd" d="M109.285 34.1108C106.909 28.5666 101.047 24.5557 94.0866 24.3652C88.2413 24.2052 83.0214 26.7781 79.9148 30.8086C77.2801 28.9836 73.9756 27.8547 70.3642 27.7558C61.4944 27.5131 54.1327 33.5759 53.9213 41.2976C53.8555 43.7033 54.4914 45.9861 55.6665 47.9966C53.5386 49.9883 52.2432 52.4929 52.168 55.2415C51.982 62.0387 59.3284 67.7542 68.5767 68.0073C73.3936 68.1391 77.7765 66.7631 80.8969 64.4538C83.1137 66.767 86.2475 68.2498 89.7554 68.3459C92.5544 68.4225 95.1637 67.6045 97.2928 66.1591C99.3733 67.02 101.72 67.535 104.213 67.6032C113.036 67.8447 120.343 62.3979 120.533 55.4375C120.618 52.3451 119.284 49.4741 117.001 47.2171C118.785 45.8921 119.918 44.022 119.976 41.9231C120.09 37.736 115.881 34.2239 110.573 34.0786C110.137 34.0667 109.707 34.0779 109.285 34.1108Z" fill="url(#paint0_linear_66_1274)"/>
<path fill-rule="evenodd" clip-rule="evenodd" d="M94.112 34.1108C91.7369 28.5666 85.8742 24.5557 78.914 24.3652C73.0687 24.2052 67.8488 26.7781 64.7422 30.8086C62.1076 28.9836 58.803 27.8547 55.1916 27.7558C46.3218 27.5131 38.9601 33.5759 38.7487 41.2976C38.6829 43.7033 39.3188 45.9861 40.4939 47.9966C38.366 49.9883 37.0707 52.4929 36.9954 55.2415C36.8094 62.0387 44.1558 67.7542 53.4041 68.0073C58.2211 68.1391 62.6039 66.7631 65.7244 64.4538C67.9411 66.767 71.0749 68.2498 74.5829 68.3459C77.3818 68.4225 79.9912 67.6045 82.1202 66.1591C84.2007 67.02 86.5478 67.535 89.0407 67.6032C97.8636 67.8447 105.17 62.3979 105.361 55.4375C105.445 52.3451 104.111 49.4741 101.828 47.2171C103.613 45.8921 104.746 44.022 104.803 41.9231C104.918 37.736 100.708 34.2239 95.4007 34.0786C94.9644 34.0667 94.5342 34.0779 94.112 34.1108Z" fill="url(#paint1_linear_66_1274)"/>
<mask id="path-3-inside-1_66_1274" fill="white">
<path fill-rule="evenodd" clip-rule="evenodd" d="M16.5348 5.12017C13.3917 6.89469 10.6566 9.14292 8.47351 11.7437C10.4301 12.0553 12.3271 12.9415 13.8523 14.4195L13.8454 14.4266C15.6775 16.5874 18.6037 17.614 21.3834 17.5797C23.5667 17.5527 25.6122 16.8737 26.9499 15.6243L26.8251 15.5221C27.1396 15.1383 27.4891 14.7941 27.8673 14.4891C27.8822 14.4638 27.8968 14.4385 27.9112 14.413L27.9415 14.43C29.461 13.2364 31.4269 12.6612 33.4331 12.6716C35.9539 12.6848 38.5642 13.6215 40.4814 15.451L40.4853 15.4478L40.5129 15.4812L40.5334 15.501L40.5313 15.5032C42.0046 17.2611 44.3263 18.1473 46.7531 18.1533C49.1023 18.1591 51.5232 17.339 53.3221 15.719L53.3214 15.7184C54.9077 13.7827 57.3863 12.8548 59.9294 12.868C62.4502 12.8811 65.0605 13.8179 66.9777 15.6473L66.9816 15.6441L67.0092 15.6775L67.0298 15.6973L67.0276 15.6995C68.5009 17.4574 70.8226 18.3437 73.2494 18.3496C74.468 18.3526 75.706 18.1334 76.8664 17.6955C72.6014 12.7367 65.8272 9.53116 58.1993 9.53116C57.7527 9.53116 57.309 9.54215 56.8686 9.56383C55.3038 8.0664 53.5379 6.72183 51.6066 5.56012C50.0976 6.3338 48.4054 6.71992 46.7518 6.71585C44.212 6.7096 41.7349 5.78162 40.1466 3.8852C38.3292 2.14531 35.8403 1.24673 33.4305 1.2342C31.5151 1.22424 29.6663 1.77342 28.2491 2.88707C26.947 5.01062 24.2236 6.10722 21.3895 6.1422C19.7528 6.1624 18.0544 5.82979 16.5348 5.12017ZM51.091 5.25656C46.137 2.40292 40.1464 0.73407 33.6933 0.73407C33.6248 0.73407 33.5562 0.734258 33.4878 0.734635C35.9916 0.760897 38.5781 1.69729 40.4814 3.51353L40.4853 3.51031L40.5129 3.54372L40.5334 3.56355L40.5313 3.56575C42.0046 5.32366 44.3263 6.20988 46.7531 6.21585C48.228 6.21948 49.7312 5.89758 51.091 5.25656ZM33.0341 0.739885C31.1678 0.802898 29.3601 1.37826 27.9415 2.4926L27.9112 2.47552C27.8968 2.50104 27.8822 2.52641 27.8673 2.55163C27.4891 2.8567 27.1396 3.20086 26.8251 3.58463L26.9499 3.68686C25.6122 4.93621 23.5667 5.61529 21.3834 5.64223C19.9314 5.66015 18.4394 5.38859 17.0842 4.81709C21.707 2.32546 27.1695 0.843443 33.0341 0.739885ZM77.2058 18.1003C75.9389 18.6027 74.5809 18.8529 73.2482 18.8496C70.7083 18.8434 68.2312 17.9154 66.6429 16.0189C64.8255 14.2791 62.3366 13.3805 59.9268 13.368C57.5904 13.3558 55.3529 14.1757 53.8771 15.8373L53.9012 15.8621C51.9779 17.7259 49.3183 18.6596 46.7518 18.6533C44.212 18.647 41.7349 17.7191 40.1466 15.8226C38.3292 14.0828 35.8403 13.1842 33.4305 13.1716C31.5151 13.1617 29.6663 13.7109 28.2491 14.8245C26.947 16.9481 24.2236 18.0447 21.3895 18.0796C18.4766 18.1156 15.3683 17.0341 13.4209 14.6987C11.9088 13.269 10.0269 12.4419 8.10281 12.1953C5.26821 15.7276 3.43579 19.8781 2.94958 24.3568C6.44554 22.8367 10.863 23.4601 13.8523 26.3569L13.8454 26.364C15.6775 28.5248 18.6037 29.5514 21.3834 29.5171C23.5667 29.4902 25.6122 28.8111 26.9499 27.5617L26.8251 27.4595C27.1396 27.0757 27.4891 26.7316 27.8673 26.4265C27.8822 26.4013 27.8968 26.3759 27.9112 26.3504L27.9415 26.3675C29.461 25.1739 31.4269 24.5987 33.4331 24.6091C35.9539 24.6222 38.5642 25.559 40.4814 27.3884L40.4853 27.3852L40.5129 27.4186L40.5334 27.4384L40.5313 27.4406C42.0046 29.1985 44.3263 30.0848 46.7531 30.0907C49.1023 30.0965 51.5232 29.2764 53.3221 27.6564L53.3214 27.6559C54.9077 25.7201 57.3863 24.7922 59.9294 24.8054C62.4502 24.8185 65.0605 25.7553 66.9777 27.5848L66.9816 27.5815L67.0092 27.6149L67.0298 27.6348L67.0276 27.637C68.5009 29.3949 70.8226 30.2811 73.2494 30.2871C75.5128 30.2927 77.8429 29.5316 79.619 28.027C79.7236 27.9291 79.8304 27.8341 79.9392 27.742C79.9763 27.7073 80.0131 27.6722 80.0496 27.6369L80.0567 27.6442C83.6902 24.6733 89.4402 24.8327 93.0767 28.3568L93.0698 28.3639C93.5088 28.8817 94.0106 29.3343 94.5582 29.7228C93.0673 25.3049 87.8162 22.041 81.5671 22.041C80.958 22.041 80.3584 22.072 79.7708 22.1321C79.0879 20.6983 78.2246 19.3471 77.2058 18.1003ZM94.7697 30.4622C93.9758 29.9731 93.2539 29.3658 92.6453 28.636C89.1473 25.3286 83.6696 25.2457 80.2709 28.1163C80.1665 28.2137 80.06 28.3085 79.9516 28.4006C79.9099 28.4397 79.8685 28.4793 79.8275 28.5193L79.8193 28.5109C77.9604 30.0316 75.5662 30.7928 73.2482 30.7871C70.7083 30.7808 68.2312 29.8528 66.6429 27.9564C64.8255 26.2165 62.3366 25.318 59.9268 25.3054C57.5904 25.2933 55.3529 26.1132 53.8771 27.7747L53.9012 27.7996C51.9779 29.6634 49.3183 30.597 46.7518 30.5907C44.212 30.5845 41.7349 29.6565 40.1466 27.7601C38.3292 26.0202 35.8403 25.1216 33.4305 25.1091C31.5151 25.0991 29.6663 25.6483 28.2491 26.7619C26.947 28.8855 24.2236 29.9821 21.3895 30.0171C18.4766 30.053 15.3683 28.9715 13.4209 26.6361C10.5042 23.8784 6.21135 23.3625 2.89479 24.9311C2.8451 25.5349 2.81984 26.1443 2.81984 26.7588C2.81984 29.2857 3.24709 31.7285 4.04401 34.0387C7.33059 33.0668 11.1674 33.8346 13.8523 36.4364L13.8454 36.4435C15.6775 38.6043 18.6037 39.6309 21.3834 39.5966C23.5667 39.5697 25.6123 38.8906 26.9498 37.6412L26.8251 37.539C27.1396 37.1552 27.4891 36.8111 27.8673 36.506C27.8822 36.4808 27.8968 36.4554 27.9112 36.4299L27.9415 36.447C29.461 35.2534 31.4269 34.6782 33.4331 34.6886C35.9539 34.7017 38.5642 35.6385 40.4814 37.4679L40.4853 37.4647L40.5129 37.4981L40.5334 37.5179L40.5313 37.5201C42.0046 39.278 44.3263 40.1643 46.7531 40.1702C49.1023 40.176 51.5232 39.3559 53.3221 37.7359L53.3214 37.7354C54.9077 35.7996 57.3863 34.8717 59.9294 34.8849C62.4502 34.898 65.0605 35.8348 66.9777 37.6642L66.9816 37.661L67.0092 37.6944L67.0297 37.7143L67.0276 37.7165C68.5009 39.4744 70.8226 40.3606 73.2494 40.3666C75.5128 40.3722 77.8429 39.6111 79.619 38.1065C79.7236 38.0086 79.8304 37.9136 79.9392 37.8214C79.9763 37.7868 80.0131 37.7517 80.0496 37.7164L80.0567 37.7237C83.5539 34.8642 89.0119 34.9047 92.6589 38.054C94.125 36.4115 94.9821 34.4264 94.9821 32.2884C94.9821 31.6651 94.9093 31.0548 94.7697 30.4622ZM28.2491 36.8414C26.947 38.965 24.2236 40.0616 21.3895 40.0966C18.4766 40.1325 15.3683 39.051 13.4209 36.7156C10.8779 34.3112 7.28875 33.611 4.21265 34.5107C5.06557 36.818 6.28919 38.9874 7.82475 40.9696C5.59923 42.5398 3.81502 44.4263 2.61626 46.5266C6.16083 44.816 10.7671 45.3841 13.8523 48.3739L13.8454 48.381C15.6775 50.5418 18.6037 51.5684 21.3834 51.534C23.5667 51.5071 25.6123 50.828 26.9499 49.5787L26.8251 49.4764C27.1396 49.0927 27.4891 48.7485 27.8673 48.4434C27.8822 48.4182 27.8968 48.3929 27.9112 48.3673L27.9415 48.3844C29.461 47.1908 31.4269 46.6156 33.4331 46.626C35.9539 46.6391 38.5642 47.5759 40.4814 49.4053L40.4853 49.4021L40.5129 49.4355L40.5334 49.4554L40.5313 49.4576C42.0046 51.2155 44.3263 52.1017 46.7531 52.1077C49.1023 52.1134 51.5232 51.2934 53.3221 49.6734L53.3214 49.6728C54.9077 47.7371 57.3863 46.8092 59.9294 46.8224C62.4502 46.8355 65.0605 47.7722 66.9777 49.6017L66.9816 49.5985L67.0092 49.6318L67.0297 49.6517L67.0276 49.6539C68.5009 51.4118 70.8226 52.298 73.2494 52.304C75.5128 52.3096 77.8429 51.5485 79.619 50.044C79.7236 49.9461 79.8304 49.851 79.9392 49.7589C79.9763 49.7242 80.0131 49.6892 80.0496 49.6538L80.0567 49.6611C83.6901 46.6902 89.4402 46.8497 93.0767 50.3737L93.0698 50.3809C93.8974 51.3569 94.9482 52.1015 96.1079 52.6215C96.2187 51.9332 96.2758 51.2322 96.2758 50.521C96.2758 46.341 94.3049 42.5127 91.0343 39.5487C91.4966 39.1969 91.9256 38.8195 92.3171 38.4195C88.8124 35.4058 83.5651 35.4135 80.2709 38.1958C80.1665 38.2932 80.06 38.388 79.9516 38.4801C79.9099 38.5192 79.8685 38.5588 79.8275 38.5988L79.8193 38.5904C77.9604 40.1111 75.5662 40.8723 73.2482 40.8666C70.7083 40.8603 68.2312 39.9323 66.6429 38.0359C64.8255 36.296 62.3366 35.3975 59.9268 35.3849C57.5903 35.3728 55.3529 36.1927 53.8771 37.8542L53.9012 37.8791C51.9779 39.7429 49.3183 40.6765 46.7518 40.6702C44.212 40.664 41.7349 39.736 40.1466 37.8396C38.3292 36.0997 35.8403 35.2011 33.4305 35.1886C31.5151 35.1786 29.6663 35.7278 28.2491 36.8414ZM28.2491 48.7789C26.947 50.9024 24.2236 51.999 21.3895 52.034C18.4766 52.07 15.3683 50.9885 13.4209 48.653C10.2952 45.6977 5.589 45.317 2.19768 47.3174C1.36113 49.0294 0.906542 50.8686 0.906542 52.7834C0.906542 54.825 1.42334 56.7808 2.36893 58.588C5.94417 56.7282 10.6948 57.2515 13.8523 60.3113L13.8454 60.3184C15.6775 62.4792 18.6037 63.5058 21.3834 63.4715C23.5667 63.4445 25.6123 62.7655 26.9498 61.5161L26.8251 61.4139C27.1396 61.0301 27.4891 60.686 27.8673 60.3809C27.8822 60.3557 27.8968 60.3303 27.9112 60.3048L27.9415 60.3219C29.461 59.1282 31.4269 58.553 33.4331 58.5635C35.9539 58.5766 38.5642 59.5133 40.4814 61.3428L40.4853 61.3396L40.5129 61.373L40.5334 61.3928L40.5313 61.395C42.0046 63.1529 44.3263 64.0391 46.7531 64.0451C49.1023 64.0509 51.5232 63.2308 53.3221 61.6108L53.3214 61.6102C54.9077 59.6745 57.3863 58.7466 59.9294 58.7598C62.4502 58.7729 65.0605 59.7097 66.9777 61.5391L66.9816 61.5359L67.0092 61.5693L67.0297 61.5891L67.0276 61.5914C68.5009 63.3493 70.8226 64.2355 73.2494 64.2415C75.5128 64.247 77.8429 63.4859 79.619 61.9814C79.7236 61.8835 79.8304 61.7885 79.9392 61.6963C79.9763 61.6617 80.0131 61.6266 80.0496 61.5912L80.0567 61.5986C83.1979 59.0301 87.9212 58.8013 91.493 61.0637C93.8214 58.8093 95.42 56.0946 96.0164 53.1276C94.7303 52.5698 93.5598 51.7496 92.6453 50.6529C89.1473 47.3455 83.6696 47.2627 80.2709 50.1333C80.1665 50.2307 80.06 50.3254 79.9516 50.4175C79.9287 50.439 79.9059 50.4606 79.8832 50.4824C79.8646 50.5003 79.846 50.5182 79.8275 50.5363L79.8193 50.5278C77.9604 52.0486 75.5662 52.8097 73.2482 52.804C70.7083 52.7978 68.2312 51.8698 66.6429 49.9733C64.8255 48.2335 62.3366 47.3349 59.9268 47.3224C57.5903 47.3102 55.3529 48.1301 53.8771 49.7917L53.9012 49.8165C51.9779 51.6803 49.3183 52.614 46.7518 52.6077C44.212 52.6014 41.7349 51.6734 40.1466 49.777C38.3292 48.0371 35.8403 47.1385 33.4305 47.126C31.5151 47.1161 29.6663 47.6652 28.2491 48.7789ZM28.2491 60.7163C26.947 62.8399 24.2236 63.9365 21.3895 63.9714C18.4766 64.0074 15.3683 62.9259 13.4209 60.5905C10.4197 57.7528 5.96125 57.2888 2.60883 59.0272C6.07843 65.1208 14.475 69.4189 24.2821 69.4189C31.0062 69.4189 37.0672 67.3984 41.3317 64.164C44.5122 67.2063 48.94 69.0932 53.8369 69.0932C57.744 69.0932 61.3526 67.892 64.2671 65.861C67.202 66.9469 70.4957 67.5557 73.9755 67.5557C80.8658 67.5557 87.0261 65.1687 91.1168 61.4181C87.6943 59.3152 83.2069 59.5909 80.2709 62.0707C80.1665 62.1681 80.06 62.2628 79.9516 62.3549C79.9099 62.3941 79.8685 62.4336 79.8275 62.4737L79.8193 62.4652C77.9604 63.986 75.5662 64.7472 73.2482 64.7415C70.7083 64.7352 68.2312 63.8072 66.6429 61.9107C64.8255 60.1709 62.3366 59.2723 59.9268 59.2598C57.5903 59.2477 55.3529 60.0675 53.8771 61.7291L53.9012 61.754C51.9779 63.6178 49.3183 64.5514 46.7518 64.5451C44.212 64.5388 41.7349 63.6109 40.1466 61.7145C38.3292 59.9746 35.8403 59.076 33.4305 59.0634C31.5151 59.0535 29.6663 59.6027 28.2491 60.7163Z"/>
</mask>
<path fill-rule="evenodd" clip-rule="evenodd" d="M16.5348 5.12017C13.3917 6.89469 10.6566 9.14292 8.47351 11.7437C10.4301 12.0553 12.3271 12.9415 13.8523 14.4195L13.8454 14.4266C15.6775 16.5874 18.6037 17.614 21.3834 17.5797C23.5667 17.5527 25.6122 16.8737 26.9499 15.6243L26.8251 15.5221C27.1396 15.1383 27.4891 14.7941 27.8673 14.4891C27.8822 14.4638 27.8968 14.4385 27.9112 14.413L27.9415 14.43C29.461 13.2364 31.4269 12.6612 33.4331 12.6716C35.9539 12.6848 38.5642 13.6215 40.4814 15.451L40.4853 15.4478L40.5129 15.4812L40.5334 15.501L40.5313 15.5032C42.0046 17.2611 44.3263 18.1473 46.7531 18.1533C49.1023 18.1591 51.5232 17.339 53.3221 15.719L53.3214 15.7184C54.9077 13.7827 57.3863 12.8548 59.9294 12.868C62.4502 12.8811 65.0605 13.8179 66.9777 15.6473L66.9816 15.6441L67.0092 15.6775L67.0298 15.6973L67.0276 15.6995C68.5009 17.4574 70.8226 18.3437 73.2494 18.3496C74.468 18.3526 75.706 18.1334 76.8664 17.6955C72.6014 12.7367 65.8272 9.53116 58.1993 9.53116C57.7527 9.53116 57.309 9.54215 56.8686 9.56383C55.3038 8.0664 53.5379 6.72183 51.6066 5.56012C50.0976 6.3338 48.4054 6.71992 46.7518 6.71585C44.212 6.7096 41.7349 5.78162 40.1466 3.8852C38.3292 2.14531 35.8403 1.24673 33.4305 1.2342C31.5151 1.22424 29.6663 1.77342 28.2491 2.88707C26.947 5.01062 24.2236 6.10722 21.3895 6.1422C19.7528 6.1624 18.0544 5.82979 16.5348 5.12017ZM51.091 5.25656C46.137 2.40292 40.1464 0.73407 33.6933 0.73407C33.6248 0.73407 33.5562 0.734258 33.4878 0.734635C35.9916 0.760897 38.5781 1.69729 40.4814 3.51353L40.4853 3.51031L40.5129 3.54372L40.5334 3.56355L40.5313 3.56575C42.0046 5.32366 44.3263 6.20988 46.7531 6.21585C48.228 6.21948 49.7312 5.89758 51.091 5.25656ZM33.0341 0.739885C31.1678 0.802898 29.3601 1.37826 27.9415 2.4926L27.9112 2.47552C27.8968 2.50104 27.8822 2.52641 27.8673 2.55163C27.4891 2.8567 27.1396 3.20086 26.8251 3.58463L26.9499 3.68686C25.6122 4.93621 23.5667 5.61529 21.3834 5.64223C19.9314 5.66015 18.4394 5.38859 17.0842 4.81709C21.707 2.32546 27.1695 0.843443 33.0341 0.739885ZM77.2058 18.1003C75.9389 18.6027 74.5809 18.8529 73.2482 18.8496C70.7083 18.8434 68.2312 17.9154 66.6429 16.0189C64.8255 14.2791 62.3366 13.3805 59.9268 13.368C57.5904 13.3558 55.3529 14.1757 53.8771 15.8373L53.9012 15.8621C51.9779 17.7259 49.3183 18.6596 46.7518 18.6533C44.212 18.647 41.7349 17.7191 40.1466 15.8226C38.3292 14.0828 35.8403 13.1842 33.4305 13.1716C31.5151 13.1617 29.6663 13.7109 28.2491 14.8245C26.947 16.9481 24.2236 18.0447 21.3895 18.0796C18.4766 18.1156 15.3683 17.0341 13.4209 14.6987C11.9088 13.269 10.0269 12.4419 8.10281 12.1953C5.26821 15.7276 3.43579 19.8781 2.94958 24.3568C6.44554 22.8367 10.863 23.4601 13.8523 26.3569L13.8454 26.364C15.6775 28.5248 18.6037 29.5514 21.3834 29.5171C23.5667 29.4902 25.6122 28.8111 26.9499 27.5617L26.8251 27.4595C27.1396 27.0757 27.4891 26.7316 27.8673 26.4265C27.8822 26.4013 27.8968 26.3759 27.9112 26.3504L27.9415 26.3675C29.461 25.1739 31.4269 24.5987 33.4331 24.6091C35.9539 24.6222 38.5642 25.559 40.4814 27.3884L40.4853 27.3852L40.5129 27.4186L40.5334 27.4384L40.5313 27.4406C42.0046 29.1985 44.3263 30.0848 46.7531 30.0907C49.1023 30.0965 51.5232 29.2764 53.3221 27.6564L53.3214 27.6559C54.9077 25.7201 57.3863 24.7922 59.9294 24.8054C62.4502 24.8185 65.0605 25.7553 66.9777 27.5848L66.9816 27.5815L67.0092 27.6149L67.0298 27.6348L67.0276 27.637C68.5009 29.3949 70.8226 30.2811 73.2494 30.2871C75.5128 30.2927 77.8429 29.5316 79.619 28.027C79.7236 27.9291 79.8304 27.8341 79.9392 27.742C79.9763 27.7073 80.0131 27.6722 80.0496 27.6369L80.0567 27.6442C83.6902 24.6733 89.4402 24.8327 93.0767 28.3568L93.0698 28.3639C93.5088 28.8817 94.0106 29.3343 94.5582 29.7228C93.0673 25.3049 87.8162 22.041 81.5671 22.041C80.958 22.041 80.3584 22.072 79.7708 22.1321C79.0879 20.6983 78.2246 19.3471 77.2058 18.1003ZM94.7697 30.4622C93.9758 29.9731 93.2539 29.3658 92.6453 28.636C89.1473 25.3286 83.6696 25.2457 80.2709 28.1163C80.1665 28.2137 80.06 28.3085 79.9516 28.4006C79.9099 28.4397 79.8685 28.4793 79.8275 28.5193L79.8193 28.5109C77.9604 30.0316 75.5662 30.7928 73.2482 30.7871C70.7083 30.7808 68.2312 29.8528 66.6429 27.9564C64.8255 26.2165 62.3366 25.318 59.9268 25.3054C57.5904 25.2933 55.3529 26.1132 53.8771 27.7747L53.9012 27.7996C51.9779 29.6634 49.3183 30.597 46.7518 30.5907C44.212 30.5845 41.7349 29.6565 40.1466 27.7601C38.3292 26.0202 35.8403 25.1216 33.4305 25.1091C31.5151 25.0991 29.6663 25.6483 28.2491 26.7619C26.947 28.8855 24.2236 29.9821 21.3895 30.0171C18.4766 30.053 15.3683 28.9715 13.4209 26.6361C10.5042 23.8784 6.21135 23.3625 2.89479 24.9311C2.8451 25.5349 2.81984 26.1443 2.81984 26.7588C2.81984 29.2857 3.24709 31.7285 4.04401 34.0387C7.33059 33.0668 11.1674 33.8346 13.8523 36.4364L13.8454 36.4435C15.6775 38.6043 18.6037 39.6309 21.3834 39.5966C23.5667 39.5697 25.6123 38.8906 26.9498 37.6412L26.8251 37.539C27.1396 37.1552 27.4891 36.8111 27.8673 36.506C27.8822 36.4808 27.8968 36.4554 27.9112 36.4299L27.9415 36.447C29.461 35.2534 31.4269 34.6782 33.4331 34.6886C35.9539 34.7017 38.5642 35.6385 40.4814 37.4679L40.4853 37.4647L40.5129 37.4981L40.5334 37.5179L40.5313 37.5201C42.0046 39.278 44.3263 40.1643 46.7531 40.1702C49.1023 40.176 51.5232 39.3559 53.3221 37.7359L53.3214 37.7354C54.9077 35.7996 57.3863 34.8717 59.9294 34.8849C62.4502 34.898 65.0605 35.8348 66.9777 37.6642L66.9816 37.661L67.0092 37.6944L67.0297 37.7143L67.0276 37.7165C68.5009 39.4744 70.8226 40.3606 73.2494 40.3666C75.5128 40.3722 77.8429 39.6111 79.619 38.1065C79.7236 38.0086 79.8304 37.9136 79.9392 37.8214C79.9763 37.7868 80.0131 37.7517 80.0496 37.7164L80.0567 37.7237C83.5539 34.8642 89.0119 34.9047 92.6589 38.054C94.125 36.4115 94.9821 34.4264 94.9821 32.2884C94.9821 31.6651 94.9093 31.0548 94.7697 30.4622ZM28.2491 36.8414C26.947 38.965 24.2236 40.0616 21.3895 40.0966C18.4766 40.1325 15.3683 39.051 13.4209 36.7156C10.8779 34.3112 7.28875 33.611 4.21265 34.5107C5.06557 36.818 6.28919 38.9874 7.82475 40.9696C5.59923 42.5398 3.81502 44.4263 2.61626 46.5266C6.16083 44.816 10.7671 45.3841 13.8523 48.3739L13.8454 48.381C15.6775 50.5418 18.6037 51.5684 21.3834 51.534C23.5667 51.5071 25.6123 50.828 26.9499 49.5787L26.8251 49.4764C27.1396 49.0927 27.4891 48.7485 27.8673 48.4434C27.8822 48.4182 27.8968 48.3929 27.9112 48.3673L27.9415 48.3844C29.461 47.1908 31.4269 46.6156 33.4331 46.626C35.9539 46.6391 38.5642 47.5759 40.4814 49.4053L40.4853 49.4021L40.5129 49.4355L40.5334 49.4554L40.5313 49.4576C42.0046 51.2155 44.3263 52.1017 46.7531 52.1077C49.1023 52.1134 51.5232 51.2934 53.3221 49.6734L53.3214 49.6728C54.9077 47.7371 57.3863 46.8092 59.9294 46.8224C62.4502 46.8355 65.0605 47.7722 66.9777 49.6017L66.9816 49.5985L67.0092 49.6318L67.0297 49.6517L67.0276 49.6539C68.5009 51.4118 70.8226 52.298 73.2494 52.304C75.5128 52.3096 77.8429 51.5485 79.619 50.044C79.7236 49.9461 79.8304 49.851 79.9392 49.7589C79.9763 49.7242 80.0131 49.6892 80.0496 49.6538L80.0567 49.6611C83.6901 46.6902 89.4402 46.8497 93.0767 50.3737L93.0698 50.3809C93.8974 51.3569 94.9482 52.1015 96.1079 52.6215C96.2187 51.9332 96.2758 51.2322 96.2758 50.521C96.2758 46.341 94.3049 42.5127 91.0343 39.5487C91.4966 39.1969 91.9256 38.8195 92.3171 38.4195C88.8124 35.4058 83.5651 35.4135 80.2709 38.1958C80.1665 38.2932 80.06 38.388 79.9516 38.4801C79.9099 38.5192 79.8685 38.5588 79.8275 38.5988L79.8193 38.5904C77.9604 40.1111 75.5662 40.8723 73.2482 40.8666C70.7083 40.8603 68.2312 39.9323 66.6429 38.0359C64.8255 36.296 62.3366 35.3975 59.9268 35.3849C57.5903 35.3728 55.3529 36.1927 53.8771 37.8542L53.9012 37.8791C51.9779 39.7429 49.3183 40.6765 46.7518 40.6702C44.212 40.664 41.7349 39.736 40.1466 37.8396C38.3292 36.0997 35.8403 35.2011 33.4305 35.1886C31.5151 35.1786 29.6663 35.7278 28.2491 36.8414ZM28.2491 48.7789C26.947 50.9024 24.2236 51.999 21.3895 52.034C18.4766 52.07 15.3683 50.9885 13.4209 48.653C10.2952 45.6977 5.589 45.317 2.19768 47.3174C1.36113 49.0294 0.906542 50.8686 0.906542 52.7834C0.906542 54.825 1.42334 56.7808 2.36893 58.588C5.94417 56.7282 10.6948 57.2515 13.8523 60.3113L13.8454 60.3184C15.6775 62.4792 18.6037 63.5058 21.3834 63.4715C23.5667 63.4445 25.6123 62.7655 26.9498 61.5161L26.8251 61.4139C27.1396 61.0301 27.4891 60.686 27.8673 60.3809C27.8822 60.3557 27.8968 60.3303 27.9112 60.3048L27.9415 60.3219C29.461 59.1282 31.4269 58.553 33.4331 58.5635C35.9539 58.5766 38.5642 59.5133 40.4814 61.3428L40.4853 61.3396L40.5129 61.373L40.5334 61.3928L40.5313 61.395C42.0046 63.1529 44.3263 64.0391 46.7531 64.0451C49.1023 64.0509 51.5232 63.2308 53.3221 61.6108L53.3214 61.6102C54.9077 59.6745 57.3863 58.7466 59.9294 58.7598C62.4502 58.7729 65.0605 59.7097 66.9777 61.5391L66.9816 61.5359L67.0092 61.5693L67.0297 61.5891L67.0276 61.5914C68.5009 63.3493 70.8226 64.2355 73.2494 64.2415C75.5128 64.247 77.8429 63.4859 79.619 61.9814C79.7236 61.8835 79.8304 61.7885 79.9392 61.6963C79.9763 61.6617 80.0131 61.6266 80.0496 61.5912L80.0567 61.5986C83.1979 59.0301 87.9212 58.8013 91.493 61.0637C93.8214 58.8093 95.42 56.0946 96.0164 53.1276C94.7303 52.5698 93.5598 51.7496 92.6453 50.6529C89.1473 47.3455 83.6696 47.2627 80.2709 50.1333C80.1665 50.2307 80.06 50.3254 79.9516 50.4175C79.9287 50.439 79.9059 50.4606 79.8832 50.4824C79.8646 50.5003 79.846 50.5182 79.8275 50.5363L79.8193 50.5278C77.9604 52.0486 75.5662 52.8097 73.2482 52.804C70.7083 52.7978 68.2312 51.8698 66.6429 49.9733C64.8255 48.2335 62.3366 47.3349 59.9268 47.3224C57.5903 47.3102 55.3529 48.1301 53.8771 49.7917L53.9012 49.8165C51.9779 51.6803 49.3183 52.614 46.7518 52.6077C44.212 52.6014 41.7349 51.6734 40.1466 49.777C38.3292 48.0371 35.8403 47.1385 33.4305 47.126C31.5151 47.1161 29.6663 47.6652 28.2491 48.7789ZM28.2491 60.7163C26.947 62.8399 24.2236 63.9365 21.3895 63.9714C18.4766 64.0074 15.3683 62.9259 13.4209 60.5905C10.4197 57.7528 5.96125 57.2888 2.60883 59.0272C6.07843 65.1208 14.475 69.4189 24.2821 69.4189C31.0062 69.4189 37.0672 67.3984 41.3317 64.164C44.5122 67.2063 48.94 69.0932 53.8369 69.0932C57.744 69.0932 61.3526 67.892 64.2671 65.861C67.202 66.9469 70.4957 67.5557 73.9755 67.5557C80.8658 67.5557 87.0261 65.1687 91.1168 61.4181C87.6943 59.3152 83.2069 59.5909 80.2709 62.0707C80.1665 62.1681 80.06 62.2628 79.9516 62.3549C79.9099 62.3941 79.8685 62.4336 79.8275 62.4737L79.8193 62.4652C77.9604 63.986 75.5662 64.7472 73.2482 64.7415C70.7083 64.7352 68.2312 63.8072 66.6429 61.9107C64.8255 60.1709 62.3366 59.2723 59.9268 59.2598C57.5903 59.2477 55.3529 60.0675 53.8771 61.7291L53.9012 61.754C51.9779 63.6178 49.3183 64.5514 46.7518 64.5451C44.212 64.5388 41.7349 63.6109 40.1466 61.7145C38.3292 59.9746 35.8403 59.076 33.4305 59.0634C31.5151 59.0535 29.6663 59.6027 28.2491 60.7163Z" fill="url(#paint2_linear_66_1274)"/>
<path d="M8.47351 11.7437L8.24374 11.5508L7.90309 11.9566L8.42633 12.0399L8.47351 11.7437ZM16.5348 5.12017L16.6618 4.84835L16.5219 4.783L16.3874 4.85893L16.5348 5.12017ZM13.8523 14.4195L14.0678 14.6281L14.2764 14.4127L14.061 14.204L13.8523 14.4195ZM13.8454 14.4266L13.6298 14.2179L13.4407 14.4133L13.6165 14.6206L13.8454 14.4266ZM21.3834 17.5797L21.3797 17.2797L21.3797 17.2797L21.3834 17.5797ZM26.9499 15.6243L27.1546 15.8435L27.4052 15.6095L27.14 15.3923L26.9499 15.6243ZM26.8251 15.5221L26.593 15.3319L26.4029 15.564L26.6349 15.7541L26.8251 15.5221ZM27.8673 14.4891L28.0557 14.7226L28.0982 14.6883L28.1258 14.6413L27.8673 14.4891ZM27.9112 14.413L28.0587 14.1517L27.7974 14.0042L27.6499 14.2655L27.9112 14.413ZM27.9415 14.43L27.794 14.6913L27.9689 14.79L28.1268 14.666L27.9415 14.43ZM33.4331 12.6716L33.4347 12.3716L33.4347 12.3716L33.4331 12.6716ZM40.4814 15.451L40.2743 15.668L40.4664 15.8513L40.6716 15.6829L40.4814 15.451ZM40.4853 15.4478L40.7167 15.2568L40.5264 15.0261L40.2951 15.2158L40.4853 15.4478ZM40.5129 15.4812L40.2815 15.6721L40.2923 15.6852L40.3044 15.6969L40.5129 15.4812ZM40.5334 15.501L40.749 15.7096L40.9578 15.4939L40.7419 15.2853L40.5334 15.501ZM40.5313 15.5032L40.3157 15.2945L40.1277 15.4887L40.3014 15.6959L40.5313 15.5032ZM46.7531 18.1533L46.7523 18.4533L46.7523 18.4533L46.7531 18.1533ZM53.3221 15.719L53.5229 15.9419L53.782 15.7086L53.5126 15.4872L53.3221 15.719ZM53.3214 15.7184L53.0894 15.5283L52.8995 15.76L53.1309 15.9502L53.3214 15.7184ZM59.9294 12.868L59.931 12.568L59.931 12.568L59.9294 12.868ZM66.9777 15.6473L66.7706 15.8644L66.963 16.0479L67.1683 15.879L66.9777 15.6473ZM66.9816 15.6441L67.213 15.4531L67.0224 15.2222L66.7911 15.4124L66.9816 15.6441ZM67.0092 15.6775L66.7778 15.8684L66.7886 15.8815L66.8008 15.8932L67.0092 15.6775ZM67.0298 15.6973L67.2448 15.9065L67.4547 15.6907L67.2382 15.4815L67.0298 15.6973ZM67.0276 15.6995L66.8125 15.4904L66.6237 15.6846L66.7977 15.8923L67.0276 15.6995ZM73.2494 18.3496L73.2486 18.6496L73.2486 18.6496L73.2494 18.3496ZM76.8664 17.6955L76.9723 17.9762L77.3734 17.8249L77.0939 17.4999L76.8664 17.6955ZM56.8686 9.56383L56.6612 9.78058L56.7544 9.86981L56.8833 9.86347L56.8686 9.56383ZM51.6066 5.56012L51.7613 5.30304L51.6183 5.21702L51.4698 5.29316L51.6066 5.56012ZM46.7518 6.71585L46.7526 6.41585L46.7526 6.41585L46.7518 6.71585ZM40.1466 3.8852L40.3766 3.69258L40.366 3.67992L40.3541 3.6685L40.1466 3.8852ZM33.4305 1.2342L33.4289 1.5342L33.4289 1.5342L33.4305 1.2342ZM28.2491 2.88707L28.0637 2.65118L28.0214 2.68441L27.9933 2.73025L28.2491 2.88707ZM21.3895 6.1422L21.3932 6.44217L21.3932 6.44217L21.3895 6.1422ZM51.091 5.25656L51.2189 5.52792L51.7381 5.28314L51.2407 4.9966L51.091 5.25656ZM33.4878 0.734635L33.4861 0.434639L33.4846 1.03462L33.4878 0.734635ZM40.4814 3.51353L40.2743 3.73057L40.4664 3.91388L40.6717 3.74546L40.4814 3.51353ZM40.4853 3.51031L40.7167 3.31936L40.5263 3.08865L40.2951 3.27838L40.4853 3.51031ZM40.5129 3.54372L40.2815 3.73468L40.2923 3.74771L40.3044 3.75946L40.5129 3.54372ZM40.5334 3.56355L40.749 3.77216L40.9578 3.55641L40.7419 3.34781L40.5334 3.56355ZM40.5313 3.56575L40.3157 3.35714L40.1278 3.55135L40.3014 3.75846L40.5313 3.56575ZM46.7531 6.21585L46.7538 5.91585L46.7538 5.91585L46.7531 6.21585ZM27.9415 2.4926L27.794 2.75387L27.9689 2.85255L28.1268 2.72852L27.9415 2.4926ZM33.0341 0.739885L33.0442 1.03971L33.0288 0.439932L33.0341 0.739885ZM27.9112 2.47552L28.0587 2.21426L27.7974 2.0668L27.6499 2.3281L27.9112 2.47552ZM27.8673 2.55163L28.0557 2.78513L28.0982 2.75088L28.1258 2.70386L27.8673 2.55163ZM26.8251 3.58463L26.593 3.39447L26.4029 3.62652L26.6349 3.81667L26.8251 3.58463ZM26.9499 3.68686L27.1546 3.9061L27.4052 3.6721L27.14 3.45482L26.9499 3.68686ZM21.3834 5.64223L21.3796 5.34226L21.3796 5.34226L21.3834 5.64223ZM17.0842 4.81709L16.9419 4.553L16.3906 4.85015L16.9677 5.09351L17.0842 4.81709ZM73.2482 18.8496L73.2489 18.5496L73.2489 18.5496L73.2482 18.8496ZM77.2058 18.1003L77.4381 17.9105L77.2992 17.7406L77.0952 17.8215L77.2058 18.1003ZM66.6429 16.0189L66.8729 15.8263L66.8623 15.8137L66.8504 15.8022L66.6429 16.0189ZM59.9268 13.368L59.9253 13.668L59.9253 13.668L59.9268 13.368ZM53.8771 15.8373L53.6528 15.6381L53.468 15.8462L53.6617 16.0461L53.8771 15.8373ZM53.9012 15.8621L54.11 16.0776L54.3254 15.8688L54.1166 15.6534L53.9012 15.8621ZM46.7518 18.6533L46.7511 18.9533L46.7511 18.9533L46.7518 18.6533ZM40.1466 15.8226L40.3766 15.63L40.366 15.6174L40.3541 15.6059L40.1466 15.8226ZM33.4305 13.1716L33.4289 13.4716L33.4289 13.4716L33.4305 13.1716ZM28.2491 14.8245L28.0637 14.5886L28.0214 14.6218L27.9933 14.6677L28.2491 14.8245ZM21.3895 18.0796L21.3858 17.7797L21.3858 17.7797L21.3895 18.0796ZM13.4209 14.6987L13.6513 14.5065L13.6399 14.4929L13.627 14.4807L13.4209 14.6987ZM8.10281 12.1953L8.14094 11.8977L7.9741 11.8764L7.86883 12.0075L8.10281 12.1953ZM2.94958 24.3568L2.65134 24.3244L2.5956 24.8379L3.06921 24.6319L2.94958 24.3568ZM13.8523 26.3569L14.0678 26.5656L14.2764 26.3502L14.061 26.1415L13.8523 26.3569ZM13.8454 26.364L13.6298 26.1554L13.4407 26.3507L13.6165 26.5581L13.8454 26.364ZM21.3834 29.5171L21.3797 29.2171L21.3797 29.2171L21.3834 29.5171ZM26.9499 27.5617L27.1546 27.781L27.4052 27.547L27.14 27.3297L26.9499 27.5617ZM26.8251 27.4595L26.593 27.2693L26.4029 27.5014L26.6349 27.6915L26.8251 27.4595ZM27.8673 26.4265L28.0557 26.66L28.0982 26.6258L28.1258 26.5787L27.8673 26.4265ZM27.9112 26.3504L28.0587 26.0891L27.7974 25.9417L27.6499 26.203L27.9112 26.3504ZM27.9415 26.3675L27.794 26.6287L27.9689 26.7274L28.1268 26.6034L27.9415 26.3675ZM33.4331 24.6091L33.4347 24.3091L33.4347 24.3091L33.4331 24.6091ZM40.4814 27.3884L40.2743 27.6054L40.4664 27.7887L40.6716 27.6204L40.4814 27.3884ZM40.4853 27.3852L40.7167 27.1942L40.5264 26.9636L40.2951 27.1532L40.4853 27.3852ZM40.5129 27.4186L40.2815 27.6096L40.2923 27.6226L40.3044 27.6343L40.5129 27.4186ZM40.5334 27.4384L40.749 27.6471L40.9578 27.4313L40.7419 27.2227L40.5334 27.4384ZM40.5313 27.4406L40.3157 27.232L40.1277 27.4262L40.3014 27.6333L40.5313 27.4406ZM46.7531 30.0907L46.7538 29.7907L46.7538 29.7907L46.7531 30.0907ZM53.3221 27.6564L53.5229 27.8794L53.782 27.646L53.5126 27.4247L53.3221 27.6564ZM53.3214 27.6559L53.0894 27.4657L52.8995 27.6974L53.1309 27.8876L53.3214 27.6559ZM59.9294 24.8054L59.9279 25.1054L59.9279 25.1054L59.9294 24.8054ZM66.9777 27.5848L66.7706 27.8018L66.963 27.9853L67.1683 27.8165L66.9777 27.5848ZM66.9816 27.5815L67.213 27.3906L67.0224 27.1596L66.7911 27.3498L66.9816 27.5815ZM67.0092 27.6149L66.7778 27.8058L66.7886 27.8189L66.8008 27.8307L67.0092 27.6149ZM67.0298 27.6348L67.2448 27.8439L67.4547 27.6281L67.2382 27.419L67.0298 27.6348ZM67.0276 27.637L66.8125 27.4278L66.6237 27.6221L66.7977 27.8297L67.0276 27.637ZM73.2494 30.2871L73.2486 30.5871L73.2486 30.5871L73.2494 30.2871ZM79.619 28.027L79.8129 28.2559L79.8185 28.2512L79.8239 28.2461L79.619 28.027ZM79.9392 27.742L80.1331 27.9709L80.1388 27.9661L80.1442 27.961L79.9392 27.742ZM80.0496 27.6369L80.2649 27.428L80.0561 27.2127L79.8408 27.4215L80.0496 27.6369ZM80.0567 27.6442L79.8413 27.853L80.0332 28.0509L80.2466 27.8764L80.0567 27.6442ZM93.0767 28.3568L93.292 28.5657L93.5011 28.3503L93.2855 28.1414L93.0767 28.3568ZM93.0698 28.3639L92.8545 28.155L92.665 28.3503L92.841 28.5579L93.0698 28.3639ZM94.5582 29.7228L94.3846 29.9675L95.1377 30.5019L94.8425 29.6269L94.5582 29.7228ZM79.7708 22.1321L79.4999 22.2611L79.5909 22.452L79.8013 22.4305L79.7708 22.1321ZM92.6453 28.636L92.8757 28.4438L92.8643 28.4302L92.8514 28.418L92.6453 28.636ZM94.7697 30.4622L95.0617 30.3934L95.0331 30.2721L94.9271 30.2068L94.7697 30.4622ZM80.2709 28.1163L80.0773 27.8871L80.0717 27.8919L80.0663 27.8969L80.2709 28.1163ZM79.9516 28.4006L79.7574 28.1719L79.7517 28.1767L79.7463 28.1818L79.9516 28.4006ZM79.8275 28.5193L79.613 28.729L79.8227 28.9437L80.0373 28.7338L79.8275 28.5193ZM79.8193 28.5109L80.0338 28.3012L79.8419 28.1048L79.6293 28.2787L79.8193 28.5109ZM73.2482 30.7871L73.2489 30.4871L73.2489 30.4871L73.2482 30.7871ZM66.6429 27.9564L66.8729 27.7638L66.8623 27.7511L66.8504 27.7397L66.6429 27.9564ZM59.9268 25.3054L59.9253 25.6054L59.9253 25.6054L59.9268 25.3054ZM53.8771 27.7747L53.6528 27.5755L53.468 27.7836L53.6617 27.9835L53.8771 27.7747ZM53.9012 27.7996L54.11 28.015L54.3254 27.8062L54.1166 27.5908L53.9012 27.7996ZM46.7518 30.5907L46.7511 30.8907L46.7511 30.8907L46.7518 30.5907ZM40.1466 27.7601L40.3766 27.5675L40.366 27.5548L40.3541 27.5434L40.1466 27.7601ZM33.4305 25.1091L33.4289 25.4091L33.4289 25.4091L33.4305 25.1091ZM28.2491 26.7619L28.0637 26.5261L28.0214 26.5593L27.9933 26.6051L28.2491 26.7619ZM21.3895 30.0171L21.3858 29.7171L21.3858 29.7171L21.3895 30.0171ZM13.4209 26.6361L13.6513 26.444L13.6399 26.4303L13.627 26.4181L13.4209 26.6361ZM2.89479 24.9311L2.76652 24.6599L2.61 24.734L2.5958 24.9065L2.89479 24.9311ZM4.04401 34.0387L3.76041 34.1365L3.85397 34.4077L4.12908 34.3264L4.04401 34.0387ZM13.8523 36.4364L14.0677 36.6452L14.2765 36.4297L14.061 36.221L13.8523 36.4364ZM13.8454 36.4435L13.6299 36.2348L13.4407 36.4301L13.6165 36.6376L13.8454 36.4435ZM21.3834 39.5966L21.3871 39.8966L21.3871 39.8966L21.3834 39.5966ZM26.9498 37.6412L27.1546 37.8605L27.4051 37.6265L27.14 37.4092L26.9498 37.6412ZM26.8251 37.539L26.593 37.3488L26.4029 37.5809L26.6349 37.771L26.8251 37.539ZM27.8673 36.506L28.0557 36.7395L28.0981 36.7053L28.1258 36.6582L27.8673 36.506ZM27.9112 36.4299L28.0587 36.1686L27.7974 36.0212L27.6499 36.2825L27.9112 36.4299ZM27.9415 36.447L27.794 36.7082L27.9689 36.8069L28.1268 36.6829L27.9415 36.447ZM33.4331 34.6886L33.4315 34.9886L33.4315 34.9886L33.4331 34.6886ZM40.4814 37.4679L40.2743 37.6849L40.4663 37.8681L40.6716 37.7L40.4814 37.4679ZM40.4853 37.4647L40.7168 37.2738L40.5265 37.0431L40.2952 37.2326L40.4853 37.4647ZM40.5129 37.4981L40.2815 37.689L40.2923 37.7021L40.3045 37.7139L40.5129 37.4981ZM40.5334 37.5179L40.7489 37.7267L40.958 37.5109L40.7418 37.3021L40.5334 37.5179ZM40.5313 37.5201L40.3158 37.3114L40.1277 37.5056L40.3014 37.7128L40.5313 37.5201ZM46.7531 40.1702L46.7538 39.8702L46.7538 39.8702L46.7531 40.1702ZM53.3221 37.7359L53.5229 37.9589L53.7824 37.7252L53.5122 37.5039L53.3221 37.7359ZM53.3214 37.7354L53.0894 37.5452L52.8992 37.7773L53.1313 37.9674L53.3214 37.7354ZM59.9294 34.8849L59.9279 35.1849L59.9279 35.1849L59.9294 34.8849ZM66.9777 37.6642L66.7706 37.8813L66.9628 38.0646L67.168 37.8962L66.9777 37.6642ZM66.9816 37.661L67.213 37.4701L67.0226 37.2393L66.7913 37.4291L66.9816 37.661ZM67.0092 37.6944L66.7778 37.8853L66.7886 37.8984L66.8007 37.9102L67.0092 37.6944ZM67.0297 37.7143L67.2454 37.9228L67.4541 37.7071L67.2382 37.4985L67.0297 37.7143ZM67.0276 37.7165L66.812 37.5079L66.6241 37.7021L66.7977 37.9092L67.0276 37.7165ZM73.2494 40.3666L73.2501 40.0666L73.2501 40.0666L73.2494 40.3666ZM79.619 38.1065L79.8129 38.3354L79.8185 38.3307L79.8239 38.3256L79.619 38.1065ZM79.9392 37.8214L80.1331 38.0504L80.1388 38.0456L80.1442 38.0405L79.9392 37.8214ZM80.0496 37.7164L80.2649 37.5075L80.0562 37.2922L79.8408 37.5009L80.0496 37.7164ZM80.0567 37.7237L79.8413 37.9325L80.0332 38.1304L80.2466 37.9559L80.0567 37.7237ZM92.6589 38.054L92.4628 38.2811L92.6862 38.474L92.8827 38.2538L92.6589 38.054ZM28.2491 36.8414L28.0637 36.6056L28.0214 36.6388L27.9933 36.6846L28.2491 36.8414ZM21.3895 40.0966L21.3858 39.7966L21.3858 39.7966L21.3895 40.0966ZM13.4209 36.7156L13.6513 36.5235L13.6399 36.5098L13.627 36.4976L13.4209 36.7156ZM4.21265 34.5107L4.12843 34.2228L3.81974 34.313L3.93126 34.6147L4.21265 34.5107ZM7.82475 40.9696L7.99771 41.2147L8.25403 41.0338L8.06191 40.7858L7.82475 40.9696ZM2.61626 46.5266L2.35572 46.3779L1.87711 47.2164L2.74665 46.7968L2.61626 46.5266ZM13.8523 48.3739L14.0677 48.5827L14.2765 48.3672L14.061 48.1584L13.8523 48.3739ZM13.8454 48.381L13.63 48.1722L13.4406 48.3675L13.6165 48.575L13.8454 48.381ZM21.3834 51.534L21.3871 51.834L21.3871 51.834L21.3834 51.534ZM26.9499 49.5787L27.1546 49.7979L27.4051 49.5639L27.14 49.3466L26.9499 49.5787ZM26.8251 49.4764L26.593 49.2863L26.4029 49.5183L26.6349 49.7085L26.8251 49.4764ZM27.8673 48.4434L28.0557 48.6769L28.0981 48.6427L28.1258 48.5957L27.8673 48.4434ZM27.9112 48.3673L28.0586 48.1061L27.7974 47.9586L27.6499 48.2199L27.9112 48.3673ZM27.9415 48.3844L27.794 48.6457L27.9689 48.7444L28.1268 48.6203L27.9415 48.3844ZM33.4331 46.626L33.4315 46.926L33.4315 46.926L33.4331 46.626ZM40.4814 49.4053L40.2743 49.6224L40.4662 49.8055L40.6714 49.6375L40.4814 49.4053ZM40.4853 49.4021L40.7168 49.2112L40.5266 48.9807L40.2953 49.17L40.4853 49.4021ZM40.5129 49.4355L40.2815 49.6265L40.2923 49.6395L40.3045 49.6513L40.5129 49.4355ZM40.5334 49.4554L40.7489 49.6641L40.958 49.4483L40.7418 49.2396L40.5334 49.4554ZM40.5313 49.4576L40.3158 49.2488L40.1277 49.443L40.3014 49.6503L40.5313 49.4576ZM46.7531 52.1077L46.7538 51.8077L46.7538 51.8077L46.7531 52.1077ZM53.3221 49.6734L53.5229 49.8963L53.7824 49.6626L53.5122 49.4413L53.3221 49.6734ZM53.3214 49.6728L53.0894 49.4826L52.8992 49.7147L53.1313 49.9049L53.3214 49.6728ZM59.9294 46.8224L59.9279 47.1224L59.9279 47.1224L59.9294 46.8224ZM66.9777 49.6017L66.7706 49.8187L66.9628 50.0021L67.168 49.8336L66.9777 49.6017ZM66.9816 49.5985L67.213 49.4075L67.0226 49.1768L66.7913 49.3666L66.9816 49.5985ZM67.0092 49.6318L66.7778 49.8228L66.7886 49.8358L66.8007 49.8476L67.0092 49.6318ZM67.0297 49.6517L67.2452 49.8605L67.4543 49.6447L67.2382 49.436L67.0297 49.6517ZM67.0276 49.6539L66.8122 49.4452L66.624 49.6394L66.7977 49.8466L67.0276 49.6539ZM73.2494 52.304L73.2501 52.004L73.2501 52.004L73.2494 52.304ZM79.619 50.044L79.8129 50.2729L79.8185 50.2681L79.8239 50.2631L79.619 50.044ZM79.9392 49.7589L80.1331 49.9878L80.1388 49.983L80.1442 49.978L79.9392 49.7589ZM80.0496 49.6538L80.2649 49.445L80.0562 49.2297L79.8408 49.4384L80.0496 49.6538ZM80.0567 49.6611L79.8413 49.87L80.0332 50.0678L80.2466 49.8934L80.0567 49.6611ZM93.0767 50.3737L93.292 50.5827L93.5011 50.3672L93.2855 50.1583L93.0767 50.3737ZM93.0698 50.3809L92.8545 50.1719L92.6649 50.3673L92.841 50.5749L93.0698 50.3809ZM96.1079 52.6215L95.9852 52.8952L96.342 53.0552L96.4041 52.6692L96.1079 52.6215ZM91.0343 39.5487L90.8526 39.31L90.5653 39.5286L90.8329 39.771L91.0343 39.5487ZM92.3171 38.4195L92.5315 38.6294L92.7554 38.4007L92.5127 38.1921L92.3171 38.4195ZM80.2709 38.1958L80.0773 37.9666L80.0717 37.9714L80.0663 37.9765L80.2709 38.1958ZM79.9516 38.4801L79.7574 38.2514L79.7517 38.2562L79.7464 38.2612L79.9516 38.4801ZM79.8275 38.5988L79.6131 38.8086L79.8229 39.023L80.0373 38.8133L79.8275 38.5988ZM79.8193 38.5904L80.0337 38.3806L79.8417 38.1844L79.6293 38.3582L79.8193 38.5904ZM73.2482 40.8666L73.2474 41.1666L73.2474 41.1666L73.2482 40.8666ZM66.6429 38.0359L66.8729 37.8433L66.8623 37.8306L66.8504 37.8192L66.6429 38.0359ZM59.9268 35.3849L59.9253 35.6849L59.9253 35.6849L59.9268 35.3849ZM53.8771 37.8542L53.6528 37.655L53.468 37.8631L53.6617 38.063L53.8771 37.8542ZM53.9012 37.8791L54.11 38.0945L54.3254 37.8858L54.1167 37.6703L53.9012 37.8791ZM46.7518 40.6702L46.7511 40.9702L46.7511 40.9702L46.7518 40.6702ZM40.1466 37.8396L40.3766 37.647L40.366 37.6343L40.3541 37.6229L40.1466 37.8396ZM33.4305 35.1886L33.4289 35.4886L33.4289 35.4886L33.4305 35.1886ZM28.2491 48.7789L28.0637 48.543L28.0214 48.5762L27.9933 48.6221L28.2491 48.7789ZM21.3895 52.034L21.3858 51.734L21.3858 51.734L21.3895 52.034ZM13.4209 48.653L13.6513 48.4609L13.6399 48.4473L13.627 48.435L13.4209 48.653ZM2.19768 47.3174L2.04527 47.059L1.96768 47.1047L1.92814 47.1857L2.19768 47.3174ZM2.36893 58.588L2.10311 58.7271L2.24186 58.9922L2.50737 58.8541L2.36893 58.588ZM13.8523 60.3113L14.0677 60.5201L14.2765 60.3047L14.061 60.0959L13.8523 60.3113ZM13.8454 60.3184L13.63 60.1096L13.4406 60.3049L13.6165 60.5124L13.8454 60.3184ZM21.3834 63.4715L21.3871 63.7715L21.3871 63.7715L21.3834 63.4715ZM26.9498 61.5161L27.1546 61.7354L27.4052 61.5014L27.14 61.2841L26.9498 61.5161ZM26.8251 61.4139L26.593 61.2237L26.4029 61.4558L26.6349 61.6459L26.8251 61.4139ZM27.8673 60.3809L28.0557 60.6144L28.0981 60.5801L28.1258 60.5331L27.8673 60.3809ZM27.9112 60.3048L28.0586 60.0435L27.7974 59.8961L27.6499 60.1573L27.9112 60.3048ZM27.9415 60.3219L27.7941 60.5831L27.9689 60.6818L28.1268 60.5578L27.9415 60.3219ZM33.4331 58.5635L33.4315 58.8635L33.4315 58.8635L33.4331 58.5635ZM40.4814 61.3428L40.2743 61.5598L40.4663 61.743L40.6716 61.5748L40.4814 61.3428ZM40.4853 61.3396L40.7168 61.1486L40.5265 60.918L40.2952 61.1075L40.4853 61.3396ZM40.5129 61.373L40.2815 61.5639L40.2923 61.577L40.3045 61.5887L40.5129 61.373ZM40.5334 61.3928L40.7487 61.6017L40.9581 61.386L40.7419 61.177L40.5334 61.3928ZM40.5313 61.395L40.316 61.1861L40.1275 61.3803L40.3014 61.5877L40.5313 61.395ZM46.7531 64.0451L46.7523 64.3451L46.7523 64.3451L46.7531 64.0451ZM53.3221 61.6108L53.5229 61.8337L53.7824 61.6L53.5122 61.3787L53.3221 61.6108ZM53.3214 61.6102L53.0894 61.4201L52.8992 61.6522L53.1313 61.8423L53.3214 61.6102ZM59.9294 58.7598L59.9279 59.0598L59.9279 59.0598L59.9294 58.7598ZM66.9777 61.5391L66.7706 61.7562L66.9629 61.9396L67.1682 61.7709L66.9777 61.5391ZM66.9816 61.5359L67.213 61.345L67.0225 61.1141L66.7912 61.3041L66.9816 61.5359ZM67.0092 61.5693L66.7778 61.7602L66.7886 61.7733L66.8007 61.785L67.0092 61.5693ZM67.0297 61.5891L67.2452 61.7979L67.4543 61.5822L67.2382 61.3734L67.0297 61.5891ZM67.0276 61.5914L66.8122 61.3826L66.624 61.5768L66.7977 61.7841L67.0276 61.5914ZM73.2494 64.2415L73.2486 64.5415L73.2486 64.5415L73.2494 64.2415ZM79.619 61.9814L79.8129 62.2103L79.8185 62.2055L79.8239 62.2005L79.619 61.9814ZM79.9392 61.6963L80.1331 61.9252L80.1388 61.9205L80.1442 61.9154L79.9392 61.6963ZM80.0496 61.5912L80.2649 61.3824L80.0562 61.1671L79.8408 61.3758L80.0496 61.5912ZM80.0567 61.5986L79.8413 61.8074L80.0332 62.0053L80.2466 61.8308L80.0567 61.5986ZM91.493 61.0637L91.3325 61.3171L91.532 61.4435L91.7017 61.2792L91.493 61.0637ZM96.0164 53.1276L96.3105 53.1867L96.3583 52.9489L96.1357 52.8524L96.0164 53.1276ZM92.6453 50.6529L92.8757 50.4608L92.8643 50.4471L92.8514 50.4349L92.6453 50.6529ZM80.2709 50.1333L80.0773 49.9041L80.0717 49.9089L80.0663 49.9139L80.2709 50.1333ZM79.9516 50.4175L79.7574 50.1889L79.7517 50.1936L79.7463 50.1987L79.9516 50.4175ZM79.8832 50.4824L79.6755 50.2659L79.6755 50.2659L79.8832 50.4824ZM79.8275 50.5363L79.6131 50.7461L79.8229 50.9605L80.0373 50.7508L79.8275 50.5363ZM79.8193 50.5278L80.0337 50.318L79.8417 50.1218L79.6293 50.2956L79.8193 50.5278ZM73.2482 52.804L73.2474 53.104L73.2474 53.104L73.2482 52.804ZM66.6429 49.9733L66.8729 49.7807L66.8623 49.768L66.8504 49.7566L66.6429 49.9733ZM59.9268 47.3224L59.9253 47.6224L59.9253 47.6224L59.9268 47.3224ZM53.8771 49.7917L53.6528 49.5924L53.468 49.8006L53.6617 50.0004L53.8771 49.7917ZM53.9012 49.8165L54.11 50.032L54.3254 49.8232L54.1166 49.6077L53.9012 49.8165ZM46.7518 52.6077L46.7511 52.9077L46.7511 52.9077L46.7518 52.6077ZM40.1466 49.777L40.3766 49.5844L40.366 49.5717L40.3541 49.5603L40.1466 49.777ZM33.4305 47.126L33.4289 47.426L33.4289 47.426L33.4305 47.126ZM21.3895 63.9714L21.3858 63.6715L21.3858 63.6715L21.3895 63.9714ZM28.2491 60.7163L28.0637 60.4804L28.0214 60.5137L27.9933 60.5595L28.2491 60.7163ZM13.4209 60.5905L13.6513 60.3983L13.6399 60.3847L13.627 60.3725L13.4209 60.5905ZM2.60883 59.0272L2.47072 58.7609L2.19374 58.9045L2.34812 59.1756L2.60883 59.0272ZM41.3317 64.164L41.5391 63.9472L41.3542 63.7704L41.1504 63.9249L41.3317 64.164ZM64.2671 65.861L64.3712 65.5797L64.2242 65.5253L64.0956 65.6149L64.2671 65.861ZM91.1168 61.4181L91.3195 61.6393L91.6125 61.3706L91.2738 61.1625L91.1168 61.4181ZM80.2709 62.0707L80.0773 61.8415L80.0717 61.8463L80.0663 61.8513L80.2709 62.0707ZM79.9516 62.3549L79.7574 62.1263L79.7517 62.1311L79.7463 62.1361L79.9516 62.3549ZM79.8275 62.4737L79.6131 62.6835L79.8229 62.8979L80.0373 62.6882L79.8275 62.4737ZM79.8193 62.4652L80.0337 62.2554L79.8417 62.0593L79.6293 62.2331L79.8193 62.4652ZM73.2482 64.7415L73.2474 65.0415L73.2474 65.0415L73.2482 64.7415ZM66.6429 61.9107L66.8729 61.7181L66.8623 61.7055L66.8504 61.694L66.6429 61.9107ZM59.9268 59.2598L59.9284 58.9598L59.9284 58.9598L59.9268 59.2598ZM53.8771 61.7291L53.6528 61.5299L53.468 61.738L53.6617 61.9379L53.8771 61.7291ZM53.9012 61.754L54.11 61.9694L54.3254 61.7606L54.1167 61.5452L53.9012 61.754ZM46.7518 64.5451L46.7526 64.2451L46.7526 64.2451L46.7518 64.5451ZM40.1466 61.7145L40.3766 61.5218L40.366 61.5092L40.3541 61.4977L40.1466 61.7145ZM33.4305 59.0634L33.4321 58.7635L33.4321 58.7635L33.4305 59.0634ZM8.70329 11.9366C10.8619 9.36498 13.5685 7.13934 16.6823 5.38142L16.3874 4.85893C13.2148 6.65003 10.4514 8.92086 8.24374 11.5508L8.70329 11.9366ZM14.061 14.204C12.489 12.6807 10.5346 11.7682 8.5207 11.4474L8.42633 12.0399C10.3257 12.3424 12.1651 13.2023 13.6435 14.6349L14.061 14.204ZM14.0609 14.6353L14.0678 14.6281L13.6367 14.2108L13.6298 14.2179L14.0609 14.6353ZM21.3797 17.2797C18.6674 17.3132 15.8355 16.3099 14.0742 14.2326L13.6165 14.6206C15.5194 16.8648 18.5401 17.9148 21.3871 17.8796L21.3797 17.2797ZM26.7451 15.4051C25.4764 16.59 23.5104 17.2534 21.3797 17.2797L21.3871 17.8796C23.623 17.8521 25.7481 17.1573 27.1546 15.8435L26.7451 15.4051ZM26.6349 15.7541L26.7597 15.8563L27.14 15.3923L27.0152 15.29L26.6349 15.7541ZM27.679 14.2556C27.2852 14.5732 26.9209 14.9318 26.593 15.3319L27.0571 15.7122C27.3582 15.3448 27.6931 15.0151 28.0557 14.7226L27.679 14.2556ZM27.6499 14.2655C27.6365 14.2894 27.6228 14.3132 27.6088 14.3368L28.1258 14.6413C28.1416 14.6145 28.1572 14.5875 28.1725 14.5604L27.6499 14.2655ZM28.0889 14.1688L28.0587 14.1517L27.7638 14.6742L27.794 14.6913L28.0889 14.1688ZM33.4347 12.3716C31.3727 12.3609 29.3376 12.9519 27.7562 14.1941L28.1268 14.666C29.5843 13.521 31.4812 12.9615 33.4315 12.9716L33.4347 12.3716ZM40.6885 15.2339C38.7109 13.3468 36.0249 12.3851 33.4347 12.3716L33.4315 12.9716C35.8829 12.9844 38.4175 13.8962 40.2743 15.668L40.6885 15.2339ZM40.2951 15.2158L40.2912 15.219L40.6716 15.6829L40.6756 15.6797L40.2951 15.2158ZM40.7443 15.2902L40.7167 15.2568L40.254 15.6387L40.2815 15.6721L40.7443 15.2902ZM40.7419 15.2853L40.7214 15.2654L40.3044 15.6969L40.325 15.7167L40.7419 15.2853ZM40.7468 15.7119L40.749 15.7096L40.3179 15.2923L40.3157 15.2945L40.7468 15.7119ZM46.7538 17.8533C44.3945 17.8475 42.1655 16.986 40.7612 15.3105L40.3014 15.6959C41.8438 17.5362 44.258 18.4471 46.7523 18.4533L46.7538 17.8533ZM53.1214 15.4961C51.3834 17.0612 49.0365 17.8589 46.7538 17.8533L46.7523 18.4533C49.168 18.4592 51.6631 17.6168 53.5229 15.9419L53.1214 15.4961ZM53.1309 15.9502L53.1317 15.9508L53.5126 15.4872L53.5119 15.4866L53.1309 15.9502ZM59.931 12.568C57.3185 12.5544 54.7452 13.5077 53.0894 15.5283L53.5534 15.9086C55.0703 14.0576 57.4541 13.1551 59.9279 13.168L59.931 12.568ZM67.1848 15.4303C65.2073 13.5432 62.5212 12.5815 59.931 12.568L59.9279 13.168C62.3792 13.1807 64.9138 14.0925 66.7706 15.8644L67.1848 15.4303ZM66.7911 15.4124L66.7872 15.4156L67.1683 15.879L67.1722 15.8758L66.7911 15.4124ZM67.2406 15.4865L67.213 15.4531L66.7503 15.8351L66.7778 15.8684L67.2406 15.4865ZM67.2382 15.4815L67.2176 15.4617L66.8008 15.8932L66.8213 15.9131L67.2382 15.4815ZM67.2427 15.9087L67.2448 15.9065L66.8147 15.4882L66.8125 15.4904L67.2427 15.9087ZM73.2501 18.0496C70.8908 18.0438 68.6618 17.1823 67.2575 15.5068L66.7977 15.8923C68.3401 17.7326 70.7544 18.6435 73.2486 18.6496L73.2501 18.0496ZM76.7605 17.4149C75.6346 17.8397 74.4328 18.0526 73.2501 18.0496L73.2486 18.6496C74.5032 18.6527 75.7774 18.4271 76.9723 17.9762L76.7605 17.4149ZM58.1993 9.83116C65.7442 9.83116 72.4338 13.0018 76.639 17.8912L77.0939 17.4999C72.769 12.4715 65.9101 9.23116 58.1993 9.23116V9.83116ZM56.8833 9.86347C57.3188 9.84203 57.7576 9.83116 58.1993 9.83116V9.23116C57.7477 9.23116 57.2992 9.24227 56.8538 9.26419L56.8833 9.86347ZM51.452 5.81719C53.3649 6.96787 55.113 8.29904 56.6612 9.78058L57.076 9.34708C55.4946 7.83376 53.7109 6.47579 51.7613 5.30304L51.452 5.81719ZM46.7511 7.01585C48.4507 7.02003 50.1903 6.6234 51.7435 5.82708L51.4698 5.29316C50.0049 6.0442 48.3601 6.41981 46.7526 6.41585L46.7511 7.01585ZM39.9166 4.07782C41.574 6.05678 44.1438 7.00943 46.7511 7.01585L46.7526 6.41585C44.2801 6.40976 41.8958 5.50646 40.3766 3.69258L39.9166 4.07782ZM33.4289 1.5342C35.7691 1.54636 38.1822 2.41987 39.9392 4.10191L40.3541 3.6685C38.4762 1.87076 35.9114 0.947094 33.4321 0.934203L33.4289 1.5342ZM28.4344 3.12295C29.7898 2.05793 31.5695 1.52453 33.4289 1.5342L33.4321 0.934203C31.4607 0.923954 29.5428 1.48891 28.0637 2.65118L28.4344 3.12295ZM21.3932 6.44217C24.2858 6.40647 27.1292 5.28751 28.5048 3.04388L27.9933 2.73025C26.7649 4.73372 24.1615 5.80796 21.3858 5.84222L21.3932 6.44217ZM16.4079 5.39199C17.9714 6.12214 19.7149 6.46289 21.3932 6.44217L21.3858 5.84222C19.7907 5.86191 18.1373 5.53744 16.6618 4.84835L16.4079 5.39199ZM33.6933 1.03407C40.0949 1.03407 46.0337 2.68963 50.9412 5.51651L51.2407 4.9966C46.2403 2.11622 40.1979 0.43407 33.6933 0.43407V1.03407ZM33.4894 1.03463C33.5573 1.03426 33.6253 1.03407 33.6933 1.03407V0.43407C33.6242 0.43407 33.5551 0.43426 33.4861 0.434639L33.4894 1.03463ZM40.6885 3.29649C38.7252 1.42302 36.0636 0.461636 33.4909 0.434651L33.4846 1.03462C35.9195 1.06016 38.4309 1.97157 40.2743 3.73057L40.6885 3.29649ZM40.2951 3.27838L40.2911 3.2816L40.6717 3.74546L40.6756 3.74225L40.2951 3.27838ZM40.7443 3.35277L40.7167 3.31936L40.254 3.70126L40.2815 3.73468L40.7443 3.35277ZM40.7419 3.34781L40.7214 3.32798L40.3044 3.75946L40.325 3.77929L40.7419 3.34781ZM40.7469 3.77437L40.749 3.77216L40.3178 3.35494L40.3157 3.35714L40.7469 3.77437ZM46.7538 5.91585C44.3945 5.91004 42.1655 5.04854 40.7612 3.37305L40.3014 3.75846C41.8438 5.59877 44.258 6.50971 46.7523 6.51585L46.7538 5.91585ZM50.963 4.9852C49.6446 5.60671 48.1855 5.91938 46.7538 5.91585L46.7523 6.51585C48.2704 6.51959 49.8177 6.18844 51.2189 5.52792L50.963 4.9852ZM28.1268 2.72852C29.4875 1.65966 31.231 1.10094 33.0442 1.03971L33.024 0.440056C31.1046 0.504861 29.2326 1.09686 27.7562 2.25669L28.1268 2.72852ZM27.7638 2.73679L27.794 2.75387L28.0889 2.23134L28.0587 2.21426L27.7638 2.73679ZM28.1258 2.70386C28.1416 2.67708 28.1572 2.65011 28.1725 2.62295L27.6499 2.3281C27.6365 2.35197 27.6228 2.37574 27.6088 2.39941L28.1258 2.70386ZM27.0571 3.77478C27.3582 3.40736 27.6931 3.07765 28.0557 2.78513L27.679 2.31813C27.2852 2.63575 26.9209 2.99435 26.593 3.39447L27.0571 3.77478ZM27.14 3.45482L27.0152 3.35258L26.6349 3.81667L26.7597 3.91891L27.14 3.45482ZM21.3871 5.94221C23.623 5.91462 25.7481 5.21982 27.1546 3.9061L26.7451 3.46762C25.4764 4.65261 23.5104 5.31596 21.3796 5.34226L21.3871 5.94221ZM16.9677 5.09351C18.3632 5.68203 19.8964 5.96061 21.3871 5.94221L21.3796 5.34226C19.9664 5.3597 18.5156 5.09515 17.2008 4.54066L16.9677 5.09351ZM33.0288 0.439932C27.1171 0.54432 21.6075 2.03827 16.9419 4.553L17.2266 5.08117C21.8065 2.61266 27.2219 1.14256 33.0394 1.03984L33.0288 0.439932ZM73.2474 19.1496C74.6176 19.153 76.0134 18.8959 77.3164 18.3792L77.0952 17.8215C75.8644 18.3095 74.5443 18.5528 73.2489 18.5496L73.2474 19.1496ZM66.4129 16.2116C68.0703 18.1906 70.6401 19.1432 73.2474 19.1496L73.2489 18.5496C70.7764 18.5436 68.392 17.6402 66.8729 15.8263L66.4129 16.2116ZM59.9253 13.668C62.2654 13.6802 64.6784 14.5536 66.4354 16.2356L66.8504 15.8022C64.9725 14.0045 62.4077 13.0809 59.9284 13.068L59.9253 13.668ZM54.1014 16.0365C55.5082 14.4525 57.6559 13.6562 59.9253 13.668L59.9284 13.068C57.5249 13.0555 55.1975 13.8989 53.6528 15.6381L54.1014 16.0365ZM54.1166 15.6534L54.0926 15.6285L53.6617 16.0461L53.6858 16.0709L54.1166 15.6534ZM46.7511 18.9533C49.3866 18.9598 52.1243 18.0019 54.11 16.0776L53.6924 15.6467C51.8316 17.45 49.25 18.3594 46.7526 18.3533L46.7511 18.9533ZM39.9166 16.0153C41.574 17.9942 44.1438 18.9469 46.7511 18.9533L46.7526 18.3533C44.2801 18.3472 41.8958 17.4439 40.3766 15.63L39.9166 16.0153ZM33.4289 13.4716C35.7691 13.4838 38.1822 14.3573 39.9392 16.0393L40.3541 15.6059C38.4762 13.8082 35.9114 12.8845 33.4321 12.8716L33.4289 13.4716ZM28.4344 15.0604C29.7898 13.9954 31.5695 13.462 33.4289 13.4716L33.4321 12.8716C31.4607 12.8614 29.5428 13.4263 28.0637 14.5886L28.4344 15.0604ZM21.3932 18.3796C24.2858 18.3439 27.1292 17.2249 28.5048 14.9813L27.9933 14.6677C26.7649 16.6712 24.1615 17.7454 21.3858 17.7797L21.3932 18.3796ZM13.1905 14.8908C15.2089 17.3113 18.4127 18.4164 21.3932 18.3796L21.3858 17.7797C18.5405 17.8148 15.5278 16.7569 13.6513 14.5065L13.1905 14.8908ZM8.06468 12.4929C9.92959 12.7318 11.7516 13.5332 13.2147 14.9166L13.627 14.4807C12.066 13.0048 10.1241 12.1519 8.14094 11.8977L8.06468 12.4929ZM3.24783 24.3892C3.72732 19.9724 5.53468 15.8749 8.33678 12.3831L7.86883 12.0075C5.00175 15.5803 3.14427 19.7838 2.65134 24.3244L3.24783 24.3892ZM14.061 26.1415C10.981 23.1567 6.43284 22.5151 2.82996 24.0817L3.06921 24.6319C6.45824 23.1583 10.7449 23.7635 13.6435 26.5724L14.061 26.1415ZM14.0609 26.5727L14.0678 26.5656L13.6367 26.1482L13.6298 26.1554L14.0609 26.5727ZM21.3797 29.2171C18.6674 29.2506 15.8355 28.2474 14.0742 26.17L13.6165 26.5581C15.5194 28.8023 18.5401 29.8522 21.3871 29.8171L21.3797 29.2171ZM26.7451 27.3425C25.4764 28.5275 23.5104 29.1908 21.3797 29.2171L21.3871 29.8171C23.623 29.7895 25.7481 29.0947 27.1546 27.781L26.7451 27.3425ZM26.6349 27.6915L26.7597 27.7938L27.14 27.3297L27.0152 27.2275L26.6349 27.6915ZM27.679 26.193C27.2852 26.5106 26.9209 26.8692 26.593 27.2693L27.0571 27.6497C27.3582 27.2822 27.6931 26.9525 28.0557 26.66L27.679 26.193ZM27.6499 26.203C27.6365 26.2268 27.6228 26.2506 27.6088 26.2743L28.1258 26.5787C28.1416 26.552 28.1572 26.525 28.1725 26.4978L27.6499 26.203ZM28.0889 26.1062L28.0587 26.0891L27.7638 26.6117L27.794 26.6287L28.0889 26.1062ZM33.4347 24.3091C31.3727 24.2984 29.3376 24.8893 27.7562 26.1316L28.1268 26.6034C29.5843 25.4584 31.4812 24.8989 33.4315 24.9091L33.4347 24.3091ZM40.6885 27.1714C38.7109 25.2843 36.0249 24.3226 33.4347 24.3091L33.4315 24.9091C35.8829 24.9218 38.4175 25.8336 40.2743 27.6054L40.6885 27.1714ZM40.2951 27.1532L40.2912 27.1564L40.6716 27.6204L40.6756 27.6172L40.2951 27.1532ZM40.7443 27.2276L40.7167 27.1942L40.254 27.5761L40.2815 27.6096L40.7443 27.2276ZM40.7419 27.2227L40.7214 27.2029L40.3044 27.6343L40.325 27.6542L40.7419 27.2227ZM40.7468 27.6493L40.749 27.6471L40.3179 27.2298L40.3157 27.232L40.7468 27.6493ZM46.7538 29.7907C44.3945 29.7849 42.1655 28.9234 40.7612 27.2479L40.3014 27.6333C41.8438 29.4736 44.258 30.3846 46.7523 30.3907L46.7538 29.7907ZM53.1214 27.4335C51.3834 28.9987 49.0365 29.7963 46.7538 29.7907L46.7523 30.3907C49.168 30.3967 51.6631 29.5542 53.5229 27.8794L53.1214 27.4335ZM53.1309 27.8876L53.1317 27.8882L53.5126 27.4247L53.5119 27.4241L53.1309 27.8876ZM59.931 24.5054C57.3185 24.4919 54.7452 25.4452 53.0894 27.4657L53.5534 27.846C55.0703 25.9951 57.4541 25.0926 59.9279 25.1054L59.931 24.5054ZM67.1848 27.3677C65.2073 25.4806 62.5212 24.5189 59.931 24.5054L59.9279 25.1054C62.3792 25.1182 64.9138 26.03 66.7706 27.8018L67.1848 27.3677ZM66.7911 27.3498L66.7872 27.353L67.1683 27.8165L67.1722 27.8133L66.7911 27.3498ZM67.2406 27.4239L67.213 27.3906L66.7503 27.7725L66.7778 27.8058L67.2406 27.4239ZM67.2382 27.419L67.2176 27.3991L66.8008 27.8307L66.8213 27.8506L67.2382 27.419ZM67.2427 27.8461L67.2448 27.8439L66.8147 27.4256L66.8125 27.4278L67.2427 27.8461ZM73.2501 29.9871C70.8908 29.9813 68.6618 29.1198 67.2575 27.4443L66.7977 27.8297C68.3401 29.67 70.7544 30.5809 73.2486 30.5871L73.2501 29.9871ZM79.4251 27.7981C77.7084 29.2523 75.4492 29.9925 73.2501 29.9871L73.2486 30.5871C75.5764 30.5928 77.9773 29.8108 79.8129 28.2559L79.4251 27.7981ZM79.7453 27.513C79.6328 27.6084 79.5223 27.7066 79.4141 27.8079L79.8239 28.2461C79.925 28.1516 80.0281 28.0598 80.1331 27.9709L79.7453 27.513ZM79.8408 27.4215C79.8056 27.4556 79.7701 27.4894 79.7343 27.5229L80.1442 27.961C80.1825 27.9252 80.2206 27.8889 80.2584 27.8523L79.8408 27.4215ZM80.272 27.4353L80.2649 27.428L79.8342 27.8457L79.8413 27.853L80.272 27.4353ZM93.2855 28.1414C89.5412 24.5129 83.6199 24.3432 79.8668 27.4119L80.2466 27.8764C83.7604 25.0034 89.3391 25.1525 92.8679 28.5722L93.2855 28.1414ZM93.2851 28.5728L93.292 28.5657L92.8614 28.1479L92.8545 28.155L93.2851 28.5728ZM94.7318 29.4782C94.2034 29.1032 93.7204 28.6674 93.2986 28.1699L92.841 28.5579C93.2972 29.096 93.8179 29.5654 94.3846 29.9675L94.7318 29.4782ZM81.5671 22.341C87.7302 22.341 92.8364 25.559 94.274 29.8188L94.8425 29.6269C93.2982 25.0509 87.9021 21.741 81.5671 21.741V22.341ZM79.8013 22.4305C80.3787 22.3715 80.9682 22.341 81.5671 22.341V21.741C80.9478 21.741 80.338 21.7725 79.7403 21.8336L79.8013 22.4305ZM76.9735 18.2902C77.9776 19.519 78.8278 20.8499 79.4999 22.2611L80.0416 22.0031C79.348 20.5467 78.4716 19.1752 77.4381 17.9105L76.9735 18.2902ZM92.4149 28.8281C93.0459 29.5848 93.7931 30.213 94.6124 30.7176L94.9271 30.2068C94.1585 29.7333 93.4618 29.1467 92.8757 28.4438L92.4149 28.8281ZM80.4645 28.3455C83.7442 25.5754 89.0499 25.6494 92.4392 28.854L92.8514 28.418C89.2446 25.0078 83.595 24.916 80.0773 27.8871L80.4645 28.3455ZM80.1458 28.6292C80.2577 28.5341 80.3677 28.4363 80.4755 28.3357L80.0663 27.8969C79.9653 27.9911 79.8623 28.0828 79.7574 28.1719L80.1458 28.6292ZM80.0373 28.7338C80.0768 28.6952 80.1166 28.6571 80.1568 28.6193L79.7463 28.1818C79.7031 28.2223 79.6603 28.2633 79.6178 28.3049L80.0373 28.7338ZM79.6047 28.7206L79.613 28.729L80.0421 28.3097L80.0338 28.3012L79.6047 28.7206ZM73.2474 31.0871C75.6285 31.0929 78.0917 30.3118 80.0092 28.7431L79.6293 28.2787C77.829 29.7515 75.5039 30.4926 73.2489 30.4871L73.2474 31.0871ZM66.4129 28.149C68.0703 30.128 70.6401 31.0807 73.2474 31.0871L73.2489 30.4871C70.7764 30.481 68.392 29.5777 66.8729 27.7638L66.4129 28.149ZM59.9253 25.6054C62.2654 25.6176 64.6784 26.4911 66.4354 28.1731L66.8504 27.7397C64.9725 25.942 62.4077 25.0183 59.9284 25.0054L59.9253 25.6054ZM54.1014 27.9739C55.5082 26.39 57.6559 25.5936 59.9253 25.6054L59.9284 25.0054C57.5249 24.9929 55.1975 25.8363 53.6528 27.5755L54.1014 27.9739ZM54.1166 27.5908L54.0926 27.5659L53.6617 27.9835L53.6858 28.0084L54.1166 27.5908ZM46.7511 30.8907C49.3866 30.8972 52.1243 29.9393 54.11 28.015L53.6924 27.5841C51.8316 29.3875 49.25 30.2969 46.7526 30.2907L46.7511 30.8907ZM39.9166 27.9527C41.574 29.9317 44.1438 30.8843 46.7511 30.8907L46.7526 30.2907C44.2801 30.2846 41.8958 29.3813 40.3766 27.5675L39.9166 27.9527ZM33.4289 25.4091C35.7691 25.4212 38.1822 26.2947 39.9392 27.9768L40.3541 27.5434C38.4762 25.7456 35.9114 24.822 33.4321 24.8091L33.4289 25.4091ZM28.4344 26.9978C29.7898 25.9328 31.5695 25.3994 33.4289 25.4091L33.4321 24.8091C31.4607 24.7988 29.5428 25.3638 28.0637 26.5261L28.4344 26.9978ZM21.3932 30.317C24.2858 30.2813 27.1292 29.1624 28.5048 26.9188L27.9933 26.6051C26.7649 28.6086 24.1615 29.6828 21.3858 29.7171L21.3932 30.317ZM13.1905 26.8282C15.2089 29.2487 18.4127 30.3538 21.3932 30.317L21.3858 29.7171C18.5405 29.7522 15.5278 28.6943 13.6513 26.444L13.1905 26.8282ZM3.02306 25.2023C6.23183 23.6847 10.3911 24.1843 13.2147 26.8541L13.627 26.4181C10.6173 23.5725 6.19087 23.0403 2.76652 24.6599L3.02306 25.2023ZM3.11984 26.7588C3.11984 26.1526 3.14476 25.5513 3.19378 24.9557L2.5958 24.9065C2.54544 25.5185 2.51984 26.1361 2.51984 26.7588H3.11984ZM4.32761 33.9409C3.54126 31.6613 3.11984 29.2515 3.11984 26.7588H2.51984C2.51984 29.3199 2.95292 31.7957 3.76041 34.1365L4.32761 33.9409ZM4.12908 34.3264C7.31775 33.3834 11.0407 34.1296 13.6435 36.6519L14.061 36.221C11.2941 33.5397 7.34343 32.7502 3.95894 33.751L4.12908 34.3264ZM13.6368 36.2277L13.6299 36.2348L14.0608 36.6523L14.0677 36.6452L13.6368 36.2277ZM13.6165 36.6376C15.5194 38.8818 18.5401 39.9317 21.3871 39.8966L21.3797 39.2966C18.6674 39.3301 15.8356 38.3269 14.0742 36.2495L13.6165 36.6376ZM21.3871 39.8966C23.623 39.869 25.7481 39.1742 27.1546 37.8605L26.7451 37.422C25.4764 38.607 23.5104 39.2703 21.3796 39.2966L21.3871 39.8966ZM26.6349 37.771L26.7597 37.8733L27.14 37.4092L27.0152 37.307L26.6349 37.771ZM27.679 36.2725C27.2852 36.5901 26.9209 36.9487 26.593 37.3488L27.0571 37.7292C27.3582 37.3617 27.6931 37.032 28.0557 36.7395L27.679 36.2725ZM28.1258 36.6582C28.1416 36.6315 28.1572 36.6045 28.1725 36.5773L27.6499 36.2825C27.6365 36.3063 27.6228 36.3301 27.6088 36.3538L28.1258 36.6582ZM27.7638 36.6912L27.794 36.7082L28.0889 36.1857L28.0587 36.1686L27.7638 36.6912ZM33.4347 34.3886C31.3727 34.3779 29.3376 34.9688 27.7562 36.2111L28.1268 36.6829C29.5844 35.5379 31.4812 34.9784 33.4315 34.9886L33.4347 34.3886ZM40.6885 37.2509C38.7109 35.3638 36.0249 34.4021 33.4347 34.3886L33.4315 34.9886C35.8829 35.0013 38.4175 35.9131 40.2743 37.6849L40.6885 37.2509ZM40.2952 37.2326L40.2913 37.2359L40.6716 37.7L40.6755 37.6967L40.2952 37.2326ZM40.7443 37.3072L40.7168 37.2738L40.2539 37.6556L40.2815 37.689L40.7443 37.3072ZM40.7418 37.3021L40.7213 37.2823L40.3045 37.7139L40.325 37.7337L40.7418 37.3021ZM40.7467 37.7289L40.7489 37.7267L40.318 37.3092L40.3158 37.3114L40.7467 37.7289ZM46.7538 39.8702C44.3945 39.8644 42.1655 39.0029 40.7612 37.3274L40.3014 37.7128C41.8438 39.5531 44.258 40.4641 46.7523 40.4702L46.7538 39.8702ZM53.1214 37.513C51.3834 39.0782 49.0365 39.8758 46.7538 39.8702L46.7523 40.4702C49.168 40.4762 51.6631 39.6337 53.5229 37.9589L53.1214 37.513ZM53.1313 37.9674L53.132 37.968L53.5122 37.5039L53.5115 37.5033L53.1313 37.9674ZM59.931 34.5849C57.3185 34.5714 54.7452 35.5247 53.0894 37.5452L53.5535 37.9255C55.0703 36.0746 57.4541 35.1721 59.9279 35.1849L59.931 34.5849ZM67.1848 37.4472C65.2073 35.5601 62.5212 34.5984 59.931 34.5849L59.9279 35.1849C62.3792 35.1977 64.9138 36.1095 66.7706 37.8813L67.1848 37.4472ZM66.7913 37.4291L66.7874 37.4323L67.168 37.8962L67.172 37.8929L66.7913 37.4291ZM67.2406 37.5034L67.213 37.4701L66.7503 37.852L66.7778 37.8853L67.2406 37.5034ZM67.2382 37.4985L67.2176 37.4786L66.8007 37.9102L66.8213 37.93L67.2382 37.4985ZM67.2432 37.9251L67.2454 37.9228L66.8141 37.5057L66.812 37.5079L67.2432 37.9251ZM73.2501 40.0666C70.8908 40.0608 68.6618 39.1993 67.2575 37.5238L66.7977 37.9092C68.3401 39.7495 70.7544 40.6604 73.2486 40.6666L73.2501 40.0666ZM79.4251 37.8776C77.7084 39.3318 75.4492 40.072 73.2501 40.0666L73.2486 40.6666C75.5764 40.6723 77.9773 39.8903 79.8129 38.3354L79.4251 37.8776ZM79.7453 37.5925C79.6328 37.6879 79.5223 37.7861 79.4141 37.8874L79.8239 38.3256C79.925 38.2311 80.0281 38.1393 80.1331 38.0504L79.7453 37.5925ZM79.8408 37.5009C79.8056 37.5351 79.7701 37.5689 79.7343 37.6024L80.1442 38.0405C80.1825 38.0047 80.2206 37.9684 80.2584 37.9318L79.8408 37.5009ZM80.272 37.5148L80.2649 37.5075L79.8342 37.9252L79.8413 37.9325L80.272 37.5148ZM92.855 37.827C89.1005 34.5848 83.4797 34.5373 79.8668 37.4914L80.2466 37.9559C83.6281 35.191 88.9233 35.2246 92.4628 38.2811L92.855 37.827ZM94.6821 32.2884C94.6821 34.3424 93.8595 36.2584 92.4351 37.8543L92.8827 38.2538C94.3905 36.5645 95.2821 34.5105 95.2821 32.2884H94.6821ZM94.4777 30.531C94.612 31.1014 94.6821 31.6887 94.6821 32.2884H95.2821C95.2821 31.6416 95.2065 31.0082 95.0617 30.3934L94.4777 30.531ZM27.9933 36.6846C26.7649 38.6881 24.1615 39.7623 21.3858 39.7966L21.3932 40.3966C24.2858 40.3609 27.1292 39.2419 28.5048 36.9983L27.9933 36.6846ZM21.3858 39.7966C18.5405 39.8317 15.5278 38.7738 13.6513 36.5235L13.1905 36.9077C15.2089 39.3282 18.4127 40.4333 21.3932 40.3966L21.3858 39.7966ZM13.627 36.4976C11.0022 34.0159 7.30095 33.2948 4.12843 34.2228L4.29687 34.7986C7.27654 33.9271 10.7536 34.6066 13.2147 36.9336L13.627 36.4976ZM8.06191 40.7858C6.544 38.8265 5.33578 36.6837 4.49404 34.4067L3.93126 34.6147C4.79537 36.9522 6.03437 39.1484 7.58759 41.1533L8.06191 40.7858ZM2.87681 46.6753C4.05052 44.6189 5.80229 42.7637 7.99771 41.2147L7.6518 40.7244C5.39616 42.3159 3.57952 44.2338 2.35572 46.3779L2.87681 46.6753ZM2.74665 46.7968C6.18173 45.1391 10.6518 45.6901 13.6435 48.5893L14.061 48.1584C10.8825 45.0782 6.13992 44.493 2.48588 46.2564L2.74665 46.7968ZM13.6369 48.165L13.63 48.1722L14.0608 48.5898L14.0677 48.5827L13.6369 48.165ZM13.6165 48.575C15.5194 50.8192 18.5401 51.8692 21.3871 51.834L21.3797 51.2341C18.6674 51.2675 15.8356 50.2643 14.0742 48.187L13.6165 48.575ZM21.3871 51.834C23.623 51.8064 25.7481 51.1116 27.1546 49.7979L26.7451 49.3594C25.4764 50.5444 23.5104 51.2078 21.3796 51.2341L21.3871 51.834ZM26.6349 49.7085L26.7597 49.8107L27.14 49.3466L27.0152 49.2444L26.6349 49.7085ZM27.679 48.2099C27.2852 48.5276 26.9209 48.8862 26.593 49.2863L27.0571 49.6666C27.3582 49.2992 27.6931 48.9695 28.0557 48.6769L27.679 48.2099ZM28.1258 48.5957C28.1416 48.5689 28.1572 48.5419 28.1725 48.5148L27.6499 48.2199C27.6365 48.2438 27.6228 48.2675 27.6088 48.2912L28.1258 48.5957ZM27.7638 48.6286L27.794 48.6457L28.0889 48.1231L28.0586 48.1061L27.7638 48.6286ZM33.4347 46.326C31.3727 46.3153 29.3376 46.9062 27.7562 48.1485L28.1268 48.6203C29.5843 47.4754 31.4812 46.9159 33.4315 46.926L33.4347 46.326ZM40.6885 49.1883C38.7109 47.3012 36.0249 46.3395 33.4347 46.326L33.4315 46.926C35.8829 46.9388 38.4175 47.8506 40.2743 49.6224L40.6885 49.1883ZM40.2953 49.17L40.2914 49.1732L40.6714 49.6375L40.6753 49.6343L40.2953 49.17ZM40.7443 49.2446L40.7168 49.2112L40.2539 49.593L40.2815 49.6265L40.7443 49.2446ZM40.7418 49.2396L40.7213 49.2197L40.3045 49.6513L40.325 49.6712L40.7418 49.2396ZM40.7467 49.6663L40.7489 49.6641L40.318 49.2466L40.3158 49.2488L40.7467 49.6663ZM46.7538 51.8077C44.3945 51.8019 42.1655 50.9404 40.7612 49.2649L40.3014 49.6503C41.8438 51.4906 44.258 52.4015 46.7523 52.4077L46.7538 51.8077ZM53.1214 49.4505C51.3834 51.0156 49.0365 51.8133 46.7538 51.8077L46.7523 52.4077C49.168 52.4136 51.6631 51.5711 53.5229 49.8963L53.1214 49.4505ZM53.1313 49.9049L53.132 49.9055L53.5122 49.4413L53.5115 49.4407L53.1313 49.9049ZM59.931 46.5224C57.3185 46.5088 54.7452 47.4621 53.0894 49.4826L53.5535 49.8629C55.0703 48.012 57.4541 47.1095 59.9279 47.1224L59.931 46.5224ZM67.1848 49.3846C65.2073 47.4976 62.5212 46.5358 59.931 46.5224L59.9279 47.1224C62.3792 47.1351 64.9138 48.0469 66.7706 49.8187L67.1848 49.3846ZM66.7913 49.3666L66.7874 49.3698L67.168 49.8336L67.172 49.8304L66.7913 49.3666ZM67.2406 49.4409L67.213 49.4075L66.7503 49.7894L66.7778 49.8228L67.2406 49.4409ZM67.2382 49.436L67.2176 49.4161L66.8007 49.8476L66.8213 49.8675L67.2382 49.436ZM67.2431 49.8627L67.2452 49.8605L66.8143 49.4429L66.8122 49.4452L67.2431 49.8627ZM73.2501 52.004C70.8908 51.9982 68.6618 51.1367 67.2575 49.4612L66.7977 49.8466C68.3401 51.6869 70.7544 52.5979 73.2486 52.604L73.2501 52.004ZM79.4251 49.815C77.7084 51.2692 75.4492 52.0094 73.2501 52.004L73.2486 52.604C75.5764 52.6097 77.9773 51.8278 79.8129 50.2729L79.4251 49.815ZM79.7453 49.53C79.6328 49.6253 79.5223 49.7236 79.4141 49.8248L79.8239 50.2631C79.925 50.1685 80.0281 50.0768 80.1331 49.9878L79.7453 49.53ZM79.8408 49.4384C79.8056 49.4725 79.7701 49.5063 79.7343 49.5398L80.1442 49.978C80.1825 49.9421 80.2206 49.9059 80.2584 49.8692L79.8408 49.4384ZM80.272 49.4523L80.2649 49.445L79.8342 49.8627L79.8413 49.87L80.272 49.4523ZM93.2855 50.1583C89.5412 46.5299 83.6199 46.3601 79.8668 49.4289L80.2466 49.8934C83.7604 47.0203 89.3391 47.1695 92.8679 50.5892L93.2855 50.1583ZM93.2851 50.5898L93.292 50.5827L92.8614 50.1648L92.8545 50.1719L93.2851 50.5898ZM96.2307 52.3477C95.1065 51.8437 94.0937 51.1245 93.2986 50.1868L92.841 50.5749C93.7011 51.5893 94.79 52.3593 95.9852 52.8952L96.2307 52.3477ZM95.9758 50.521C95.9758 51.2161 95.92 51.9011 95.8117 52.5738L96.4041 52.6692C96.5174 51.9652 96.5758 51.2483 96.5758 50.521H95.9758ZM90.8329 39.771C94.0529 42.6892 95.9758 46.4409 95.9758 50.521H96.5758C96.5758 46.2412 94.5569 42.3362 91.2358 39.3264L90.8329 39.771ZM92.1028 38.2097C91.7218 38.5988 91.3039 38.9666 90.8526 39.31L91.216 39.7874C91.6894 39.4272 92.1293 39.0402 92.5315 38.6294L92.1028 38.2097ZM80.4645 38.425C83.6429 35.7405 88.7253 35.7265 92.1215 38.647L92.5127 38.1921C88.8995 35.085 83.4873 35.0865 80.0773 37.9666L80.4645 38.425ZM80.1458 38.7087C80.2577 38.6136 80.3677 38.5158 80.4755 38.4152L80.0663 37.9765C79.9653 38.0707 79.8623 38.1623 79.7574 38.2514L80.1458 38.7087ZM80.0373 38.8133C80.0768 38.7747 80.1166 38.7366 80.1568 38.6989L79.7464 38.2612C79.7031 38.3018 79.6603 38.3428 79.6178 38.3844L80.0373 38.8133ZM79.6048 38.8002L79.6131 38.8086L80.042 38.389L80.0337 38.3806L79.6048 38.8002ZM73.2474 41.1666C75.6285 41.1724 78.0917 40.3913 80.0092 38.8226L79.6293 38.3582C77.829 39.831 75.5039 40.5721 73.2489 40.5666L73.2474 41.1666ZM66.4129 38.2285C68.0703 40.2075 70.6401 41.1602 73.2474 41.1666L73.2489 40.5666C70.7764 40.5605 68.392 39.6572 66.8729 37.8433L66.4129 38.2285ZM59.9253 35.6849C62.2654 35.6971 64.6784 36.5706 66.4354 38.2526L66.8504 37.8192C64.9725 36.0215 62.4077 35.0978 59.9284 35.0849L59.9253 35.6849ZM54.1014 38.0534C55.5082 36.4695 57.6558 35.6731 59.9253 35.6849L59.9284 35.0849C57.5248 35.0724 55.1975 35.9158 53.6528 37.655L54.1014 38.0534ZM54.1167 37.6703L54.0926 37.6455L53.6617 38.063L53.6858 38.0879L54.1167 37.6703ZM46.7511 40.9702C49.3865 40.9767 52.1243 40.0188 54.11 38.0945L53.6924 37.6636C51.8316 39.467 49.25 40.3764 46.7526 40.3702L46.7511 40.9702ZM39.9166 38.0322C41.574 40.0112 44.1438 40.9638 46.7511 40.9702L46.7526 40.3702C44.2801 40.3641 41.8958 39.4608 40.3766 37.647L39.9166 38.0322ZM33.4289 35.4886C35.7691 35.5007 38.1822 36.3742 39.9392 38.0563L40.3541 37.6229C38.4762 35.8251 35.9114 34.9015 33.4321 34.8886L33.4289 35.4886ZM28.4344 37.0773C29.7898 36.0123 31.5695 35.4789 33.4289 35.4886L33.4321 34.8886C31.4607 34.8783 29.5428 35.4433 28.0637 36.6056L28.4344 37.0773ZM27.9933 48.6221C26.7649 50.6255 24.1615 51.6998 21.3858 51.734L21.3932 52.334C24.2858 52.2983 27.1292 51.1793 28.5048 48.9357L27.9933 48.6221ZM21.3858 51.734C18.5405 51.7691 15.5278 50.7113 13.6513 48.4609L13.1905 48.8452C15.2089 51.2657 18.4127 52.3708 21.3932 52.334L21.3858 51.734ZM13.627 48.435C10.4024 45.3862 5.54963 44.9919 2.04527 47.059L2.3501 47.5758C5.62838 45.6421 10.188 46.0093 13.2147 48.871L13.627 48.435ZM1.20654 52.7834C1.20654 50.9172 1.64937 49.1228 2.46722 47.4491L1.92814 47.1857C1.07288 48.9359 0.606542 50.82 0.606542 52.7834H1.20654ZM2.63474 58.4489C1.70992 56.6814 1.20654 54.7731 1.20654 52.7834H0.606542C0.606542 54.877 1.13676 56.8802 2.10311 58.7271L2.63474 58.4489ZM14.061 60.0959C10.8082 56.9436 5.91702 56.4042 2.23048 58.3218L2.50737 58.8541C5.97132 57.0522 10.5815 57.5594 13.6435 60.5267L14.061 60.0959ZM14.0608 60.5272L14.0677 60.5201L13.6369 60.1025L13.63 60.1096L14.0608 60.5272ZM21.3797 63.1715C18.6674 63.205 15.8356 62.2017 14.0742 60.1244L13.6165 60.5124C15.5194 62.7566 18.5401 63.8066 21.3871 63.7715L21.3797 63.1715ZM26.7451 61.2969C25.4764 62.4819 23.5104 63.1452 21.3796 63.1715L21.3871 63.7715C23.623 63.7439 25.7481 63.0491 27.1546 61.7354L26.7451 61.2969ZM26.6349 61.6459L26.7597 61.7482L27.14 61.2841L27.0152 61.1818L26.6349 61.6459ZM27.679 60.1474C27.2852 60.465 26.9209 60.8236 26.593 61.2237L27.0571 61.604C27.3582 61.2366 27.6931 60.9069 28.0557 60.6144L27.679 60.1474ZM27.6499 60.1573C27.6365 60.1812 27.6228 60.205 27.6088 60.2286L28.1258 60.5331C28.1416 60.5063 28.1572 60.4794 28.1725 60.4522L27.6499 60.1573ZM28.0889 60.0606L28.0586 60.0435L27.7638 60.5661L27.7941 60.5831L28.0889 60.0606ZM33.4347 58.2635C31.3727 58.2527 29.3376 58.8437 27.7562 60.0859L28.1268 60.5578C29.5843 59.4128 31.4812 58.8533 33.4315 58.8635L33.4347 58.2635ZM40.6885 61.1257C38.7109 59.2387 36.0249 58.2769 33.4347 58.2635L33.4315 58.8635C35.8829 58.8762 38.4175 59.788 40.2743 61.5598L40.6885 61.1257ZM40.2952 61.1075L40.2913 61.1107L40.6716 61.5748L40.6755 61.5716L40.2952 61.1075ZM40.7443 61.1821L40.7168 61.1486L40.2539 61.5305L40.2815 61.5639L40.7443 61.1821ZM40.7419 61.177L40.7213 61.1572L40.3045 61.5887L40.325 61.6086L40.7419 61.177ZM40.7466 61.6039L40.7487 61.6017L40.3182 61.1839L40.316 61.1861L40.7466 61.6039ZM46.7538 63.7451C44.3945 63.7393 42.1655 62.8778 40.7612 61.2023L40.3014 61.5877C41.8438 63.428 44.258 64.339 46.7523 64.3451L46.7538 63.7451ZM53.1214 61.3879C51.3834 62.9531 49.0365 63.7507 46.7538 63.7451L46.7523 64.3451C49.168 64.3511 51.6631 63.5086 53.5229 61.8337L53.1214 61.3879ZM53.1313 61.8423L53.132 61.8429L53.5122 61.3787L53.5115 61.3782L53.1313 61.8423ZM59.931 58.4598C57.3185 58.4462 54.7452 59.3995 53.0894 61.4201L53.5535 61.8004C55.0703 59.9494 57.4541 59.0469 59.9279 59.0598L59.931 58.4598ZM67.1848 61.3221C65.2073 59.435 62.5212 58.4733 59.931 58.4598L59.9279 59.0598C62.3792 59.0725 64.9138 59.9843 66.7706 61.7562L67.1848 61.3221ZM66.7912 61.3041L66.7873 61.3073L67.1682 61.7709L67.1721 61.7677L66.7912 61.3041ZM67.2406 61.3783L67.213 61.345L66.7503 61.7269L66.7778 61.7602L67.2406 61.3783ZM67.2382 61.3734L67.2176 61.3535L66.8007 61.785L66.8213 61.8049L67.2382 61.3734ZM67.2431 61.8001L67.2452 61.7979L66.8143 61.3804L66.8122 61.3826L67.2431 61.8001ZM73.2501 63.9415C70.8908 63.9356 68.6618 63.0741 67.2575 61.3987L66.7977 61.7841C68.3401 63.6244 70.7544 64.5353 73.2486 64.5415L73.2501 63.9415ZM79.4251 61.7525C77.7084 63.2067 75.4492 63.9469 73.2501 63.9415L73.2486 64.5415C75.5764 64.5472 77.9773 63.7652 79.8129 62.2103L79.4251 61.7525ZM79.7453 61.4674C79.6328 61.5627 79.5223 61.661 79.4141 61.7623L79.8239 62.2005C79.925 62.106 80.0281 62.0142 80.1331 61.9252L79.7453 61.4674ZM79.8408 61.3758C79.8056 61.4099 79.7701 61.4438 79.7343 61.4773L80.1442 61.9154C80.1825 61.8795 80.2206 61.8433 80.2584 61.8067L79.8408 61.3758ZM80.272 61.3897L80.2649 61.3824L79.8342 61.8001L79.8413 61.8074L80.272 61.3897ZM91.6535 60.8102C87.978 58.4823 83.1131 58.712 79.8668 61.3663L80.2466 61.8308C83.2828 59.3482 87.8643 59.1204 91.3325 61.3171L91.6535 60.8102ZM95.7222 53.0685C95.1395 55.9673 93.5758 58.6295 91.2843 60.8481L91.7017 61.2792C94.067 58.9891 95.7004 56.2219 96.3105 53.1867L95.7222 53.0685ZM92.4149 50.845C93.3632 51.9823 94.5737 52.8289 95.897 53.4028L96.1357 52.8524C94.8869 52.3107 93.7564 51.5169 92.8757 50.4608L92.4149 50.845ZM80.4645 50.3625C83.7442 47.5924 89.0499 47.6663 92.4392 50.8709L92.8514 50.4349C89.2446 47.0247 83.595 46.933 80.0773 49.9041L80.4645 50.3625ZM80.1458 50.6461C80.2577 50.5511 80.3677 50.4533 80.4755 50.3527L80.0663 49.9139C79.9653 50.0081 79.8623 50.0997 79.7574 50.1889L80.1458 50.6461ZM80.0909 50.6989C80.1128 50.6779 80.1347 50.657 80.1568 50.6363L79.7463 50.1987C79.7226 50.221 79.699 50.2434 79.6755 50.2659L80.0909 50.6989ZM80.0373 50.7508C80.0551 50.7334 80.073 50.716 80.0909 50.6989L79.6755 50.2659C79.6561 50.2845 79.6369 50.3031 79.6178 50.3218L80.0373 50.7508ZM79.6048 50.7376L79.6131 50.7461L80.042 50.3265L80.0337 50.318L79.6048 50.7376ZM73.2474 53.104C75.6285 53.1099 78.0917 52.3287 80.0092 50.76L79.6293 50.2956C77.829 51.7684 75.5039 52.5096 73.2489 52.504L73.2474 53.104ZM66.4129 50.1659C68.0703 52.1449 70.6401 53.0976 73.2474 53.104L73.2489 52.504C70.7764 52.4979 68.392 51.5946 66.8729 49.7807L66.4129 50.1659ZM59.9253 47.6224C62.2654 47.6345 64.6784 48.508 66.4354 50.19L66.8504 49.7566C64.9725 47.9589 62.4077 47.0353 59.9284 47.0224L59.9253 47.6224ZM54.1014 49.9909C55.5082 48.4069 57.6558 47.6106 59.9253 47.6224L59.9284 47.0224C57.5248 47.0099 55.1975 47.8533 53.6528 49.5924L54.1014 49.9909ZM54.1166 49.6077L54.0926 49.5829L53.6617 50.0004L53.6858 50.0253L54.1166 49.6077ZM46.7511 52.9077C49.3865 52.9142 52.1243 51.9562 54.11 50.032L53.6924 49.6011C51.8316 51.4044 49.25 52.3138 46.7526 52.3077L46.7511 52.9077ZM39.9166 49.9696C41.574 51.9486 44.1438 52.9012 46.7511 52.9077L46.7526 52.3077C44.2801 52.3016 41.8958 51.3983 40.3766 49.5844L39.9166 49.9696ZM33.4289 47.426C35.7691 47.4382 38.1822 48.3117 39.9392 49.9937L40.3541 49.5603C38.4762 47.7626 35.9114 46.8389 33.4321 46.826L33.4289 47.426ZM28.4344 49.0148C29.7898 47.9497 31.5695 47.4163 33.4289 47.426L33.4321 46.826C31.4607 46.8158 29.5428 47.3807 28.0637 48.543L28.4344 49.0148ZM21.3932 64.2714C24.2858 64.2357 27.1292 63.1168 28.5048 60.8731L27.9933 60.5595C26.7649 62.563 24.1615 63.6372 21.3858 63.6715L21.3932 64.2714ZM13.1905 60.7826C15.2089 63.2031 18.4127 64.3082 21.3932 64.2714L21.3858 63.6715C18.5405 63.7066 15.5278 62.6487 13.6513 60.3983L13.1905 60.7826ZM2.74693 59.2935C5.98931 57.6122 10.309 58.0611 13.2147 60.8085L13.627 60.3725C10.5303 57.4446 5.93319 56.9654 2.47072 58.7609L2.74693 59.2935ZM24.2821 69.1189C14.5473 69.1189 6.2703 64.8515 2.86953 58.8788L2.34812 59.1756C5.88656 65.3902 14.4026 69.7189 24.2821 69.7189V69.1189ZM41.1504 63.9249C36.9444 67.115 30.9492 69.1189 24.2821 69.1189V69.7189C31.0632 69.7189 37.19 67.6818 41.513 64.403L41.1504 63.9249ZM53.8369 68.7932C49.0178 68.7932 44.6641 66.9364 41.5391 63.9472L41.1244 64.3807C44.3603 67.4762 48.8623 69.3932 53.8369 69.3932V68.7932ZM64.0956 65.6149C61.2308 67.6112 57.682 68.7932 53.8369 68.7932V69.3932C57.806 69.3932 61.4743 68.1728 64.4387 66.1072L64.0956 65.6149ZM73.9755 67.2557C70.5305 67.2557 67.2721 66.6529 64.3712 65.5797L64.163 66.1424C67.132 67.2408 70.4609 67.8557 73.9755 67.8557V67.2557ZM90.914 61.197C86.885 64.8911 80.7996 67.2557 73.9755 67.2557V67.8557C80.9319 67.8557 87.1673 65.4463 91.3195 61.6393L90.914 61.197ZM80.4645 62.2999C83.2961 59.9083 87.6413 59.6347 90.9597 61.6737L91.2738 61.1625C87.7473 58.9956 83.1177 59.2735 80.0773 61.8415L80.4645 62.2999ZM80.1458 62.5836C80.2577 62.4885 80.3677 62.3907 80.4755 62.2901L80.0663 61.8513C79.9653 61.9455 79.8623 62.0372 79.7574 62.1263L80.1458 62.5836ZM80.0373 62.6882C80.0768 62.6496 80.1166 62.6114 80.1568 62.5737L79.7463 62.1361C79.7031 62.1767 79.6603 62.2177 79.6178 62.2592L80.0373 62.6882ZM79.6048 62.6751L79.6131 62.6835L80.042 62.2639L80.0337 62.2554L79.6048 62.6751ZM73.2474 65.0415C75.6285 65.0473 78.0917 64.2661 80.0092 62.6974L79.6293 62.2331C77.829 63.7059 75.5039 64.447 73.2489 64.4415L73.2474 65.0415ZM66.4129 62.1034C68.0703 64.0824 70.6401 65.035 73.2474 65.0415L73.2489 64.4415C70.7764 64.4354 68.392 63.532 66.8729 61.7181L66.4129 62.1034ZM59.9253 59.5598C62.2654 59.572 64.6784 60.4455 66.4354 62.1275L66.8504 61.694C64.9725 59.8963 62.4077 58.9727 59.9284 58.9598L59.9253 59.5598ZM54.1014 61.9283C55.5082 60.3444 57.6558 59.548 59.9253 59.5598L59.9284 58.9598C57.5248 58.9473 55.1975 59.7907 53.6528 61.5299L54.1014 61.9283ZM54.1167 61.5452L54.0926 61.5203L53.6617 61.9379L53.6858 61.9627L54.1167 61.5452ZM46.7511 64.8451C49.3865 64.8516 52.1243 63.8937 54.11 61.9694L53.6924 61.5385C51.8316 63.3418 49.25 64.2513 46.7526 64.2451L46.7511 64.8451ZM39.9166 61.9071C41.574 63.886 44.1438 64.8387 46.7511 64.8451L46.7526 64.2451C44.2801 64.239 41.8958 63.3357 40.3766 61.5218L39.9166 61.9071ZM33.4289 59.3634C35.7691 59.3756 38.1822 60.2491 39.9392 61.9312L40.3541 61.4977C38.4762 59.7 35.9114 58.7763 33.4321 58.7635L33.4289 59.3634ZM28.4344 60.9522C29.7898 59.8872 31.5695 59.3538 33.4289 59.3634L33.4321 58.7635C31.4607 58.7532 29.5428 59.3182 28.0637 60.4804L28.4344 60.9522Z" fill="black" mask="url(#path-3-inside-1_66_1274)"/>
<defs>
<linearGradient id="paint0_linear_66_1274" x1="64.9486" y1="41.8255" x2="99.5755" y2="40.178" gradientUnits="userSpaceOnUse">
<stop stop-color="#D9D9D9"/>
<stop offset="0.995098" stop-color="#D9D9D9" stop-opacity="0.35"/>
</linearGradient>
<linearGradient id="paint1_linear_66_1274" x1="49.776" y1="41.8255" x2="84.4029" y2="40.178" gradientUnits="userSpaceOnUse">
<stop stop-color="#D9D9D9"/>
<stop offset="0.995098" stop-color="#D9D9D9" stop-opacity="0.35"/>
</linearGradient>
<linearGradient id="paint2_linear_66_1274" x1="18.2218" y1="34.1908" x2="66.4413" y2="30.4535" gradientUnits="userSpaceOnUse">
<stop stop-color="#D9D9D9"/>
<stop offset="0.995098" stop-color="#D9D9D9" stop-opacity="0.35"/>
</linearGradient>
</defs>
</svg>
