<svg width="40" height="64" viewBox="0 0 40 64" fill="none" xmlns="http://www.w3.org/2000/svg">
<path d="M7.32467 0C0.379234 13.6755 8.42799 12.9944 8.42799 12.9944C14.3418 10.2216 5.53176 3.54569 7.32467 0Z" fill="url(#paint0_radial_106_19231)"/>
<path d="M32.1461 0C37.934 13.6755 31.2267 12.9944 31.2267 12.9944C26.2985 10.2216 33.6402 3.54569 32.1461 0Z" fill="url(#paint1_radial_106_19231)"/>
<path d="M2.85389 8C-2.93397 22.7275 3.77333 21.994 3.77333 21.994C8.70151 19.0079 1.3598 11.8184 2.85389 8Z" fill="url(#paint2_radial_106_19231)"/>
<path d="M36.6753 8C43.6208 22.7275 35.572 21.994 35.572 21.994C29.6582 19.0079 38.4682 11.8184 36.6753 8Z" fill="url(#paint3_radial_106_19231)"/>
<path d="M8.85389 17C3.06603 30.6755 9.77333 29.9944 9.77333 29.9944C14.7015 27.2216 7.3598 20.5457 8.85389 17Z" fill="url(#paint4_radial_106_19231)"/>
<path d="M31.1461 17C36.934 30.6755 30.2267 29.9944 30.2267 29.9944C25.2985 27.2216 32.6402 20.5457 31.1461 17Z" fill="url(#paint5_radial_106_19231)"/>
<mask id="path-7-inside-1_106_19231" fill="white">
<path fill-rule="evenodd" clip-rule="evenodd" d="M18.7431 0C15.659 0 13.1588 2.50015 13.1588 5.58424V40.5068C9.17401 42.6999 6.5 46.7505 6.5 51.3847C6.5 58.3519 12.5442 64 20 64C27.4558 64 33.5 58.3519 33.5 51.3847C33.5 46.7505 30.826 42.7 26.8413 40.5068V5.58424C26.8413 2.50015 24.3411 0 21.257 0H18.7431Z"/>
</mask>
<path fill-rule="evenodd" clip-rule="evenodd" d="M18.7431 0C15.659 0 13.1588 2.50015 13.1588 5.58424V40.5068C9.17401 42.6999 6.5 46.7505 6.5 51.3847C6.5 58.3519 12.5442 64 20 64C27.4558 64 33.5 58.3519 33.5 51.3847C33.5 46.7505 30.826 42.7 26.8413 40.5068V5.58424C26.8413 2.50015 24.3411 0 21.257 0H18.7431Z" fill="url(#paint6_linear_106_19231)"/>
<path d="M13.1588 40.5068L13.641 41.3828L14.1588 41.0978V40.5068H13.1588ZM26.8413 40.5068H25.8413V41.0979L26.3591 41.3829L26.8413 40.5068ZM14.1588 5.58424C14.1588 3.05243 16.2113 1 18.7431 1V-1C15.1067 -1 12.1588 1.94786 12.1588 5.58424H14.1588ZM14.1588 40.5068V5.58424H12.1588V40.5068H14.1588ZM7.5 51.3847C7.5 47.1528 9.94111 43.4191 13.641 41.3828L12.6767 39.6307C8.4069 41.9806 5.5 46.3481 5.5 51.3847H7.5ZM20 63C13.0315 63 7.5 57.7369 7.5 51.3847H5.5C5.5 58.967 12.0568 65 20 65V63ZM32.5 51.3847C32.5 57.7369 26.9685 63 20 63V65C27.9432 65 34.5 58.967 34.5 51.3847H32.5ZM26.3591 41.3829C30.0589 43.4192 32.5 47.1528 32.5 51.3847H34.5C34.5 46.3482 31.5932 41.9807 27.3234 39.6308L26.3591 41.3829ZM25.8413 5.58424V40.5068H27.8413V5.58424H25.8413ZM21.257 1C23.7888 1 25.8413 3.05244 25.8413 5.58424H27.8413C27.8413 1.94787 24.8934 -1 21.257 -1V1ZM18.7431 1H21.257V-1H18.7431V1Z" fill="black" mask="url(#path-7-inside-1_106_19231)"/>
<ellipse cx="20" cy="51.3847" rx="10.815" ry="10.1063" fill="#93B0C1"/>
<path d="M15.3842 17.2757V17.2757C15.9627 13.041 23.9547 28.8054 23.9547 33.0794V55.6804C23.9547 57.8659 22.317 59.7045 20.146 59.9563V59.9563C17.6012 60.2513 15.364 58.284 15.3488 55.7222C15.284 44.8196 15.1556 18.9492 15.3842 17.2757Z" fill="url(#paint7_linear_106_19231)"/>
<line x1="19.65" y1="48.9757" x2="19.65" y2="2.84015" stroke="black" stroke-width="0.7"/>
<ellipse cx="20" cy="50.3137" rx="3.63827" ry="3.39985" fill="black"/>
<defs>
<radialGradient id="paint0_radial_106_19231" cx="0" cy="0" r="1" gradientUnits="userSpaceOnUse" gradientTransform="translate(7.38672 6.95214) rotate(174.489) scale(2.93252 5.34189)">
<stop offset="0.172619" stop-color="white"/>
<stop offset="1" stop-color="#2F5D7D"/>
</radialGradient>
<radialGradient id="paint1_radial_106_19231" cx="0" cy="0" r="1" gradientUnits="userSpaceOnUse" gradientTransform="translate(32.0944 6.95214) rotate(6.6047) scale(2.44872 5.33108)">
<stop offset="0.172619" stop-color="white"/>
<stop offset="1" stop-color="#2F5D7D"/>
</radialGradient>
<radialGradient id="paint2_radial_106_19231" cx="0" cy="0" r="1" gradientUnits="userSpaceOnUse" gradientTransform="translate(2.9056 15.4869) rotate(172.892) scale(2.45131 5.7351)">
<stop offset="0.172619" stop-color="white"/>
<stop offset="1" stop-color="#2F5D7D"/>
</radialGradient>
<radialGradient id="paint3_radial_106_19231" cx="0" cy="0" r="1" gradientUnits="userSpaceOnUse" gradientTransform="translate(36.6133 15.4869) rotate(5.9324) scale(2.93468 5.74857)">
<stop offset="0.172619" stop-color="white"/>
<stop offset="1" stop-color="#2F5D7D"/>
</radialGradient>
<radialGradient id="paint4_radial_106_19231" cx="0" cy="0" r="1" gradientUnits="userSpaceOnUse" gradientTransform="translate(8.9056 23.9521) rotate(173.395) scale(2.44872 5.33108)">
<stop offset="0.172619" stop-color="white"/>
<stop offset="1" stop-color="#2F5D7D"/>
</radialGradient>
<radialGradient id="paint5_radial_106_19231" cx="0" cy="0" r="1" gradientUnits="userSpaceOnUse" gradientTransform="translate(31.0944 23.9521) rotate(6.6047) scale(2.44872 5.33108)">
<stop offset="0.172619" stop-color="white"/>
<stop offset="1" stop-color="#2F5D7D"/>
</radialGradient>
<linearGradient id="paint6_linear_106_19231" x1="13.1588" y1="3.20676" x2="26.8413" y2="3.20676" gradientUnits="userSpaceOnUse">
<stop offset="0.041666" stop-color="white" stop-opacity="0.2"/>
<stop offset="0.449418" stop-color="white"/>
<stop offset="1" stop-color="white" stop-opacity="0.2"/>
</linearGradient>
<linearGradient id="paint7_linear_106_19231" x1="19.6043" y1="17.0297" x2="19.6043" y2="60.509" gradientUnits="userSpaceOnUse">
<stop stop-color="#FFF33B"/>
<stop offset="0.666666" stop-color="#93B0C1"/>
</linearGradient>
</defs>
</svg>
