<?xml version="1.0" encoding="utf-8"?>
<!-- Generator: Adobe Illustrator 25.2.3, SVG Export Plug-In . SVG Version: 6.00 Build 0)  -->
<svg version="1.1" xmlns="http://www.w3.org/2000/svg" xmlns:xlink="http://www.w3.org/1999/xlink" x="0px" y="0px"
	 viewBox="0 0 500 693.91" enable-background="new 0 0 500 693.91" xml:space="preserve">
<g id="_x5F_MantaRay_x5F_Logo">
	<g>
		<linearGradient id="SVGID_1_" gradientUnits="userSpaceOnUse" x1="254.7589" y1="535.1798" x2="456.9784" y2="535.1798">
			<stop  offset="0" style="stop-color:#E93E3A"/>
			<stop  offset="0.1124" style="stop-color:#ED683C"/>
			<stop  offset="0.3315" style="stop-color:#F3903F"/>
			<stop  offset="0.7191" style="stop-color:#FDC70C"/>
			<stop  offset="0.7968" style="stop-color:#FEC90E"/>
			<stop  offset="0.8697" style="stop-color:#FFD217"/>
			<stop  offset="0.9405" style="stop-color:#FFE029"/>
			<stop  offset="1" style="stop-color:#FFF33B"/>
		</linearGradient>
		<path fill="url(#SVGID_1_)" d="M270.05,421.67c0,0,105.42,93.95,186.93,76.11c0,0-9.04,59.83-134.51,133.59
			c0,0-33.63,8.71-47.25,17.33l1.69-9.59h-0.01c2.36-2.68,4.5-5.66,6.39-8.87c2.99-2.31,5.63-4.63,6.3-6.03
			c3.6-7.46,7.63-18.53,2.81-25c0.08-1.38,0.12-2.75,0.12-4.15c0-1.81-0.06-3.61-0.2-5.38l0.18-0.01
			c1.87-17.45-4.8-26.96-10.43-31.77c-4.05-6.34-9.12-11.62-14.91-15.49c3.16-11.34,5.36-24.89,5.56-39.82
			c0.06-4.14-0.06-8.22-0.34-12.21c-0.52-14.61-2.48-24.41-2.48-24.41l-2.01-12.96l0.04-0.13c0,0,0.77-0.67-8.26-12.07
			c-1.39-1.75-3.02-3.76-4.91-6.06c0,0,0.01-0.02,0.03-0.07C255.28,433.64,261.07,421.94,270.05,421.67z"/>
		<path fill="#D1D3D4" d="M292.4,599.2c4.83,6.47,0.79,17.55-2.81,25c-0.67,1.41-3.32,3.72-6.3,6.03c-2.51,1.93-5.26,3.86-7.3,5.22
			c-0.24-1.77-1.23-3.32-2.66-4.41c3.23-6.08,6.97-12.89,8.18-13.95c6.77-5.87,1.14-19.91,5.01-21.43c1.92-0.76,4.7,2.17,5.12,2.61
			C291.92,598.57,292.17,598.88,292.4,599.2z"/>
		<linearGradient id="SVGID_2_" gradientUnits="userSpaceOnUse" x1="282.0774" y1="573.7756" x2="292.8253" y2="573.7756">
			<stop  offset="0" style="stop-color:#2F5D7D"/>
			<stop  offset="1" style="stop-color:#2F5D7D"/>
		</linearGradient>
		<path fill="url(#SVGID_2_)" d="M282.08,557.88c5.63,4.82,12.3,14.33,10.43,31.77l-0.18,0.01
			C291.47,577.71,287.78,566.78,282.08,557.88z"/>
		<linearGradient id="SVGID_3_" gradientUnits="userSpaceOnUse" x1="195.9993" y1="598.4943" x2="292.5242" y2="598.4943">
			<stop  offset="0" style="stop-color:#2F5D7D"/>
			<stop  offset="1" style="stop-color:#2F5D7D"/>
		</linearGradient>
		<path fill="url(#SVGID_3_)" d="M206.45,557.88c4.14-6.48,9.35-11.86,15.3-15.76c1.01,3.29,2.05,6.4,3.09,9.31
			c4.95,13.9,12.47,25.12,20.24,25.12c7.68,0,14.12-11.03,19.05-24.63c1.08-2.96,2.1-6.15,3.04-9.53
			c5.79,3.87,10.86,9.15,14.91,15.49c5.7,8.89,9.39,19.83,10.25,31.78c0.14,1.77,0.2,3.57,0.2,5.38c0,1.4-0.04,2.77-0.12,4.15
			c-0.23-0.32-0.48-0.63-0.76-0.92c-0.42-0.44-3.2-3.37-5.12-2.61c-3.87,1.53,1.76,15.56-5.01,21.43
			c-1.22,1.06-4.96,7.87-8.18,13.95c-1.49-1.14-3.45-1.77-5.57-1.67c-4.39,0.22-7.79,3.52-7.6,7.39c0.19,3.8,3.74,6.71,8,6.63
			c0.09,0,0.19,0,0.28-0.01c4.39-0.21,7.79-3.52,7.6-7.39c-0.01-0.18-0.03-0.36-0.05-0.54c2.04-1.37,4.79-3.29,7.3-5.22
			c-1.89,3.21-4.03,6.19-6.39,8.87c-4.41,5.04-9.61,9.08-15.33,11.79c-0.21,0.12-0.43,0.22-0.65,0.32
			c-5.19,2.36-10.8,3.65-16.65,3.65s-11.46-1.29-16.65-3.65c-0.22-0.1-0.44-0.2-0.65-0.32c-4.44-2.1-8.58-5.01-12.27-8.57
			c1.33,0.75,2.94,1.15,4.64,1.06c0.53-0.02,1.06-0.1,1.56-0.21c3.61-0.82,6.21-3.78,6.04-7.18c-0.19-3.87-3.9-6.83-8.3-6.62
			c-1.38,0.07-2.66,0.44-3.77,1.05c-3.16-5.91-6.68-12.3-7.85-13.32c-6.77-5.87-1.14-19.91-5.01-21.43
			c-0.71-0.35-1.61-0.06-2.45,0.44c-0.09,0.05-0.18,0.1-0.27,0.16c-0.91,0.57-1.73,1.34-2.14,1.76c-0.06,0.05-0.1,0.1-0.14,0.14
			c-0.05,0.04-0.08,0.08-0.11,0.11c-0.28,0.29-0.53,0.6-0.76,0.92c-0.08-1.38-0.12-2.75-0.12-4.15c0-1.81,0.06-3.61,0.2-5.38
			C197.06,577.71,200.75,566.78,206.45,557.88z"/>
		<path fill="#2F5D7D" d="M276.91,639.1l-1.69,9.59c-2.27,1.43-3.99,2.86-4.9,4.26l-0.14-0.09c-1.66-1.83-4.71-1.33-7.71-0.12
			l-0.9-1.84c5.72-2.71,10.92-6.75,15.33-11.79H276.91z"/>
		<linearGradient id="SVGID_4_" gradientUnits="userSpaceOnUse" x1="268.1014" y1="639.4229" x2="276.0522" y2="639.4229">
			<stop  offset="0" style="stop-color:#2F5D7D"/>
			<stop  offset="1" style="stop-color:#2F5D7D"/>
		</linearGradient>
		<path fill="url(#SVGID_4_)" d="M276.04,635.99c0.19,3.87-3.21,7.18-7.6,7.39c-0.09,0.01-0.19,0.01-0.28,0.01l-0.06-2.5
			c0,0,0,0,0.01-0.01c0.28-0.23,5.08-4.04,4.93-3.55c0.36-0.19,1.47-0.89,2.96-1.87C276.01,635.63,276.03,635.81,276.04,635.99z"/>
		<path d="M273.33,631.05c1.44,1.09,2.42,2.63,2.66,4.41c-1.49,0.99-2.59,1.68-2.96,1.87c0.15-0.49-4.65,3.32-4.93,3.55
			C268.53,640.22,270.77,635.86,273.33,631.05z"/>
		<path fill="#2F5D7D" d="M272.38,490.36c0.28,3.99,0.4,8.08,0.34,12.21c-0.2,14.92-2.4,28.47-5.56,39.82
			c-0.16-0.11-0.31-0.22-0.47-0.32C272.05,523.37,272.91,504.59,272.38,490.36z"/>
		<path fill="#2F5D7D" d="M272.38,490.36c0.52,14.23-0.33,33.01-5.69,51.71c-0.77-0.51-1.57-0.99-2.37-1.45
			c4.71-11.73,7.59-27.69,7.59-45.27c0-6.87-0.44-13.49-1.27-19.71C271.45,480.36,272.04,485.29,272.38,490.36z"/>
		<linearGradient id="SVGID_5_" gradientUnits="userSpaceOnUse" x1="259.6655" y1="465.5748" x2="272.3847" y2="465.5748">
			<stop  offset="0" style="stop-color:#2F5D7D"/>
			<stop  offset="1" style="stop-color:#2F5D7D"/>
		</linearGradient>
		<path fill="url(#SVGID_5_)" d="M272.38,490.36c-0.34-5.07-0.94-10-1.74-14.71c-1.89-14.44-5.82-26.71-10.98-34.86
			c9.04,11.4,8.26,12.07,8.26,12.07l-0.04,0.13l2.01,12.96C269.9,465.95,271.86,475.75,272.38,490.36z"/>
		<linearGradient id="SVGID_6_" gradientUnits="userSpaceOnUse" x1="217.2281" y1="485.5484" x2="272.216" y2="485.5484">
			<stop  offset="0" style="stop-color:#2F5D7D"/>
			<stop  offset="1" style="stop-color:#2F5D7D"/>
		</linearGradient>
		<path fill="url(#SVGID_6_)" d="M270.93,475.76c0.83,6.28,1.28,12.97,1.28,19.91c0,17.75-2.92,33.87-7.69,45.72
			c-6.18-3.49-13.06-5.45-20.31-5.45c-6.92,0-13.51,1.78-19.48,4.99c-4.65-11.81-7.5-27.75-7.5-45.27c0-14.56,1.97-28.02,5.31-38.94
			c2.77-7.9,6.07-14.44,9.48-19.06c0.85-1.14,1.71-2.17,2.6-3.08c1.91-1.96,3.94-3.37,6.04-4.15c0.09-0.04,0.17-0.07,0.25-0.1
			c1.21-0.4,2.45-0.61,3.72-0.62c3.26,0.03,6.37,1.55,9.27,4.32v0.01c0.26,0.24,0.53,0.51,0.79,0.79c1.74,1.83,3.4,4.13,4.94,6.83
			C264.49,450.1,268.59,462.03,270.93,475.76z"/>
		<linearGradient id="SVGID_7_" gradientUnits="userSpaceOnUse" x1="259.7906" y1="672.1617" x2="274.8886" y2="672.1617">
			<stop  offset="0.0189" style="stop-color:#52839A"/>
			<stop  offset="1" style="stop-color:#2F5D7D"/>
		</linearGradient>
		<path fill="url(#SVGID_7_)" d="M270.18,653.17c-5.78,9.75,14.44,31.7-1.66,37.98C268.52,691.15,247.81,690.76,270.18,653.17z"/>
		<linearGradient id="SVGID_8_" gradientUnits="userSpaceOnUse" x1="260.1505" y1="636.378" x2="273.3298" y2="636.378">
			<stop  offset="0" style="stop-color:#2F5D7D"/>
			<stop  offset="1" style="stop-color:#2F5D7D"/>
		</linearGradient>
		<path fill="url(#SVGID_8_)" d="M267.76,629.37c2.12-0.1,4.08,0.54,5.57,1.67c-2.56,4.82-4.8,9.17-5.22,9.83
			c-0.01,0.01-0.01,0.01-0.01,0.01l0.06,2.5c-4.26,0.08-7.81-2.83-8-6.63C259.97,632.89,263.37,629.59,267.76,629.37z"/>
		<linearGradient id="SVGID_9_" gradientUnits="userSpaceOnUse" x1="244.664" y1="452.8541" x2="270.6452" y2="452.8541">
			<stop  offset="0" style="stop-color:#2F5D7D"/>
			<stop  offset="1" style="stop-color:#2F5D7D"/>
		</linearGradient>
		<path fill="url(#SVGID_9_)" d="M254,433.95c0.26,0.22,0.52,0.46,0.78,0.71c-0.02,0.05-0.03,0.07-0.03,0.07
			c1.89,2.3,3.52,4.31,4.91,6.06c5.16,8.15,9.09,20.43,10.98,34.86c-2.31-13.59-6.36-25.4-11.17-33.77
			c-1.52-2.67-3.16-4.94-4.88-6.76c-0.26-0.27-0.52-0.54-0.78-0.78v-0.01c-2.86-2.74-5.93-4.25-9.15-4.28c0.03,0,0.07,0,0.1,0
			C248.01,430.06,251.12,431.43,254,433.95L254,433.95z"/>
		<path fill="#13364D" d="M266.69,542.07c0.16,0.1,0.31,0.21,0.47,0.32c-0.94,3.38-1.96,6.57-3.04,9.53
			c-4.94,13.61-11.37,24.63-19.05,24.63c-7.77,0-15.29-11.23-20.24-25.12c-1.04-2.91-2.08-6.02-3.09-9.31
			c0.03-0.01,0.05-0.03,0.08-0.05c1.05-0.68,2.11-1.32,3.2-1.89c4.95,12.61,11.97,20.48,19.74,20.48c7.68,0,14.62-7.69,19.56-20.03
			C265.13,541.09,265.92,541.57,266.69,542.07z"/>
		<linearGradient id="SVGID_10_" gradientUnits="userSpaceOnUse" x1="226.0528" y1="654.2521" x2="262.4708" y2="654.2521">
			<stop  offset="0.0189" style="stop-color:#52839A"/>
			<stop  offset="1" style="stop-color:#2F5D7D"/>
		</linearGradient>
		<path fill="url(#SVGID_10_)" d="M261.57,650.9l0.9,1.84c-0.23,0.09-0.45,0.19-0.68,0.29c-3.98,1.76-7.69,4.58-7.69,4.58h-9.89
			h-9.77c0,0-3.71-2.81-7.69-4.58c-0.23-0.1-0.45-0.2-0.68-0.29l0.9-1.84c0.21,0.12,0.43,0.22,0.65,0.32
			c5.19,2.36,10.8,3.65,16.65,3.65s11.46-1.29,16.65-3.65C261.13,651.12,261.35,651.02,261.57,650.9z"/>
		<path fill="#13364D" d="M264.32,540.63c-4.94,12.34-11.87,20.03-19.56,20.03c-7.77,0-14.79-7.87-19.74-20.48
			c5.89-3.18,12.4-4.94,19.23-4.94C251.42,535.23,258.22,537.17,264.32,540.63z"/>
		<linearGradient id="SVGID_11_" gradientUnits="userSpaceOnUse" x1="234.8908" y1="401.084" x2="254.0047" y2="401.084">
			<stop  offset="0.0189" style="stop-color:#52839A"/>
			<stop  offset="1" style="stop-color:#2F5D7D"/>
		</linearGradient>
		<path fill="url(#SVGID_11_)" d="M254,433.94c-2.89-2.51-5.99-3.88-9.24-3.88c-0.03,0-0.07,0-0.1,0s-0.06,0-0.09,0
			c-1.22,0-2.4,0.21-3.58,0.62c-0.08,0.03-0.16,0.06-0.25,0.1c-2,0.71-3.93,1.95-5.77,3.66l-0.08-0.08
			c10.49-63.23,9.99-60.64,9.89-66.62C245.2,374.23,253.7,431.91,254,433.94z"/>
		<linearGradient id="SVGID_12_" gradientUnits="userSpaceOnUse" x1="240.994" y1="430.3685" x2="244.664" y2="430.3685">
			<stop  offset="0" style="stop-color:#2F5D7D"/>
			<stop  offset="1" style="stop-color:#2F5D7D"/>
		</linearGradient>
		<path fill="url(#SVGID_12_)" d="M244.57,430.06c0.03,0,0.06,0,0.09,0c-1.25,0.01-2.47,0.22-3.67,0.62
			C242.17,430.27,243.36,430.06,244.57,430.06z"/>
		<linearGradient id="SVGID_13_" gradientUnits="userSpaceOnUse" x1="222.8554" y1="443.7921" x2="240.7426" y2="443.7921">
			<stop  offset="0" style="stop-color:#2F5D7D"/>
			<stop  offset="1" style="stop-color:#2F5D7D"/>
		</linearGradient>
		<path fill="url(#SVGID_13_)" d="M234.97,434.44c1.84-1.7,3.77-2.95,5.77-3.66c-2.07,0.77-4.07,2.16-5.96,4.11
			c-0.87,0.9-1.73,1.92-2.56,3.05c-3.37,4.58-6.63,11.05-9.36,18.87c2.49-8.19,5.76-14.93,9.55-19.6
			C233.24,436.18,234.1,435.25,234.97,434.44z"/>
		<linearGradient id="SVGID_14_" gradientUnits="userSpaceOnUse" x1="31.5452" y1="535.3094" x2="233.7647" y2="535.3094">
			<stop  offset="0" style="stop-color:#FFF33B"/>
			<stop  offset="0.0595" style="stop-color:#FFE029"/>
			<stop  offset="0.1303" style="stop-color:#FFD217"/>
			<stop  offset="0.2032" style="stop-color:#FEC90E"/>
			<stop  offset="0.2809" style="stop-color:#FDC70C"/>
			<stop  offset="0.6685" style="stop-color:#F3903F"/>
			<stop  offset="0.8876" style="stop-color:#ED683C"/>
			<stop  offset="1" style="stop-color:#E93E3A"/>
		</linearGradient>
		<path fill="url(#SVGID_14_)" d="M233.76,434.73c-0.61,0.75-1.21,1.47-1.77,2.15c-12.11,14.8-11.79,15.64-11.44,15.94l-1.25,12.09
			c0,0-1.2,5.62-2.09,14.66c0,0.02,0,0.03,0,0.05c-1.15,7.24-1.8,14.96-1.8,22.95c0,14.8,2.9,28.25,6.33,39.55
			c-5.95,3.9-11.16,9.28-15.3,15.76c-5.63,4.82-12.3,14.33-10.43,31.77l0.18,0.01c-0.14,1.77-0.2,3.57-0.2,5.38
			c0,1.4,0.04,2.77,0.12,4.15c-0.34,0.46-0.63,0.95-0.89,1.46c-2.2,6.53,0.6,17.12,3.7,23.55c0.67,1.41,3.32,3.72,6.3,6.03
			c1.88,3.21,4.02,6.18,6.38,8.86c0.27,0.6,0.63,1.15,1.08,1.63l-0.22,0.2l1.38,7.83l-0.13,0.2c-13.33-8.69-47.66-17.59-47.66-17.59
			C40.58,557.61,31.55,497.78,31.55,497.78c81.5,17.83,186.93-76.11,186.93-76.11C227.85,421.95,233.76,434.73,233.76,434.73z"/>
		<linearGradient id="SVGID_15_" gradientUnits="userSpaceOnUse" x1="217.2147" y1="458.2274" x2="232.4073" y2="458.2274">
			<stop  offset="0" style="stop-color:#2F5D7D"/>
			<stop  offset="1" style="stop-color:#2F5D7D"/>
		</linearGradient>
		<path fill="url(#SVGID_15_)" d="M220.55,452.82c-0.35-0.3-0.66-1.14,11.44-15.94l0.41,0.33c-3.79,4.67-7.06,11.4-9.55,19.6
			c-2.35,6.71-4.31,14.42-5.64,22.77c0.89-9.04,2.09-14.66,2.09-14.66L220.55,452.82z"/>
		<path fill="#52839A" d="M226.96,650.9l-0.9,1.84c-3.01-1.21-6.05-1.71-7.71,0.12l-0.14,0.09c-0.85-1.31-2.41-2.65-4.48-4l0.13-0.2
			l-1.38-7.83l0.22-0.2c0.55,0.63,1.23,1.18,2,1.6C218.38,645.88,222.51,648.79,226.96,650.9z"/>
		<linearGradient id="SVGID_16_" gradientUnits="userSpaceOnUse" x1="214.8619" y1="636.2674" x2="226.9355" y2="636.2674">
			<stop  offset="0" style="stop-color:#2F5D7D"/>
			<stop  offset="1" style="stop-color:#2F5D7D"/>
		</linearGradient>
		<path fill="url(#SVGID_16_)" d="M226.93,635.99c0.17,3.4-2.43,6.36-6.04,7.18l-0.46-2.28c0,0,0-0.01-0.01-0.01
			c-0.43-0.69-2.86-5.4-5.55-10.46c1.11-0.61,2.39-0.98,3.77-1.05C223.03,629.16,226.74,632.13,226.93,635.99z"/>
		<linearGradient id="SVGID_17_" gradientUnits="userSpaceOnUse" x1="216.25" y1="499.4402" x2="225.0272" y2="499.4402">
			<stop  offset="0" style="stop-color:#2F5D7D"/>
			<stop  offset="1" style="stop-color:#2F5D7D"/>
		</linearGradient>
		<path fill="url(#SVGID_17_)" d="M225.03,540.18c-1.09,0.58-2.15,1.22-3.2,1.89c-6.75-23.54-6.08-47.59-4.62-62.45
			c0-0.02,0-0.03,0-0.05c1.33-8.35,3.29-16.06,5.64-22.77c-3.3,10.81-5.24,24.14-5.24,38.55
			C217.62,512.7,220.43,528.49,225.03,540.18z"/>
		<path fill="#2F5D7D" d="M221.83,542.07c-0.03,0.02-0.05,0.04-0.08,0.05c-3.44-11.3-6.33-24.74-6.33-39.55
			c0-7.99,0.65-15.71,1.8-22.95C215.75,494.48,215.08,518.54,221.83,542.07z"/>
		<linearGradient id="SVGID_18_" gradientUnits="userSpaceOnUse" x1="211.0224" y1="639.0104" x2="220.8847" y2="639.0104">
			<stop  offset="0" style="stop-color:#2F5D7D"/>
			<stop  offset="1" style="stop-color:#2F5D7D"/>
		</linearGradient>
		<path fill="url(#SVGID_18_)" d="M220.42,640.89l0.46,2.28c-0.5,0.11-1.03,0.19-1.56,0.21c-1.7,0.09-3.31-0.31-4.64-1.06
			c-1.07-1.02-2.09-2.1-3.08-3.23c-0.34-0.72-0.54-1.51-0.58-2.33c-0.04-0.74,0.06-1.46,0.27-2.13c2.09,1.43,3.72,2.46,4.18,2.7
			c-0.15-0.49,4.65,3.32,4.93,3.55C220.42,640.88,220.42,640.89,220.42,640.89z"/>
		<linearGradient id="SVGID_19_" gradientUnits="userSpaceOnUse" x1="213.6349" y1="672.1617" x2="228.7329" y2="672.1617">
			<stop  offset="0.0189" style="stop-color:#52839A"/>
			<stop  offset="1" style="stop-color:#2F5D7D"/>
		</linearGradient>
		<path fill="url(#SVGID_19_)" d="M218.34,653.17c22.37,37.59,1.66,37.98,1.66,37.98C203.9,684.87,224.12,662.92,218.34,653.17z"/>
		<path d="M220.41,640.88c-0.28-0.23-5.08-4.04-4.93-3.55c-0.46-0.24-2.09-1.28-4.18-2.7c0.53-1.76,1.83-3.27,3.56-4.21
			C217.56,635.48,219.98,640.19,220.41,640.88z"/>
		<path fill="#D1D3D4" d="M205.23,630.23c-2.99-2.31-5.63-4.63-6.3-6.03c-3.1-6.43-5.9-17.02-3.7-23.55c0.26-0.51,0.55-1,0.89-1.46
			c0.23-0.32,0.48-0.63,0.76-0.92c0.03-0.03,0.07-0.06,0.11-0.11c0.04-0.04,0.09-0.09,0.14-0.14c0.44-0.43,1.25-1.19,2.14-1.76
			c0.09-0.06,0.18-0.11,0.27-0.16c0.82-0.47,1.7-0.74,2.45-0.44c3.87,1.53-1.76,15.56,5.01,21.43c1.18,1.02,4.7,7.41,7.85,13.32
			c-1.73,0.94-3.03,2.44-3.56,4.21C209.46,633.36,207.27,631.8,205.23,630.23z"/>
		<linearGradient id="SVGID_20_" gradientUnits="userSpaceOnUse" x1="205.2295" y1="634.6626" x2="211.6143" y2="634.6626">
			<stop  offset="0" style="stop-color:#2F5D7D"/>
			<stop  offset="1" style="stop-color:#2F5D7D"/>
		</linearGradient>
		<path fill="url(#SVGID_20_)" d="M211.03,636.76c0.04,0.83,0.24,1.61,0.58,2.33c-2.36-2.68-4.5-5.65-6.38-8.86
			c2.04,1.57,4.23,3.13,6.07,4.4C211.09,635.31,210.99,636.02,211.03,636.76z"/>
		<linearGradient id="SVGID_21_" gradientUnits="userSpaceOnUse" x1="199.5486" y1="595.8107" x2="202.002" y2="595.8107">
			<stop  offset="0" style="stop-color:#2F5D7D"/>
			<stop  offset="1" style="stop-color:#2F5D7D"/>
		</linearGradient>
		<path fill="url(#SVGID_21_)" d="M202,595.67c-0.75-0.3-1.63-0.03-2.45,0.44C200.39,595.61,201.29,595.32,202,595.67z"/>
		<linearGradient id="SVGID_22_" gradientUnits="userSpaceOnUse" x1="195.6983" y1="573.7756" x2="206.4462" y2="573.7756">
			<stop  offset="0" style="stop-color:#2F5D7D"/>
			<stop  offset="1" style="stop-color:#2F5D7D"/>
		</linearGradient>
		<path fill="url(#SVGID_22_)" d="M206.45,557.88c-5.7,8.89-9.39,19.83-10.25,31.78l-0.18-0.01
			C194.15,572.21,200.82,562.7,206.45,557.88z"/>
		<linearGradient id="SVGID_23_" gradientUnits="userSpaceOnUse" x1="197.1355" y1="597.1484" x2="199.2772" y2="597.1484">
			<stop  offset="0" style="stop-color:#FFF33B"/>
			<stop  offset="0.0595" style="stop-color:#FFE029"/>
			<stop  offset="0.1303" style="stop-color:#FFD217"/>
			<stop  offset="0.2032" style="stop-color:#FEC90E"/>
			<stop  offset="0.2809" style="stop-color:#FDC70C"/>
			<stop  offset="0.6685" style="stop-color:#F3903F"/>
			<stop  offset="0.8876" style="stop-color:#ED683C"/>
			<stop  offset="1" style="stop-color:#E93E3A"/>
		</linearGradient>
		<path fill="url(#SVGID_23_)" d="M199.28,596.27c-0.89,0.58-1.7,1.34-2.14,1.76C197.55,597.6,198.36,596.83,199.28,596.27z"/>
		<linearGradient id="SVGID_24_" gradientUnits="userSpaceOnUse" x1="196.9948" y1="598.1005" x2="197.1355" y2="598.1005">
			<stop  offset="0" style="stop-color:#FFF33B"/>
			<stop  offset="0.0595" style="stop-color:#FFE029"/>
			<stop  offset="0.1303" style="stop-color:#FFD217"/>
			<stop  offset="0.2032" style="stop-color:#FEC90E"/>
			<stop  offset="0.2809" style="stop-color:#FDC70C"/>
			<stop  offset="0.6685" style="stop-color:#F3903F"/>
			<stop  offset="0.8876" style="stop-color:#ED683C"/>
			<stop  offset="1" style="stop-color:#E93E3A"/>
		</linearGradient>
		<path fill="url(#SVGID_24_)" d="M197.14,598.03c-0.05,0.05-0.1,0.1-0.14,0.14C197.03,598.13,197.08,598.08,197.14,598.03z"/>
		<linearGradient id="SVGID_25_" gradientUnits="userSpaceOnUse" x1="196.8842" y1="598.2251" x2="196.9948" y2="598.2251">
			<stop  offset="0" style="stop-color:#FFF33B"/>
			<stop  offset="0.0595" style="stop-color:#FFE029"/>
			<stop  offset="0.1303" style="stop-color:#FFD217"/>
			<stop  offset="0.2032" style="stop-color:#FEC90E"/>
			<stop  offset="0.2809" style="stop-color:#FDC70C"/>
			<stop  offset="0.6685" style="stop-color:#F3903F"/>
			<stop  offset="0.8876" style="stop-color:#ED683C"/>
			<stop  offset="1" style="stop-color:#E93E3A"/>
		</linearGradient>
		<path fill="url(#SVGID_25_)" d="M196.99,598.17c-0.04,0.05-0.08,0.08-0.11,0.11C196.91,598.25,196.94,598.21,196.99,598.17z"/>
	</g>
	<g>
		<path fill="none" stroke="#000000" stroke-width="0.5" stroke-linecap="round" stroke-linejoin="round" d="M224.99,540.18
			c4.92,12.61,11.9,20.48,19.63,20.48c7.64,0,14.54-7.69,19.45-20.03"/>
		<path fill="none" stroke="#000000" stroke-width="0.5" stroke-linecap="round" stroke-linejoin="round" d="M199.38,596.27
			c-0.91,0.57-1.72,1.34-2.13,1.76c-0.06,0.05-0.1,0.1-0.14,0.14c-0.05,0.04-0.08,0.08-0.11,0.11"/>
		<path fill="none" stroke="#000000" stroke-width="0.5" stroke-linecap="round" stroke-linejoin="round" d="M202.09,595.67
			c-0.75-0.3-1.62-0.03-2.44,0.44"/>
		<path fill="none" stroke="#000000" stroke-width="0.5" stroke-linecap="round" stroke-linejoin="round" d="M244.52,430.06
			c0.03,0,0.07,0,0.1,0c3.23,0,6.32,1.37,9.19,3.88v0.01c0.26,0.22,0.52,0.46,0.78,0.71"/>
		<path fill="none" stroke="#2F5D7D" stroke-miterlimit="10" d="M222.83,456.81c2.48-8.19,5.73-14.93,9.5-19.6
			c0.83-1.03,1.68-1.95,2.55-2.77"/>
		<path fill="none" d="M259.44,440.79c5.13,8.15,9.04,20.43,10.92,34.86"/>
		<path fill="none" stroke="#000000" stroke-width="0.5" stroke-linecap="round" stroke-linejoin="round" d="M218.34,653.17
			c-0.04-0.07-0.09-0.15-0.14-0.22c-0.85-1.31-2.4-2.65-4.46-4c-13.26-8.69-47.4-17.59-47.4-17.59
			C41.55,557.61,32.56,497.78,32.56,497.78c81.06,17.83,185.91-76.11,185.91-76.11c9.33,0.29,15.21,13.06,15.21,13.06
			c-0.61,0.75-1.2,1.47-1.76,2.15c-12.04,14.8-11.73,15.64-11.38,15.94c0.01,0.02,0.03,0.03,0.04,0.04"/>
		<path fill="none" stroke="#000000" stroke-width="0.5" stroke-linecap="round" stroke-linejoin="round" d="M218.34,653.17
			c22.25,37.59,1.65,37.98,1.65,37.98C203.98,684.87,224.09,662.92,218.34,653.17z"/>
		<path fill="none" stroke="#000000" stroke-width="0.5" stroke-linecap="round" stroke-linejoin="round" d="M217.22,479.63
			c-1.46,14.85-2.12,38.91,4.59,62.45c0.57,1.99,1.19,3.99,1.86,5.97"/>
		<path fill="none" stroke="#000000" stroke-width="0.5" stroke-linecap="round" stroke-linejoin="round" d="M219.3,464.91
			c0,0-1.19,5.62-2.08,14.66"/>
		<path fill="none" stroke="#000000" stroke-width="0.5" stroke-linecap="round" stroke-linejoin="round" d="M213.51,553.55
			c0,0-3.27,1.13-7,4.34c-5.6,4.82-12.23,14.33-10.37,31.77"/>
		<path fill="none" stroke="#000000" stroke-width="0.5" stroke-linecap="round" stroke-linejoin="round" d="M195.35,600.65
			c-2.19,6.53,0.6,17.12,3.68,23.55c0.67,1.41,3.3,3.72,6.27,6.03c2.03,1.57,4.21,3.13,6.04,4.4c2.08,1.43,3.7,2.46,4.16,2.7
			c-0.15-0.49,4.62,3.32,4.9,3.55"/>
		<path fill="none" stroke="#000000" stroke-width="0.5" stroke-linecap="round" stroke-linejoin="round" d="M220.41,640.89
			c0,0,0-0.01-0.01-0.01c-0.43-0.69-2.84-5.4-5.52-10.46c-3.14-5.91-6.64-12.3-7.81-13.32c-6.73-5.87-1.13-19.91-4.98-21.43
			c-0.71-0.35-1.6-0.06-2.44,0.44c-0.09,0.05-0.18,0.1-0.27,0.16c-0.89,0.58-1.69,1.34-2.13,1.76c-0.05,0.05-0.1,0.1-0.14,0.14
			c-0.04,0.05-0.08,0.08-0.11,0.11c-0.28,0.29-0.53,0.6-0.76,0.92c-0.34,0.46-0.63,0.95-0.89,1.46"/>
		<path fill="none" stroke="#000000" stroke-width="0.5" stroke-linecap="round" stroke-linejoin="round" d="M244.06,657.61h-9.72
			c0,0-3.69-2.81-7.65-4.58c-0.23-0.1-0.45-0.2-0.68-0.29c-2.99-1.21-6.02-1.71-7.67,0.12"/>
		<path fill="none" stroke="#000000" stroke-width="0.5" stroke-linecap="round" stroke-linejoin="round" d="M269.9,653.17
			c0.04-0.07,0.09-0.15,0.14-0.22c0.9-1.4,2.61-2.83,4.87-4.26c13.54-8.61,46.99-17.33,46.99-17.33
			c124.79-73.76,133.78-133.59,133.78-133.59c-81.06,17.83-185.91-76.11-185.91-76.11c-8.93,0.28-14.69,11.97-15.18,12.99
			c-0.02,0.05-0.03,0.07-0.03,0.07c1.88,2.3,3.5,4.31,4.88,6.06c8.99,11.4,8.22,12.07,8.22,12.07"/>
		<path fill="none" stroke="#000000" stroke-width="0.5" stroke-linecap="round" stroke-linejoin="round" d="M269.9,653.17
			c-22.25,37.59-1.65,37.98-1.65,37.98C284.26,684.87,264.15,662.92,269.9,653.17z"/>
		<path fill="none" stroke="#000000" stroke-width="0.5" stroke-linecap="round" stroke-linejoin="round" d="M234.8,434.36
			c10.43-63.23,9.94-60.64,9.84-66.62"/>
		<path fill="none" stroke="#000000" stroke-width="0.5" stroke-linecap="round" stroke-linejoin="round" d="M253.81,433.95
			c0.01,0.03,0.01,0.05,0.01,0.05"/>
		<path fill="none" stroke="#000000" stroke-width="0.5" stroke-linecap="round" stroke-linejoin="round" d="M244.63,367.35
			c0,0.1,0.01,0.23,0.01,0.38c0.41,6.5,8.87,64.18,9.17,66.21"/>
		<path fill="none" stroke="#000000" stroke-width="0.5" stroke-linecap="round" stroke-linejoin="round" d="M264.57,548.05
			c0.67-1.98,1.29-3.98,1.86-5.97c5.33-18.7,6.18-37.48,5.66-51.71c-0.52-14.61-2.47-24.41-2.47-24.41"/>
		<path fill="none" stroke="#000000" stroke-width="0.5" stroke-linecap="round" stroke-linejoin="round" d="M292.1,589.66
			c1.86-17.45-4.77-26.96-10.37-31.77c-3.73-3.21-7-4.34-7-4.34"/>
		<path fill="none" stroke="#000000" stroke-width="0.5" stroke-linecap="round" stroke-linejoin="round" d="M267.83,640.89
			c0,0,0,0,0.01-0.01c0.28-0.23,5.05-4.04,4.9-3.55c0.36-0.19,1.46-0.89,2.94-1.87c2.03-1.37,4.76-3.29,7.26-5.22
			c2.97-2.31,5.6-4.63,6.27-6.03c3.58-7.46,7.59-18.53,2.79-25c-0.23-0.32-0.48-0.63-0.76-0.92c-0.42-0.44-3.18-3.37-5.09-2.61
			c-3.85,1.53,1.75,15.56-4.98,21.43c-1.21,1.06-4.93,7.87-8.14,13.95c-2.55,4.82-4.77,9.17-5.19,9.83"/>
		<path fill="none" stroke="#000000" stroke-width="0.5" stroke-linecap="round" stroke-linejoin="round" d="M269.9,652.86
			c-1.65-1.83-4.68-1.33-7.67-0.12c-0.23,0.09-0.45,0.19-0.68,0.29c-3.96,1.76-7.65,4.58-7.65,4.58h-9.84"/>
		<path fill="none" d="M272.09,490.36c-0.34-5.07-0.93-10-1.73-14.71"/>
		<path fill="none" stroke="#2F5D7D" stroke-width="0.5" stroke-linecap="round" stroke-linejoin="round" d="M222.83,456.81
			c-2.34,6.71-4.29,14.42-5.61,22.77c0,0.02,0,0.03,0,0.05c-1.14,7.24-1.79,14.96-1.79,22.95c0,14.8,2.88,28.25,6.3,39.55"/>
		<path fill="none" stroke="#000000" stroke-width="0.5" stroke-linecap="round" stroke-linejoin="round" d="M244.52,430.06
			c-0.03,0-0.06,0-0.09,0c-1.21,0-2.39,0.21-3.56,0.62"/>
		<path fill="none" stroke="#000000" stroke-width="0.5" stroke-linecap="round" stroke-linejoin="round" d="M282.94,630.23
			c0.19-0.33,0.38-0.66,0.57-1"/>
		<path display="none" fill="none" stroke="#000000" stroke-width="0.5" stroke-linecap="round" stroke-linejoin="round" d="
			M204.8,629.34c0.17,0.3,0.33,0.6,0.5,0.89c1.87,3.21,4,6.18,6.35,8.86c0.98,1.13,2,2.21,3.06,3.23c3.67,3.56,7.78,6.47,12.2,8.57
			c0.21,0.12,0.43,0.22,0.65,0.32c5.16,2.36,10.74,3.65,16.56,3.65c5.82,0,11.4-1.29,16.56-3.65c0.22-0.1,0.44-0.2,0.65-0.32
			c5.69-2.71,10.86-6.75,15.25-11.79c2.35-2.68,4.48-5.66,6.36-8.87"/>
		<path display="none" fill="none" stroke="#000000" stroke-width="0.5" stroke-linecap="round" stroke-linejoin="round" d="
			M292,599.2c0.08-1.38,0.12-2.75,0.12-4.15c0-1.81-0.06-3.61-0.2-5.38c-0.85-11.95-4.52-22.89-10.19-31.78
			c-4.03-6.34-9.07-11.62-14.83-15.49c-0.16-0.11-0.31-0.22-0.47-0.32c-0.77-0.51-1.56-0.99-2.36-1.45
			c-6.07-3.46-12.83-5.39-19.95-5.39c-6.8,0-13.27,1.76-19.13,4.94c-1.08,0.58-2.14,1.22-3.18,1.89c-0.03,0.02-0.05,0.04-0.08,0.05
			c-5.92,3.9-11.1,9.28-15.22,15.76c-5.67,8.89-9.34,19.83-10.19,31.78c-0.14,1.77-0.2,3.57-0.2,5.38c0,1.4,0.04,2.77,0.12,4.15
			c0.02,0.28,0.04,0.56,0.06,0.83"/>
		<path fill="none" stroke="#000000" stroke-width="0.5" stroke-linecap="round" stroke-linejoin="round" d="M291.95,599.89
			c0.01-0.23,0.04-0.47,0.05-0.7"/>
		<polyline fill="none" stroke="#000000" stroke-width="0.5" stroke-linecap="round" stroke-linejoin="round" points="
			220.62,451.99 220.54,452.82 219.3,464.91 		"/>
		
			<line fill="none" stroke="#000000" stroke-width="0.5" stroke-linecap="round" stroke-linejoin="round" x1="269.62" y1="465.95" x2="267.62" y2="452.99"/>
		<path display="none" fill="none" stroke="#000000" stroke-width="0.5" stroke-linecap="round" stroke-linejoin="round" d="
			M214.88,630.42c1.1-0.61,2.38-0.98,3.75-1.05c4.37-0.21,8.06,2.75,8.25,6.62c0.17,3.4-2.42,6.36-6.01,7.18
			c-0.5,0.11-1.02,0.19-1.55,0.21c-1.69,0.09-3.29-0.31-4.61-1.06c-0.77-0.42-1.44-0.97-1.99-1.6c-0.44-0.49-0.8-1.04-1.07-1.63
			c-0.34-0.72-0.54-1.51-0.58-2.33c-0.04-0.74,0.06-1.46,0.27-2.13C211.87,632.86,213.16,631.36,214.88,630.42z"/>
		<path display="none" fill="none" stroke="#000000" stroke-width="0.5" stroke-linecap="round" stroke-linejoin="round" d="
			M275.68,635.46c0.02,0.18,0.04,0.36,0.05,0.54c0.19,3.87-3.19,7.18-7.56,7.39c-0.09,0.01-0.19,0.01-0.28,0.01
			c-4.24,0.08-7.77-2.83-7.96-6.63c-0.19-3.87,3.19-7.17,7.56-7.39c2.11-0.1,4.06,0.54,5.54,1.67
			C274.46,632.14,275.44,633.68,275.68,635.46z"/>
		
			<line fill="none" stroke="#000000" stroke-width="0.5" stroke-linecap="round" stroke-linejoin="round" x1="212.5" y1="640.93" x2="213.87" y2="648.75"/>
		<polyline fill="none" stroke="#000000" stroke-width="0.5" stroke-linecap="round" stroke-linejoin="round" points="276.59,639.1 
			274.91,648.69 274.9,648.75 		"/>
	</g>
	<polyline fill="none" stroke="#000000" stroke-width="0.2" stroke-miterlimit="10" points="217.74,474.82 217.07,480.56 
		217.03,483.76 	"/>
	<g id="WeatherIcon">
		<g>
			<g>
				<polygon fill="#FFC50F" points="261.56,553.41 228.28,549.16 259.42,561.69 232.1,542.14 254.31,567.38 237.9,538.02 
					247.89,570.15 244.45,536.68 241.05,570.16 251.03,538.03 234.52,567.33 256.89,542.23 229.41,561.57 260.63,549.2 
					227.34,553.41 260.62,557.66 229.48,545.13 256.8,564.68 234.59,539.44 251,568.8 241.01,536.66 244.45,570.14 247.85,536.66 
					237.87,568.79 254.38,539.49 232.01,564.59 259.49,545.25 228.27,557.62 				"/>
			</g>
			
				<ellipse fill="#FFC50F" stroke="#FFFFFF" stroke-width="6.0025" stroke-miterlimit="10" cx="244.65" cy="553.23" rx="2.56" ry="2.34"/>
		</g>
	</g>
</g>
<g id="_x5F_Logo_x5F_Title">
	<g>
		<g>
			<linearGradient id="SVGID_26_" gradientUnits="userSpaceOnUse" x1="56.3587" y1="64.1329" x2="130.8441" y2="64.1329">
				<stop  offset="0" style="stop-color:#FFF33B"/>
				<stop  offset="0.0595" style="stop-color:#FFE029"/>
				<stop  offset="0.1303" style="stop-color:#FFD217"/>
				<stop  offset="0.2032" style="stop-color:#FEC90E"/>
				<stop  offset="0.2809" style="stop-color:#FDC70C"/>
				<stop  offset="0.6685" style="stop-color:#F3903F"/>
				<stop  offset="0.8876" style="stop-color:#ED683C"/>
				<stop  offset="1" style="stop-color:#E93E3A"/>
			</linearGradient>
			<path fill="url(#SVGID_26_)" stroke="#13364D" stroke-linejoin="round" stroke-miterlimit="10" d="M62.71,35.08
				c5.44,0,8.17,0,13.61,0c7.11,18.54,10.67,27.8,17.79,46.34c4.08-10.17,6.12-15.26,10.2-25.44c3.85-9.58,6.38-16.55,7.6-20.9
				c5.93,0,8.89,0,14.82,0c0,0.84,0,1.26,0,2.1c-2.41,0.06-4.09,0.48-5.04,1.27c-0.95,0.79-1.43,2.23-1.43,4.34
				c0,0.29,0.01,0.63,0.04,1.01c1.26,13.99,1.89,20.98,3.16,34.97c0.39,4.29,1.03,7.06,1.93,8.28s2.72,1.88,5.46,1.97
				c0,0.84,0,1.26,0,2.1c-8.17,0-12.26,0-20.43,0c0-0.84,0-1.26,0-2.1c2.08-0.06,3.54-0.5,4.4-1.31c0.86-0.82,1.29-2.41,1.29-4.78
				c0-0.47-0.03-0.96-0.08-1.49c-1.3-13.92-1.96-20.88-3.26-34.8c-4.72,8.85-8.09,15.78-10.11,20.77
				c-4.17,10.31-6.25,15.46-10.42,25.77c-0.75,0-1.12,0-1.87,0c-6.48-17-12.95-34.01-19.43-51.01c-0.56,6.29-0.85,9.44-1.41,15.73
				c-0.64,7.1-0.95,12.72-0.95,16.87c0,9.23,2.19,13.98,6.56,14.24c0,0.84,0,1.26,0,2.1c-7.51,0-11.26,0-18.77,0
				c0-0.84,0-1.26,0-2.1c1.94-0.47,3.47-1.77,4.61-3.92c1.13-2.15,2.3-5.97,3.51-11.48c1.2-5.51,2.08-11.39,2.64-17.64
				c0.42-4.66,0.62-6.99,1.04-11.66c0.03-0.56,0.04-1.15,0.04-1.8c0-2.07-0.39-3.47-1.16-4.19s-2.21-1.1-4.32-1.16
				C62.71,36.34,62.71,35.92,62.71,35.08z"/>
			<linearGradient id="SVGID_27_" gradientUnits="userSpaceOnUse" x1="133.7921" y1="73.6215" x2="170.7829" y2="73.6215">
				<stop  offset="0" style="stop-color:#FFF33B"/>
				<stop  offset="0.0595" style="stop-color:#FFE029"/>
				<stop  offset="0.1303" style="stop-color:#FFD217"/>
				<stop  offset="0.2032" style="stop-color:#FEC90E"/>
				<stop  offset="0.2809" style="stop-color:#FDC70C"/>
				<stop  offset="0.6685" style="stop-color:#F3903F"/>
				<stop  offset="0.8876" style="stop-color:#ED683C"/>
				<stop  offset="1" style="stop-color:#E93E3A"/>
			</linearGradient>
			<path fill="url(#SVGID_27_)" stroke="#13364D" stroke-linejoin="round" stroke-miterlimit="10" d="M137.82,56.42
				c6.38-4.44,12.38-6.66,18.01-6.66c2.63,0,4.53,0.61,5.7,1.84c1.16,1.23,1.73,3.3,1.7,6.22c0,10.96,0,15.72,0.03,31.29
				c0,1.87,0.57,2.87,1.7,3.14c1.1,0.26,3.04-1.03,5.82-4.9c0,1.75,0.01,2.63,0.01,4.31c-4.2,5.82-7.64,6.31-10.3,5.55
				c-2.38-0.68-3.58-2.18-3.58-5.55c0-3.12-0.01-4.95-0.01-8.38c-3.45,4.55-6.38,7.06-8.78,8.36s-4.66,1.65-6.8,1.37
				c-2.08-0.27-3.85-1.22-5.32-3.01c-1.47-1.8-2.2-3.91-2.2-6.39c0-6.4,7.69-13.19,23.08-20.53c0-2.1,0-3.16,0-5.26
				c0-1.61-0.46-2.94-1.37-3.99c-0.91-1.05-2.17-1.58-3.78-1.58c-2.74,0-5.18,1.4-7.31,4.21c-2.13,2.8-3.4,6.3-3.82,10.47
				c-1.11,0-1.67,0-2.78,0C137.82,62.73,137.82,60.63,137.82,56.42z M157.33,66.63c-5.13,1.11-9.3,3.02-12.49,5.72
				c-3.19,2.7-4.79,5.4-4.79,8.4c0,1.92,0.54,3.49,1.6,4.75c1.07,1.26,2.47,2.02,4.19,2.26c3.19,0.45,5.89-1.06,8.09-5.33
				C156.15,78.16,157.28,72.85,157.33,66.63z"/>
			<linearGradient id="SVGID_28_" gradientUnits="userSpaceOnUse" x1="173.4428" y1="78.2001" x2="216.5893" y2="78.2001">
				<stop  offset="0" style="stop-color:#FFF33B"/>
				<stop  offset="0.0595" style="stop-color:#FFE029"/>
				<stop  offset="0.1303" style="stop-color:#FFD217"/>
				<stop  offset="0.2032" style="stop-color:#FEC90E"/>
				<stop  offset="0.2809" style="stop-color:#FDC70C"/>
				<stop  offset="0.6685" style="stop-color:#F3903F"/>
				<stop  offset="0.8876" style="stop-color:#ED683C"/>
				<stop  offset="1" style="stop-color:#E93E3A"/>
			</linearGradient>
			<path fill="url(#SVGID_28_)" stroke="#13364D" stroke-linejoin="round" stroke-miterlimit="10" d="M173.44,54.36
				c4.3-1.86,6.46-2.79,10.76-4.65c0.7,0,1.04,0,1.74,0c0,5.78,0,8.67,0,14.45c3.99-5.62,7.27-9.43,9.84-11.44
				c2.57-2.01,5.01-3.01,7.31-3.01c4.68,0,7.02,3.17,7.02,9.51c0,9.19-0.03,9.93,0.05,30.15c0.02,5.72,0.54,9.45,1.56,11.18
				c1.02,1.73,2.64,2.38,4.87,2.04c0.01,1.41,0.01,2.07,0.01,3.19c-5.82,1.19-8.7,1.05-14.48,0.43c0-1.13,0-1.78-0.01-3.21
				c1.16,0.02,1.74-1.09,1.73-3.8c-0.07-21.32-0.08-28.56-0.08-39.38c0-1.52-0.37-2.74-1.12-3.65c-0.75-0.92-1.72-1.38-2.91-1.38
				c-3.49,0-6.73,2.6-9.74,7.81c-3,5.21-4.52,9.48-4.48,22.04c0.02,6.37,0.53,10.79,1.54,12.9c1,2.11,2.78,3.41,5.33,3.99
				c0,1.37,0.01,2.01,0.01,3.12c-7.55-1.56-11.33-2.72-18.88-4.95c0-0.99,0-1.55,0-2.72c2.23,0.52,3.83,0.24,4.81-1.06
				c0.97-1.3,1.45-4.28,1.44-8.89c-0.05-16.06-0.03-18.29-0.03-27.25c0-2.89-0.91-4.34-2.72-4.34c-0.66,0-1.84,0.37-3.55,1.1
				C173.44,55.67,173.44,55.24,173.44,54.36z"/>
			<linearGradient id="SVGID_29_" gradientUnits="userSpaceOnUse" x1="219.3631" y1="70.2107" x2="242.2402" y2="70.2107">
				<stop  offset="0" style="stop-color:#FFF33B"/>
				<stop  offset="0.0595" style="stop-color:#FFE029"/>
				<stop  offset="0.1303" style="stop-color:#FFD217"/>
				<stop  offset="0.2032" style="stop-color:#FEC90E"/>
				<stop  offset="0.2809" style="stop-color:#FDC70C"/>
				<stop  offset="0.6685" style="stop-color:#F3903F"/>
				<stop  offset="0.8876" style="stop-color:#ED683C"/>
				<stop  offset="1" style="stop-color:#E93E3A"/>
			</linearGradient>
			<path fill="url(#SVGID_29_)" stroke="#13364D" stroke-linejoin="round" stroke-miterlimit="10" d="M234.64,37.18
				c0,0.91,0,1.37,0,2.28c-1.74,0.44-2.62,2.51-2.62,6.22c0,2.51,0.2,4.27,0.6,5.26c0.4,0.99,1.11,1.81,2.12,2.45
				c1.01,0.64,2.36,0.96,4.05,0.96c1.38,0,2.07,0,3.45,0c0,0.79,0,1.18,0,1.97c-4.07,0-6.1,0-10.17,0c0,11.25-0.01,14.98,0.2,34.05
				c0.02,1.53,0.2,2.61,0.56,3.23c0.36,0.62,0.89,0.78,1.59,0.52c1.37-0.52,3.39-3.16,6.04-7.31c0.3-0.47,0.53-0.8,0.7-1.02
				c0.03,1.44,0.04,2.17,0.06,3.57c-4.65,7.85-8.45,12.29-11.3,13.53c-1.32,0.58-2.32,0.48-2.99-0.67
				c-0.67-1.15-1.02-3.44-1.05-7.24c-0.16-21.48-0.17-26.77-0.17-38.65c-2.54,0-3.81,0-6.35,0c0-0.79,0-1.18,0-1.97
				c2.44,0,4.17-0.51,5.19-1.53c1.02-1.02,1.54-2.82,1.54-5.39c0-2.65,0-3.97,0-6.62C229.51,39.36,231.22,38.64,234.64,37.18z"/>
			<linearGradient id="SVGID_30_" gradientUnits="userSpaceOnUse" x1="245.6812" y1="70.951" x2="282.4567" y2="70.951">
				<stop  offset="0" style="stop-color:#FFF33B"/>
				<stop  offset="0.0595" style="stop-color:#FFE029"/>
				<stop  offset="0.1303" style="stop-color:#FFD217"/>
				<stop  offset="0.2032" style="stop-color:#FEC90E"/>
				<stop  offset="0.2809" style="stop-color:#FDC70C"/>
				<stop  offset="0.6685" style="stop-color:#F3903F"/>
				<stop  offset="0.8876" style="stop-color:#ED683C"/>
				<stop  offset="1" style="stop-color:#E93E3A"/>
			</linearGradient>
			<path fill="url(#SVGID_30_)" stroke="#13364D" stroke-linejoin="round" stroke-miterlimit="10" d="M249.42,56.42
				c6.38-4.44,12.38-6.66,18.01-6.66c2.63,0,4.53,0.62,5.7,1.84c1.16,1.23,1.73,3.3,1.71,6.22c0,10.96,0.02,16.5,0.27,22.29
				c0.03,0.7,0.6,1.03,1.7,0.99c1.08-0.03,2.94-0.81,5.63-1.84c0.01,0.52,0.01,0.78,0.02,1.35c-4.05,1.85-7.31,3.89-9.92,4.25
				c-2.33,0.32-3.55-0.4-3.63-2.21c-0.07-1.67-0.11-2.42-0.19-4c-3.33,2.59-6.15,5.52-8.49,7.7c-2.34,2.18-4.58,3.87-6.73,4.89
				c-2.09,0.99-3.9,1.29-5.43,0.25c-1.53-1.03-2.33-3.27-2.4-6.38c-0.18-8.02,7.41-14.71,22.8-22.04c0-2.1,0-3.16,0-5.26
				c0-1.61-0.46-2.94-1.37-3.99c-0.91-1.05-2.17-1.58-3.78-1.58c-2.74,0-5.18,1.4-7.31,4.21s-3.4,6.3-3.82,10.47
				c-1.11,0-1.67,0-2.78,0C249.42,62.73,249.42,60.63,249.42,56.42z M268.94,66.63c-5.13,1.11-9.29,3.02-12.49,5.72
				c-3.19,2.7-4.65,4.94-4.56,7.91c0.06,1.89,0.64,3.33,1.75,4.07c1.11,0.75,2.52,0.73,4.25,0.17c3.19-1.03,5.82-3.19,7.91-5.81
				C267.88,76.08,268.88,72.85,268.94,66.63z"/>
			<linearGradient id="SVGID_31_" gradientUnits="userSpaceOnUse" x1="285.1711" y1="67.062" x2="333.8171" y2="67.062">
				<stop  offset="0" style="stop-color:#FFF33B"/>
				<stop  offset="0.0595" style="stop-color:#FFE029"/>
				<stop  offset="0.1303" style="stop-color:#FFD217"/>
				<stop  offset="0.2032" style="stop-color:#FEC90E"/>
				<stop  offset="0.2809" style="stop-color:#FDC70C"/>
				<stop  offset="0.6685" style="stop-color:#F3903F"/>
				<stop  offset="0.8876" style="stop-color:#ED683C"/>
				<stop  offset="1" style="stop-color:#E93E3A"/>
			</linearGradient>
			<path fill="url(#SVGID_31_)" stroke="#13364D" stroke-linejoin="round" stroke-miterlimit="10" d="M285.17,35.08
				c10.56,0,15.84,0,26.41,0c3.93,0,6.87,0.8,8.82,2.41c1.95,1.61,2.93,4.02,2.93,7.23c0,3.59-1.1,6.95-3.3,10.06
				c-2.2,3.11-5.5,6-9.9,8.66c3.7,6.05,5.3,8.31,9.88,16.3c5.14,8.95,9.85,15.42,13.49,16.55c0.14,1.16,0.2,1.72,0.32,2.77
				c-4.1-1.03-6.17-1.58-10.35-2.74c-2.09-0.58-4.11-2.6-6.07-6.03c-8.34-14.7-11.65-19.12-18.23-29.92c0,8.69-0.07,13.69,0.52,21
				c0.3,3.76,2.74,6.54,7.29,7.97c0.07,0.87,0.11,1.31,0.18,2.2c-8.75-2.68-14.17-4.87-21.94-6.97c0-0.72,0-1.04,0-1.63
				c2.39,0.51,4.4,0.89,5.29,0.45c0.89-0.44,1.29-1.56,1.21-3.27c-0.45-9.84-0.22-20.82-0.22-36.02c0-2.83-0.47-4.68-1.41-5.54
				c-0.94-0.86-2.57-1.32-4.9-1.38C285.17,36.34,285.17,35.92,285.17,35.08z M299.16,39.37c0,7.3,0,10.94,0,18.24
				c3.24,2.48,6.02,3.72,8.35,3.72c2.44,0,4.26-0.87,5.48-2.6c1.22-1.73,1.83-4.32,1.83-7.76c0-4.2-0.9-7.54-2.7-10.04
				c-1.8-2.49-3.99-3.74-6.56-3.74C303.29,37.18,301.16,37.91,299.16,39.37z"/>
			<linearGradient id="SVGID_32_" gradientUnits="userSpaceOnUse" x1="335.9873" y1="78.0843" x2="372.8955" y2="78.0843">
				<stop  offset="0" style="stop-color:#FFF33B"/>
				<stop  offset="0.0595" style="stop-color:#FFE029"/>
				<stop  offset="0.1303" style="stop-color:#FFD217"/>
				<stop  offset="0.2032" style="stop-color:#FEC90E"/>
				<stop  offset="0.2809" style="stop-color:#FDC70C"/>
				<stop  offset="0.6685" style="stop-color:#F3903F"/>
				<stop  offset="0.8876" style="stop-color:#ED683C"/>
				<stop  offset="1" style="stop-color:#E93E3A"/>
			</linearGradient>
			<path fill="url(#SVGID_32_)" stroke="#13364D" stroke-linejoin="round" stroke-miterlimit="10" d="M338.48,56.42
				c6.38-4.44,12.38-6.66,18.01-6.66c2.63,0,4.53,0.61,5.7,1.84c1.16,1.23,1.73,3.3,1.71,6.22c0,10.96-0.37,15,1.46,37.16
				c0.22,2.66,0.88,3.88,2,3.91c1.09,0.03,2.79-2.49,5.12-8.11c0.17,2.24,0.26,3.37,0.43,5.5c-3.48,8.73-6.83,10.39-9.28,10.09
				c-2.2-0.27-3.41-1.58-3.86-6.39c-0.42-4.45-0.7-7.34-1.17-12.57c-2.68,7.35-4.96,11.8-7.03,13.85c-2.07,2.05-4.21,2.39-6.34,1.93
				c-2.07-0.44-3.95-1.74-5.71-4.44c-1.76-2.7-2.91-6.08-3.38-10.09c-1.23-10.35,6.03-18.25,21.42-25.59c0-2.1,0-3.16,0-5.26
				c0-1.61-0.46-2.94-1.37-3.99c-0.91-1.05-2.17-1.58-3.78-1.58c-2.74,0-5.18,1.4-7.31,4.21c-2.13,2.8-3.4,6.3-3.82,10.47
				c-1.11,0-1.67,0-2.78,0C338.48,62.73,338.48,60.63,338.48,56.42z M358,66.63c-5.13,1.11-9.3,3.02-12.49,5.72
				c-3.19,2.7-4.22,7.13-3.67,12.02c0.35,3.13,1.18,5.76,2.46,7.8c1.28,2.04,2.77,3.2,4.47,3.47c3.15,0.5,5.39-2.36,6.89-9.21
				C357.15,79.58,357.94,72.85,358,66.63z"/>
			<linearGradient id="SVGID_33_" gradientUnits="userSpaceOnUse" x1="369.7077" y1="88.2476" x2="410.31" y2="88.2476">
				<stop  offset="0" style="stop-color:#FFF33B"/>
				<stop  offset="0.0595" style="stop-color:#FFE029"/>
				<stop  offset="0.1303" style="stop-color:#FFD217"/>
				<stop  offset="0.2032" style="stop-color:#FEC90E"/>
				<stop  offset="0.2809" style="stop-color:#FDC70C"/>
				<stop  offset="0.6685" style="stop-color:#F3903F"/>
				<stop  offset="0.8876" style="stop-color:#ED683C"/>
				<stop  offset="1" style="stop-color:#E93E3A"/>
			</linearGradient>
			<path fill="url(#SVGID_33_)" stroke="#13364D" stroke-linejoin="round" stroke-miterlimit="10" d="M369.71,50.99
				c5.38,0,8.07,0,13.45,0c0,0.84,0,1.26,0,2.1c-1.05,0.06-1.58,0.41-1.58,1.05c0,0.35,0.08,0.72,0.25,1.1
				c4.11,10.79,5.71,13.29,10.88,31.92c1.13-8.27,1.84-11.77,3.48-16.32c1.84-5.14,2.77-9.42,2.76-12.8
				c-0.01-1.78-0.48-3.05-1.41-3.81s-2.44-1.14-4.55-1.14c0-0.84,0-1.26,0-2.1c6.93,0,10.39,0,17.31,0c0,0.84,0,1.26,0,2.1
				c-1.77,0.12-3.14,0.72-4.1,1.82c-0.96,1.1-2.18,3.5-3.67,7.21c-7.37,15.91-8.3,35.42-11.31,52.43
				c-1.07,6.02-4.56,9.4-10.21,10.96c-2.68-2.53-4.29-3.24-7.58-5.83c0.71-0.71,1.07-1.09,1.78-1.9c2.71,2.43,5.25,2.94,7.77,2.39
				c1.32-0.29,2.46-0.95,3.41-2c0.95-1.05,1.6-2.21,1.95-3.58c0.35-1.36,0.76-3.68,1.56-9.26c0.17-1.17,0.29-1.59,0.5-2.57
				c-5.09-14.01-8.41-29.23-12.93-41.12c-1.22-3.21-2.38-5.43-3.49-6.66c-1.11-1.23-2.53-1.86-4.28-1.88
				C369.71,52.25,369.71,51.83,369.71,50.99z"/>
			<linearGradient id="SVGID_34_" gradientUnits="userSpaceOnUse" x1="413.0995" y1="72.2826" x2="438.4571" y2="72.2826">
				<stop  offset="0" style="stop-color:#FFF33B"/>
				<stop  offset="0.0595" style="stop-color:#FFE029"/>
				<stop  offset="0.1303" style="stop-color:#FFD217"/>
				<stop  offset="0.2032" style="stop-color:#FEC90E"/>
				<stop  offset="0.2809" style="stop-color:#FDC70C"/>
				<stop  offset="0.6685" style="stop-color:#F3903F"/>
				<stop  offset="0.8876" style="stop-color:#ED683C"/>
				<stop  offset="1" style="stop-color:#E93E3A"/>
			</linearGradient>
			<path fill="url(#SVGID_34_)" stroke="#13364D" stroke-linejoin="round" stroke-miterlimit="10" d="M415.91,78.1
				c0.31,4.59,1.48,8.52,3.34,10.7c1.86,2.18,4.01,2.74,6.52,2.28c2.08-0.38,3.79-1.34,5.12-2.92c1.33-1.58,1.99-3.44,1.98-5.64
				c-0.01-1.96-0.53-3.62-1.56-4.9c-1.03-1.28-3.11-2.89-6.17-4.93c-2.19-1.46-4.18-2.83-5.98-4.1c-1.8-1.27-3.04-2.58-3.74-3.88
				c-0.7-1.31-1.08-2.66-1.08-4.03c0-2.83,1.24-5.36,3.72-7.58c2.48-2.22,5.76-3.33,9.86-3.33c2.52,0,5.23,0.58,8.14,1.75
				c0,4.59,0,6.89,0,11.48c-1.2,0-1.79,0-2.99,0c-0.03-3.24-0.89-5.84-2.57-7.8c-1.69-1.96-3.63-2.94-5.81-2.94
				c-1.55,0-2.76,0.52-3.63,1.56c-0.87,1.04-1.31,2.26-1.31,3.66c0,1.58,0.53,2.94,1.49,4.08c0.97,1.14,2.92,2.72,5.85,4.65
				c5.04,3.36,8.21,5.75,9.47,7.09c1.27,1.36,1.91,3.25,1.91,5.56c0,3.66-1.53,6.83-4.55,9.81c-3.02,2.99-6.47,4.78-10.34,5.64
				c-2.88,0.64-6.16,0.79-9.95-0.22c-0.15-5.64-0.37-9.75-0.51-15.84C414.22,78.18,414.78,78.15,415.91,78.1z"/>
		</g>
	</g>
	<g>
		<g>
			<g>
				<linearGradient id="SVGID_35_" gradientUnits="userSpaceOnUse" x1="106.6418" y1="139.1101" x2="177.0867" y2="139.1101">
					<stop  offset="0.0189" style="stop-color:#52839A"/>
					<stop  offset="1" style="stop-color:#2F5D7D"/>
				</linearGradient>
				<path fill="url(#SVGID_35_)" stroke="#000000" stroke-miterlimit="10" d="M106.64,114.79c0.89,0.09,1.72,0.57,2.52,1.41
					c0.8,0.84,1.63,2.64,2.71,5.16c1.07,2.52,1.72,4.45,1.91,5.1c3.71,13.32,7.94,26.05,12.58,39.06c0.86,0,1.29,0,2.16,0
					c3.04-7.32,4.55-10.99,7.59-18.31c1.51-3.63,3.37-7.74,5.57-11.66c3.85,9.94,7.47,19.94,11.1,29.96c0.89,0,1.34,0,2.23,0
					c4.66-11.11,9.25-22.25,13.93-33.36c1.23-3.4,2.76-6.87,4.07-8.09c1.31-1.22,2.63-1.16,4.08-1.18
					c-0.03-0.01-0.05,0.01-0.09,0.01c-6.56-0.89-9.81-1.38-16.36-2.38c-0.04,0.78-0.07,1.16-0.1,1.92c2.17,0.24,3.69,0.68,4.56,1.28
					c0.88,0.6,1.29,1.55,1.24,3.63c-0.07,2.7-1,6.61-2.92,11.05c-2.49,5.77-4.13,9.63-7.16,16.93
					c-4.07-11.14-8.65-21.95-12.49-33.18c-0.08-0.34-0.11-0.64-0.1-0.89c0.05-0.86,0.6-1.22,1.64-1.06
					c0.05-0.82,0.08-1.23,0.13-2.07c-5.13-0.95-7.69-1.49-12.82-2.45c-0.06,0.84-0.09,1.26-0.15,2.08c4.04,1.01,5.79,4.54,5.86,9.65
					c0.06,4-0.61,8.28-2.3,12.87c-2.31,6.28-3.65,9.15-6.13,15.09c-4.38-12.44-8.08-24.95-11.75-37.62
					c-0.08-0.31-0.11-0.59-0.1-0.84c0.06-0.89,0.55-1.32,1.45-1.23c0.06-0.82,0.09-1.24,0.16-2.08c-5.1-0.64-7.67-0.87-12.86-0.9
					C106.74,113.55,106.7,113.96,106.64,114.79z"/>
				<linearGradient id="SVGID_36_" gradientUnits="userSpaceOnUse" x1="174.91" y1="146.1086" x2="205.117" y2="146.1086">
					<stop  offset="0.0189" style="stop-color:#52839A"/>
					<stop  offset="1" style="stop-color:#2F5D7D"/>
				</linearGradient>
				<path fill="url(#SVGID_36_)" stroke="#000000" stroke-miterlimit="10" d="M205.12,152.65c-4.44,4.88-8.79,7.32-13.06,7.32
					c-3.42,0-6.3-1.4-8.63-4.19c-2.33-2.79-3.45-6.43-3.5-10.43c-0.01-0.41,0.01-1.04,0.03-1.86c9.6,0,14.41-0.04,24.02-0.09
					c-0.19-3.34-1.54-6.64-3.89-10.77c-2.35-4.13-5.07-5.52-9.3-5.27c-4.83,0.29-8.6,3.46-11.59,8.19
					c-2.72,4.29-4.28,9.05-4.28,13.88c0,4.19,1.41,7.82,4.24,10.87c2.83,3.05,6.09,4.58,9.78,4.58c5.26,0,10.65-3.3,16.18-9.9
					C205.12,154.05,205.12,153.58,205.12,152.65z M180.21,141.98c0.27-2.11,1.17-3.82,2.78-5.93c1.61-2.1,3.57-3.76,5.83-4.18
					c2.16-0.4,4.07,0.57,5.78,2.73c1.71,2.16,2.82,4.78,3.21,7.24C190.76,141.92,187.24,141.96,180.21,141.98z"/>
				<linearGradient id="SVGID_37_" gradientUnits="userSpaceOnUse" x1="208.7627" y1="145.386" x2="241.8717" y2="145.386">
					<stop  offset="0.0189" style="stop-color:#52839A"/>
					<stop  offset="1" style="stop-color:#2F5D7D"/>
				</linearGradient>
				<path fill="url(#SVGID_37_)" stroke="#000000" stroke-miterlimit="10" d="M212.37,144.35c1,0,1.5,0,2.49-0.01
					c0.36-3.32,1.42-5.88,3.3-9.82c1.89-3.95,4.15-6.12,6.66-5.68c1.47,0.26,2.62,1.26,3.44,2.77c0.82,1.52,1.22,3.23,1.2,4.97
					c-0.02,2.27-0.03,2.96-0.02,4.64c-13.79,5.9-20.69,11.43-20.69,16.55c0,1.98,0.66,3.66,1.97,5.04c1.31,1.38,2.9,2.07,4.76,2.07
					c1.91,0,3.94-0.68,6.08-2.05c2.15-1.37,4.77-3.56,7.87-6.57c0,2.09,0,3.14,0,5.23c0,2.26,1.07,3.39,3.2,3.39
					c2.38,0,5.46-1.77,9.23-5.27c0-0.87,0-1.31,0-2.18c-2.49,2.15-4.23,3.25-5.21,3.25c-1.01,0-1.52-0.53-1.52-1.59
					c0-8.84-0.16-11.99,0.06-22.17c0.08-2.71-0.39-5.17-1.42-6.85c-1.03-1.68-2.75-3.02-5.16-3.77c-5.15-1.6-10.82,1.58-16.46,8.33
					C212.31,140.7,212.35,141.03,212.37,144.35z M226.82,155.92c-1.98,2.86-4.39,4.29-7.25,4.29c-1.54,0-2.79-0.44-3.75-1.31
					c-0.96-0.87-1.44-2.04-1.44-3.5c0-2.29,1.43-4.52,4.29-6.7c2.86-2.18,6.59-3.73,11.19-4.63
					C229.81,149.12,228.79,153.06,226.82,155.92z"/>
				<linearGradient id="SVGID_38_" gradientUnits="userSpaceOnUse" x1="243.4921" y1="141.9549" x2="264.1801" y2="141.9549">
					<stop  offset="0.0189" style="stop-color:#52839A"/>
					<stop  offset="1" style="stop-color:#2F5D7D"/>
				</linearGradient>
				<path fill="url(#SVGID_38_)" stroke="#000000" stroke-miterlimit="10" d="M250.01,124.74c-0.04,3.23-0.05,4.6-0.14,6.23
					c-0.09,1.59-0.61,2.62-1.57,3.19c-0.96,0.57-2.54,0.84-4.75,0.6c-0.02,0.61-0.04,0.91-0.06,1.5c2.29,0.13,3.44,0.16,5.74,0.17
					c-0.41,7.36-0.2,13.91-0.18,23.36c0,1.67,0.3,2.94,0.88,3.8c0.58,0.86,1.46,1.29,2.63,1.29c2.51,0,5.89-1.86,10.08-5.23
					c-0.01-0.78-0.01-1.17-0.02-1.94c-0.15,0.09-0.36,0.23-0.63,0.42c-2.38,1.74-4.19,2.66-5.4,2.65c-0.62,0-1.08-0.19-1.4-0.56
					c-0.31-0.37-0.47-0.91-0.47-1.62c-0.04-8.81-0.15-16.19,0.24-22.35c3.67-0.24,5.5-0.45,9.17-1.26c0.02-0.49,0.03-0.71,0.05-1.13
					c-1.24,0.33-1.86,0.46-3.1,0.68c-1.52,0.27-2.72,0.25-3.61,0.01s-1.5-0.62-1.82-1.12c-0.33-0.5-0.45-1.38-0.36-2.97
					c0.13-2.35,1.03-7.38,2.64-8.31c0.03-1.19,0.05-1.83,0.09-3.11C254.79,121.91,253.2,123.05,250.01,124.74z"/>
				<linearGradient id="SVGID_39_" gradientUnits="userSpaceOnUse" x1="266.3721" y1="134.2239" x2="305.062" y2="134.2239">
					<stop  offset="0.0189" style="stop-color:#52839A"/>
					<stop  offset="1" style="stop-color:#2F5D7D"/>
				</linearGradient>
				<path fill="url(#SVGID_39_)" stroke="#000000" stroke-miterlimit="10" d="M267.74,113.19c-0.05,1.17-0.08,1.78-0.12,2.93
					c1.34-1.23,2.51-1.95,3.51-2.27c1.8-0.56,2.65,0.31,2.61,2.25c-0.85,13.73-1.93,27.31-1.83,41.07c0.03,1.94-0.41,3.26-1.32,3.96
					c-0.91,0.7-2.32,1.07-4.23,1.11c0,0.65,0.01,0.98,0.01,1.64c6.77,0.02,10.15,0.03,16.92,0.05c-0.01-0.64-0.01-0.96-0.02-1.58
					c-0.59,0-0.89,0-1.48-0.01c-3.03-0.01-4.57-2.22-4.65-6.49c-0.09-4.56,1.39-9.9,5.06-15.63c2.71-4.22,5.84-10.55,8.94-10.5
					c1.32,0.02,2.19,0.88,2.62,2.49c0.43,1.61,0.4,4.03,0.09,6.54c-1.71,13.87-0.41,14.55-0.23,21.93c0.02,1.07-0.51,1.65-1.6,1.69
					c0.01,0.61,0.02,0.92,0.02,1.56c5.21,0,7.81-0.01,13.02-0.01c-0.01-0.64-0.01-0.94-0.02-1.55c-2.08-0.04-3.56-0.42-4.43-1.12
					s-1.33-1.92-1.38-3.62c-0.19-6.19-1.29-6.92,0.42-19.52c0.59-4.35,0.8-8.96,0.12-11.81c-0.66-2.81-1.98-4.3-3.89-4.47
					c-2.3-0.2-5.09,1.9-8.3,5.81c-3.21,3.91-6.73,9.1-9.9,14.56c0.65-11.09,2.32-22.08,2.43-33.2c0.03-1.68,0.57-2.65,1.66-3.18
					c-0.02-0.59-0.03-0.86-0.08-1.31C276.25,106.67,273.45,108.25,267.74,113.19z"/>
				<linearGradient id="SVGID_40_" gradientUnits="userSpaceOnUse" x1="307.8539" y1="147.4348" x2="338.2348" y2="147.4348">
					<stop  offset="0.0189" style="stop-color:#52839A"/>
					<stop  offset="1" style="stop-color:#2F5D7D"/>
				</linearGradient>
				<path fill="url(#SVGID_40_)" stroke="#000000" stroke-miterlimit="10" d="M338.18,154.3c-4.32,4.16-8.6,6.15-12.87,6.15
					c-3.42,0-6.33-1.2-8.74-3.53c-2.41-2.33-3.53-5.86-3.7-9.24c-0.02-0.34-0.02-0.89,0.02-1.68c9.52,0.42,14.36,0.39,24.03,0.27
					c-0.08-2.55-0.66-5.08-2.38-8.42c-1.71-3.34-4.64-6.94-8.35-7.71c-4.62-0.95-10.33,1.9-14.36,7.11
					c-4.47,5.79-4.01,9.85-3.93,14.22c0.06,3.79,1.61,6.62,4.5,9.26c2.89,2.64,6.16,4.16,9.85,4.16c5.26,0,10.62-3.13,15.98-8.64
					C338.21,155.49,338.2,155.1,338.18,154.3z M313.23,144.5c0.42-2.18,1.78-4.63,3.81-6.98c2.03-2.35,4.15-3.28,6.42-2.92
					c2.17,0.34,4,1.76,5.28,3.96c1.28,2.2,1.83,4.54,2.06,6.52C323.7,145.09,320.17,145.03,313.23,144.5z"/>
				<linearGradient id="SVGID_41_" gradientUnits="userSpaceOnUse" x1="341.793" y1="149.1803" x2="370.7493" y2="149.1803">
					<stop  offset="0.0189" style="stop-color:#52839A"/>
					<stop  offset="1" style="stop-color:#2F5D7D"/>
				</linearGradient>
				<path fill="url(#SVGID_41_)" stroke="#000000" stroke-miterlimit="10" d="M342.33,140.12c1.7-0.56,2.91-0.83,3.59-0.82
					c1.66,0.01,2.16,1.21,1.81,2.97c-0.71,6.36-0.54,9.26-0.34,15.38c0.06,1.71-0.36,2.93-1.23,3.61c-0.88,0.69-2.33,1.07-4.37,1.11
					c0.01,0.61,0.02,0.92,0.02,1.55c7.74,0,11.61,0,19.34,0c-0.01-0.64-0.01-0.94-0.02-1.55c-3.25,0-5.46-0.41-6.63-1.19
					c-1.17-0.78-1.8-2.41-1.88-4.89c-0.13-4.19,0.75-8,3.24-11.22c2.49-3.22,5.19-5.28,7.83-5.51c2.6-0.23,3.33,1.4,2.79,5
					c1.06-0.02,1.59-0.02,2.64-0.03c0.58-3.69,0.89-4.8,1.61-8.35c-1.08-0.31-1.62-0.73-2.43-0.76c-2.11-0.08-4.28,0.56-6.68,2.07
					s-5.56,4.07-8.56,7.41c0.46-3.62,1.52-5.54,2.1-10.34c-0.67-0.05-1.01-0.08-1.68-0.13c-4.2,1.31-6.38,2.12-10.77,3.77
					C342.58,139,342.49,139.38,342.33,140.12z"/>
			</g>
		</g>
	</g>
</g>
</svg>
