<svg xmlns="http://www.w3.org/2000/svg" xmlns:xlink="http://www.w3.org/1999/xlink" viewBox="0 0 424.02 306.58"><defs><style>.cls-1{fill:url(#linear-gradient);}.cls-2{fill:#13364d;}.cls-3{fill:#414042;}.cls-4{fill:#2f5d7d;}.cls-5{fill:url(#New_Gradient_Swatch_1);}.cls-6{fill:url(#linear-gradient-2);}.cls-7{fill:url(#New_Gradient_Swatch_1-2);}.cls-8{fill:url(#linear-gradient-3);}.cls-9{fill:url(#New_Gradient_Swatch_6);}.cls-10{fill:url(#New_Gradient_Swatch_1-3);}.cls-11{fill:url(#linear-gradient-4);}.cls-12{fill:url(#Orange_Yellow);}.cls-13{fill:url(#Orange_Yellow-2);}.cls-14{fill:url(#Orange_Yellow-3);}.cls-15{fill:none;}.cls-15,.cls-16{stroke:#231f20;stroke-linecap:round;stroke-linejoin:round;stroke-width:0.5px;}.cls-16{fill:url(#linear-gradient-5);}.cls-17{fill:#d1d3d4;}.cls-18{fill:#231f20;}</style><linearGradient id="linear-gradient" x1="253.72" y1="213.27" x2="454.84" y2="213.27" gradientUnits="userSpaceOnUse"><stop offset="0" stop-color="#13364d"/><stop offset="0.1" stop-color="#1c4a6a"/><stop offset="0.35" stop-color="#307aae"/><stop offset="0.47" stop-color="#388dc9"/><stop offset="0.55" stop-color="#67a5d0"/><stop offset="0.64" stop-color="#93bbd7"/><stop offset="0.73" stop-color="#b5ccdd"/><stop offset="0.82" stop-color="#ced9e1"/><stop offset="0.9" stop-color="#dde0e3"/><stop offset="0.96" stop-color="#e2e3e4"/></linearGradient><linearGradient id="New_Gradient_Swatch_1" x1="259.56" y1="315.25" x2="274.58" y2="315.25" gradientUnits="userSpaceOnUse"><stop offset="0.02" stop-color="#52839a"/><stop offset="1" stop-color="#2f5d7d"/></linearGradient><linearGradient id="linear-gradient-2" x1="244.52" y1="114.06" x2="259.44" y2="114.06" gradientUnits="userSpaceOnUse"><stop offset="0" stop-color="#2f5d7d"/><stop offset="1" stop-color="#2f5d7d"/></linearGradient><linearGradient id="New_Gradient_Swatch_1-2" x1="234.8" y1="79.18" x2="253.81" y2="79.18" xlink:href="#New_Gradient_Swatch_1"/><linearGradient id="linear-gradient-3" x1="240.87" y1="108.46" x2="244.52" y2="108.46" xlink:href="#linear-gradient-2"/><linearGradient id="New_Gradient_Swatch_6" x1="32.56" y1="213.4" x2="233.68" y2="213.4" gradientUnits="userSpaceOnUse"><stop offset="0.04" stop-color="#e2e3e4"/><stop offset="0.1" stop-color="#dde0e3"/><stop offset="0.18" stop-color="#ced9e1"/><stop offset="0.27" stop-color="#b5ccdd"/><stop offset="0.36" stop-color="#93bbd7"/><stop offset="0.45" stop-color="#67a5d0"/><stop offset="0.53" stop-color="#388dc9"/><stop offset="0.65" stop-color="#307aae"/><stop offset="0.9" stop-color="#1c4a6a"/><stop offset="1" stop-color="#13364d"/></linearGradient><linearGradient id="New_Gradient_Swatch_1-3" x1="213.66" y1="311.25" x2="228.67" y2="311.25" xlink:href="#New_Gradient_Swatch_1"/><linearGradient id="linear-gradient-4" x1="199.65" y1="273.9" x2="202.09" y2="273.9" xlink:href="#linear-gradient-2"/><linearGradient id="Orange_Yellow" x1="197.25" y1="275.24" x2="199.38" y2="275.24" gradientUnits="userSpaceOnUse"><stop offset="0" stop-color="#fff33b"/><stop offset="0.04" stop-color="#fee72e"/><stop offset="0.12" stop-color="#fed51b"/><stop offset="0.2" stop-color="#fdca10"/><stop offset="0.28" stop-color="#fdc70c"/><stop offset="0.67" stop-color="#f3903f"/><stop offset="0.89" stop-color="#ed683c"/><stop offset="1" stop-color="#e93e3a"/></linearGradient><linearGradient id="Orange_Yellow-2" x1="197.11" y1="276.19" x2="197.25" y2="276.19" xlink:href="#Orange_Yellow"/><linearGradient id="Orange_Yellow-3" x1="197" y1="276.32" x2="197.11" y2="276.32" xlink:href="#Orange_Yellow"/><linearGradient id="linear-gradient-5" x1="241.6" y1="96.53" x2="249.1" y2="354.46" gradientUnits="userSpaceOnUse"><stop offset="0" stop-color="#d1d3d4"/><stop offset="0.21" stop-color="#ced0d2"/><stop offset="0.38" stop-color="#c4c8ca"/><stop offset="0.52" stop-color="#b4b9be"/><stop offset="0.66" stop-color="#9ca4ad"/><stop offset="0.8" stop-color="#7e8996"/><stop offset="0.92" stop-color="#5a697b"/><stop offset="0.97" stop-color="#495a6f"/></linearGradient></defs><g id="Layer_2" data-name="Layer 2"><path class="cls-1" d="M268.93,99.76s104.85,94,185.91,76.11c0,0-9,59.83-133.78,133.59,0,0-33.45,8.71-47,17.33l1.68-9.59h0a58.19,58.19,0,0,0,6.36-8.88c3-2.31,5.6-4.62,6.27-6,3.58-7.46,7.43-18.53,2.63-25,.08-1.38.12-2.75.12-4.15,0-1.81-.06-3.61-.2-5.38l.2-.29C293,250,286.49,240.79,280.89,236a52.4,52.4,0,0,0-14.83-15.5,158.26,158.26,0,0,0,5.53-39.81c.06-4.14-.06-8.23-.34-12.21A168.9,168.9,0,0,0,268.78,144l-2-13-2.88.28s3.69-1.08-5.3-12.48c-1.38-1.76-3-3.76-4.88-6.06l0-.07C254.24,111.73,260,100,268.93,99.76Z" transform="translate(-31.76 -45.82)"/><path class="cls-2" d="M281.73,236c5.6,4.81,12.23,14.32,10.37,31.77h-.18A68.18,68.18,0,0,0,281.73,236Z" transform="translate(-31.76 -45.82)"/><path class="cls-2" d="M206.51,236c4.12-6.48,9.92-12.92,15.84-16.82,4,1.7,3.64,6,5.44,8.67,8.7,12.77,9.09,3.09,16.83,3.62s10.62,4.89,15.53-8.72c1.07-3,5.82,1.13,6.75-2.25A52.4,52.4,0,0,1,281.73,236a68.18,68.18,0,0,1,10.19,31.78c.14,1.77.2,3.57.2,5.38,0,1.4,0,2.77-.12,4.15a8.24,8.24,0,0,0-.76-.92c-.42-.44-3.18-3.37-5.09-2.61-3.85,1.53,1.75,15.56-5,21.43-1.21,1.06-4.93,7.87-8.14,13.95a8.4,8.4,0,0,0-5.54-1.67c-4.37.22-7.75,3.52-7.56,7.38s3.72,6.71,8,6.63h.28c4.37-.21,7.75-3.52,7.56-7.38,0-.18,0-.36-.05-.54,2-1.37,4.76-3.29,7.26-5.23a58.19,58.19,0,0,1-6.36,8.88A47.43,47.43,0,0,1,261.33,329c-.21.12-.43.22-.65.32a39.39,39.39,0,0,1-33.12,0c-.22-.1-.44-.2-.65-.32a46.1,46.1,0,0,1-12.2-8.57,8.52,8.52,0,0,0,4.61,1.05,8.77,8.77,0,0,0,1.55-.21c3.59-.81,6.18-3.78,6-7.17-.19-3.87-3.88-6.83-8.25-6.62a8.63,8.63,0,0,0-3.75,1c-3.14-5.91-6.64-12.3-7.81-13.32-6.73-5.87-1.13-19.9-5-21.43a2.66,2.66,0,0,0-2.44.44l-.27.16a11.93,11.93,0,0,0-2.13,1.76l-.14.14-.11.11a8.24,8.24,0,0,0-.76.92c-.08-1.38-.12-2.75-.12-4.15,0-1.81.06-3.61.2-5.38A68.18,68.18,0,0,1,206.51,236Z" transform="translate(-31.76 -45.82)"/><path class="cls-3" d="M276.59,317.2l-1.68,9.59A15.91,15.91,0,0,0,270,331l-.14-.09c-1.65-1.83-4.68-1.32-7.67-.12l-.9-1.84a47.43,47.43,0,0,0,15.25-11.79Z" transform="translate(-31.76 -45.82)"/><path class="cls-2" d="M275.73,314.09c.19,3.86-3.19,7.17-7.56,7.38h-.28l-.06-2.5h0c.28-.23,5.05-4,4.9-3.55.36-.19,1.46-.89,2.94-1.87C275.7,313.73,275.72,313.91,275.73,314.09Z" transform="translate(-31.76 -45.82)"/><path class="cls-4" d="M270.36,153.74a146.84,146.84,0,0,1,1.73,14.72" transform="translate(-31.76 -45.82)"/><path class="cls-4" d="M266.43,220.17c-.77-.51-1.56-1-2.36-1.45" transform="translate(-31.76 -45.82)"/><path class="cls-5" d="M269.9,296.26c-5.75,9.75,14.36,31.7-1.65,38C268.25,334.25,247.65,333.86,269.9,296.26Z" transform="translate(-31.76 -45.82)"/><path class="cls-2" d="M267.49,307.47a8.4,8.4,0,0,1,5.54,1.67c-2.55,4.82-4.77,9.17-5.19,9.83h0l.06,2.5c-4.24.08-7.77-2.83-8-6.63S263.12,307.69,267.49,307.47Z" transform="translate(-31.76 -45.82)"/><path class="cls-6" d="M259.25,120a34.7,34.7,0,0,0-4.85-6.75c-.26-.27-.52-.54-.78-.78h0c-2.84-2.74-5.9-4.25-9.1-4.28h.1a14,14,0,0,1,9.19,3.88h0c.26.22.52.46.78.71l0,.07c1.88,2.3,3.5,4.3,4.88,6.06" transform="translate(-31.76 -45.82)"/><path class="cls-3" d="M261.33,329l.9,1.84-.68.29a44.78,44.78,0,0,0-7.65,4.58H234.34a44.78,44.78,0,0,0-7.65-4.58l-.68-.29.9-1.84c.21.12.43.22.65.32a39.39,39.39,0,0,0,33.12,0C260.9,329.21,261.12,329.11,261.33,329Z" transform="translate(-31.76 -45.82)"/><path class="cls-7" d="M253.81,112a14,14,0,0,0-9.19-3.88h-.19a10.67,10.67,0,0,0-3.56.62l-.25.1a16.77,16.77,0,0,0-5.74,3.66l-.08-.08c10.43-63.24,9.94-60.64,9.84-66.63C245.05,52.32,253.51,110,253.81,112Z" transform="translate(-31.76 -45.82)"/><path class="cls-8" d="M244.43,108.15h.09a11.7,11.7,0,0,0-3.65.62A10.67,10.67,0,0,1,244.43,108.15Z" transform="translate(-31.76 -45.82)"/><path id="Left_Wing" data-name="Left Wing" class="cls-9" d="M233.68,112.82,231.92,115c-12,14.8-8.69,14.77-11.38,15.94L219.3,143s-1.19,5.63-2.08,14.67v.05a148,148,0,0,0-1.79,22.95,136.44,136.44,0,0,0,6.3,39.55A52.27,52.27,0,0,0,206.51,236c-5.6,4.81-12.23,14.32-10.37,31.77h.18c-.14,1.77-.2,3.57-.2,5.38,0,1.4,0,2.77.12,4.15a10.84,10.84,0,0,0-.89,1.45c-2.19,6.53.6,17.12,3.68,23.55.67,1.41,3.3,3.72,6.27,6a57.36,57.36,0,0,0,6.35,8.87,6.47,6.47,0,0,0,1.07,1.63l-.22.2,1.37,7.83-.13.2c-13.26-8.7-47.4-17.59-47.4-17.59C41.55,235.7,32.56,175.87,32.56,175.87c81.06,17.84,185.91-76.11,185.91-76.11C227.8,100.05,233.68,112.82,233.68,112.82Z" transform="translate(-31.76 -45.82)"/><path class="cls-3" d="M226.91,329l-.9,1.84c-3-1.2-6-1.71-7.67.12l-.14.09a15.31,15.31,0,0,0-4.46-4l.13-.2L212.5,319l-.85-1.83c.55.62,2.35,2.65,3.06,3.23A46.1,46.1,0,0,0,226.91,329Z" transform="translate(-31.76 -45.82)"/><path class="cls-2" d="M226.88,314.09c.17,3.39-2.42,6.36-6,7.17l-.46-2.28h0c-.43-.69-2.84-5.4-5.52-10.46a8.63,8.63,0,0,1,3.75-1C223,307.26,226.69,310.22,226.88,314.09Z" transform="translate(-31.76 -45.82)"/><path class="cls-2" d="M220.41,319l.46,2.28a8.77,8.77,0,0,1-1.55.21,8.52,8.52,0,0,1-4.61-1.05c-1.06-1-2.08-2.11-3.06-3.23a6.16,6.16,0,0,1-.58-2.34,6.09,6.09,0,0,1,.27-2.13c2.08,1.43,3.7,2.46,4.16,2.7-.15-.49,4.62,3.32,4.9,3.55Z" transform="translate(-31.76 -45.82)"/><path class="cls-10" d="M218.34,292.26c22.25,37.6,1.65,38,1.65,38C204,324,224.09,302,218.34,292.26Z" transform="translate(-31.76 -45.82)"/><path class="cls-2" d="M211.07,314.85a6.16,6.16,0,0,0,.58,2.34,57.36,57.36,0,0,1-6.35-8.87c2,1.57,4.21,3.13,6,4.4A6.09,6.09,0,0,0,211.07,314.85Z" transform="translate(-31.76 -45.82)"/><path class="cls-11" d="M202.09,273.76a2.88,2.88,0,0,0-2.44.44A2.66,2.66,0,0,1,202.09,273.76Z" transform="translate(-31.76 -45.82)"/><path class="cls-2" d="M206.51,236a68.18,68.18,0,0,0-10.19,31.78h-.18C194.28,250.3,200.91,240.79,206.51,236Z" transform="translate(-31.76 -45.82)"/><path class="cls-12" d="M199.38,274.36a14.7,14.7,0,0,0-2.13,1.76A11.93,11.93,0,0,1,199.38,274.36Z" transform="translate(-31.76 -45.82)"/><path class="cls-13" d="M197.25,276.12l-.14.14Z" transform="translate(-31.76 -45.82)"/><path class="cls-14" d="M197.11,276.26l-.11.11Z" transform="translate(-31.76 -45.82)"/><path class="cls-15" d="M265.8,129.74h-.44a21.27,21.27,0,0,0-21.06-21.27h.22A21.28,21.28,0,0,1,265.8,129.74Z" transform="translate(-31.76 -45.82)"/><path class="cls-15" d="M226.85,224.79l-.49-.16a15.08,15.08,0,0,1-2.77-1.26,15.25,15.25,0,0,0,2.09-1.45c.13-.11.26-.22.38-.34A18.82,18.82,0,0,0,226.85,224.79Z" transform="translate(-31.76 -45.82)"/><path class="cls-15" d="M262.91,221.93a16.3,16.3,0,0,1-.68,2.69,18.67,18.67,0,0,1-17.71,12.78h-.22a18.69,18.69,0,0,0,17.44-12.61,17.6,17.6,0,0,0,.78-3.2Z" transform="translate(-31.76 -45.82)"/><path class="cls-15" d="M244.3,108.47a21.27,21.27,0,0,0-21.07,21.27h-.44a21.28,21.28,0,0,1,21.28-21.28Z" transform="translate(-31.76 -45.82)"/><path class="cls-15" d="M265,223.37a14.4,14.4,0,0,1-2.77,1.25l-.49.17a17.6,17.6,0,0,0,.78-3.2l.39.34A15.19,15.19,0,0,0,265,223.37Z" transform="translate(-31.76 -45.82)"/></g><g id="Cloud"><path class="cls-16" d="M368.18,201.5a18.27,18.27,0,0,0-4.73.62c-2.86-11.31-10.78-19.47-20.09-19.47a17.34,17.34,0,0,0-11.69,4.77C329.52,174.58,321.05,165,311,165a17.41,17.41,0,0,0-11.64,4.73c-.74-14.73-9.64-26.44-20.6-26.85a6,6,0,0,0-.61,0c0-21.82-10.21-47.93-33.58-47.93-20.29,0-26.79,46.69-27,46.71-11,.41-17.91,13.36-18.65,28.09A17.41,17.41,0,0,0,187.24,165c-10.1,0-18.57,9.58-20.72,22.42a17.46,17.46,0,0,0-11.69-4.77c-9.31,0-17.23,8.16-20.11,19.47a18.12,18.12,0,0,0-4.71-.62c-13.71,0-98-49.27-98-30.67C32,183.6,57.23,251.4,95.77,260c.24,14.47,30.68,31,41.07,32.69,2.91,11.24,10.8,19.32,20.07,19.32a16.27,16.27,0,0,0,6.84-1.53c3.62,11.11,10.63,2.81,15.42,8.18,6,6.69,4.56,14.42,17.24,8.33,3.82,5,12.06,7.9,16.53,6.38,1.2-.41,4.57,2.37,5.26,4.35,4.56,13.2,30.8,16.74,41.72,13,10.62-3.66,15.44-17.89,16.67-17.61,10.48,2.4,10.51-7.8,14.33-7.08,8.56,1.62,9.23-1.4,13-6.34,3.82,5,7.94,2.11,13.62,2.11,6.87,0,13-4.43,16.86-11.29a16.27,16.27,0,0,0,6.84,1.53c9.28,0,17.17-8.08,20.07-19.32,10.39-1.64,31.14-19.76,31.39-34.23,30.48-1.08,62.79-74.47,62.79-87.24C455.53,152.66,381.89,201.5,368.18,201.5Z" transform="translate(-31.76 -45.82)"/><path class="cls-15" d="M349,256.13" transform="translate(-31.76 -45.82)"/><path class="cls-15" d="M358.74,265.39" transform="translate(-31.76 -45.82)"/><path class="cls-15" d="M349,256.13" transform="translate(-31.76 -45.82)"/><path class="cls-15" d="M358.74,265.39" transform="translate(-31.76 -45.82)"/><path class="cls-15" d="M201.49,199.77c-10.65-2.91-17.06,4.27-15.13,15l-.34.65c-10.65-2.92-17.06,4.26-15.13,15" transform="translate(-31.76 -45.82)"/><path class="cls-15" d="M155.26,213.32c-10.65-2.91-17,4.27-15.13,15l-.34.65c-10.65-2.92-17,4.26-15.13,15" transform="translate(-31.76 -45.82)"/><path class="cls-15" d="M187.86,250.38c-10.66-2.92-17.06,4.26-15.13,15l-.34.66c-10.66-2.92-17.06,4.26-15.13,15" transform="translate(-31.76 -45.82)"/><path class="cls-15" d="M240.79,213.32c-10.65-2.91-17.06,4.27-15.13,15l-.34.65c-10.65-2.92-17.06,4.26-15.13,15" transform="translate(-31.76 -45.82)"/><path class="cls-15" d="M275.84,264.18c-7.37-10-15.92-8.72-19.3,1.46l-.58.29c-7.38-10-15.93-8.72-19.31,1.45" transform="translate(-31.76 -45.82)"/><path class="cls-15" d="M229.44,287.94c-7.37-10-15.92-8.72-19.3,1.45l-.58.29c-7.38-10-15.93-8.72-19.31,1.46" transform="translate(-31.76 -45.82)"/><path class="cls-15" d="M323.08,282.9c-7.37-10-15.92-8.72-19.3,1.45l-.58.29c-7.38-10-15.93-8.72-19.31,1.46" transform="translate(-31.76 -45.82)"/><path class="cls-15" d="M322.63,231.17c-8.55-8.43-16.83-5.47-18.88,5.25l-.53.4c-8.55-8.44-16.83-5.47-18.88,5.24" transform="translate(-31.76 -45.82)"/><path class="cls-15" d="M301,204.05c-6.57-10.84-15.18-10.57-19.32-.84l-.6.22c-6.58-10.84-15.19-10.57-19.33-.84" transform="translate(-31.76 -45.82)"/><path class="cls-15" d="M257.55,155.59c-10.65-2.92-17.05,4.26-15.13,15l-.34.66c-10.65-2.92-17.05,4.26-15.13,15" transform="translate(-31.76 -45.82)"/><path class="cls-15" d="M333.52,206.63c10.65-2.92,17.06,4.26,15.13,15l.34.65c10.65-2.92,17.06,4.26,15.13,15" transform="translate(-31.76 -45.82)"/><path class="cls-15" d="M322.63,231.11c10.65-2.92,17.05,4.26,15.13,15l.34.65c10.65-2.92,17,4.26,15.13,15" transform="translate(-31.76 -45.82)"/><path class="cls-17" d="M292,277.29c4.8,6.47.79,17.54-2.79,25-.67,1.41-3.3,3.72-6.27,6-2.5,1.94-5.23,3.86-7.26,5.23a6.67,6.67,0,0,0-2.65-4.41c3.21-6.08,6.93-12.89,8.14-13.95,6.73-5.87,1.13-19.9,5-21.43,1.91-.76,4.67,2.17,5.09,2.61A8.24,8.24,0,0,1,292,277.29Z" transform="translate(-31.76 -45.82)"/><path class="cls-18" d="M273,309.14a6.67,6.67,0,0,1,2.65,4.41c-1.48,1-2.58,1.68-2.94,1.87.15-.49-4.62,3.32-4.9,3.55C268.26,318.31,270.48,314,273,309.14Z" transform="translate(-31.76 -45.82)"/><path class="cls-18" d="M220.4,319c-.28-.23-5.05-4-4.9-3.55-.46-.24-2.08-1.27-4.16-2.7a7.28,7.28,0,0,1,3.54-4.21C217.56,313.57,220,318.28,220.4,319Z" transform="translate(-31.76 -45.82)"/><path class="cls-17" d="M205.3,308.32c-3-2.31-5.6-4.62-6.27-6-3.08-6.43-5.87-17-3.68-23.55a10.84,10.84,0,0,1,.89-1.45,8.24,8.24,0,0,1,.76-.92l.11-.11.14-.14a14.7,14.7,0,0,1,2.13-1.76l.27-.16a2.88,2.88,0,0,1,2.44-.44c3.85,1.53-1.75,15.56,5,21.43,1.17,1,4.67,7.41,7.81,13.32a7.28,7.28,0,0,0-3.54,4.21C209.51,311.45,207.33,309.89,205.3,308.32Z" transform="translate(-31.76 -45.82)"/></g></svg>