<?xml version="1.0" encoding="utf-8"?>
<svg viewBox="58.4922 276.1797 299.5308 233.9036" width="299.5308" height="233.9036" xmlns="http://www.w3.org/2000/svg">
  <g id="_x5F_MantaRay_x5F_Logo" transform="matrix(0.690613, 0, 0, 0.708568, 39.565012, 18.121878)" style="">
    <g>
      <linearGradient id="SVGID_1_" gradientUnits="userSpaceOnUse" x1="254.7589" y1="535.1798" x2="456.9784" y2="535.1798">
        <stop offset="0" style="stop-color:#E93E3A"/>
        <stop offset="0.1124" style="stop-color:#ED683C"/>
        <stop offset="0.3315" style="stop-color:#F3903F"/>
        <stop offset="0.7191" style="stop-color:#FDC70C"/>
        <stop offset="0.7968" style="stop-color:#FEC90E"/>
        <stop offset="0.8697" style="stop-color:#FFD217"/>
        <stop offset="0.9405" style="stop-color:#FFE029"/>
        <stop offset="1" style="stop-color:#FFF33B"/>
      </linearGradient>
      <path fill="url(#SVGID_1_)" d="M270.05,421.67c0,0,105.42,93.95,186.93,76.11c0,0-9.04,59.83-134.51,133.59 c0,0-33.63,8.71-47.25,17.33l1.69-9.59h-0.01c2.36-2.68,4.5-5.66,6.39-8.87c2.99-2.31,5.63-4.63,6.3-6.03 c3.6-7.46,7.63-18.53,2.81-25c0.08-1.38,0.12-2.75,0.12-4.15c0-1.81-0.06-3.61-0.2-5.38l0.18-0.01 c1.87-17.45-4.8-26.96-10.43-31.77c-4.05-6.34-9.12-11.62-14.91-15.49c3.16-11.34,5.36-24.89,5.56-39.82 c0.06-4.14-0.06-8.22-0.34-12.21c-0.52-14.61-2.48-24.41-2.48-24.41l-2.01-12.96l0.04-0.13c0,0,0.77-0.67-8.26-12.07 c-1.39-1.75-3.02-3.76-4.91-6.06c0,0,0.01-0.02,0.03-0.07C255.28,433.64,261.07,421.94,270.05,421.67z"/>
      <path fill="#D1D3D4" d="M292.4,599.2c4.83,6.47,0.79,17.55-2.81,25c-0.67,1.41-3.32,3.72-6.3,6.03c-2.51,1.93-5.26,3.86-7.3,5.22 c-0.24-1.77-1.23-3.32-2.66-4.41c3.23-6.08,6.97-12.89,8.18-13.95c6.77-5.87,1.14-19.91,5.01-21.43c1.92-0.76,4.7,2.17,5.12,2.61 C291.92,598.57,292.17,598.88,292.4,599.2z"/>
      <linearGradient id="SVGID_2_" gradientUnits="userSpaceOnUse" x1="282.0774" y1="573.7756" x2="292.8253" y2="573.7756">
        <stop offset="0" style="stop-color:#2F5D7D"/>
        <stop offset="1" style="stop-color:#2F5D7D"/>
      </linearGradient>
      <path fill="url(#SVGID_2_)" d="M282.08,557.88c5.63,4.82,12.3,14.33,10.43,31.77l-0.18,0.01 C291.47,577.71,287.78,566.78,282.08,557.88z"/>
      <linearGradient id="SVGID_3_" gradientUnits="userSpaceOnUse" x1="195.9993" y1="598.4943" x2="292.5242" y2="598.4943">
        <stop offset="0" style="stop-color:#2F5D7D"/>
        <stop offset="1" style="stop-color:#2F5D7D"/>
      </linearGradient>
      <path fill="url(#SVGID_3_)" d="M206.45,557.88c4.14-6.48,9.35-11.86,15.3-15.76c1.01,3.29,2.05,6.4,3.09,9.31 c4.95,13.9,12.47,25.12,20.24,25.12c7.68,0,14.12-11.03,19.05-24.63c1.08-2.96,2.1-6.15,3.04-9.53 c5.79,3.87,10.86,9.15,14.91,15.49c5.7,8.89,9.39,19.83,10.25,31.78c0.14,1.77,0.2,3.57,0.2,5.38c0,1.4-0.04,2.77-0.12,4.15 c-0.23-0.32-0.48-0.63-0.76-0.92c-0.42-0.44-3.2-3.37-5.12-2.61c-3.87,1.53,1.76,15.56-5.01,21.43 c-1.22,1.06-4.96,7.87-8.18,13.95c-1.49-1.14-3.45-1.77-5.57-1.67c-4.39,0.22-7.79,3.52-7.6,7.39c0.19,3.8,3.74,6.71,8,6.63 c0.09,0,0.19,0,0.28-0.01c4.39-0.21,7.79-3.52,7.6-7.39c-0.01-0.18-0.03-0.36-0.05-0.54c2.04-1.37,4.79-3.29,7.3-5.22 c-1.89,3.21-4.03,6.19-6.39,8.87c-4.41,5.04-9.61,9.08-15.33,11.79c-0.21,0.12-0.43,0.22-0.65,0.32 c-5.19,2.36-10.8,3.65-16.65,3.65s-11.46-1.29-16.65-3.65c-0.22-0.1-0.44-0.2-0.65-0.32c-4.44-2.1-8.58-5.01-12.27-8.57 c1.33,0.75,2.94,1.15,4.64,1.06c0.53-0.02,1.06-0.1,1.56-0.21c3.61-0.82,6.21-3.78,6.04-7.18c-0.19-3.87-3.9-6.83-8.3-6.62 c-1.38,0.07-2.66,0.44-3.77,1.05c-3.16-5.91-6.68-12.3-7.85-13.32c-6.77-5.87-1.14-19.91-5.01-21.43 c-0.71-0.35-1.61-0.06-2.45,0.44c-0.09,0.05-0.18,0.1-0.27,0.16c-0.91,0.57-1.73,1.34-2.14,1.76c-0.06,0.05-0.1,0.1-0.14,0.14 c-0.05,0.04-0.08,0.08-0.11,0.11c-0.28,0.29-0.53,0.6-0.76,0.92c-0.08-1.38-0.12-2.75-0.12-4.15c0-1.81,0.06-3.61,0.2-5.38 C197.06,577.71,200.75,566.78,206.45,557.88z"/>
      <path fill="#2F5D7D" d="M276.91,639.1l-1.69,9.59c-2.27,1.43-3.99,2.86-4.9,4.26l-0.14-0.09c-1.66-1.83-4.71-1.33-7.71-0.12 l-0.9-1.84c5.72-2.71,10.92-6.75,15.33-11.79H276.91z"/>
      <linearGradient id="SVGID_4_" gradientUnits="userSpaceOnUse" x1="268.1014" y1="639.4229" x2="276.0522" y2="639.4229">
        <stop offset="0" style="stop-color:#2F5D7D"/>
        <stop offset="1" style="stop-color:#2F5D7D"/>
      </linearGradient>
      <path fill="url(#SVGID_4_)" d="M276.04,635.99c0.19,3.87-3.21,7.18-7.6,7.39c-0.09,0.01-0.19,0.01-0.28,0.01l-0.06-2.5 c0,0,0,0,0.01-0.01c0.28-0.23,5.08-4.04,4.93-3.55c0.36-0.19,1.47-0.89,2.96-1.87C276.01,635.63,276.03,635.81,276.04,635.99z"/>
      <path d="M273.33,631.05c1.44,1.09,2.42,2.63,2.66,4.41c-1.49,0.99-2.59,1.68-2.96,1.87c0.15-0.49-4.65,3.32-4.93,3.55 C268.53,640.22,270.77,635.86,273.33,631.05z"/>
      <path fill="#2F5D7D" d="M272.38,490.36c0.28,3.99,0.4,8.08,0.34,12.21c-0.2,14.92-2.4,28.47-5.56,39.82 c-0.16-0.11-0.31-0.22-0.47-0.32C272.05,523.37,272.91,504.59,272.38,490.36z"/>
      <path fill="#2F5D7D" d="M272.38,490.36c0.52,14.23-0.33,33.01-5.69,51.71c-0.77-0.51-1.57-0.99-2.37-1.45 c4.71-11.73,7.59-27.69,7.59-45.27c0-6.87-0.44-13.49-1.27-19.71C271.45,480.36,272.04,485.29,272.38,490.36z"/>
      <linearGradient id="SVGID_5_" gradientUnits="userSpaceOnUse" x1="259.6655" y1="465.5748" x2="272.3847" y2="465.5748">
        <stop offset="0" style="stop-color:#2F5D7D"/>
        <stop offset="1" style="stop-color:#2F5D7D"/>
      </linearGradient>
      <path fill="url(#SVGID_5_)" d="M272.38,490.36c-0.34-5.07-0.94-10-1.74-14.71c-1.89-14.44-5.82-26.71-10.98-34.86 c9.04,11.4,8.26,12.07,8.26,12.07l-0.04,0.13l2.01,12.96C269.9,465.95,271.86,475.75,272.38,490.36z"/>
      <linearGradient id="SVGID_6_" gradientUnits="userSpaceOnUse" x1="217.2281" y1="485.5484" x2="272.216" y2="485.5484">
        <stop offset="0" style="stop-color:#2F5D7D"/>
        <stop offset="1" style="stop-color:#2F5D7D"/>
      </linearGradient>
      <path fill="url(#SVGID_6_)" d="M270.93,475.76c0.83,6.28,1.28,12.97,1.28,19.91c0,17.75-2.92,33.87-7.69,45.72 c-6.18-3.49-13.06-5.45-20.31-5.45c-6.92,0-13.51,1.78-19.48,4.99c-4.65-11.81-7.5-27.75-7.5-45.27c0-14.56,1.97-28.02,5.31-38.94 c2.77-7.9,6.07-14.44,9.48-19.06c0.85-1.14,1.71-2.17,2.6-3.08c1.91-1.96,3.94-3.37,6.04-4.15c0.09-0.04,0.17-0.07,0.25-0.1 c1.21-0.4,2.45-0.61,3.72-0.62c3.26,0.03,6.37,1.55,9.27,4.32v0.01c0.26,0.24,0.53,0.51,0.79,0.79c1.74,1.83,3.4,4.13,4.94,6.83 C264.49,450.1,268.59,462.03,270.93,475.76z"/>
      <linearGradient id="SVGID_7_" gradientUnits="userSpaceOnUse" x1="259.7906" y1="672.1617" x2="274.8886" y2="672.1617">
        <stop offset="0.0189" style="stop-color:#52839A"/>
        <stop offset="1" style="stop-color:#2F5D7D"/>
      </linearGradient>
      <path fill="url(#SVGID_7_)" d="M270.18,653.17c-5.78,9.75,14.44,31.7-1.66,37.98C268.52,691.15,247.81,690.76,270.18,653.17z"/>
      <linearGradient id="SVGID_8_" gradientUnits="userSpaceOnUse" x1="260.1505" y1="636.378" x2="273.3298" y2="636.378">
        <stop offset="0" style="stop-color:#2F5D7D"/>
        <stop offset="1" style="stop-color:#2F5D7D"/>
      </linearGradient>
      <path fill="url(#SVGID_8_)" d="M267.76,629.37c2.12-0.1,4.08,0.54,5.57,1.67c-2.56,4.82-4.8,9.17-5.22,9.83 c-0.01,0.01-0.01,0.01-0.01,0.01l0.06,2.5c-4.26,0.08-7.81-2.83-8-6.63C259.97,632.89,263.37,629.59,267.76,629.37z"/>
      <linearGradient id="SVGID_9_" gradientUnits="userSpaceOnUse" x1="244.664" y1="452.8541" x2="270.6452" y2="452.8541">
        <stop offset="0" style="stop-color:#2F5D7D"/>
        <stop offset="1" style="stop-color:#2F5D7D"/>
      </linearGradient>
      <path fill="url(#SVGID_9_)" d="M254,433.95c0.26,0.22,0.52,0.46,0.78,0.71c-0.02,0.05-0.03,0.07-0.03,0.07 c1.89,2.3,3.52,4.31,4.91,6.06c5.16,8.15,9.09,20.43,10.98,34.86c-2.31-13.59-6.36-25.4-11.17-33.77 c-1.52-2.67-3.16-4.94-4.88-6.76c-0.26-0.27-0.52-0.54-0.78-0.78v-0.01c-2.86-2.74-5.93-4.25-9.15-4.28c0.03,0,0.07,0,0.1,0 C248.01,430.06,251.12,431.43,254,433.95L254,433.95z"/>
      <path fill="#13364D" d="M266.69,542.07c0.16,0.1,0.31,0.21,0.47,0.32c-0.94,3.38-1.96,6.57-3.04,9.53 c-4.94,13.61-11.37,24.63-19.05,24.63c-7.77,0-15.29-11.23-20.24-25.12c-1.04-2.91-2.08-6.02-3.09-9.31 c0.03-0.01,0.05-0.03,0.08-0.05c1.05-0.68,2.11-1.32,3.2-1.89c4.95,12.61,11.97,20.48,19.74,20.48c7.68,0,14.62-7.69,19.56-20.03 C265.13,541.09,265.92,541.57,266.69,542.07z"/>
      <linearGradient id="SVGID_10_" gradientUnits="userSpaceOnUse" x1="226.0528" y1="654.2521" x2="262.4708" y2="654.2521">
        <stop offset="0.0189" style="stop-color:#52839A"/>
        <stop offset="1" style="stop-color:#2F5D7D"/>
      </linearGradient>
      <path fill="url(#SVGID_10_)" d="M261.57,650.9l0.9,1.84c-0.23,0.09-0.45,0.19-0.68,0.29c-3.98,1.76-7.69,4.58-7.69,4.58h-9.89 h-9.77c0,0-3.71-2.81-7.69-4.58c-0.23-0.1-0.45-0.2-0.68-0.29l0.9-1.84c0.21,0.12,0.43,0.22,0.65,0.32 c5.19,2.36,10.8,3.65,16.65,3.65s11.46-1.29,16.65-3.65C261.13,651.12,261.35,651.02,261.57,650.9z"/>
      <path fill="#13364D" d="M264.32,540.63c-4.94,12.34-11.87,20.03-19.56,20.03c-7.77,0-14.79-7.87-19.74-20.48 c5.89-3.18,12.4-4.94,19.23-4.94C251.42,535.23,258.22,537.17,264.32,540.63z"/>
      <linearGradient id="SVGID_11_" gradientUnits="userSpaceOnUse" x1="234.8908" y1="401.084" x2="254.0047" y2="401.084">
        <stop offset="0.0189" style="stop-color:#52839A"/>
        <stop offset="1" style="stop-color:#2F5D7D"/>
      </linearGradient>
      <path fill="url(#SVGID_11_)" d="M254,433.94c-2.89-2.51-5.99-3.88-9.24-3.88c-0.03,0-0.07,0-0.1,0s-0.06,0-0.09,0 c-1.22,0-2.4,0.21-3.58,0.62c-0.08,0.03-0.16,0.06-0.25,0.1c-2,0.71-3.93,1.95-5.77,3.66l-0.08-0.08 c10.49-63.23,9.99-60.64,9.89-66.62C245.2,374.23,253.7,431.91,254,433.94z"/>
      <linearGradient id="SVGID_12_" gradientUnits="userSpaceOnUse" x1="240.994" y1="430.3685" x2="244.664" y2="430.3685">
        <stop offset="0" style="stop-color:#2F5D7D"/>
        <stop offset="1" style="stop-color:#2F5D7D"/>
      </linearGradient>
      <path fill="url(#SVGID_12_)" d="M244.57,430.06c0.03,0,0.06,0,0.09,0c-1.25,0.01-2.47,0.22-3.67,0.62 C242.17,430.27,243.36,430.06,244.57,430.06z"/>
      <linearGradient id="SVGID_13_" gradientUnits="userSpaceOnUse" x1="222.8554" y1="443.7921" x2="240.7426" y2="443.7921">
        <stop offset="0" style="stop-color:#2F5D7D"/>
        <stop offset="1" style="stop-color:#2F5D7D"/>
      </linearGradient>
      <path fill="url(#SVGID_13_)" d="M234.97,434.44c1.84-1.7,3.77-2.95,5.77-3.66c-2.07,0.77-4.07,2.16-5.96,4.11 c-0.87,0.9-1.73,1.92-2.56,3.05c-3.37,4.58-6.63,11.05-9.36,18.87c2.49-8.19,5.76-14.93,9.55-19.6 C233.24,436.18,234.1,435.25,234.97,434.44z"/>
      <linearGradient id="SVGID_14_" gradientUnits="userSpaceOnUse" x1="31.5452" y1="535.3094" x2="233.7647" y2="535.3094">
        <stop offset="0" style="stop-color:#FFF33B"/>
        <stop offset="0.0595" style="stop-color:#FFE029"/>
        <stop offset="0.1303" style="stop-color:#FFD217"/>
        <stop offset="0.2032" style="stop-color:#FEC90E"/>
        <stop offset="0.2809" style="stop-color:#FDC70C"/>
        <stop offset="0.6685" style="stop-color:#F3903F"/>
        <stop offset="0.8876" style="stop-color:#ED683C"/>
        <stop offset="1" style="stop-color:#E93E3A"/>
      </linearGradient>
      <path fill="url(#SVGID_14_)" d="M233.76,434.73c-0.61,0.75-1.21,1.47-1.77,2.15c-12.11,14.8-11.79,15.64-11.44,15.94l-1.25,12.09 c0,0-1.2,5.62-2.09,14.66c0,0.02,0,0.03,0,0.05c-1.15,7.24-1.8,14.96-1.8,22.95c0,14.8,2.9,28.25,6.33,39.55 c-5.95,3.9-11.16,9.28-15.3,15.76c-5.63,4.82-12.3,14.33-10.43,31.77l0.18,0.01c-0.14,1.77-0.2,3.57-0.2,5.38 c0,1.4,0.04,2.77,0.12,4.15c-0.34,0.46-0.63,0.95-0.89,1.46c-2.2,6.53,0.6,17.12,3.7,23.55c0.67,1.41,3.32,3.72,6.3,6.03 c1.88,3.21,4.02,6.18,6.38,8.86c0.27,0.6,0.63,1.15,1.08,1.63l-0.22,0.2l1.38,7.83l-0.13,0.2c-13.33-8.69-47.66-17.59-47.66-17.59 C40.58,557.61,31.55,497.78,31.55,497.78c81.5,17.83,186.93-76.11,186.93-76.11C227.85,421.95,233.76,434.73,233.76,434.73z"/>
      <linearGradient id="SVGID_15_" gradientUnits="userSpaceOnUse" x1="217.2147" y1="458.2274" x2="232.4073" y2="458.2274">
        <stop offset="0" style="stop-color:#2F5D7D"/>
        <stop offset="1" style="stop-color:#2F5D7D"/>
      </linearGradient>
      <path fill="url(#SVGID_15_)" d="M220.55,452.82c-0.35-0.3-0.66-1.14,11.44-15.94l0.41,0.33c-3.79,4.67-7.06,11.4-9.55,19.6 c-2.35,6.71-4.31,14.42-5.64,22.77c0.89-9.04,2.09-14.66,2.09-14.66L220.55,452.82z"/>
      <path fill="#52839A" d="M226.96,650.9l-0.9,1.84c-3.01-1.21-6.05-1.71-7.71,0.12l-0.14,0.09c-0.85-1.31-2.41-2.65-4.48-4l0.13-0.2 l-1.38-7.83l0.22-0.2c0.55,0.63,1.23,1.18,2,1.6C218.38,645.88,222.51,648.79,226.96,650.9z"/>
      <linearGradient id="SVGID_16_" gradientUnits="userSpaceOnUse" x1="214.8619" y1="636.2674" x2="226.9355" y2="636.2674">
        <stop offset="0" style="stop-color:#2F5D7D"/>
        <stop offset="1" style="stop-color:#2F5D7D"/>
      </linearGradient>
      <path fill="url(#SVGID_16_)" d="M226.93,635.99c0.17,3.4-2.43,6.36-6.04,7.18l-0.46-2.28c0,0,0-0.01-0.01-0.01 c-0.43-0.69-2.86-5.4-5.55-10.46c1.11-0.61,2.39-0.98,3.77-1.05C223.03,629.16,226.74,632.13,226.93,635.99z"/>
      <linearGradient id="SVGID_17_" gradientUnits="userSpaceOnUse" x1="216.25" y1="499.4402" x2="225.0272" y2="499.4402">
        <stop offset="0" style="stop-color:#2F5D7D"/>
        <stop offset="1" style="stop-color:#2F5D7D"/>
      </linearGradient>
      <path fill="url(#SVGID_17_)" d="M225.03,540.18c-1.09,0.58-2.15,1.22-3.2,1.89c-6.75-23.54-6.08-47.59-4.62-62.45 c0-0.02,0-0.03,0-0.05c1.33-8.35,3.29-16.06,5.64-22.77c-3.3,10.81-5.24,24.14-5.24,38.55 C217.62,512.7,220.43,528.49,225.03,540.18z"/>
      <path fill="#2F5D7D" d="M221.83,542.07c-0.03,0.02-0.05,0.04-0.08,0.05c-3.44-11.3-6.33-24.74-6.33-39.55 c0-7.99,0.65-15.71,1.8-22.95C215.75,494.48,215.08,518.54,221.83,542.07z"/>
      <linearGradient id="SVGID_18_" gradientUnits="userSpaceOnUse" x1="211.0224" y1="639.0104" x2="220.8847" y2="639.0104">
        <stop offset="0" style="stop-color:#2F5D7D"/>
        <stop offset="1" style="stop-color:#2F5D7D"/>
      </linearGradient>
      <path fill="url(#SVGID_18_)" d="M220.42,640.89l0.46,2.28c-0.5,0.11-1.03,0.19-1.56,0.21c-1.7,0.09-3.31-0.31-4.64-1.06 c-1.07-1.02-2.09-2.1-3.08-3.23c-0.34-0.72-0.54-1.51-0.58-2.33c-0.04-0.74,0.06-1.46,0.27-2.13c2.09,1.43,3.72,2.46,4.18,2.7 c-0.15-0.49,4.65,3.32,4.93,3.55C220.42,640.88,220.42,640.89,220.42,640.89z"/>
      <linearGradient id="SVGID_19_" gradientUnits="userSpaceOnUse" x1="213.6349" y1="672.1617" x2="228.7329" y2="672.1617">
        <stop offset="0.0189" style="stop-color:#52839A"/>
        <stop offset="1" style="stop-color:#2F5D7D"/>
      </linearGradient>
      <path fill="url(#SVGID_19_)" d="M218.34,653.17c22.37,37.59,1.66,37.98,1.66,37.98C203.9,684.87,224.12,662.92,218.34,653.17z"/>
      <path d="M220.41,640.88c-0.28-0.23-5.08-4.04-4.93-3.55c-0.46-0.24-2.09-1.28-4.18-2.7c0.53-1.76,1.83-3.27,3.56-4.21 C217.56,635.48,219.98,640.19,220.41,640.88z"/>
      <path fill="#D1D3D4" d="M205.23,630.23c-2.99-2.31-5.63-4.63-6.3-6.03c-3.1-6.43-5.9-17.02-3.7-23.55c0.26-0.51,0.55-1,0.89-1.46 c0.23-0.32,0.48-0.63,0.76-0.92c0.03-0.03,0.07-0.06,0.11-0.11c0.04-0.04,0.09-0.09,0.14-0.14c0.44-0.43,1.25-1.19,2.14-1.76 c0.09-0.06,0.18-0.11,0.27-0.16c0.82-0.47,1.7-0.74,2.45-0.44c3.87,1.53-1.76,15.56,5.01,21.43c1.18,1.02,4.7,7.41,7.85,13.32 c-1.73,0.94-3.03,2.44-3.56,4.21C209.46,633.36,207.27,631.8,205.23,630.23z"/>
      <linearGradient id="SVGID_20_" gradientUnits="userSpaceOnUse" x1="205.2295" y1="634.6626" x2="211.6143" y2="634.6626">
        <stop offset="0" style="stop-color:#2F5D7D"/>
        <stop offset="1" style="stop-color:#2F5D7D"/>
      </linearGradient>
      <path fill="url(#SVGID_20_)" d="M211.03,636.76c0.04,0.83,0.24,1.61,0.58,2.33c-2.36-2.68-4.5-5.65-6.38-8.86 c2.04,1.57,4.23,3.13,6.07,4.4C211.09,635.31,210.99,636.02,211.03,636.76z"/>
      <linearGradient id="SVGID_21_" gradientUnits="userSpaceOnUse" x1="199.5486" y1="595.8107" x2="202.002" y2="595.8107">
        <stop offset="0" style="stop-color:#2F5D7D"/>
        <stop offset="1" style="stop-color:#2F5D7D"/>
      </linearGradient>
      <path fill="url(#SVGID_21_)" d="M202,595.67c-0.75-0.3-1.63-0.03-2.45,0.44C200.39,595.61,201.29,595.32,202,595.67z"/>
      <linearGradient id="SVGID_22_" gradientUnits="userSpaceOnUse" x1="195.6983" y1="573.7756" x2="206.4462" y2="573.7756">
        <stop offset="0" style="stop-color:#2F5D7D"/>
        <stop offset="1" style="stop-color:#2F5D7D"/>
      </linearGradient>
      <path fill="url(#SVGID_22_)" d="M206.45,557.88c-5.7,8.89-9.39,19.83-10.25,31.78l-0.18-0.01 C194.15,572.21,200.82,562.7,206.45,557.88z"/>
      <linearGradient id="SVGID_23_" gradientUnits="userSpaceOnUse" x1="197.1355" y1="597.1484" x2="199.2772" y2="597.1484">
        <stop offset="0" style="stop-color:#FFF33B"/>
        <stop offset="0.0595" style="stop-color:#FFE029"/>
        <stop offset="0.1303" style="stop-color:#FFD217"/>
        <stop offset="0.2032" style="stop-color:#FEC90E"/>
        <stop offset="0.2809" style="stop-color:#FDC70C"/>
        <stop offset="0.6685" style="stop-color:#F3903F"/>
        <stop offset="0.8876" style="stop-color:#ED683C"/>
        <stop offset="1" style="stop-color:#E93E3A"/>
      </linearGradient>
      <path fill="url(#SVGID_23_)" d="M199.28,596.27c-0.89,0.58-1.7,1.34-2.14,1.76C197.55,597.6,198.36,596.83,199.28,596.27z"/>
      <linearGradient id="SVGID_24_" gradientUnits="userSpaceOnUse" x1="196.9948" y1="598.1005" x2="197.1355" y2="598.1005">
        <stop offset="0" style="stop-color:#FFF33B"/>
        <stop offset="0.0595" style="stop-color:#FFE029"/>
        <stop offset="0.1303" style="stop-color:#FFD217"/>
        <stop offset="0.2032" style="stop-color:#FEC90E"/>
        <stop offset="0.2809" style="stop-color:#FDC70C"/>
        <stop offset="0.6685" style="stop-color:#F3903F"/>
        <stop offset="0.8876" style="stop-color:#ED683C"/>
        <stop offset="1" style="stop-color:#E93E3A"/>
      </linearGradient>
      <path fill="url(#SVGID_24_)" d="M197.14,598.03c-0.05,0.05-0.1,0.1-0.14,0.14C197.03,598.13,197.08,598.08,197.14,598.03z"/>
      <linearGradient id="SVGID_25_" gradientUnits="userSpaceOnUse" x1="196.8842" y1="598.2251" x2="196.9948" y2="598.2251">
        <stop offset="0" style="stop-color:#FFF33B"/>
        <stop offset="0.0595" style="stop-color:#FFE029"/>
        <stop offset="0.1303" style="stop-color:#FFD217"/>
        <stop offset="0.2032" style="stop-color:#FEC90E"/>
        <stop offset="0.2809" style="stop-color:#FDC70C"/>
        <stop offset="0.6685" style="stop-color:#F3903F"/>
        <stop offset="0.8876" style="stop-color:#ED683C"/>
        <stop offset="1" style="stop-color:#E93E3A"/>
      </linearGradient>
      <path fill="url(#SVGID_25_)" d="M196.99,598.17c-0.04,0.05-0.08,0.08-0.11,0.11C196.91,598.25,196.94,598.21,196.99,598.17z"/>
    </g>
    <g>
      <path fill="none" stroke="#000000" stroke-width="0.5" stroke-linecap="round" stroke-linejoin="round" d="M224.99,540.18 c4.92,12.61,11.9,20.48,19.63,20.48c7.64,0,14.54-7.69,19.45-20.03"/>
      <path fill="none" stroke="#000000" stroke-width="0.5" stroke-linecap="round" stroke-linejoin="round" d="M199.38,596.27 c-0.91,0.57-1.72,1.34-2.13,1.76c-0.06,0.05-0.1,0.1-0.14,0.14c-0.05,0.04-0.08,0.08-0.11,0.11"/>
      <path fill="none" stroke="#000000" stroke-width="0.5" stroke-linecap="round" stroke-linejoin="round" d="M202.09,595.67 c-0.75-0.3-1.62-0.03-2.44,0.44"/>
      <path fill="none" stroke="#000000" stroke-width="0.5" stroke-linecap="round" stroke-linejoin="round" d="M244.52,430.06 c0.03,0,0.07,0,0.1,0c3.23,0,6.32,1.37,9.19,3.88v0.01c0.26,0.22,0.52,0.46,0.78,0.71"/>
      <path fill="none" stroke="#2F5D7D" stroke-miterlimit="10" d="M222.83,456.81c2.48-8.19,5.73-14.93,9.5-19.6 c0.83-1.03,1.68-1.95,2.55-2.77"/>
      <path fill="none" d="M259.44,440.79c5.13,8.15,9.04,20.43,10.92,34.86"/>
      <path fill="none" stroke="#000000" stroke-width="0.5" stroke-linecap="round" stroke-linejoin="round" d="M218.34,653.17 c-0.04-0.07-0.09-0.15-0.14-0.22c-0.85-1.31-2.4-2.65-4.46-4c-13.26-8.69-47.4-17.59-47.4-17.59 C41.55,557.61,32.56,497.78,32.56,497.78c81.06,17.83,185.91-76.11,185.91-76.11c9.33,0.29,15.21,13.06,15.21,13.06 c-0.61,0.75-1.2,1.47-1.76,2.15c-12.04,14.8-11.73,15.64-11.38,15.94c0.01,0.02,0.03,0.03,0.04,0.04"/>
      <path fill="none" stroke="#000000" stroke-width="0.5" stroke-linecap="round" stroke-linejoin="round" d="M218.34,653.17 c22.25,37.59,1.65,37.98,1.65,37.98C203.98,684.87,224.09,662.92,218.34,653.17z"/>
      <path fill="none" stroke="#000000" stroke-width="0.5" stroke-linecap="round" stroke-linejoin="round" d="M217.22,479.63 c-1.46,14.85-2.12,38.91,4.59,62.45c0.57,1.99,1.19,3.99,1.86,5.97"/>
      <path fill="none" stroke="#000000" stroke-width="0.5" stroke-linecap="round" stroke-linejoin="round" d="M219.3,464.91 c0,0-1.19,5.62-2.08,14.66"/>
      <path fill="none" stroke="#000000" stroke-width="0.5" stroke-linecap="round" stroke-linejoin="round" d="M213.51,553.55 c0,0-3.27,1.13-7,4.34c-5.6,4.82-12.23,14.33-10.37,31.77"/>
      <path fill="none" stroke="#000000" stroke-width="0.5" stroke-linecap="round" stroke-linejoin="round" d="M195.35,600.65 c-2.19,6.53,0.6,17.12,3.68,23.55c0.67,1.41,3.3,3.72,6.27,6.03c2.03,1.57,4.21,3.13,6.04,4.4c2.08,1.43,3.7,2.46,4.16,2.7 c-0.15-0.49,4.62,3.32,4.9,3.55"/>
      <path fill="none" stroke="#000000" stroke-width="0.5" stroke-linecap="round" stroke-linejoin="round" d="M220.41,640.89 c0,0,0-0.01-0.01-0.01c-0.43-0.69-2.84-5.4-5.52-10.46c-3.14-5.91-6.64-12.3-7.81-13.32c-6.73-5.87-1.13-19.91-4.98-21.43 c-0.71-0.35-1.6-0.06-2.44,0.44c-0.09,0.05-0.18,0.1-0.27,0.16c-0.89,0.58-1.69,1.34-2.13,1.76c-0.05,0.05-0.1,0.1-0.14,0.14 c-0.04,0.05-0.08,0.08-0.11,0.11c-0.28,0.29-0.53,0.6-0.76,0.92c-0.34,0.46-0.63,0.95-0.89,1.46"/>
      <path fill="none" stroke="#000000" stroke-width="0.5" stroke-linecap="round" stroke-linejoin="round" d="M244.06,657.61h-9.72 c0,0-3.69-2.81-7.65-4.58c-0.23-0.1-0.45-0.2-0.68-0.29c-2.99-1.21-6.02-1.71-7.67,0.12"/>
      <path fill="none" stroke="#000000" stroke-width="0.5" stroke-linecap="round" stroke-linejoin="round" d="M269.9,653.17 c0.04-0.07,0.09-0.15,0.14-0.22c0.9-1.4,2.61-2.83,4.87-4.26c13.54-8.61,46.99-17.33,46.99-17.33 c124.79-73.76,133.78-133.59,133.78-133.59c-81.06,17.83-185.91-76.11-185.91-76.11c-8.93,0.28-14.69,11.97-15.18,12.99 c-0.02,0.05-0.03,0.07-0.03,0.07c1.88,2.3,3.5,4.31,4.88,6.06c8.99,11.4,8.22,12.07,8.22,12.07"/>
      <path fill="none" stroke="#000000" stroke-width="0.5" stroke-linecap="round" stroke-linejoin="round" d="M269.9,653.17 c-22.25,37.59-1.65,37.98-1.65,37.98C284.26,684.87,264.15,662.92,269.9,653.17z"/>
      <path fill="none" stroke="#000000" stroke-width="0.5" stroke-linecap="round" stroke-linejoin="round" d="M234.8,434.36 c10.43-63.23,9.94-60.64,9.84-66.62"/>
      <path fill="none" stroke="#000000" stroke-width="0.5" stroke-linecap="round" stroke-linejoin="round" d="M253.81,433.95 c0.01,0.03,0.01,0.05,0.01,0.05"/>
      <path fill="none" stroke="#000000" stroke-width="0.5" stroke-linecap="round" stroke-linejoin="round" d="M244.63,367.35 c0,0.1,0.01,0.23,0.01,0.38c0.41,6.5,8.87,64.18,9.17,66.21"/>
      <path fill="none" stroke="#000000" stroke-width="0.5" stroke-linecap="round" stroke-linejoin="round" d="M264.57,548.05 c0.67-1.98,1.29-3.98,1.86-5.97c5.33-18.7,6.18-37.48,5.66-51.71c-0.52-14.61-2.47-24.41-2.47-24.41"/>
      <path fill="none" stroke="#000000" stroke-width="0.5" stroke-linecap="round" stroke-linejoin="round" d="M292.1,589.66 c1.86-17.45-4.77-26.96-10.37-31.77c-3.73-3.21-7-4.34-7-4.34"/>
      <path fill="none" stroke="#000000" stroke-width="0.5" stroke-linecap="round" stroke-linejoin="round" d="M267.83,640.89 c0,0,0,0,0.01-0.01c0.28-0.23,5.05-4.04,4.9-3.55c0.36-0.19,1.46-0.89,2.94-1.87c2.03-1.37,4.76-3.29,7.26-5.22 c2.97-2.31,5.6-4.63,6.27-6.03c3.58-7.46,7.59-18.53,2.79-25c-0.23-0.32-0.48-0.63-0.76-0.92c-0.42-0.44-3.18-3.37-5.09-2.61 c-3.85,1.53,1.75,15.56-4.98,21.43c-1.21,1.06-4.93,7.87-8.14,13.95c-2.55,4.82-4.77,9.17-5.19,9.83"/>
      <path fill="none" stroke="#000000" stroke-width="0.5" stroke-linecap="round" stroke-linejoin="round" d="M269.9,652.86 c-1.65-1.83-4.68-1.33-7.67-0.12c-0.23,0.09-0.45,0.19-0.68,0.29c-3.96,1.76-7.65,4.58-7.65,4.58h-9.84"/>
      <path fill="none" d="M272.09,490.36c-0.34-5.07-0.93-10-1.73-14.71"/>
      <path fill="none" stroke="#2F5D7D" stroke-width="0.5" stroke-linecap="round" stroke-linejoin="round" d="M222.83,456.81 c-2.34,6.71-4.29,14.42-5.61,22.77c0,0.02,0,0.03,0,0.05c-1.14,7.24-1.79,14.96-1.79,22.95c0,14.8,2.88,28.25,6.3,39.55"/>
      <path fill="none" stroke="#000000" stroke-width="0.5" stroke-linecap="round" stroke-linejoin="round" d="M244.52,430.06 c-0.03,0-0.06,0-0.09,0c-1.21,0-2.39,0.21-3.56,0.62"/>
      <path fill="none" stroke="#000000" stroke-width="0.5" stroke-linecap="round" stroke-linejoin="round" d="M282.94,630.23 c0.19-0.33,0.38-0.66,0.57-1"/>
      <path display="none" fill="none" stroke="#000000" stroke-width="0.5" stroke-linecap="round" stroke-linejoin="round" d=" M204.8,629.34c0.17,0.3,0.33,0.6,0.5,0.89c1.87,3.21,4,6.18,6.35,8.86c0.98,1.13,2,2.21,3.06,3.23c3.67,3.56,7.78,6.47,12.2,8.57 c0.21,0.12,0.43,0.22,0.65,0.32c5.16,2.36,10.74,3.65,16.56,3.65c5.82,0,11.4-1.29,16.56-3.65c0.22-0.1,0.44-0.2,0.65-0.32 c5.69-2.71,10.86-6.75,15.25-11.79c2.35-2.68,4.48-5.66,6.36-8.87"/>
      <path display="none" fill="none" stroke="#000000" stroke-width="0.5" stroke-linecap="round" stroke-linejoin="round" d=" M292,599.2c0.08-1.38,0.12-2.75,0.12-4.15c0-1.81-0.06-3.61-0.2-5.38c-0.85-11.95-4.52-22.89-10.19-31.78 c-4.03-6.34-9.07-11.62-14.83-15.49c-0.16-0.11-0.31-0.22-0.47-0.32c-0.77-0.51-1.56-0.99-2.36-1.45 c-6.07-3.46-12.83-5.39-19.95-5.39c-6.8,0-13.27,1.76-19.13,4.94c-1.08,0.58-2.14,1.22-3.18,1.89c-0.03,0.02-0.05,0.04-0.08,0.05 c-5.92,3.9-11.1,9.28-15.22,15.76c-5.67,8.89-9.34,19.83-10.19,31.78c-0.14,1.77-0.2,3.57-0.2,5.38c0,1.4,0.04,2.77,0.12,4.15 c0.02,0.28,0.04,0.56,0.06,0.83"/>
      <path fill="none" stroke="#000000" stroke-width="0.5" stroke-linecap="round" stroke-linejoin="round" d="M291.95,599.89 c0.01-0.23,0.04-0.47,0.05-0.7"/>
      <polyline fill="none" stroke="#000000" stroke-width="0.5" stroke-linecap="round" stroke-linejoin="round" points="&#10;&#9;&#9;&#9;220.62,451.99 220.54,452.82 219.3,464.91 &#9;&#9;"/>
      <line fill="none" stroke="#000000" stroke-width="0.5" stroke-linecap="round" stroke-linejoin="round" x1="269.62" y1="465.95" x2="267.62" y2="452.99"/>
      <path display="none" fill="none" stroke="#000000" stroke-width="0.5" stroke-linecap="round" stroke-linejoin="round" d=" M214.88,630.42c1.1-0.61,2.38-0.98,3.75-1.05c4.37-0.21,8.06,2.75,8.25,6.62c0.17,3.4-2.42,6.36-6.01,7.18 c-0.5,0.11-1.02,0.19-1.55,0.21c-1.69,0.09-3.29-0.31-4.61-1.06c-0.77-0.42-1.44-0.97-1.99-1.6c-0.44-0.49-0.8-1.04-1.07-1.63 c-0.34-0.72-0.54-1.51-0.58-2.33c-0.04-0.74,0.06-1.46,0.27-2.13C211.87,632.86,213.16,631.36,214.88,630.42z"/>
      <path display="none" fill="none" stroke="#000000" stroke-width="0.5" stroke-linecap="round" stroke-linejoin="round" d=" M275.68,635.46c0.02,0.18,0.04,0.36,0.05,0.54c0.19,3.87-3.19,7.18-7.56,7.39c-0.09,0.01-0.19,0.01-0.28,0.01 c-4.24,0.08-7.77-2.83-7.96-6.63c-0.19-3.87,3.19-7.17,7.56-7.39c2.11-0.1,4.06,0.54,5.54,1.67 C274.46,632.14,275.44,633.68,275.68,635.46z"/>
      <line fill="none" stroke="#000000" stroke-width="0.5" stroke-linecap="round" stroke-linejoin="round" x1="212.5" y1="640.93" x2="213.87" y2="648.75"/>
      <polyline fill="none" stroke="#000000" stroke-width="0.5" stroke-linecap="round" stroke-linejoin="round" points="276.59,639.1 &#10;&#9;&#9;&#9;274.91,648.69 274.9,648.75 &#9;&#9;"/>
    </g>
    <polyline fill="none" stroke="#000000" stroke-width="0.2" stroke-miterlimit="10" points="217.74,474.82 217.07,480.56 &#10;&#9;&#9;217.03,483.76 &#9;"/>
    <g id="WeatherIcon">
      <g>
        <g>
          <polygon fill="#FFC50F" points="261.56,553.41 228.28,549.16 259.42,561.69 232.1,542.14 254.31,567.38 237.9,538.02 &#10;&#9;&#9;&#9;&#9;&#9;247.89,570.15 244.45,536.68 241.05,570.16 251.03,538.03 234.52,567.33 256.89,542.23 229.41,561.57 260.63,549.2 &#10;&#9;&#9;&#9;&#9;&#9;227.34,553.41 260.62,557.66 229.48,545.13 256.8,564.68 234.59,539.44 251,568.8 241.01,536.66 244.45,570.14 247.85,536.66 &#10;&#9;&#9;&#9;&#9;&#9;237.87,568.79 254.38,539.49 232.01,564.59 259.49,545.25 228.27,557.62 &#9;&#9;&#9;&#9;"/>
        </g>
        <ellipse fill="#FFC50F" stroke="#FFFFFF" stroke-width="6.0025" stroke-miterlimit="10" cx="244.65" cy="553.23" rx="2.56" ry="2.34"/>
      </g>
    </g>
  </g>
</svg>