<svg xmlns="http://www.w3.org/2000/svg" xmlns:xlink="http://www.w3.org/1999/xlink" viewBox="0 0 422.29 323.42"><defs><style>.cls-1{fill:url(#linear-gradient);}.cls-2{fill:#d1d3d4;}.cls-3{fill:#13364d;}.cls-4{fill:#414042;}.cls-5{fill:#231f20;}.cls-6{fill:#2f5d7d;}.cls-7{fill:url(#New_Gradient_Swatch_1);}.cls-8{fill:url(#linear-gradient-2);}.cls-9{fill:url(#New_Gradient_Swatch_1-2);}.cls-10{fill:url(#linear-gradient-3);}.cls-11{fill:url(#New_Gradient_Swatch_4);}.cls-12{fill:url(#New_Gradient_Swatch_1-3);}.cls-13{fill:url(#linear-gradient-4);}.cls-14{fill:url(#Orange_Yellow);}.cls-15{fill:url(#Orange_Yellow-2);}.cls-16{fill:url(#Orange_Yellow-3);}.cls-17{fill:none;}.cls-17,.cls-25{stroke:#231f20;stroke-linecap:round;stroke-linejoin:round;stroke-width:0.5px;}.cls-18{fill:#fff200;}.cls-19{fill:url(#New_Gradient_Swatch_1-4);}.cls-20{fill:url(#New_Gradient_Swatch_1-5);}.cls-21{fill:url(#New_Gradient_Swatch_1-6);}.cls-22{fill:url(#New_Gradient_Swatch_1-7);}.cls-23{fill:url(#New_Gradient_Swatch_1-8);}.cls-24{fill:url(#New_Gradient_Swatch_1-9);}.cls-25{fill:url(#linear-gradient-5);}</style><linearGradient id="linear-gradient" x1="253.72" y1="213.27" x2="454.84" y2="213.27" gradientUnits="userSpaceOnUse"><stop offset="0" stop-color="#231f20"/><stop offset="0.11" stop-color="#434345"/><stop offset="0.33" stop-color="#3c4045"/><stop offset="0.72" stop-color="#545456"/><stop offset="0.82" stop-color="#58585a"/><stop offset="0.91" stop-color="#626365"/><stop offset="1" stop-color="#747578"/><stop offset="1" stop-color="#757679"/></linearGradient><linearGradient id="New_Gradient_Swatch_1" x1="259.56" y1="350.25" x2="274.58" y2="350.25" gradientUnits="userSpaceOnUse"><stop offset="0.02" stop-color="#52839a"/><stop offset="1" stop-color="#2f5d7d"/></linearGradient><linearGradient id="linear-gradient-2" x1="244.52" y1="114.06" x2="259.44" y2="114.06" gradientUnits="userSpaceOnUse"><stop offset="0" stop-color="#2f5d7d"/><stop offset="1" stop-color="#2f5d7d"/></linearGradient><linearGradient id="New_Gradient_Swatch_1-2" x1="234.8" y1="79.18" x2="253.81" y2="79.18" xlink:href="#New_Gradient_Swatch_1"/><linearGradient id="linear-gradient-3" x1="240.87" y1="108.46" x2="244.52" y2="108.46" xlink:href="#linear-gradient-2"/><linearGradient id="New_Gradient_Swatch_4" x1="32.56" y1="213.4" x2="233.68" y2="213.4" gradientUnits="userSpaceOnUse"><stop offset="0" stop-color="#757679"/><stop offset="0" stop-color="#747578"/><stop offset="0.09" stop-color="#626365"/><stop offset="0.18" stop-color="#58585a"/><stop offset="0.28" stop-color="#545456"/><stop offset="0.67" stop-color="#3c4045"/><stop offset="0.89" stop-color="#434345"/><stop offset="1" stop-color="#231f20"/></linearGradient><linearGradient id="New_Gradient_Swatch_1-3" x1="213.66" y1="350.25" x2="228.67" y2="350.25" xlink:href="#New_Gradient_Swatch_1"/><linearGradient id="linear-gradient-4" x1="199.65" y1="273.9" x2="202.09" y2="273.9" xlink:href="#linear-gradient-2"/><linearGradient id="Orange_Yellow" x1="197.25" y1="275.24" x2="199.38" y2="275.24" gradientUnits="userSpaceOnUse"><stop offset="0" stop-color="#fff33b"/><stop offset="0.04" stop-color="#fee72e"/><stop offset="0.12" stop-color="#fed51b"/><stop offset="0.2" stop-color="#fdca10"/><stop offset="0.28" stop-color="#fdc70c"/><stop offset="0.67" stop-color="#f3903f"/><stop offset="0.89" stop-color="#ed683c"/><stop offset="1" stop-color="#e93e3a"/></linearGradient><linearGradient id="Orange_Yellow-2" x1="197.11" y1="276.19" x2="197.25" y2="276.19" xlink:href="#Orange_Yellow"/><linearGradient id="Orange_Yellow-3" x1="197" y1="276.32" x2="197.11" y2="276.32" xlink:href="#Orange_Yellow"/><linearGradient id="New_Gradient_Swatch_1-4" x1="197.68" y1="237.93" x2="208.33" y2="237.93" gradientTransform="translate(28.74 -19.79) rotate(6.65)" xlink:href="#New_Gradient_Swatch_1"/><linearGradient id="New_Gradient_Swatch_1-5" x1="156.85" y1="222.19" x2="167.5" y2="222.19" gradientTransform="matrix(0.78, 0.09, -0.1, 0.87, 59.38, 10.98)" xlink:href="#New_Gradient_Swatch_1"/><linearGradient id="New_Gradient_Swatch_1-6" x1="178.16" y1="234.16" x2="188.81" y2="234.16" gradientTransform="matrix(0.85, 0.1, -0.11, 0.91, 52.4, 1.88)" xlink:href="#New_Gradient_Swatch_1"/><linearGradient id="New_Gradient_Swatch_1-7" x1="77.5" y1="251.94" x2="88.15" y2="251.94" gradientTransform="matrix(-0.99, 0.12, 0.12, 0.99, 337.76, -19.79)" xlink:href="#New_Gradient_Swatch_1"/><linearGradient id="New_Gradient_Swatch_1-8" x1="4.47" y1="238.21" x2="15.13" y2="238.21" gradientTransform="matrix(-0.78, 0.09, 0.1, 0.87, 307.12, 10.98)" xlink:href="#New_Gradient_Swatch_1"/><linearGradient id="New_Gradient_Swatch_1-9" x1="37.29" y1="249.49" x2="47.94" y2="249.49" gradientTransform="matrix(-0.85, 0.1, 0.11, 0.91, 314.1, 1.88)" xlink:href="#New_Gradient_Swatch_1"/><linearGradient id="linear-gradient-5" x1="242.09" y1="109.29" x2="245.84" y2="238.49" gradientUnits="userSpaceOnUse"><stop offset="0" stop-color="#d1d3d4"/><stop offset="0.18" stop-color="#ced0d2"/><stop offset="0.33" stop-color="#c4c8cb"/><stop offset="0.46" stop-color="#b4bbbf"/><stop offset="0.58" stop-color="#9ca7ae"/><stop offset="0.7" stop-color="#7e8e99"/><stop offset="0.81" stop-color="#59707f"/><stop offset="0.92" stop-color="#2e4c60"/><stop offset="0.97" stop-color="#13364d"/></linearGradient></defs><g id="Layer_2" data-name="Layer 2"><path class="cls-1" d="M268.93,99.76s104.85,94,185.91,76.11c0,0-9,59.83-133.78,133.59,0,0-33.45,8.71-47,17.33l1.68-9.59h0a58.19,58.19,0,0,0,6.36-8.88c3-2.31,5.6-4.62,6.27-6,3.58-7.46,7.43-18.53,2.63-25,.08-1.38.12-2.75.12-4.15,0-1.81-.06-3.61-.2-5.38l.2-.29C293,250,286.49,240.79,280.89,236a52.4,52.4,0,0,0-14.83-15.5,158.26,158.26,0,0,0,5.53-39.81c.06-4.14-.06-8.23-.34-12.21A168.9,168.9,0,0,0,268.78,144l-2-13-2.88.28s3.69-1.08-5.3-12.48c-1.38-1.76-3-3.76-4.88-6.06l0-.07C254.24,111.73,260,100,268.93,99.76Z" transform="translate(-32.56 -45.82)"/><path class="cls-2" d="M292,277.29c4.8,6.47.79,17.54-2.79,25-.67,1.41-3.3,3.72-6.27,6-2.5,1.94-5.23,3.86-7.26,5.23a6.67,6.67,0,0,0-2.65-4.41c3.21-6.08,6.93-12.89,8.14-13.95,6.73-5.87,1.13-19.9,5-21.43,1.91-.76,4.67,2.17,5.09,2.61A8.24,8.24,0,0,1,292,277.29Z" transform="translate(-32.56 -45.82)"/><path class="cls-3" d="M281.73,236c5.6,4.81,12.23,14.32,10.37,31.77h-.18A68.18,68.18,0,0,0,281.73,236Z" transform="translate(-32.56 -45.82)"/><path class="cls-3" d="M206.51,236c4.12-6.48,9.92-12.92,15.84-16.82,4,1.7,3.64,6,5.44,8.67,8.7,12.77,9.09,3.09,16.83,3.62s10.62,4.89,15.53-8.72c1.07-3,5.82,1.13,6.75-2.25A52.4,52.4,0,0,1,281.73,236a68.18,68.18,0,0,1,10.19,31.78c.14,1.77.2,3.57.2,5.38,0,1.4,0,2.77-.12,4.15a8.24,8.24,0,0,0-.76-.92c-.42-.44-3.18-3.37-5.09-2.61-3.85,1.53,1.75,15.56-5,21.43-1.21,1.06-4.93,7.87-8.14,13.95a8.4,8.4,0,0,0-5.54-1.67c-4.37.22-7.75,3.52-7.56,7.38s3.72,6.71,8,6.63h.28c4.37-.21,7.75-3.52,7.56-7.38,0-.18,0-.36-.05-.54,2-1.37,4.76-3.29,7.26-5.23a58.19,58.19,0,0,1-6.36,8.88A47.43,47.43,0,0,1,261.33,329c-.21.12-.43.22-.65.32a39.39,39.39,0,0,1-33.12,0c-.22-.1-.44-.2-.65-.32a46.1,46.1,0,0,1-12.2-8.57,8.52,8.52,0,0,0,4.61,1.05,8.77,8.77,0,0,0,1.55-.21c3.59-.81,6.18-3.78,6-7.17-.19-3.87-3.88-6.83-8.25-6.62a8.63,8.63,0,0,0-3.75,1c-3.14-5.91-6.64-12.3-7.81-13.32-6.73-5.87-1.13-19.9-5-21.43a2.66,2.66,0,0,0-2.44.44l-.27.16a11.93,11.93,0,0,0-2.13,1.76l-.14.14-.11.11a8.24,8.24,0,0,0-.76.92c-.08-1.38-.12-2.75-.12-4.15,0-1.81.06-3.61.2-5.38A68.18,68.18,0,0,1,206.51,236Z" transform="translate(-32.56 -45.82)"/><path class="cls-4" d="M276.59,317.2l-1.68,9.59A15.91,15.91,0,0,0,270,331l-.14-.09c-1.65-1.83-4.68-1.32-7.67-.12l-.9-1.84a47.43,47.43,0,0,0,15.25-11.79Z" transform="translate(-32.56 -45.82)"/><path class="cls-3" d="M275.73,314.09c.19,3.86-3.19,7.17-7.56,7.38h-.28l-.06-2.5h0c.28-.23,5.05-4,4.9-3.55.36-.19,1.46-.89,2.94-1.87C275.7,313.73,275.72,313.91,275.73,314.09Z" transform="translate(-32.56 -45.82)"/><path class="cls-5" d="M273,309.14a6.67,6.67,0,0,1,2.65,4.41c-1.48,1-2.58,1.68-2.94,1.87.15-.49-4.62,3.32-4.9,3.55C268.26,318.31,270.48,314,273,309.14Z" transform="translate(-32.56 -45.82)"/><path class="cls-6" d="M270.36,153.74a146.84,146.84,0,0,1,1.73,14.72" transform="translate(-32.56 -45.82)"/><path class="cls-6" d="M266.43,220.17c-.77-.51-1.56-1-2.36-1.45" transform="translate(-32.56 -45.82)"/><path class="cls-7" d="M269.9,331.26c-5.75,9.75,14.36,31.7-1.65,38C268.25,369.25,247.65,368.86,269.9,331.26Z" transform="translate(-32.56 -45.82)"/><path class="cls-3" d="M267.49,307.47a8.4,8.4,0,0,1,5.54,1.67c-2.55,4.82-4.77,9.17-5.19,9.83h0l.06,2.5c-4.24.08-7.77-2.83-8-6.63S263.12,307.69,267.49,307.47Z" transform="translate(-32.56 -45.82)"/><path class="cls-8" d="M259.25,120a34.7,34.7,0,0,0-4.85-6.75c-.26-.27-.52-.54-.78-.78h0c-2.84-2.74-5.9-4.25-9.1-4.28h.1a14,14,0,0,1,9.19,3.88h0c.26.22.52.46.78.71l0,.07c1.88,2.3,3.5,4.3,4.88,6.06" transform="translate(-32.56 -45.82)"/><path class="cls-4" d="M261.33,329l.9,1.84-.68.29a44.78,44.78,0,0,0-7.65,4.58H234.34a44.78,44.78,0,0,0-7.65-4.58l-.68-.29.9-1.84c.21.12.43.22.65.32a39.39,39.39,0,0,0,33.12,0C260.9,329.21,261.12,329.11,261.33,329Z" transform="translate(-32.56 -45.82)"/><path class="cls-9" d="M253.81,112a14,14,0,0,0-9.19-3.88h-.19a10.67,10.67,0,0,0-3.56.62l-.25.1a16.77,16.77,0,0,0-5.74,3.66l-.08-.08c10.43-63.24,9.94-60.64,9.84-66.63C245.05,52.32,253.51,110,253.81,112Z" transform="translate(-32.56 -45.82)"/><path class="cls-10" d="M244.43,108.15h.09a11.7,11.7,0,0,0-3.65.62A10.67,10.67,0,0,1,244.43,108.15Z" transform="translate(-32.56 -45.82)"/><path class="cls-11" d="M233.68,112.82,231.92,115c-12,14.8-8.69,14.77-11.38,15.94L219.3,143s-1.19,5.63-2.08,14.67v.05a148,148,0,0,0-1.79,22.95,136.44,136.44,0,0,0,6.3,39.55A52.27,52.27,0,0,0,206.51,236c-5.6,4.81-12.23,14.32-10.37,31.77h.18c-.14,1.77-.2,3.57-.2,5.38,0,1.4,0,2.77.12,4.15a10.84,10.84,0,0,0-.89,1.45c-2.19,6.53.6,17.12,3.68,23.55.67,1.41,3.3,3.72,6.27,6a57.36,57.36,0,0,0,6.35,8.87,6.47,6.47,0,0,0,1.07,1.63l-.22.2,1.37,7.83-.13.2c-13.26-8.7-47.4-17.59-47.4-17.59C41.55,235.7,32.56,175.87,32.56,175.87c81.06,17.84,185.91-76.11,185.91-76.11C227.8,100.05,233.68,112.82,233.68,112.82Z" transform="translate(-32.56 -45.82)"/><path class="cls-4" d="M226.91,329l-.9,1.84c-3-1.2-6-1.71-7.67.12l-.14.09a15.31,15.31,0,0,0-4.46-4l.13-.2L212.5,319l-.85-1.83c.55.62,2.35,2.65,3.06,3.23A46.1,46.1,0,0,0,226.91,329Z" transform="translate(-32.56 -45.82)"/><path class="cls-3" d="M226.88,314.09c.17,3.39-2.42,6.36-6,7.17l-.46-2.28h0c-.43-.69-2.84-5.4-5.52-10.46a8.63,8.63,0,0,1,3.75-1C223,307.26,226.69,310.22,226.88,314.09Z" transform="translate(-32.56 -45.82)"/><path class="cls-3" d="M220.41,319l.46,2.28a8.77,8.77,0,0,1-1.55.21,8.52,8.52,0,0,1-4.61-1.05c-1.06-1-2.08-2.11-3.06-3.23a6.16,6.16,0,0,1-.58-2.34,6.09,6.09,0,0,1,.27-2.13c2.08,1.43,3.7,2.46,4.16,2.7-.15-.49,4.62,3.32,4.9,3.55Z" transform="translate(-32.56 -45.82)"/><path class="cls-12" d="M218.34,331.26c22.25,37.6,1.65,38,1.65,38C204,363,224.09,341,218.34,331.26Z" transform="translate(-32.56 -45.82)"/><path class="cls-5" d="M220.4,319c-.28-.23-5.05-4-4.9-3.55-.46-.24-2.08-1.27-4.16-2.7a7.28,7.28,0,0,1,3.54-4.21C217.56,313.57,220,318.28,220.4,319Z" transform="translate(-32.56 -45.82)"/><path class="cls-2" d="M205.3,308.32c-3-2.31-5.6-4.62-6.27-6-3.08-6.43-5.87-17-3.68-23.55a10.84,10.84,0,0,1,.89-1.45,8.24,8.24,0,0,1,.76-.92l.11-.11.14-.14a14.7,14.7,0,0,1,2.13-1.76l.27-.16a2.88,2.88,0,0,1,2.44-.44c3.85,1.53-1.75,15.56,5,21.43,1.17,1,4.67,7.41,7.81,13.32a7.28,7.28,0,0,0-3.54,4.21C209.51,311.45,207.33,309.89,205.3,308.32Z" transform="translate(-32.56 -45.82)"/><path class="cls-3" d="M211.07,314.85a6.16,6.16,0,0,0,.58,2.34,57.36,57.36,0,0,1-6.35-8.87c2,1.57,4.21,3.13,6,4.4A6.09,6.09,0,0,0,211.07,314.85Z" transform="translate(-32.56 -45.82)"/><path class="cls-13" d="M202.09,273.76a2.88,2.88,0,0,0-2.44.44A2.66,2.66,0,0,1,202.09,273.76Z" transform="translate(-32.56 -45.82)"/><path class="cls-3" d="M206.51,236a68.18,68.18,0,0,0-10.19,31.78h-.18C194.28,250.3,200.91,240.79,206.51,236Z" transform="translate(-32.56 -45.82)"/><path class="cls-14" d="M199.38,274.36a14.7,14.7,0,0,0-2.13,1.76A11.93,11.93,0,0,1,199.38,274.36Z" transform="translate(-32.56 -45.82)"/><path class="cls-15" d="M197.25,276.12l-.14.14Z" transform="translate(-32.56 -45.82)"/><path class="cls-16" d="M197.11,276.26l-.11.11Z" transform="translate(-32.56 -45.82)"/><path class="cls-17" d="M265.8,129.74h-.44a21.27,21.27,0,0,0-21.06-21.27h.22A21.28,21.28,0,0,1,265.8,129.74Z" transform="translate(-32.56 -45.82)"/><path class="cls-17" d="M226.85,224.79l-.49-.16a15.08,15.08,0,0,1-2.77-1.26,15.25,15.25,0,0,0,2.09-1.45c.13-.11.26-.22.38-.34A18.82,18.82,0,0,0,226.85,224.79Z" transform="translate(-32.56 -45.82)"/><path class="cls-17" d="M262.91,221.93a16.3,16.3,0,0,1-.68,2.69,18.67,18.67,0,0,1-17.71,12.78h-.22a18.69,18.69,0,0,0,17.44-12.61,17.6,17.6,0,0,0,.78-3.2Z" transform="translate(-32.56 -45.82)"/><path class="cls-17" d="M244.3,108.47a21.27,21.27,0,0,0-21.07,21.27h-.44a21.28,21.28,0,0,1,21.28-21.28Z" transform="translate(-32.56 -45.82)"/><path class="cls-17" d="M265,223.37a14.4,14.4,0,0,1-2.77,1.25l-.49.17a17.6,17.6,0,0,0,.78-3.2l.39.34A15.19,15.19,0,0,0,265,223.37Z" transform="translate(-32.56 -45.82)"/></g><g id="lightning"><polygon class="cls-18" points="197.29 170.57 240.47 170.57 218.84 213.27 228.77 213.27 205.73 266.9 215.3 224.91 183.31 224.91 197.29 170.57"/></g><g id="Cloud"><path class="cls-19" d="M202.39,226.44c12.59,28.31-2,26.9-2,26.9C189.67,247.6,205.64,233.78,202.39,226.44Z" transform="translate(-32.56 -45.82)"/><path class="cls-20" d="M163.72,207c9.66,24.61-1.82,23.51-1.82,23.51C153.46,225.57,166.21,213.34,163.72,207Z" transform="translate(-32.56 -45.82)"/><path class="cls-21" d="M182.83,220.17c10.55,25.76-1.86,24.57-1.86,24.57C171.81,239.57,185.55,226.85,182.83,220.17Z" transform="translate(-32.56 -45.82)"/><path class="cls-22" d="M285.1,226.44c-12.59,28.31,2,26.9,2,26.9C297.82,247.6,281.85,233.78,285.1,226.44Z" transform="translate(-32.56 -45.82)"/><path class="cls-23" d="M323.78,207c-9.67,24.61,1.81,23.51,1.81,23.51C334,225.57,321.28,213.34,323.78,207Z" transform="translate(-32.56 -45.82)"/><path class="cls-24" d="M304.67,220.17c-10.55,25.76,1.86,24.57,1.86,24.57C315.68,239.57,301.94,226.85,304.67,220.17Z" transform="translate(-32.56 -45.82)"/><path class="cls-25" d="M330.59,161.1a17.65,17.65,0,0,0-3.43.33A15.44,15.44,0,0,0,312.57,151a15.24,15.24,0,0,0-8.49,2.55,15.42,15.42,0,0,0-23.5-9.46,15.44,15.44,0,0,0-15-14.36h-.44a21.07,21.07,0,1,0-42.13,0h-.44a15.44,15.44,0,0,0-15,14.36,15.42,15.42,0,0,0-23.5,9.46,15.43,15.43,0,0,0-23.09,7.86,17.55,17.55,0,0,0-3.42-.33A18,18,0,0,0,149,194.94a15.42,15.42,0,0,0,13.61,14.95,15.45,15.45,0,0,0,19.54,9.51,15.43,15.43,0,0,0,22.9,1.77,15.42,15.42,0,0,0,20.46.75c.13-.11.26-.22.38-.34a18.4,18.4,0,0,0,35.68,3.21,17.6,17.6,0,0,0,.78-3.2l.39.34a15.56,15.56,0,0,0,9.81,3.51,15.42,15.42,0,0,0,10.66-4.27,15.42,15.42,0,0,0,22.89-1.77,15.45,15.45,0,0,0,19.54-9.51,15.42,15.42,0,0,0,13.61-14.95,18,18,0,0,0-8.65-33.84Z" transform="translate(-32.56 -45.82)"/><path class="cls-17" d="M244.3,237.4h-.23a18.68,18.68,0,0,1-17.71-12.77,16.28,16.28,0,0,1-.68-2.71c.13-.11.26-.22.38-.34A18.66,18.66,0,0,0,244.3,237.4Z" transform="translate(-32.56 -45.82)"/><path class="cls-17" d="M316.66,190.32" transform="translate(-32.56 -45.82)"/><path class="cls-17" d="M323.74,195.72" transform="translate(-32.56 -45.82)"/><path class="cls-17" d="M316.66,190.32" transform="translate(-32.56 -45.82)"/><path class="cls-17" d="M323.74,195.72" transform="translate(-32.56 -45.82)"/><path class="cls-17" d="M209.55,157.49c-7.74-1.7-12.39,2.48-11,8.74l-.25.38c-7.73-1.7-12.38,2.49-11,8.75" transform="translate(-32.56 -45.82)"/><path class="cls-17" d="M176,165.38c-7.74-1.7-12.39,2.49-11,8.75l-.25.38c-7.73-1.7-12.38,2.48-11,8.75" transform="translate(-32.56 -45.82)"/><path class="cls-17" d="M199.65,187c-7.74-1.7-12.39,2.49-11,8.75l-.25.38c-7.73-1.7-12.38,2.48-11,8.75" transform="translate(-32.56 -45.82)"/><path class="cls-17" d="M238.08,165.38c-7.73-1.7-12.38,2.49-11,8.75l-.25.38c-7.74-1.7-12.38,2.48-11,8.75" transform="translate(-32.56 -45.82)"/><path class="cls-17" d="M263.54,195c-5.36-5.83-11.56-5.08-14,.85l-.42.17c-5.36-5.83-11.56-5.08-14,.85" transform="translate(-32.56 -45.82)"/><path class="cls-17" d="M229.84,208.86c-5.35-5.84-11.56-5.09-14,.84l-.42.17c-5.36-5.83-11.57-5.08-14,.85" transform="translate(-32.56 -45.82)"/><path class="cls-17" d="M297.84,205.92c-5.35-5.84-11.56-5.08-14,.85l-.42.17c-5.35-5.84-11.56-5.08-14,.84" transform="translate(-32.56 -45.82)"/><path class="cls-17" d="M297.52,175.78c-6.22-4.91-12.23-3.19-13.71,3.06l-.39.23c-6.21-4.91-12.22-3.19-13.71,3.06" transform="translate(-32.56 -45.82)"/><path class="cls-17" d="M281.8,160c-4.78-6.32-11-6.16-14-.49l-.43.13c-4.78-6.32-11-6.16-14-.49" transform="translate(-32.56 -45.82)"/><path class="cls-17" d="M250.26,131.74c-7.74-1.7-12.39,2.49-11,8.75l-.25.38c-7.73-1.7-12.38,2.48-11,8.75" transform="translate(-32.56 -45.82)"/><path class="cls-17" d="M305.43,161.48c7.73-1.7,12.38,2.48,11,8.75l.25.38c7.74-1.7,12.38,2.48,11,8.74" transform="translate(-32.56 -45.82)"/><path class="cls-17" d="M297.52,175.74c7.73-1.7,12.38,2.49,11,8.75l.25.38c7.74-1.7,12.38,2.48,11,8.75" transform="translate(-32.56 -45.82)"/></g></svg>