<svg width="128" height="95" viewBox="0 0 128 95" fill="none" xmlns="http://www.w3.org/2000/svg">
<path d="M19.9772 47.6719C19.3983 47.7512 19.4019 48.5893 19.9814 48.6632L103.55 59.3261C104.129 59.4 104.344 58.5907 103.804 58.368L25.7435 26.1389C25.1982 25.9137 24.7809 26.6535 25.2557 27.0036L93.4296 77.2617C93.908 77.6144 94.4926 76.9865 94.1067 76.5345L38.9544 11.9317C38.5646 11.4751 37.8481 11.9677 38.1346 12.4952L78.7834 87.3323C79.0709 87.8616 79.8764 87.5242 79.7012 86.9479L54.884 5.30037C54.7079 4.72099 53.8458 4.89534 53.9083 5.49771L62.719 90.4984C62.7813 91.0996 63.6585 91.0945 63.7142 90.4926L71.595 5.3518C71.6508 4.749 70.7874 4.58454 70.6173 5.16556L46.5958 87.1794C46.4268 87.7565 47.233 88.0858 47.5165 87.5554L87.7465 12.3086C88.0292 11.7798 87.3117 11.2923 86.9241 11.7499L31.9501 76.6502C31.5661 77.1035 32.1518 77.7287 32.6291 77.375L100.698 26.9434C101.172 26.5917 100.752 25.8523 100.207 26.0805L22.3581 58.6824C21.8183 58.9084 22.0391 59.7184 22.6188 59.6389L106.044 48.2012C106.623 48.1219 106.62 47.2838 106.04 47.2099L22.4714 36.547C21.8923 36.4731 21.6774 37.2824 22.217 37.5051L100.278 69.7342C100.823 69.9594 101.241 69.2196 100.766 68.8695L32.5919 18.6114C32.1135 18.2587 31.5289 18.8866 31.9148 19.3386L87.0671 83.9414C87.4569 84.398 88.1734 83.9054 87.8869 83.3779L47.2381 8.54079C46.9506 8.01154 46.1451 8.34888 46.3203 8.92517L71.1375 90.5727C71.3136 91.1521 72.1756 90.9778 72.1132 90.3754L63.3025 5.37465C63.2401 4.77344 62.363 4.77861 62.3072 5.38053L54.4265 90.5213C54.3707 91.1241 55.234 91.2886 55.4042 90.7075L79.4257 8.69364C79.5947 8.11654 78.7885 7.78734 78.505 8.31768L38.275 83.5645C37.9923 84.0933 38.7098 84.5808 39.0974 84.1232L94.0713 19.2229C94.4553 18.7696 93.8697 18.1444 93.3923 18.4981L25.3238 68.9297C24.849 69.2814 25.2693 70.0208 25.8143 69.7926L103.663 37.1907C104.203 36.9647 103.982 36.1547 103.403 36.2342L19.9772 47.6719Z" fill="url(#paint0_radial_73_11936)"/>
<path d="M72.3092 47.1546C72.3092 52.7629 67.7629 57.3092 62.1546 57.3092C56.5464 57.3092 52 52.7629 52 47.1546C52 41.5464 56.5464 37 62.1546 37C67.7629 37 72.3092 41.5464 72.3092 47.1546Z" fill="white"/>
<path d="M50.3251 22.826C50.0279 22.8254 49.7314 22.8557 49.4397 22.9164C49.1704 22.0837 48.6628 21.3609 47.9876 20.8489C47.3124 20.337 46.5034 20.0613 45.6734 20.0605C44.8938 20.0577 44.131 20.3008 43.4818 20.7587C43.339 20.0942 43.0466 19.4762 42.6296 18.9576C42.2126 18.439 41.6835 18.0352 41.0874 17.7806C40.4913 17.5261 39.846 17.4284 39.2065 17.496C38.5671 17.5635 37.9526 17.7942 37.4155 18.1684C37.3466 17.1197 36.9117 16.1358 36.1957 15.4088C35.4798 14.6818 34.5342 14.2639 33.5434 14.2364H33.4299C33.4456 13.4684 33.3167 12.7048 33.0505 11.9903C32.7843 11.2759 32.3863 10.625 31.8798 10.076C31.3733 9.52686 30.7685 9.0906 30.1009 8.79276C29.4333 8.49491 28.7164 8.34149 27.9921 8.34149C27.2679 8.34149 26.551 8.49491 25.8834 8.79276C25.2158 9.0906 24.611 9.52686 24.1045 10.076C23.598 10.625 23.2 11.2759 22.9338 11.9903C22.6676 12.7048 22.5386 13.4684 22.5544 14.2364H22.4408C21.4501 14.2639 20.5045 14.6818 19.7885 15.4088C19.0726 16.1358 18.6377 17.1197 18.5687 18.1684C18.0317 17.7942 17.4172 17.5635 16.7777 17.496C16.1383 17.4284 15.493 17.5261 14.8969 17.7806C14.3008 18.0352 13.7717 18.439 13.3547 18.9576C12.9377 19.4762 12.6453 20.0942 12.5024 20.7587C11.9953 20.4037 11.4182 20.1764 10.8155 20.0944C10.2127 20.0124 9.60026 20.0777 9.025 20.2854C8.44973 20.4932 7.9269 20.8377 7.49652 21.2928C7.06614 21.7479 6.73963 22.3014 6.54199 22.9109C6.25121 22.8502 5.95551 22.82 5.65915 22.8205C4.6229 22.8176 3.61547 23.1822 2.797 23.8564C1.97854 24.5305 1.39601 25.4755 1.14203 26.5412C0.888049 27.6069 0.977192 28.732 1.39528 29.7377C1.81337 30.7435 2.53642 31.5721 3.44948 32.0919C3.4721 33.1087 3.83995 34.0826 4.48541 34.8346C5.13087 35.5867 6.01055 36.0663 6.96276 36.1854C7.31089 37.2365 8.03585 38.0995 8.98024 38.5871C9.92462 39.0746 11.0122 39.1473 12.0068 38.7894C12.3472 39.2602 12.7772 39.6497 13.2689 39.9325C13.7606 40.2153 14.3029 40.3851 14.8606 40.4308C15.4182 40.4765 15.9787 40.3971 16.5055 40.1978C17.0324 39.9985 17.5137 39.6838 17.9182 39.2741C18.6224 39.9878 19.5489 40.4028 20.5222 40.4407C21.4956 40.4785 22.4482 40.1365 23.1998 39.4794C23.2333 39.4493 23.2669 39.4192 23.2979 39.3863C23.4484 40.5109 23.9528 41.5485 24.7292 42.3307C25.5056 43.113 26.5083 43.594 27.5748 43.6958C28.6413 43.7976 29.709 43.5141 30.6045 42.8914C31.5 42.2687 32.1709 41.3433 32.5083 40.2653C32.6011 39.9805 32.6685 39.6872 32.7097 39.3891L32.8103 39.4822C33.5252 40.1017 34.4195 40.4411 35.3427 40.4433C36.3676 40.4439 37.3533 40.0251 38.0945 39.2741C38.4988 39.6837 38.9799 39.9984 39.5065 40.1977C40.0331 40.397 40.5934 40.4764 41.1508 40.4306C41.7083 40.3849 42.2504 40.2151 42.7419 39.9323C43.2334 39.6496 43.6632 39.2601 44.0033 38.7894C44.9979 39.1473 46.0855 39.0746 47.0299 38.5871C47.9742 38.0995 48.6992 37.2365 49.0473 36.1854C49.9995 36.0663 50.8792 35.5867 51.5247 34.8346C52.1701 34.0826 52.538 33.1087 52.5606 32.0919C53.4728 31.5697 54.1941 30.739 54.61 29.732C55.0258 28.7249 55.1123 27.5992 54.8556 26.534C54.5989 25.4688 54.0138 24.5252 53.1933 23.8534C52.3729 23.1815 51.3642 22.8199 50.3277 22.826H50.3251Z" fill="url(#paint1_linear_73_11936)" stroke="#231F20" stroke-width="0.5" stroke-linecap="round" stroke-linejoin="round"/>
<path d="M28.0502 43.7181H27.9909C26.9794 43.7175 25.9937 43.3795 25.1733 42.752C24.3528 42.1245 23.7392 41.2393 23.4192 40.2215C23.3407 39.9799 23.282 39.7317 23.2437 39.4794C23.2772 39.4493 23.3108 39.4192 23.3417 39.3864C23.5154 40.5831 24.0841 41.6755 24.9465 42.4689C25.8088 43.2622 26.9088 43.7049 28.0502 43.7181Z" stroke="#231F20" stroke-width="0.5" stroke-linecap="round" stroke-linejoin="round"/>
<path d="M19.0799 21.8376C17.0819 21.3721 15.8815 22.5166 16.2403 24.2307L16.1758 24.3347C14.1804 23.8693 12.98 25.0165 13.3363 26.7306" stroke="#231F20" stroke-width="0.5" stroke-linecap="round" stroke-linejoin="round"/>
<path d="M10.4192 23.9979C8.42123 23.5325 7.22088 24.6797 7.57969 26.3938L7.51516 26.4979C5.51974 26.0324 4.31938 27.1769 4.67562 28.8938" stroke="#231F20" stroke-width="0.5" stroke-linecap="round" stroke-linejoin="round"/>
<path d="M16.5243 29.9178C14.5263 29.4523 13.3259 30.5996 13.6847 32.3137L13.6202 32.4178C11.6248 31.9523 10.4244 33.0968 10.7807 34.8136" stroke="#231F20" stroke-width="0.5" stroke-linecap="round" stroke-linejoin="round"/>
<path d="M26.4446 23.9979C24.4492 23.5325 23.2488 24.6797 23.6051 26.3938L23.5405 26.4979C21.5425 26.0324 20.3447 27.1769 20.701 28.8938" stroke="#231F20" stroke-width="0.5" stroke-linecap="round" stroke-linejoin="round"/>
<path d="M33.0169 32.1084C31.6333 30.512 30.0328 30.7174 29.4029 32.3411L29.2945 32.3876C27.9109 30.7913 26.3104 30.9967 25.6805 32.6204" stroke="#231F20" stroke-width="0.5" stroke-linecap="round" stroke-linejoin="round"/>
<path d="M24.3175 35.9034C22.9365 34.3043 21.3334 34.5097 20.7036 36.1334L20.5952 36.18C19.2115 34.5836 17.6085 34.789 16.9812 36.4127" stroke="#231F20" stroke-width="0.5" stroke-linecap="round" stroke-linejoin="round"/>
<path d="M41.871 35.0984C40.49 33.4993 38.8869 33.7074 38.257 35.3311L38.1486 35.3777C36.7676 33.7786 35.1645 33.9867 34.5347 35.6077" stroke="#231F20" stroke-width="0.5" stroke-linecap="round" stroke-linejoin="round"/>
<path d="M41.7884 26.8456C40.1828 25.5012 38.6314 25.9721 38.2493 27.6835L38.1487 27.7465C36.5456 26.402 34.9942 26.873 34.6096 28.5843" stroke="#231F20" stroke-width="0.5" stroke-linecap="round" stroke-linejoin="round"/>
<path d="M37.7305 22.5248C36.4966 20.7943 34.891 20.8381 34.1166 22.3906L34.0056 22.4262C32.7717 20.6957 31.166 20.7395 30.3916 22.2921" stroke="#231F20" stroke-width="0.5" stroke-linecap="round" stroke-linejoin="round"/>
<path d="M29.5887 14.7868C27.5907 14.3213 26.3904 15.4686 26.7492 17.1827L26.6847 17.2867C24.6892 16.8213 23.4889 17.9658 23.8451 19.6826" stroke="#231F20" stroke-width="0.5" stroke-linecap="round" stroke-linejoin="round"/>
<path d="M43.8303 22.9301C45.8257 22.4646 47.0261 23.6091 46.6699 25.3259L46.7344 25.43C48.7324 24.9645 49.9302 26.1091 49.5739 27.8231" stroke="#231F20" stroke-width="0.5" stroke-linecap="round" stroke-linejoin="round"/>
<path d="M41.7885 26.8347C43.7839 26.3692 44.9842 27.5165 44.628 29.2305L44.6925 29.3346C46.6905 28.8691 47.8883 30.0137 47.5321 31.7305" stroke="#231F20" stroke-width="0.5" stroke-linecap="round" stroke-linejoin="round"/>
<path d="M102.617 25.4435C102.348 25.443 102.08 25.4704 101.816 25.5252C101.573 24.772 101.113 24.1182 100.503 23.6551C99.892 23.192 99.1602 22.9427 98.4095 22.9419C97.7043 22.9395 97.0143 23.1593 96.4271 23.5735C96.2979 22.9724 96.0334 22.4134 95.6562 21.9443C95.279 21.4752 94.8004 21.1099 94.2612 20.8797C93.722 20.6494 93.1382 20.5611 92.5599 20.6222C91.9815 20.6833 91.4256 20.892 90.9398 21.2305C90.8774 20.2818 90.484 19.3919 89.8364 18.7343C89.1888 18.0767 88.3335 17.6986 87.4373 17.6738H87.3346C87.3488 16.9791 87.2321 16.2883 86.9914 15.6421C86.7506 14.9958 86.3906 14.4071 85.9324 13.9104C85.4742 13.4137 84.9272 13.0191 84.3233 12.7497C83.7195 12.4803 83.0709 12.3415 82.4158 12.3415C81.7607 12.3415 81.1122 12.4803 80.5084 12.7497C79.9045 13.0191 79.3574 13.4137 78.8993 13.9104C78.4411 14.4071 78.0811 14.9958 77.8403 15.6421C77.5995 16.2883 77.4829 16.9791 77.4971 17.6738H77.3944C76.4982 17.6986 75.6428 18.0767 74.9953 18.7343C74.3477 19.3919 73.9543 20.2818 73.8919 21.2305C73.4061 20.892 72.8502 20.6833 72.2718 20.6222C71.6934 20.5611 71.1097 20.6494 70.5705 20.8797C70.0313 21.1099 69.5527 21.4752 69.1755 21.9443C68.7983 22.4134 68.5338 22.9724 68.4046 23.5735C67.9458 23.2524 67.4238 23.0468 66.8786 22.9726C66.3334 22.8984 65.7794 22.9575 65.2591 23.1454C64.7387 23.3333 64.2658 23.645 63.8765 24.0566C63.4872 24.4683 63.1918 24.9689 63.0131 25.5203C62.75 25.4654 62.4826 25.438 62.2145 25.4386C61.2771 25.4359 60.3659 25.7657 59.6255 26.3755C58.8852 26.9853 58.3582 27.8401 58.1285 28.8041C57.8988 29.768 57.9794 30.7858 58.3576 31.6955C58.7358 32.6053 59.3898 33.3548 60.2157 33.825C60.2362 34.7447 60.5689 35.6257 61.1528 36.3059C61.7366 36.9862 62.5323 37.4201 63.3937 37.5278C63.7086 38.4786 64.3643 39.2592 65.2186 39.7002C66.0728 40.1412 67.0566 40.207 67.9563 39.8832C68.2642 40.3091 68.6531 40.6614 69.0979 40.9172C69.5427 41.173 70.0332 41.3266 70.5377 41.368C71.0421 41.4093 71.5491 41.3375 72.0256 41.1572C72.5021 40.977 72.9375 40.6923 73.3035 40.3216C73.9405 40.9672 74.7785 41.3427 75.6589 41.3769C76.5393 41.4111 77.401 41.1018 78.0809 40.5074C78.1112 40.4802 78.1416 40.4529 78.1696 40.4232C78.3058 41.4404 78.7621 42.3789 79.4643 43.0865C80.1666 43.7941 81.0737 44.2293 82.0384 44.3213C83.0031 44.4134 83.9688 44.157 84.7789 43.5937C85.5889 43.0304 86.1958 42.1933 86.5009 41.2182C86.5849 40.9607 86.6459 40.6953 86.6831 40.4257L86.7741 40.5099C87.4208 41.0703 88.2297 41.3773 89.0648 41.3792C89.9919 41.3798 90.8835 41.001 91.5539 40.3216C91.9196 40.6922 92.3548 40.9769 92.8312 41.1571C93.3075 41.3374 93.8143 41.4092 94.3186 41.3678C94.8228 41.3265 95.3132 41.1729 95.7578 40.9171C96.2023 40.6613 96.5911 40.309 96.8988 39.8832C97.7985 40.207 98.7822 40.1412 99.6365 39.7002C100.491 39.2592 101.146 38.4786 101.461 37.5278C102.323 37.4201 103.118 36.9862 103.702 36.3059C104.286 35.6257 104.619 34.7447 104.639 33.825C105.464 33.3527 106.117 32.6013 106.493 31.6903C106.869 30.7793 106.947 29.7611 106.715 28.7976C106.483 27.8341 105.954 26.9805 105.212 26.3728C104.47 25.765 103.557 25.4379 102.62 25.4435H102.617Z" fill="url(#paint2_linear_73_11936)" stroke="#231F20" stroke-width="0.5" stroke-linecap="round" stroke-linejoin="round"/>
<path d="M82.4684 44.3415H82.4147C81.4997 44.341 80.6081 44.0352 79.866 43.4676C79.1239 42.9 78.5688 42.0993 78.2794 41.1786C78.2084 40.9601 78.1553 40.7356 78.1206 40.5074C78.1509 40.4802 78.1813 40.4529 78.2093 40.4232C78.3664 41.5057 78.8808 42.4939 79.6609 43.2115C80.4409 43.9291 81.4359 44.3296 82.4684 44.3415Z" stroke="#231F20" stroke-width="0.5" stroke-linecap="round" stroke-linejoin="round"/>
<path d="M74.3542 24.5494C72.5469 24.1283 71.4611 25.1636 71.7857 26.7141L71.7273 26.8082C69.9224 26.3872 68.8366 27.4249 69.1588 28.9754" stroke="#231F20" stroke-width="0.5" stroke-linecap="round" stroke-linejoin="round"/>
<path d="M66.5202 26.5036C64.7129 26.0825 63.6271 27.1203 63.9517 28.6708L63.8933 28.7649C62.0884 28.3438 61.0026 29.3791 61.3248 30.9321" stroke="#231F20" stroke-width="0.5" stroke-linecap="round" stroke-linejoin="round"/>
<path d="M72.0426 31.8584C70.2353 31.4374 69.1495 32.4751 69.474 34.0256L69.4157 34.1197C67.6107 33.6987 66.5249 34.734 66.8472 36.2869" stroke="#231F20" stroke-width="0.5" stroke-linecap="round" stroke-linejoin="round"/>
<path d="M81.016 26.5036C79.211 26.0825 78.1253 27.1203 78.4475 28.6708L78.3891 28.7649C76.5818 28.3438 75.4984 29.3791 75.8206 30.9321" stroke="#231F20" stroke-width="0.5" stroke-linecap="round" stroke-linejoin="round"/>
<path d="M86.961 33.8399C85.7094 32.3959 84.2617 32.5817 83.6919 34.0504L83.5939 34.0925C82.3423 32.6485 80.8946 32.8343 80.3249 34.303" stroke="#231F20" stroke-width="0.5" stroke-linecap="round" stroke-linejoin="round"/>
<path d="M79.0919 37.2727C77.8427 35.8263 76.3926 36.012 75.8229 37.4808L75.7248 37.5229C74.4733 36.0789 73.0232 36.2647 72.4558 37.7334" stroke="#231F20" stroke-width="0.5" stroke-linecap="round" stroke-linejoin="round"/>
<path d="M94.97 36.5445C93.7208 35.0981 92.2708 35.2863 91.701 36.755L91.6029 36.7971C90.3537 35.3507 88.9037 35.5389 88.3339 37.0052" stroke="#231F20" stroke-width="0.5" stroke-linecap="round" stroke-linejoin="round"/>
<path d="M94.8953 29.0794C93.4429 27.8633 92.0396 28.2893 91.694 29.8373L91.6029 29.8943C90.1529 28.6782 88.7496 29.1042 88.4016 30.6522" stroke="#231F20" stroke-width="0.5" stroke-linecap="round" stroke-linejoin="round"/>
<path d="M91.2247 25.1711C90.1085 23.6057 88.6562 23.6453 87.9557 25.0497L87.8553 25.0819C86.7391 23.5166 85.2867 23.5562 84.5862 24.9605" stroke="#231F20" stroke-width="0.5" stroke-linecap="round" stroke-linejoin="round"/>
<path d="M83.86 18.1716C82.0527 17.7506 80.967 18.7883 81.2915 20.3388L81.2331 20.4329C79.4282 20.0119 78.3424 21.0472 78.6646 22.6001" stroke="#231F20" stroke-width="0.5" stroke-linecap="round" stroke-linejoin="round"/>
<path d="M96.7423 25.5376C98.5473 25.1166 99.6331 26.1519 99.3108 27.7048L99.3692 27.7989C101.176 27.3779 102.26 28.4132 101.938 29.9637" stroke="#231F20" stroke-width="0.5" stroke-linecap="round" stroke-linejoin="round"/>
<path d="M94.8953 29.0695C96.7003 28.6485 97.7861 29.6863 97.4638 31.2367L97.5222 31.3309C99.3295 30.9098 100.413 31.9451 100.091 33.498" stroke="#231F20" stroke-width="0.5" stroke-linecap="round" stroke-linejoin="round"/>
<path d="M81.9053 55.8587C81.4419 55.8578 80.9795 55.9041 80.5248 55.9969C80.1049 54.7233 79.3134 53.6179 78.2607 52.8349C77.208 52.0519 75.9466 51.6303 74.6526 51.6291C73.437 51.6249 72.2477 51.9965 71.2355 52.6969C71.0128 51.6806 70.5569 50.7354 69.9068 49.9423C69.2566 49.1491 68.4316 48.5315 67.5022 48.1422C66.5728 47.7529 65.5666 47.6035 64.5697 47.7068C63.5727 47.8101 62.6146 48.163 61.7772 48.7353C61.6697 47.1314 60.9916 45.6266 59.8754 44.5148C58.7592 43.4029 57.2848 42.7636 55.74 42.7217H55.563C55.5876 41.5471 55.3865 40.3792 54.9714 39.2865C54.5564 38.1938 53.9358 37.1984 53.1461 36.3586C52.3564 35.5188 51.4135 34.8516 50.3726 34.3961C49.3317 33.9405 48.2139 33.7059 47.0847 33.7059C45.9555 33.7059 44.8377 33.9405 43.7968 34.3961C42.756 34.8516 41.813 35.5188 41.0233 36.3586C40.2336 37.1984 39.613 38.1938 39.198 39.2865C38.783 40.3792 38.5819 41.5471 38.6065 42.7217H38.4294C36.8846 42.7636 35.4103 43.4029 34.294 44.5148C33.1778 45.6266 32.4998 47.1314 32.3922 48.7353C31.5548 48.163 30.5967 47.8101 29.5998 47.7068C28.6028 47.6035 27.5966 47.7529 26.6672 48.1422C25.7378 48.5315 24.9128 49.1491 24.2627 49.9423C23.6126 50.7354 23.1567 51.6806 22.9339 52.6969C22.1431 52.1539 21.2434 51.8064 20.3036 51.6809C19.3639 51.5555 18.409 51.6554 17.512 51.9731C16.6151 52.2908 15.7999 52.8178 15.1289 53.5138C14.4579 54.2098 13.9488 55.0563 13.6406 55.9885C13.1873 55.8957 12.7262 55.8494 12.2642 55.8503C10.6485 55.8459 9.07775 56.4035 7.80163 57.4345C6.52552 58.4656 5.61727 59.9109 5.22128 61.5407C4.82528 63.1706 4.96427 64.8913 5.61613 66.4295C6.268 67.9677 7.39534 69.2351 8.81894 70.0301C8.85422 71.5851 9.42775 73.0746 10.4341 74.2248C11.4405 75.375 12.8121 76.1086 14.2967 76.2908C14.8395 77.8983 15.9698 79.2182 17.4422 79.9638C18.9147 80.7095 20.6104 80.8207 22.1611 80.2733C22.6918 80.9933 23.3623 81.589 24.1289 82.0215C24.8955 82.454 25.7411 82.7137 26.6106 82.7836C27.4801 82.8536 28.354 82.7322 29.1753 82.4274C29.9967 82.1226 30.7472 81.6412 31.3779 81.0145C32.4759 82.1061 33.9204 82.7409 35.438 82.7988C36.9555 82.8566 38.4408 82.3336 39.6127 81.3286C39.665 81.2826 39.7173 81.2365 39.7656 81.1862C40.0004 82.9061 40.7868 84.493 41.9973 85.6894C43.2078 86.8858 44.7713 87.6215 46.4341 87.7772C48.0969 87.9328 49.7615 87.4993 51.1578 86.5469C52.5541 85.5945 53.6001 84.1792 54.1261 82.5305C54.2708 82.095 54.3759 81.6463 54.44 81.1904L54.597 81.3328C55.7117 82.2803 57.106 82.7994 58.5453 82.8027C60.1434 82.8036 61.6802 82.1631 62.8358 81.0145C63.4661 81.6411 64.2163 82.1224 65.0374 82.4272C65.8584 82.7319 66.732 82.8533 67.6012 82.7834C68.4703 82.7135 69.3156 82.4538 70.0818 82.0213C70.8481 81.5888 71.5182 80.9932 72.0485 80.2733C73.5993 80.8207 75.295 80.7095 76.7674 79.9638C78.2399 79.2182 79.3702 77.8983 79.913 76.2908C81.3976 76.1086 82.7692 75.375 83.7756 74.2248C84.7819 73.0746 85.3555 71.5851 85.3907 70.0301C86.8129 69.2314 87.9376 67.961 88.586 66.4207C89.2343 64.8805 89.3691 63.1589 88.9689 61.5297C88.5687 59.9006 87.6564 58.4575 86.3772 57.4299C85.098 56.4023 83.5254 55.8493 81.9093 55.8587H81.9053Z" fill="url(#paint3_linear_73_11936)" stroke="#231F20" stroke-width="0.5" stroke-linecap="round" stroke-linejoin="round"/>
<path d="M47.1753 87.8113H47.0827C45.5057 87.8104 43.9688 87.2935 42.6896 86.3338C41.4105 85.3741 40.4537 84.0201 39.9548 82.4635C39.8325 82.0941 39.7409 81.7144 39.6811 81.3286C39.7334 81.2826 39.7857 81.2365 39.834 81.1862C40.1048 83.0166 40.9915 84.6873 42.336 85.9007C43.6806 87.114 45.3956 87.7911 47.1753 87.8113Z" stroke="#231F20" stroke-width="0.5" stroke-linecap="round" stroke-linejoin="round"/>
<path d="M33.1891 54.3469C30.0739 53.635 28.2024 55.3855 28.7618 58.007L28.6612 58.1661C25.55 57.4542 23.6785 59.2089 24.2339 61.8304" stroke="#231F20" stroke-width="0.5" stroke-linecap="round" stroke-linejoin="round"/>
<path d="M19.6859 57.651C16.5707 56.9391 14.6991 58.6938 15.2586 61.3153L15.158 61.4745C12.0468 60.7625 10.1753 62.513 10.7307 65.1388" stroke="#231F20" stroke-width="0.5" stroke-linecap="round" stroke-linejoin="round"/>
<path d="M29.2045 66.705C26.0893 65.9931 24.2178 67.7477 24.7773 70.3693L24.6766 70.5284C21.5655 69.8165 19.6939 71.567 20.2494 74.1927" stroke="#231F20" stroke-width="0.5" stroke-linecap="round" stroke-linejoin="round"/>
<path d="M44.6718 57.651C41.5607 56.9391 39.6891 58.6938 40.2446 61.3153L40.1439 61.4745C37.0287 60.7625 35.1612 62.513 35.7167 65.1388" stroke="#231F20" stroke-width="0.5" stroke-linecap="round" stroke-linejoin="round"/>
<path d="M54.919 70.0552C52.7617 67.6137 50.2663 67.9278 49.2843 70.4111L49.1152 70.4823C46.958 68.0409 44.4626 68.355 43.4805 70.8383" stroke="#231F20" stroke-width="0.5" stroke-linecap="round" stroke-linejoin="round"/>
<path d="M41.3554 75.8594C39.2021 73.4138 36.7027 73.7278 35.7207 76.2112L35.5517 76.2824C33.3944 73.8409 30.895 74.155 29.9169 76.6383" stroke="#231F20" stroke-width="0.5" stroke-linecap="round" stroke-linejoin="round"/>
<path d="M68.7241 74.6282C66.5708 72.1826 64.0714 72.5008 63.0893 74.9842L62.9203 75.0554C60.767 72.6097 58.2676 72.928 57.2856 75.4071" stroke="#231F20" stroke-width="0.5" stroke-linecap="round" stroke-linejoin="round"/>
<path d="M68.5952 62.0063C66.0918 59.9501 63.6729 60.6704 63.0773 63.2878L62.9203 63.3841C60.4209 61.3279 58.002 62.0482 57.4023 64.6655" stroke="#231F20" stroke-width="0.5" stroke-linecap="round" stroke-linejoin="round"/>
<path d="M62.2683 55.398C60.3445 52.7514 57.841 52.8184 56.6336 55.1928L56.4605 55.2473C54.5367 52.6006 52.0332 52.6676 50.8258 55.0421" stroke="#231F20" stroke-width="0.5" stroke-linecap="round" stroke-linejoin="round"/>
<path d="M49.574 43.5634C46.4588 42.8515 44.5873 44.6062 45.1468 47.2277L45.0461 47.3868C41.935 46.6749 40.0634 48.4254 40.6189 51.0511" stroke="#231F20" stroke-width="0.5" stroke-linecap="round" stroke-linejoin="round"/>
<path d="M71.7789 56.0178C74.89 55.3059 76.7616 57.0564 76.2061 59.6821L76.3068 59.8412C79.422 59.1293 81.2895 60.8798 80.734 63.5013" stroke="#231F20" stroke-width="0.5" stroke-linecap="round" stroke-linejoin="round"/>
<path d="M68.5953 61.9896C71.7064 61.2776 73.578 63.0323 73.0226 65.6539L73.1232 65.813C76.2384 65.1011 78.1059 66.8515 77.5505 69.4773" stroke="#231F20" stroke-width="0.5" stroke-linecap="round" stroke-linejoin="round"/>
<path d="M122.325 38.826C122.028 38.8254 121.731 38.8557 121.44 38.9164C121.171 38.0837 120.663 37.3609 119.988 36.8489C119.313 36.337 118.504 36.0613 117.674 36.0605C116.894 36.0577 116.131 36.3008 115.482 36.7587C115.339 36.0942 115.047 35.4762 114.63 34.9576C114.213 34.439 113.684 34.0352 113.088 33.7806C112.491 33.5261 111.846 33.4284 111.207 33.496C110.567 33.5635 109.953 33.7942 109.416 34.1684C109.347 33.1197 108.912 32.1358 108.196 31.4088C107.48 30.6818 106.534 30.2639 105.544 30.2364H105.43C105.446 29.4684 105.317 28.7048 105.051 27.9903C104.784 27.2759 104.386 26.625 103.88 26.076C103.373 25.5269 102.769 25.0906 102.101 24.7928C101.433 24.4949 100.716 24.3415 99.9923 24.3415C99.268 24.3415 98.5511 24.4949 97.8835 24.7928C97.2159 25.0906 96.6111 25.5269 96.1046 26.076C95.5981 26.625 95.2001 27.2759 94.9339 27.9903C94.6678 28.7048 94.5388 29.4684 94.5545 30.2364H94.441C93.4502 30.2639 92.5046 30.6818 91.7887 31.4088C91.0727 32.1358 90.6379 33.1197 90.5689 34.1684C90.0318 33.7942 89.4173 33.5635 88.7779 33.496C88.1384 33.4284 87.4931 33.5261 86.897 33.7806C86.3009 34.0352 85.7718 34.439 85.3548 34.9576C84.9378 35.4762 84.6454 36.0942 84.5026 36.7587C83.9954 36.4037 83.4183 36.1764 82.8156 36.0944C82.2128 36.0124 81.6004 36.0777 81.0251 36.2854C80.4499 36.4932 79.927 36.8377 79.4966 37.2928C79.0663 37.7479 78.7398 38.3014 78.5421 38.9109C78.2513 38.8502 77.9556 38.82 77.6593 38.8205C76.623 38.8176 75.6156 39.1822 74.7971 39.8564C73.9787 40.5305 73.3961 41.4755 73.1422 42.5412C72.8882 43.6069 72.9773 44.732 73.3954 45.7377C73.8135 46.7435 74.5365 47.5721 75.4496 48.0919C75.4722 49.1087 75.8401 50.0826 76.4855 50.8346C77.131 51.5867 78.0107 52.0663 78.9629 52.1854C79.311 53.2365 80.036 54.0995 80.9804 54.5871C81.9247 55.0746 83.0123 55.1473 84.0069 54.7894C84.3473 55.2602 84.7773 55.6497 85.269 55.9325C85.7607 56.2153 86.303 56.3851 86.8607 56.4308C87.4184 56.4765 87.9788 56.3971 88.5057 56.1978C89.0325 55.9985 89.5138 55.6838 89.9184 55.2741C90.6226 55.9878 91.549 56.4028 92.5224 56.4407C93.4957 56.4785 94.4483 56.1365 95.1999 55.4794C95.2335 55.4493 95.267 55.4192 95.298 55.3863C95.4486 56.5109 95.953 57.5485 96.7293 58.3307C97.5057 59.113 98.5085 59.594 99.575 59.6958C100.641 59.7976 101.709 59.5141 102.605 58.8914C103.5 58.2687 104.171 57.3433 104.508 56.2653C104.601 55.9805 104.669 55.6872 104.71 55.3891L104.81 55.4822C105.525 56.1017 106.42 56.4411 107.343 56.4433C108.368 56.4439 109.353 56.0251 110.095 55.2741C110.499 55.6837 110.98 55.9984 111.507 56.1977C112.033 56.397 112.594 56.4764 113.151 56.4306C113.708 56.3849 114.251 56.2151 114.742 55.9323C115.233 55.6496 115.663 55.2601 116.003 54.7894C116.998 55.1473 118.086 55.0746 119.03 54.5871C119.974 54.0995 120.699 53.2365 121.047 52.1854C122 52.0663 122.879 51.5867 123.525 50.8346C124.17 50.0826 124.538 49.1087 124.561 48.0919C125.473 47.5697 126.194 46.739 126.61 45.732C127.026 44.7249 127.112 43.5992 126.856 42.534C126.599 41.4688 126.014 40.5252 125.193 39.8534C124.373 39.1815 123.364 38.8199 122.328 38.826H122.325Z" fill="url(#paint4_linear_73_11936)" stroke="#231F20" stroke-width="0.5" stroke-linecap="round" stroke-linejoin="round"/>
<path d="M100.05 59.7181H99.991C98.9795 59.7175 97.9938 59.3795 97.1734 58.752C96.353 58.1245 95.7393 57.2393 95.4193 56.2215C95.3409 55.9799 95.2821 55.7317 95.2438 55.4794C95.2773 55.4493 95.3109 55.4192 95.3419 55.3864C95.5155 56.5831 96.0842 57.6755 96.9466 58.4689C97.8089 59.2622 98.9089 59.7049 100.05 59.7181Z" stroke="#231F20" stroke-width="0.5" stroke-linecap="round" stroke-linejoin="round"/>
<path d="M91.08 37.8376C89.082 37.3721 87.8816 38.5166 88.2404 40.2307L88.1759 40.3347C86.1805 39.8693 84.9801 41.0165 85.3364 42.7306" stroke="#231F20" stroke-width="0.5" stroke-linecap="round" stroke-linejoin="round"/>
<path d="M82.4194 39.9979C80.4214 39.5325 79.221 40.6797 79.5798 42.3938L79.5153 42.4979C77.5199 42.0324 76.3195 43.1769 76.6757 44.8938" stroke="#231F20" stroke-width="0.5" stroke-linecap="round" stroke-linejoin="round"/>
<path d="M88.5244 45.9178C86.5264 45.4523 85.326 46.5996 85.6849 48.3137L85.6203 48.4178C83.6249 47.9523 82.4245 49.0968 82.7808 50.8136" stroke="#231F20" stroke-width="0.5" stroke-linecap="round" stroke-linejoin="round"/>
<path d="M98.4447 39.9979C96.4493 39.5325 95.2489 40.6797 95.6052 42.3938L95.5406 42.4979C93.5426 42.0324 92.3449 43.1769 92.7011 44.8938" stroke="#231F20" stroke-width="0.5" stroke-linecap="round" stroke-linejoin="round"/>
<path d="M105.017 48.1084C103.633 46.512 102.033 46.7174 101.403 48.3411L101.295 48.3876C99.911 46.7913 98.3105 46.9967 97.6806 48.6204" stroke="#231F20" stroke-width="0.5" stroke-linecap="round" stroke-linejoin="round"/>
<path d="M96.3176 51.9034C94.9366 50.3043 93.3335 50.5097 92.7037 52.1334L92.5953 52.18C91.2116 50.5836 89.6086 50.789 88.9813 52.4127" stroke="#231F20" stroke-width="0.5" stroke-linecap="round" stroke-linejoin="round"/>
<path d="M113.871 51.0984C112.49 49.4993 110.887 49.7074 110.257 51.3311L110.149 51.3777C108.768 49.7786 107.165 49.9867 106.535 51.6077" stroke="#231F20" stroke-width="0.5" stroke-linecap="round" stroke-linejoin="round"/>
<path d="M113.789 42.8456C112.183 41.5012 110.632 41.9721 110.249 43.6835L110.149 43.7465C108.546 42.402 106.994 42.873 106.61 44.5843" stroke="#231F20" stroke-width="0.5" stroke-linecap="round" stroke-linejoin="round"/>
<path d="M109.731 38.5248C108.497 36.7943 106.891 36.8381 106.117 38.3906L106.006 38.4262C104.772 36.6957 103.166 36.7395 102.392 38.2921" stroke="#231F20" stroke-width="0.5" stroke-linecap="round" stroke-linejoin="round"/>
<path d="M101.589 30.7868C99.5908 30.3213 98.3905 31.4686 98.7493 33.1827L98.6848 33.2867C96.6894 32.8213 95.489 33.9658 95.8452 35.6826" stroke="#231F20" stroke-width="0.5" stroke-linecap="round" stroke-linejoin="round"/>
<path d="M115.83 38.9301C117.826 38.4646 119.026 39.6091 118.67 41.3259L118.735 41.43C120.733 40.9645 121.93 42.1091 121.574 43.8231" stroke="#231F20" stroke-width="0.5" stroke-linecap="round" stroke-linejoin="round"/>
<path d="M113.789 42.8347C115.784 42.3692 116.984 43.5165 116.628 45.2305L116.693 45.3346C118.691 44.8691 119.888 46.0137 119.532 47.7305" stroke="#231F20" stroke-width="0.5" stroke-linecap="round" stroke-linejoin="round"/>
<defs>
<radialGradient id="paint0_radial_73_11936" cx="0" cy="0" r="1" gradientUnits="userSpaceOnUse" gradientTransform="translate(63.0107 47.9365) rotate(-90.2812) scale(47.6886 46.7774)">
<stop stop-color="#FFC50F"/>
<stop offset="1" stop-color="#FFF33B"/>
</radialGradient>
<linearGradient id="paint1_linear_73_11936" x1="27.4797" y1="8.63967" x2="28.5688" y2="44.0128" gradientUnits="userSpaceOnUse">
<stop stop-color="#D1D3D4"/>
<stop offset="0.18" stop-color="#CED0D2"/>
<stop offset="0.33" stop-color="#C4C8CB"/>
<stop offset="0.46" stop-color="#B4BBBF"/>
<stop offset="0.746279" stop-color="#677076"/>
<stop offset="0.975446" stop-color="#4A555D"/>
</linearGradient>
<linearGradient id="paint2_linear_73_11936" x1="81.9523" y1="12.6112" x2="82.9374" y2="44.6081" gradientUnits="userSpaceOnUse">
<stop stop-color="#D1D3D4"/>
<stop offset="0.18" stop-color="#CED0D2"/>
<stop offset="0.33" stop-color="#C4C8CB"/>
<stop offset="0.46" stop-color="#B4BBBF"/>
<stop offset="0.551983" stop-color="#A4AEB4"/>
<stop offset="0.552083" stop-color="#A4AEB4"/>
<stop offset="0.5799" stop-color="#A0AAB0"/>
<stop offset="0.58" stop-color="#9CA7AE"/>
<stop offset="0.746279" stop-color="#58636A"/>
<stop offset="0.975446" stop-color="#45535C"/>
</linearGradient>
<linearGradient id="paint3_linear_73_11936" x1="46.2858" y1="34.1619" x2="47.9197" y2="88.264" gradientUnits="userSpaceOnUse">
<stop stop-color="#D1D3D4"/>
<stop offset="0.18" stop-color="#CED0D2"/>
<stop offset="0.33" stop-color="#C4C8CB"/>
<stop offset="0.46" stop-color="#B4BBBF"/>
<stop offset="0.657738" stop-color="#A4AEB4"/>
<stop offset="0.975446" stop-color="#91989D"/>
</linearGradient>
<linearGradient id="paint4_linear_73_11936" x1="99.4799" y1="24.6397" x2="100.569" y2="60.0128" gradientUnits="userSpaceOnUse">
<stop stop-color="#D1D3D4"/>
<stop offset="0.18" stop-color="#CED0D2"/>
<stop offset="0.33" stop-color="#C4C8CB"/>
<stop offset="0.46" stop-color="#B4BBBF"/>
<stop offset="0.551983" stop-color="#A4AEB4"/>
<stop offset="0.552083" stop-color="#A4AEB4"/>
<stop offset="0.5799" stop-color="#A0AAB0"/>
<stop offset="0.58" stop-color="#9CA7AE"/>
<stop offset="0.746279" stop-color="#7E8E99"/>
<stop offset="0.975446" stop-color="#59707F"/>
</linearGradient>
</defs>
</svg>
