<svg width="128" height="128" viewBox="0 0 128 128" fill="none" xmlns="http://www.w3.org/2000/svg">
<rect width="128" height="128" fill="white"/>
<path d="M18.2263 17.7558C18.3683 16.9242 19.5628 16.9242 19.7048 17.7558L20.5783 22.8692C20.6685 23.3973 21.0852 23.8092 21.6144 23.8932L26.7083 24.7023C27.5515 24.8362 27.5515 26.0498 26.7083 26.1837L21.6144 26.9928C21.0852 27.0769 20.6685 27.4888 20.5783 28.0169L19.7048 33.1303C19.5628 33.9619 18.3683 33.9619 18.2263 33.1303L17.3528 28.0169C17.2626 27.4888 16.8459 27.0769 16.3167 26.9928L11.2227 26.1837C10.3796 26.0498 10.3796 24.8362 11.2227 24.7023L16.3167 23.8932C16.8459 23.8092 17.2626 23.3973 17.3528 22.8692L18.2263 17.7558Z" fill="white" stroke="#231F20" stroke-width="0.5"/>
<path d="M19.2263 89.7558C19.3683 88.9242 20.5628 88.9242 20.7048 89.7558L21.5783 94.8692C21.6685 95.3973 22.0852 95.8092 22.6144 95.8932L27.7084 96.7023C28.5515 96.8362 28.5515 98.0498 27.7084 98.1837L22.6144 98.9928C22.0852 99.0769 21.6685 99.4888 21.5783 100.017L20.7048 105.13C20.5628 105.962 19.3683 105.962 19.2263 105.13L18.3528 100.017C18.2626 99.4888 17.8459 99.0769 17.3167 98.9928L12.2227 98.1837C11.3796 98.0498 11.3796 96.8362 12.2227 96.7023L17.3167 95.8932C17.8459 95.8092 18.2626 95.3973 18.3528 94.8692L19.2263 89.7558Z" fill="white" stroke="#231F20" stroke-width="0.5"/>
<path d="M38.7575 41.7271C38.9917 41.0569 39.9394 41.0569 40.1736 41.7271L41.1668 44.5694C41.2976 44.9437 41.5983 45.2338 41.9772 45.3511L44.8054 46.2266C45.5097 46.4446 45.5097 47.4415 44.8054 47.6595L41.9772 48.5349C41.5983 48.6522 41.2976 48.9423 41.1668 49.3167L40.1736 52.159C39.9394 52.8291 38.9917 52.8291 38.7575 52.159L37.7643 49.3167C37.6335 48.9423 37.3328 48.6522 36.9539 48.5349L34.1257 47.6595C33.4213 47.4415 33.4213 46.4446 34.1257 46.2266L36.9539 45.3511C37.3328 45.2338 37.6335 44.9437 37.7643 44.5694L38.7575 41.7271Z" fill="white" stroke="#231F20" stroke-width="0.5"/>
<path d="M38.7575 70.7271C38.9917 70.0569 39.9394 70.0569 40.1736 70.7271L41.1668 73.5694C41.2976 73.9437 41.5983 74.2338 41.9772 74.3511L44.8054 75.2266C45.5097 75.4446 45.5097 76.4415 44.8054 76.6595L41.9772 77.5349C41.5983 77.6522 41.2976 77.9423 41.1668 78.3167L40.1736 81.159C39.9394 81.8291 38.9917 81.8291 38.7575 81.159L37.7643 78.3167C37.6335 77.9423 37.3328 77.6522 36.9539 77.5349L34.1257 76.6595C33.4213 76.4415 33.4213 75.4446 34.1257 75.2266L36.9539 74.3511C37.3328 74.2338 37.6335 73.9437 37.7643 73.5694L38.7575 70.7271Z" fill="white" stroke="#231F20" stroke-width="0.5"/>
<path d="M55.3113 58.6215C55.5977 58.1105 56.3333 58.1105 56.6198 58.6215L57.6274 60.4192C57.7546 60.6463 57.9496 60.8279 58.1851 60.9389L59.9382 61.7645C60.5121 62.0348 60.5121 62.8512 59.9382 63.1215L58.1851 63.9472C57.9496 64.0581 57.7546 64.2398 57.6274 64.4669L56.6198 66.2645C56.3333 66.7756 55.5977 66.7756 55.3113 66.2645L54.3037 64.4669C54.1764 64.2398 53.9814 64.0581 53.7459 63.9472L51.9929 63.1215C51.419 62.8512 51.419 62.0348 51.9929 61.7645L53.7459 60.9389C53.9814 60.8279 54.1764 60.6463 54.3037 60.4192L55.3113 58.6215Z" fill="white" stroke="#231F20" stroke-width="0.5"/>
<path d="M41.1498 111.686C115.146 109.671 131.112 43.7466 66.1766 20.6421C65.7166 20.4784 65.2897 20.9988 65.5676 21.4002C84.0045 48.0276 81.4528 88.701 40.8863 110.73C40.4228 110.982 40.6226 111.701 41.1498 111.686Z" fill="url(#paint0_linear_57_825)"/>
<path d="M49.8096 63.6484C49.5215 63.6478 49.2341 63.6766 48.9514 63.7343C48.6904 62.9426 48.1983 62.2554 47.5439 61.7686C46.8895 61.2818 46.1053 61.0197 45.3009 61.0189C44.5452 61.0163 43.8058 61.2474 43.1766 61.6828C43.0381 61.051 42.7547 60.4634 42.3505 59.9703C41.9464 59.4772 41.4335 59.0933 40.8557 58.8513C40.2779 58.6093 39.6524 58.5164 39.0326 58.5806C38.4129 58.6448 37.8172 58.8642 37.2967 59.22C37.2298 58.2229 36.8083 57.2874 36.1143 56.5962C35.4204 55.905 34.5039 55.5076 33.5435 55.4815H33.4334C33.4487 54.7513 33.3237 54.0252 33.0657 53.346C32.8077 52.6667 32.4219 52.0479 31.931 51.5258C31.44 51.0037 30.8538 50.5889 30.2068 50.3057C29.5597 50.0226 28.8648 49.8767 28.1628 49.8767C27.4608 49.8767 26.7659 50.0226 26.1188 50.3057C25.4717 50.5889 24.8855 51.0037 24.3946 51.5258C23.9037 52.0479 23.5179 52.6667 23.2599 53.346C23.0019 54.0252 22.8768 54.7513 22.8921 55.4815H22.782C21.8217 55.5076 20.9052 55.905 20.2112 56.5962C19.5173 57.2874 19.0958 58.2229 19.0289 59.22C18.5083 58.8642 17.9127 58.6448 17.2929 58.5806C16.6732 58.5164 16.0477 58.6093 15.4699 58.8513C14.8921 59.0933 14.3792 59.4772 13.9751 59.9703C13.5709 60.4634 13.2875 61.051 13.149 61.6828C12.6574 61.3452 12.0981 61.1292 11.5138 61.0512C10.9296 60.9732 10.336 61.0353 9.77839 61.2328C9.22079 61.4303 8.71402 61.7579 8.29687 62.1906C7.87972 62.6233 7.56324 63.1495 7.37167 63.7291C7.08982 63.6714 6.80321 63.6426 6.51596 63.6432C5.51154 63.6404 4.53506 63.9871 3.74174 64.628C2.94842 65.269 2.38379 66.1675 2.13761 67.1807C1.89144 68.1939 1.97784 69.2637 2.38309 70.2199C2.78833 71.1762 3.48916 71.964 4.37417 72.4583C4.3961 73.425 4.75265 74.351 5.37827 75.066C6.0039 75.781 6.85656 76.2371 7.77951 76.3503C8.11695 77.3497 8.81963 78.1702 9.735 78.6338C10.6504 79.0973 11.7045 79.1665 12.6686 78.8262C12.9985 79.2738 13.4153 79.6441 13.8919 79.913C14.3685 80.1819 14.8942 80.3433 15.4347 80.3868C15.9752 80.4302 16.5185 80.3548 17.0291 80.1653C17.5397 79.9758 18.0063 79.6765 18.3984 79.287C19.081 79.9655 19.979 80.3602 20.9224 80.3962C21.8658 80.4321 22.7892 80.107 23.5177 79.4822C23.5502 79.4536 23.5827 79.4249 23.6127 79.3937C23.7587 80.4629 24.2476 81.4494 25.0001 82.1932C25.7526 82.9369 26.7246 83.3943 27.7583 83.4911C28.792 83.5879 29.8269 83.3183 30.6949 82.7263C31.5629 82.1342 32.2132 81.2543 32.5402 80.2294C32.6301 79.9587 32.6955 79.6797 32.7354 79.3963L32.8329 79.4848C33.5259 80.0739 34.3927 80.3966 35.2875 80.3986C36.281 80.3992 37.2364 80.001 37.9547 79.287C38.3466 79.6765 38.8129 79.9757 39.3234 80.1652C39.8338 80.3546 40.3769 80.4301 40.9172 80.3866C41.4575 80.3431 41.983 80.1817 42.4594 79.9128C42.9357 79.644 43.3523 79.2737 43.682 78.8262C44.6461 79.1665 45.7002 79.0973 46.6156 78.6338C47.531 78.1702 48.2337 77.3497 48.5711 76.3503C49.494 76.2371 50.3467 75.781 50.9723 75.066C51.5979 74.351 51.9545 73.425 51.9764 72.4583C52.8605 71.9618 53.5597 71.172 53.9628 70.2144C54.3659 69.2569 54.4497 68.1867 54.2009 67.1739C53.9521 66.1611 53.3849 65.264 52.5897 64.6251C51.7945 63.9863 50.8168 63.6425 49.8121 63.6484H49.8096Z" fill="url(#paint1_linear_57_825)" stroke="#231F20" stroke-width="0.5" stroke-linecap="round" stroke-linejoin="round"/>
<path d="M28.2191 83.5123H28.1615C27.1811 83.5117 26.2257 83.1904 25.4305 82.5938C24.6353 81.9971 24.0405 81.1554 23.7303 80.1877C23.6543 79.9581 23.5974 79.722 23.5602 79.4822C23.5927 79.4536 23.6252 79.4249 23.6553 79.3937C23.8236 80.5315 24.3748 81.5702 25.2107 82.3245C26.0465 83.0788 27.1127 83.4998 28.2191 83.5123Z" stroke="#231F20" stroke-width="0.5" stroke-linecap="round" stroke-linejoin="round"/>
<path d="M19.5243 62.7086C17.5877 62.266 16.4242 63.3542 16.772 64.9839L16.7095 65.0829C14.7754 64.6403 13.6119 65.7311 13.9572 67.3608" stroke="#231F20" stroke-width="0.5" stroke-linecap="round" stroke-linejoin="round"/>
<path d="M11.1298 64.7626C9.19318 64.3201 8.02971 65.4109 8.3775 67.0406L8.31495 67.1395C6.38083 66.6969 5.21736 67.7852 5.56265 69.4175" stroke="#231F20" stroke-width="0.5" stroke-linecap="round" stroke-linejoin="round"/>
<path d="M17.0472 70.3912C15.1106 69.9486 13.9472 71.0394 14.295 72.6691L14.2324 72.7681C12.2983 72.3255 11.1348 73.4137 11.4801 75.046" stroke="#231F20" stroke-width="0.5" stroke-linecap="round" stroke-linejoin="round"/>
<path d="M26.6628 64.7626C24.7287 64.3201 23.5652 65.4109 23.9105 67.0406L23.8479 67.1395C21.9113 66.6969 20.7504 67.7852 21.0956 69.4175" stroke="#231F20" stroke-width="0.5" stroke-linecap="round" stroke-linejoin="round"/>
<path d="M33.0331 72.4739C31.692 70.9561 30.1407 71.1513 29.5302 72.6952L29.4251 72.7394C28.084 71.2216 26.5327 71.4169 25.9222 72.9607" stroke="#231F20" stroke-width="0.5" stroke-linecap="round" stroke-linejoin="round"/>
<path d="M24.6011 76.0822C23.2624 74.5618 21.7086 74.7571 21.0981 76.3009L20.993 76.3451C19.6519 74.8274 18.0981 75.0226 17.4901 76.5664" stroke="#231F20" stroke-width="0.5" stroke-linecap="round" stroke-linejoin="round"/>
<path d="M41.6153 75.3168C40.2767 73.7964 38.7229 73.9943 38.1123 75.5381L38.0073 75.5823C36.6686 74.062 35.1148 74.2598 34.5043 75.801" stroke="#231F20" stroke-width="0.5" stroke-linecap="round" stroke-linejoin="round"/>
<path d="M41.5352 67.4702C39.9789 66.1919 38.4752 66.6397 38.1049 68.2668L38.0073 68.3267C36.4535 67.0484 34.9497 67.4962 34.5769 69.1233" stroke="#231F20" stroke-width="0.5" stroke-linecap="round" stroke-linejoin="round"/>
<path d="M37.6019 63.362C36.4059 61.7167 34.8496 61.7583 34.099 63.2344L33.9914 63.2683C32.7954 61.6229 31.2391 61.6646 30.4885 63.1407" stroke="#231F20" stroke-width="0.5" stroke-linecap="round" stroke-linejoin="round"/>
<path d="M29.7103 56.0048C27.7737 55.5622 26.6102 56.6531 26.958 58.2828L26.8955 58.3817C24.9614 57.9391 23.7979 59.0274 24.1432 60.6597" stroke="#231F20" stroke-width="0.5" stroke-linecap="round" stroke-linejoin="round"/>
<path d="M43.5144 63.7473C45.4485 63.3047 46.6119 64.393 46.2667 66.0253L46.3292 66.1242C48.2658 65.6816 49.4268 66.7699 49.0815 68.3996" stroke="#231F20" stroke-width="0.5" stroke-linecap="round" stroke-linejoin="round"/>
<path d="M41.5352 67.4597C43.4693 67.0172 44.6328 68.108 44.2875 69.7377L44.3501 69.8366C46.2867 69.3941 47.4477 70.4823 47.1024 72.1146" stroke="#231F20" stroke-width="0.5" stroke-linecap="round" stroke-linejoin="round"/>
<path d="M120.133 48.7108C119.746 48.7101 119.361 48.7494 118.981 48.8283C118.631 47.7455 117.971 46.8057 117.093 46.14C116.215 45.4743 115.163 45.1159 114.084 45.1148C113.07 45.1113 112.078 45.4273 111.234 46.0227C111.049 45.1586 110.668 44.3551 110.126 43.6807C109.584 43.0064 108.896 42.4813 108.121 42.1503C107.346 41.8194 106.507 41.6924 105.675 41.7802C104.844 41.868 104.045 42.168 103.346 42.6546C103.257 41.2909 102.691 40.0116 101.76 39.0663C100.829 38.121 99.5998 37.5775 98.3115 37.5419H98.1638C98.1843 36.5432 98.0166 35.5502 97.6705 34.6213C97.3243 33.6923 96.8068 32.846 96.1482 32.132C95.4896 31.418 94.7032 30.8507 93.8352 30.4635C92.9671 30.0762 92.0349 29.8767 91.0931 29.8767C90.1514 29.8767 89.2192 30.0762 88.3511 30.4635C87.4831 30.8507 86.6967 31.418 86.0381 32.132C85.3795 32.846 84.862 33.6923 84.5158 34.6213C84.1697 35.5502 84.002 36.5432 84.0225 37.5419H83.8748C82.5865 37.5775 81.357 38.121 80.4261 39.0663C79.4951 40.0116 78.9297 41.2909 78.84 42.6546C78.1416 42.168 77.3426 41.868 76.5111 41.7802C75.6797 41.6924 74.8406 41.8194 74.0655 42.1503C73.2904 42.4813 72.6023 43.0064 72.0602 43.6807C71.518 44.3551 71.1377 45.1586 70.952 46.0227C70.2925 45.5611 69.5421 45.2656 68.7584 45.1589C67.9747 45.0523 67.1783 45.1372 66.4303 45.4073C65.6823 45.6774 65.0024 46.1255 64.4428 46.7172C63.8832 47.3089 63.4586 48.0286 63.2016 48.8212C62.8235 48.7423 62.439 48.7029 62.0537 48.7037C60.7063 48.6999 59.3963 49.174 58.3321 50.0506C57.2678 50.9272 56.5104 52.156 56.1801 53.5417C55.8499 54.9273 55.9658 56.3903 56.5094 57.6981C57.053 59.0058 57.9932 60.0833 59.1805 60.7592C59.2099 62.0813 59.6882 63.3477 60.5275 64.3256C61.3668 65.3034 62.5106 65.9271 63.7488 66.082C64.2014 67.4487 65.1441 68.5709 66.3721 69.2048C67.6001 69.8388 69.0142 69.9333 70.3075 69.4679C70.7501 70.0801 71.3093 70.5865 71.9486 70.9543C72.5879 71.322 73.2931 71.5428 74.0182 71.6022C74.7434 71.6617 75.4722 71.5585 76.1572 71.2993C76.8422 71.0402 77.4681 70.6309 77.9941 70.0981C78.9098 71.0262 80.1145 71.5659 81.3801 71.6151C82.6457 71.6643 83.8844 71.2196 84.8617 70.3652C84.9053 70.326 84.9489 70.2868 84.9892 70.2441C85.185 71.7063 85.8409 73.0555 86.8504 74.0727C87.8599 75.0898 89.1638 75.7153 90.5505 75.8477C91.9373 75.98 93.3255 75.6114 94.49 74.8017C95.6544 73.992 96.5268 72.7887 96.9655 71.387C97.0861 71.0167 97.1738 70.6353 97.2273 70.2477L97.3582 70.3687C98.2878 71.1743 99.4506 71.6156 100.651 71.6184C101.984 71.6192 103.265 71.0746 104.229 70.0981C104.755 70.6308 105.38 71.04 106.065 71.2992C106.75 71.5583 107.478 71.6615 108.203 71.602C108.928 71.5425 109.633 71.3218 110.272 70.9541C110.911 70.5864 111.47 70.08 111.912 69.4679C113.206 69.9333 114.62 69.8388 115.848 69.2048C117.076 68.5709 118.018 67.4487 118.471 66.082C119.709 65.9271 120.853 65.3034 121.692 64.3256C122.532 63.3477 123.01 62.0813 123.039 60.7592C124.225 60.0802 125.163 59.0001 125.704 57.6906C126.245 56.3811 126.357 54.9174 126.023 53.5323C125.69 52.1472 124.929 50.9203 123.862 50.0467C122.795 49.173 121.484 48.7028 120.136 48.7108H120.133Z" fill="url(#paint2_linear_57_825)" stroke="#231F20" stroke-width="0.5" stroke-linecap="round" stroke-linejoin="round"/>
<path d="M91.1687 75.8767H91.0915C89.7762 75.8759 88.4946 75.4365 87.4278 74.6205C86.361 73.8046 85.5631 72.6535 85.147 71.3301C85.0449 71.016 84.9686 70.6932 84.9187 70.3652C84.9623 70.326 85.006 70.2869 85.0463 70.2441C85.2721 71.8003 86.0116 73.2207 87.1329 74.2523C88.2542 75.2839 89.6844 75.8596 91.1687 75.8767Z" stroke="#231F20" stroke-width="0.5" stroke-linecap="round" stroke-linejoin="round"/>
<path d="M79.5045 47.4255C76.9065 46.8203 75.3457 48.3085 75.8123 50.5373L75.7284 50.6726C73.1337 50.0673 71.5729 51.5592 72.0361 53.788" stroke="#231F20" stroke-width="0.5" stroke-linecap="round" stroke-linejoin="round"/>
<path d="M68.2432 50.2347C65.6452 49.6294 64.0844 51.1212 64.5509 53.35L64.467 53.4853C61.8724 52.88 60.3116 54.3683 60.7748 56.6007" stroke="#231F20" stroke-width="0.5" stroke-linecap="round" stroke-linejoin="round"/>
<path d="M76.1815 57.9323C73.5835 57.327 72.0227 58.8188 72.4893 61.0476L72.4054 61.1829C69.8107 60.5776 68.2499 62.0659 68.7131 64.2983" stroke="#231F20" stroke-width="0.5" stroke-linecap="round" stroke-linejoin="round"/>
<path d="M89.0809 50.2347C86.4862 49.6294 84.9254 51.1212 85.3886 53.35L85.3047 53.4853C82.7067 52.88 81.1493 54.3683 81.6125 56.6007" stroke="#231F20" stroke-width="0.5" stroke-linecap="round" stroke-linejoin="round"/>
<path d="M97.6268 60.7806C95.8276 58.7049 93.7466 58.9719 92.9275 61.0832L92.7866 61.1437C90.9874 59.068 88.9064 59.3351 88.0874 61.4464" stroke="#231F20" stroke-width="0.5" stroke-linecap="round" stroke-linejoin="round"/>
<path d="M86.3151 65.7153C84.5193 63.636 82.4348 63.903 81.6158 66.0144L81.4749 66.0749C79.6757 63.9992 77.5913 64.2662 76.7757 66.3775" stroke="#231F20" stroke-width="0.5" stroke-linecap="round" stroke-linejoin="round"/>
<path d="M109.14 64.6685C107.344 62.5893 105.26 62.8599 104.441 64.9712L104.3 65.0317C102.504 62.9524 100.419 63.223 99.6004 65.3308" stroke="#231F20" stroke-width="0.5" stroke-linecap="round" stroke-linejoin="round"/>
<path d="M109.032 53.9375C106.945 52.1893 104.927 52.8017 104.431 55.027L104.3 55.1088C102.215 53.3607 100.198 53.9731 99.6978 56.1983" stroke="#231F20" stroke-width="0.5" stroke-linecap="round" stroke-linejoin="round"/>
<path d="M103.756 48.3192C102.151 46.069 100.064 46.126 99.0566 48.1447L98.9123 48.191C97.3079 45.9408 95.2201 45.9978 94.2131 48.0165" stroke="#231F20" stroke-width="0.5" stroke-linecap="round" stroke-linejoin="round"/>
<path d="M93.1692 38.2575C90.5712 37.6522 89.0104 39.144 89.4769 41.3728L89.393 41.5081C86.7984 40.9029 85.2376 42.3911 85.7008 44.6235" stroke="#231F20" stroke-width="0.5" stroke-linecap="round" stroke-linejoin="round"/>
<path d="M111.687 48.8461C114.282 48.2409 115.843 49.7291 115.38 51.9615L115.464 52.0968C118.062 51.4915 119.619 52.9798 119.156 55.2086" stroke="#231F20" stroke-width="0.5" stroke-linecap="round" stroke-linejoin="round"/>
<path d="M109.032 53.9232C111.627 53.318 113.188 54.8098 112.725 57.0386L112.809 57.1739C115.407 56.5686 116.964 58.0569 116.501 60.2892" stroke="#231F20" stroke-width="0.5" stroke-linecap="round" stroke-linejoin="round"/>
<defs>
<linearGradient id="paint0_linear_57_825" x1="87.4762" y1="25.1974" x2="66.818" y2="117.924" gradientUnits="userSpaceOnUse">
<stop stop-color="#FFF33B"/>
<stop offset="1" stop-color="#FDC70C"/>
</linearGradient>
<linearGradient id="paint1_linear_57_825" x1="27.6661" y1="50.1602" x2="28.6819" y2="83.7937" gradientUnits="userSpaceOnUse">
<stop stop-color="#D1D3D4"/>
<stop offset="0.18" stop-color="#CED0D2"/>
<stop offset="0.33" stop-color="#C4C8CB"/>
<stop offset="0.46" stop-color="#B4BBBF"/>
<stop offset="0.551983" stop-color="#A4AEB4"/>
<stop offset="0.552083" stop-color="#A4AEB4"/>
<stop offset="0.5799" stop-color="#A0AAB0"/>
<stop offset="0.58" stop-color="#9CA7AE"/>
<stop offset="0.746279" stop-color="#7E8E99"/>
<stop offset="0.975446" stop-color="#59707F"/>
</linearGradient>
<linearGradient id="paint2_linear_57_825" x1="90.4269" y1="30.2644" x2="91.8429" y2="76.2599" gradientUnits="userSpaceOnUse">
<stop stop-color="#E7E9EA"/>
<stop offset="0.18" stop-color="#CED0D2"/>
<stop offset="0.33" stop-color="#C4C8CB"/>
<stop offset="0.46" stop-color="#B4BBBF"/>
<stop offset="0.678571" stop-color="#A4AEB4"/>
<stop offset="0.944196" stop-color="#7E8E99"/>
</linearGradient>
</defs>
</svg>
