<svg width="125" height="98" viewBox="0 0 125 98" fill="none" xmlns="http://www.w3.org/2000/svg">
<path d="M16.9105 48.2488C16.3334 48.3295 16.3368 49.1646 16.9146 49.2398L103.616 60.5229C104.194 60.5981 104.412 59.7923 103.875 59.5663L22.8915 25.464C22.3484 25.2354 21.9256 25.9705 22.3965 26.3246L93.12 79.5014C93.5949 79.8585 94.1855 79.2362 93.8041 78.7806L36.5946 10.4327C36.2091 9.97205 35.4874 10.4588 35.7698 10.989L77.9288 90.1533C78.2123 90.6856 79.0216 90.3531 78.8493 89.775L53.1135 3.41769C52.9402 2.83638 52.0755 3.00808 52.1369 3.61162L61.2729 93.507C61.3341 94.1095 62.2135 94.1042 62.2683 93.5011L70.4399 3.45858C70.4947 2.85461 69.6288 2.69299 69.4614 3.27594L44.5519 90.0165C44.3856 90.5954 45.1956 90.9197 45.4752 90.3862L87.1971 10.7936C87.4758 10.2621 86.7532 9.78065 86.3697 10.2424L29.3474 78.9025C28.9679 79.3595 29.5593 79.9788 30.0332 79.6207L100.649 26.2593C101.12 25.9035 100.694 25.1689 100.151 25.4007L19.3817 59.8997C18.8447 60.1291 19.0686 60.9356 19.6468 60.8547L106.203 48.7512C106.781 48.6705 106.777 47.8354 106.199 47.7602L19.4977 36.4771C18.9201 36.4019 18.7018 37.2077 19.2386 37.4337L100.223 71.536C100.766 71.7646 101.188 71.0295 100.717 70.6754L29.994 17.4987C29.5191 17.1416 28.9285 17.7638 29.3099 18.2194L86.5194 86.5674C86.9049 87.028 87.6266 86.5413 87.3442 86.011L45.1852 6.84669C44.9017 6.31438 44.0924 6.64697 44.2647 7.22499L70.0006 93.5823C70.1738 94.1636 71.0385 93.9919 70.9772 93.3884L61.8411 3.49298C61.7799 2.8905 60.9005 2.89577 60.8457 3.49894L52.6741 93.5415C52.6193 94.1454 53.4852 94.307 53.6526 93.7241L78.5622 6.98348C78.7284 6.40463 77.9184 6.08037 77.6388 6.61381L35.9169 86.2064C35.6382 86.738 36.3608 87.2194 36.7442 86.7577L93.7666 18.0975C94.1461 17.6405 93.5547 17.0212 93.0807 17.3794L22.4651 70.7407C21.9942 71.0965 22.4198 71.8312 22.9625 71.5994L103.732 37.1003C104.269 36.8709 104.045 36.0645 103.467 36.1453L16.9105 48.2488Z" fill="url(#paint0_radial_73_11937)"/>
<path d="M71.7791 50.6957C71.7791 56.7588 66.8639 61.6739 60.8008 61.6739C54.7377 61.6739 49.8225 56.7588 49.8225 50.6957C49.8225 44.6325 54.7377 39.7174 60.8008 39.7174C66.8639 39.7174 71.7791 44.6325 71.7791 50.6957Z" fill="white"/>
<path d="M48.0863 49.2374C47.8001 49.2368 47.5145 49.2659 47.2336 49.3244C46.9743 48.5221 46.4853 47.8257 45.8351 47.3323C45.1849 46.839 44.4057 46.5735 43.6064 46.5727C42.8556 46.57 42.1209 46.8042 41.4957 47.2454C41.3581 46.6051 41.0765 46.0097 40.6749 45.51C40.2734 45.0103 39.7638 44.6212 39.1897 44.3759C38.6156 44.1307 37.9941 44.0366 37.3783 44.1016C36.7625 44.1667 36.1706 44.389 35.6534 44.7496C35.5869 43.7391 35.1681 42.7911 34.4786 42.0906C33.7891 41.3901 32.8784 40.9874 31.9242 40.961H31.8149C31.8301 40.221 31.7058 39.4852 31.4495 38.7968C31.1931 38.1084 30.8098 37.4813 30.322 36.9522C29.8342 36.4231 29.2517 36.0028 28.6088 35.7158C27.9659 35.4288 27.2754 35.281 26.5779 35.281C25.8804 35.281 25.1899 35.4288 24.547 35.7158C23.9041 36.0028 23.3216 36.4231 22.8338 36.9522C22.346 37.4813 21.9627 38.1084 21.7063 38.7968C21.45 39.4852 21.3258 40.221 21.3409 40.961H21.2316C20.2774 40.9874 19.3667 41.3901 18.6772 42.0906C17.9877 42.7911 17.5689 43.7391 17.5024 44.7496C16.9852 44.389 16.3934 44.1667 15.7775 44.1016C15.1617 44.0366 14.5402 44.1307 13.9661 44.3759C13.3921 44.6212 12.8824 45.0103 12.4809 45.51C12.0793 46.0097 11.7977 46.6051 11.6601 47.2454C11.1716 46.9033 10.6159 46.6844 10.0354 46.6053C9.45489 46.5263 8.86506 46.5893 8.31103 46.7894C7.757 46.9896 7.25347 47.3216 6.83898 47.76C6.4245 48.1985 6.11004 48.7318 5.9197 49.3191C5.63965 49.2607 5.35487 49.2315 5.06945 49.2321C4.07146 49.2293 3.10122 49.5806 2.31298 50.2301C1.52473 50.8797 0.963708 51.7903 0.719104 52.8171C0.4745 53.8439 0.560351 54.928 0.963005 55.897C1.36566 56.8661 2.06201 57.6645 2.94136 58.1654C2.96315 59.145 3.31742 60.0834 3.93905 60.8081C4.56067 61.5327 5.40788 61.9949 6.32493 62.1096C6.66021 63.1224 7.3584 63.9539 8.26792 64.4237C9.17744 64.8934 10.2249 64.9635 11.1828 64.6187C11.5106 65.0723 11.9247 65.4476 12.3982 65.72C12.8718 65.9925 13.3941 66.1561 13.9312 66.2002C14.4682 66.2442 15.008 66.1678 15.5154 65.9757C16.0228 65.7837 16.4863 65.4804 16.8759 65.0856C17.5541 65.7733 18.4464 66.1732 19.3838 66.2097C20.3212 66.2462 21.2386 65.9166 21.9625 65.2835C21.9948 65.2545 22.0271 65.2255 22.0569 65.1938C22.202 66.2773 22.6877 67.2771 23.4354 68.0308C24.1831 68.7846 25.1489 69.2481 26.176 69.3461C27.2031 69.4442 28.2313 69.1711 29.0938 68.5711C29.9563 67.9711 30.6024 67.0794 30.9273 66.0407C31.0167 65.7663 31.0816 65.4837 31.1212 65.1964L31.2182 65.2861C31.9067 65.8831 32.768 66.2101 33.6571 66.2122C34.6442 66.2128 35.5935 65.8092 36.3072 65.0856C36.6966 65.4804 37.16 65.7836 37.6671 65.9756C38.1743 66.1676 38.7139 66.2441 39.2508 66.2C39.7877 66.156 40.3098 65.9924 40.7831 65.7199C41.2564 65.4474 41.6703 65.0722 41.9979 64.6187C42.9558 64.9635 44.0032 64.8934 44.9127 64.4237C45.8223 63.9539 46.5205 63.1224 46.8557 62.1096C47.7728 61.9949 48.62 61.5327 49.2416 60.8081C49.8632 60.0834 50.2175 59.145 50.2393 58.1654C51.1178 57.6622 51.8125 56.8618 52.213 55.8915C52.6135 54.9211 52.6967 53.8365 52.4495 52.8101C52.2023 51.7838 51.6388 50.8746 50.8487 50.2272C50.0585 49.5798 49.0871 49.2314 48.0888 49.2374H48.0863Z" fill="url(#paint1_linear_73_11937)" stroke="#231F20" stroke-width="0.5" stroke-linecap="round" stroke-linejoin="round"/>
<path d="M26.6338 69.3676H26.5767C25.6025 69.367 24.6532 69.0414 23.8631 68.4368C23.073 67.8322 22.482 66.9792 22.1738 65.9985C22.0982 65.7658 22.0417 65.5265 22.0047 65.2835C22.037 65.2545 22.0694 65.2255 22.0992 65.1938C22.2665 66.3469 22.8142 67.3995 23.6447 68.1639C24.4752 68.9284 25.5345 69.3549 26.6338 69.3676Z" stroke="#231F20" stroke-width="0.5" stroke-linecap="round" stroke-linejoin="round"/>
<path d="M17.9947 48.2849C16.0704 47.8364 14.9144 48.9392 15.26 50.5908L15.1978 50.6911C13.2761 50.2425 12.12 51.348 12.4631 52.9996" stroke="#231F20" stroke-width="0.5" stroke-linecap="round" stroke-linejoin="round"/>
<path d="M9.65382 50.3665C7.72958 49.918 6.57355 51.0235 6.91912 52.6751L6.85696 52.7753C4.93521 52.3268 3.77918 53.4296 4.12226 55.0838" stroke="#231F20" stroke-width="0.5" stroke-linecap="round" stroke-linejoin="round"/>
<path d="M15.5334 56.0706C13.6092 55.622 12.4532 56.7275 12.7987 58.3791L12.7366 58.4793C10.8148 58.0308 9.65879 59.1336 10.0019 60.7878" stroke="#231F20" stroke-width="0.5" stroke-linecap="round" stroke-linejoin="round"/>
<path d="M25.0875 50.3665C23.1657 49.918 22.0097 51.0235 22.3528 52.6751L22.2906 52.7753C20.3664 52.3268 19.2128 53.4296 19.5559 55.0838" stroke="#231F20" stroke-width="0.5" stroke-linecap="round" stroke-linejoin="round"/>
<path d="M31.4171 58.1812C30.0846 56.6431 28.5432 56.8409 27.9366 58.4055L27.8322 58.4503C26.4996 56.9122 24.9582 57.11 24.3516 58.6746" stroke="#231F20" stroke-width="0.5" stroke-linecap="round" stroke-linejoin="round"/>
<path d="M23.0389 61.8379C21.7089 60.2971 20.165 60.495 19.5584 62.0595L19.454 62.1043C18.1214 60.5662 16.5776 60.7641 15.9734 62.3286" stroke="#231F20" stroke-width="0.5" stroke-linecap="round" stroke-linejoin="round"/>
<path d="M39.9444 61.0622C38.6143 59.5215 37.0705 59.722 36.4639 61.2865L36.3594 61.3313C35.0294 59.7906 33.4855 59.9911 32.8789 61.553" stroke="#231F20" stroke-width="0.5" stroke-linecap="round" stroke-linejoin="round"/>
<path d="M39.8648 53.1104C38.3185 51.815 36.8244 52.2687 36.4564 53.9177L36.3595 53.9784C34.8156 52.683 33.3214 53.1367 32.951 54.7857" stroke="#231F20" stroke-width="0.5" stroke-linecap="round" stroke-linejoin="round"/>
<path d="M35.9567 48.9471C34.7683 47.2797 33.222 47.3219 32.4762 48.8179L32.3693 48.8522C31.1809 47.1847 29.6346 47.227 28.8887 48.7229" stroke="#231F20" stroke-width="0.5" stroke-linecap="round" stroke-linejoin="round"/>
<path d="M28.1156 41.4913C26.1913 41.0428 25.0353 42.1482 25.3808 43.7998L25.3187 43.9001C23.3969 43.4515 22.2409 44.5543 22.584 46.2086" stroke="#231F20" stroke-width="0.5" stroke-linecap="round" stroke-linejoin="round"/>
<path d="M41.8314 49.3376C43.7531 48.8891 44.9091 49.9919 44.5661 51.6461L44.6282 51.7464C46.5525 51.2979 47.706 52.4007 47.3629 54.0522" stroke="#231F20" stroke-width="0.5" stroke-linecap="round" stroke-linejoin="round"/>
<path d="M39.8649 53.0998C41.7866 52.6513 42.9427 53.7568 42.5996 55.4083L42.6617 55.5086C44.586 55.0601 45.7395 56.1629 45.3964 57.8171" stroke="#231F20" stroke-width="0.5" stroke-linecap="round" stroke-linejoin="round"/>
<path d="M117.96 34.0995C117.576 34.0987 117.193 34.1386 116.816 34.2186C116.468 33.1213 115.812 32.1689 114.94 31.4942C114.067 30.8196 113.022 30.4564 111.95 30.4553C110.943 30.4517 109.957 30.7719 109.118 31.3753C108.934 30.4997 108.556 29.6853 108.017 29.0019C107.479 28.3186 106.795 27.7864 106.025 27.451C105.255 27.1156 104.421 26.9869 103.595 27.0759C102.769 27.1649 101.975 27.4689 101.281 27.962C101.192 26.5801 100.63 25.2836 99.7049 24.3257C98.7799 23.3677 97.5582 22.8169 96.2781 22.7808H96.1314C96.1518 21.7687 95.9851 20.7624 95.6412 19.821C95.2973 18.8796 94.7831 18.0219 94.1287 17.2984C93.4743 16.5748 92.6929 15.9999 91.8304 15.6074C90.9679 15.215 90.0417 15.0128 89.106 15.0128C88.1703 15.0128 87.244 15.215 86.3815 15.6074C85.519 15.9999 84.7376 16.5748 84.0832 17.2984C83.4288 18.0219 82.9146 18.8796 82.5707 19.821C82.2268 20.7624 82.0601 21.7687 82.0805 22.7808H81.9338C80.6537 22.8169 79.432 23.3677 78.5071 24.3257C77.5821 25.2836 77.0202 26.5801 76.9311 27.962C76.2372 27.4689 75.4433 27.1649 74.6172 27.0759C73.791 26.9869 72.9573 27.1156 72.1871 27.451C71.417 27.7864 70.7334 28.3186 70.1946 29.0019C69.6559 29.6853 69.2781 30.4997 69.0936 31.3753C68.4383 30.9075 67.6927 30.6081 66.914 30.5C66.1353 30.3919 65.344 30.478 64.6008 30.7517C63.8575 31.0254 63.182 31.4795 62.626 32.0791C62.07 32.6788 61.6481 33.4081 61.3928 34.2113C61.0171 34.1314 60.635 34.0915 60.2522 34.0923C58.9133 34.0884 57.6117 34.5689 56.5543 35.4572C55.4969 36.3456 54.7442 37.5909 54.4161 38.9951C54.088 40.3993 54.2031 41.882 54.7433 43.2073C55.2835 44.5326 56.2176 45.6245 57.3973 46.3094C57.4265 47.6492 57.9018 48.9326 58.7357 49.9236C59.5696 50.9146 60.7062 51.5467 61.9364 51.7036C62.3862 53.0887 63.3228 54.2259 64.5429 54.8683C65.7631 55.5107 67.1682 55.6066 68.4532 55.1349C68.893 55.7553 69.4486 56.2685 70.0838 56.6412C70.7191 57.0138 71.4197 57.2376 72.1402 57.2978C72.8607 57.3581 73.5848 57.2535 74.2655 56.9909C74.9461 56.7282 75.568 56.3135 76.0906 55.7736C77.0005 56.714 78.1975 57.261 79.455 57.3109C80.7125 57.3607 81.9433 56.9101 82.9143 56.0442C82.9577 56.0045 83.001 55.9648 83.041 55.9215C83.2356 57.4034 83.8872 58.7706 84.8903 59.8014C85.8933 60.8322 87.1889 61.4661 88.5668 61.6002C89.9447 61.7343 91.3241 61.3608 92.4811 60.5402C93.6381 59.7197 94.5049 58.5002 94.9408 57.0797C95.0606 56.7045 95.1477 56.3179 95.2009 55.9251L95.331 56.0478C96.2546 56.8642 97.41 57.3114 98.6027 57.3143C99.927 57.315 101.2 56.7632 102.158 55.7736C102.68 56.3134 103.302 56.7281 103.982 56.9907C104.663 57.2533 105.387 57.3579 106.107 57.2976C106.827 57.2374 107.527 57.0136 108.162 56.641C108.797 56.2684 109.353 55.7552 109.792 55.1349C111.077 55.6066 112.482 55.5107 113.702 54.8683C114.922 54.2259 115.859 53.0887 116.309 51.7036C117.539 51.5467 118.676 50.9146 119.51 49.9236C120.343 48.9326 120.819 47.6492 120.848 46.3094C122.026 45.6213 122.958 44.5267 123.496 43.1996C124.033 41.8726 124.145 40.3893 123.813 38.9856C123.481 37.582 122.725 36.3386 121.665 35.4532C120.605 34.5679 119.302 34.0914 117.963 34.0995H117.96Z" fill="url(#paint2_linear_73_11937)" stroke="#231F20" stroke-width="0.5" stroke-linecap="round" stroke-linejoin="round"/>
<path d="M89.181 61.6296H89.1043C87.7975 61.6288 86.524 61.1835 85.464 60.3566C84.404 59.5297 83.6112 58.3632 83.1978 57.022C83.0964 56.7037 83.0205 56.3766 82.971 56.0442C83.0143 56.0045 83.0577 55.9648 83.0977 55.9215C83.3221 57.4985 84.0568 58.938 85.171 59.9835C86.2851 61.0289 87.7062 61.6123 89.181 61.6296Z" stroke="#231F20" stroke-width="0.5" stroke-linecap="round" stroke-linejoin="round"/>
<path d="M77.5914 32.797C75.01 32.1836 73.4592 33.6918 73.9228 35.9505L73.8394 36.0876C71.2614 35.4742 69.7105 36.986 70.1708 39.2447" stroke="#231F20" stroke-width="0.5" stroke-linecap="round" stroke-linejoin="round"/>
<path d="M66.4021 35.6438C63.8207 35.0304 62.2698 36.5422 62.7334 38.8009L62.6501 38.938C60.072 38.3246 58.5212 39.8328 58.9814 42.0951" stroke="#231F20" stroke-width="0.5" stroke-linecap="round" stroke-linejoin="round"/>
<path d="M74.2897 43.4446C71.7083 42.8312 70.1575 44.343 70.621 46.6017L70.5377 46.7388C67.9596 46.1254 66.4088 47.6336 66.869 49.8959" stroke="#231F20" stroke-width="0.5" stroke-linecap="round" stroke-linejoin="round"/>
<path d="M87.1066 35.6438C84.5285 35.0304 82.9777 36.5422 83.4379 38.8009L83.3545 38.938C80.7732 38.3246 79.2257 39.8328 79.6859 42.0951" stroke="#231F20" stroke-width="0.5" stroke-linecap="round" stroke-linejoin="round"/>
<path d="M95.5978 46.3311C93.8102 44.2276 91.7424 44.4982 90.9286 46.6378L90.7886 46.6991C89.0009 44.5956 86.9332 44.8662 86.1194 47.0058" stroke="#231F20" stroke-width="0.5" stroke-linecap="round" stroke-linejoin="round"/>
<path d="M84.3584 51.332C82.5741 49.2248 80.503 49.4954 79.6893 51.6351L79.5492 51.6964C77.7616 49.5929 75.6904 49.8635 74.88 52.0031" stroke="#231F20" stroke-width="0.5" stroke-linecap="round" stroke-linejoin="round"/>
<path d="M107.037 50.2711C105.253 48.164 103.182 48.4382 102.368 50.5778L102.228 50.6392C100.444 48.532 98.3726 48.8062 97.5588 50.9423" stroke="#231F20" stroke-width="0.5" stroke-linecap="round" stroke-linejoin="round"/>
<path d="M106.931 39.3962C104.856 37.6246 102.852 38.2452 102.358 40.5003L102.228 40.5833C100.157 38.8117 98.1525 39.4323 97.6556 41.6874" stroke="#231F20" stroke-width="0.5" stroke-linecap="round" stroke-linejoin="round"/>
<path d="M101.688 33.7026C100.094 31.4222 98.0191 31.48 97.0185 33.5258L96.8751 33.5727C95.2809 31.2923 93.2065 31.3501 92.206 33.3959" stroke="#231F20" stroke-width="0.5" stroke-linecap="round" stroke-linejoin="round"/>
<path d="M91.1687 23.506C88.5873 22.8926 87.0365 24.4044 87.5001 26.6631L87.4167 26.8002C84.8386 26.1868 83.2878 27.695 83.748 29.9573" stroke="#231F20" stroke-width="0.5" stroke-linecap="round" stroke-linejoin="round"/>
<path d="M109.569 34.2366C112.147 33.6232 113.697 35.1314 113.237 37.3937L113.321 37.5308C115.902 36.9175 117.449 38.4257 116.989 40.6844" stroke="#231F20" stroke-width="0.5" stroke-linecap="round" stroke-linejoin="round"/>
<path d="M106.931 39.3818C109.509 38.7684 111.059 40.2802 110.599 42.5389L110.683 42.676C113.264 42.0627 114.811 43.5709 114.351 45.8332" stroke="#231F20" stroke-width="0.5" stroke-linecap="round" stroke-linejoin="round"/>
<defs>
<radialGradient id="paint0_radial_73_11937" cx="0" cy="0" r="1" gradientUnits="userSpaceOnUse" gradientTransform="translate(61.557 48.5) rotate(-90.2757) scale(50.2388 48.316)">
<stop stop-color="#FFC50F"/>
<stop offset="1" stop-color="#FFF33B"/>
</radialGradient>
<linearGradient id="paint1_linear_73_11937" x1="26.0844" y1="35.5683" x2="27.1342" y2="69.6516" gradientUnits="userSpaceOnUse">
<stop stop-color="#D1D3D4"/>
<stop offset="0.18" stop-color="#CED0D2"/>
<stop offset="0.33" stop-color="#C4C8CB"/>
<stop offset="0.46" stop-color="#B4BBBF"/>
<stop offset="0.551983" stop-color="#A4AEB4"/>
<stop offset="0.552083" stop-color="#A4AEB4"/>
<stop offset="0.5799" stop-color="#A0AAB0"/>
<stop offset="0.58" stop-color="#9CA7AE"/>
<stop offset="0.746279" stop-color="#7E8E99"/>
<stop offset="0.975446" stop-color="#59707F"/>
</linearGradient>
<linearGradient id="paint2_linear_73_11937" x1="88.4439" y1="15.4057" x2="89.9075" y2="62.0162" gradientUnits="userSpaceOnUse">
<stop stop-color="#E7E9EA"/>
<stop offset="0.18" stop-color="#CED0D2"/>
<stop offset="0.33" stop-color="#C4C8CB"/>
<stop offset="0.46" stop-color="#B4BBBF"/>
<stop offset="0.678571" stop-color="#A4AEB4"/>
<stop offset="0.944196" stop-color="#7E8E99"/>
</linearGradient>
</defs>
</svg>
