<svg width="118" height="117" viewBox="0 0 118 117" fill="none" xmlns="http://www.w3.org/2000/svg">
<path d="M50.9141 60.7376C50.9365 60.6237 51.0344 60.5402 51.1504 60.536L72.1903 59.7793C72.3773 59.7726 72.5051 59.966 72.4256 60.1353L61.6081 83.1813C61.3746 83.6787 61.7376 84.25 62.287 84.25H68.2809C68.4551 84.25 68.5759 84.4237 68.5152 84.5871L57.5316 114.151C57.4246 114.439 56.9929 114.318 57.0519 114.016L61.6322 90.6261C61.7211 90.1719 61.3815 89.7463 60.9188 89.7323L45.5968 89.268C45.4425 89.2633 45.3293 89.1213 45.3591 88.9698L50.9141 60.7376Z" fill="#FFF200" stroke="black" stroke-width="0.5"/>
<path d="M36.2662 65.7773C43.1272 81.2051 35.1762 80.4367 35.1762 80.4367C29.3342 77.3087 38.0373 69.7773 36.2662 65.7773Z" fill="url(#paint0_linear_66_1273)"/>
<path d="M15.1925 55.1832C20.4568 68.5947 14.2006 67.9952 14.2006 67.9952C9.60116 65.3031 16.5494 58.6382 15.1925 55.1832Z" fill="url(#paint1_linear_66_1273)"/>
<path d="M25.6067 62.3604C31.3561 76.3986 24.5931 75.7501 24.5931 75.7501C19.6012 72.9326 27.089 66.0007 25.6067 62.3604Z" fill="url(#paint2_linear_66_1273)"/>
<path d="M81.34 65.7773C74.4789 81.2051 82.4299 80.4367 82.4299 80.4367C88.2719 77.3087 79.5689 69.7773 81.34 65.7773Z" fill="url(#paint3_linear_66_1273)"/>
<path d="M102.419 55.1832C97.1494 68.5947 103.406 67.9952 103.406 67.9952C107.989 65.3031 101.057 58.6382 102.419 55.1832Z" fill="url(#paint4_linear_66_1273)"/>
<path d="M92.0049 62.3604C86.2556 76.3986 93.0185 75.7501 93.0185 75.7501C98.0049 72.9326 90.5172 66.0007 92.0049 62.3604Z" fill="url(#paint5_linear_66_1273)"/>
<path d="M59.1055 71.75H58.9802C56.8449 71.7488 54.764 71.0762 53.032 69.8273C51.2999 68.5784 50.0045 66.8165 49.3289 64.7909C49.1633 64.3101 49.0393 63.816 48.9583 63.314C49.0292 63.2541 49.1 63.1941 49.1654 63.1287C49.532 65.5105 50.7327 67.6847 52.5532 69.2637C54.3737 70.8427 56.6958 71.7238 59.1055 71.75Z" stroke="#231F20" stroke-width="0.5" stroke-linecap="round" stroke-linejoin="round"/>
<path d="M40.1681 28.2021C35.9501 27.2757 33.416 29.5536 34.1735 32.9651L34.0373 33.1722C29.8247 32.2457 27.2906 34.5291 28.0427 37.9406" stroke="#231F20" stroke-width="0.5" stroke-linecap="round" stroke-linejoin="round"/>
<path d="M21.8846 32.5018C17.6666 31.5754 15.1325 33.8588 15.89 37.2703L15.7538 37.4773C11.5412 36.5509 9.00714 38.8288 9.75919 42.2458" stroke="#231F20" stroke-width="0.5" stroke-linecap="round" stroke-linejoin="round"/>
<path d="M34.773 44.2839C30.555 43.3575 28.0209 45.6409 28.7784 49.0524L28.6421 49.2595C24.4296 48.333 21.8955 50.611 22.6476 54.0279" stroke="#231F20" stroke-width="0.5" stroke-linecap="round" stroke-linejoin="round"/>
<path d="M55.7159 32.5018C51.5033 31.5754 48.9692 33.8588 49.7213 37.2703L49.585 37.4773C45.367 36.5509 42.8384 38.8288 43.5905 42.2458" stroke="#231F20" stroke-width="0.5" stroke-linecap="round" stroke-linejoin="round"/>
<path d="M69.5906 48.6436C66.6696 45.4665 63.2908 45.8752 61.9611 49.1069L61.7322 49.1995C58.8113 46.0224 55.4325 46.4311 54.1028 49.6627" stroke="#231F20" stroke-width="0.5" stroke-linecap="round" stroke-linejoin="round"/>
<path d="M51.2254 56.1968C48.3098 53.0142 44.9256 53.423 43.5959 56.6546L43.367 56.7472C40.446 53.5701 37.0618 53.9788 35.7375 57.2104" stroke="#231F20" stroke-width="0.5" stroke-linecap="round" stroke-linejoin="round"/>
<path d="M88.2828 54.5946C85.3673 51.412 81.9831 51.8262 80.6533 55.0578L80.4245 55.1505C77.5089 51.9679 74.1247 52.3821 72.795 55.6082" stroke="#231F20" stroke-width="0.5" stroke-linecap="round" stroke-linejoin="round"/>
<path d="M88.1084 38.1695C84.7188 35.4937 81.4435 36.431 80.637 39.837L80.4245 39.9624C77.0403 37.2866 73.765 38.224 72.953 41.63" stroke="#231F20" stroke-width="0.5" stroke-linecap="round" stroke-linejoin="round"/>
<path d="M79.5416 29.5699C76.9367 26.1258 73.547 26.213 71.9121 29.3029L71.6778 29.3738C69.0729 25.9296 65.6832 26.0168 64.0483 29.1067" stroke="#231F20" stroke-width="0.5" stroke-linecap="round" stroke-linejoin="round"/>
<path d="M62.3535 14.1693C58.1355 13.2429 55.6014 15.5263 56.3589 18.9377L56.2227 19.1448C52.0101 18.2184 49.476 20.4963 50.2281 23.9132" stroke="#231F20" stroke-width="0.5" stroke-linecap="round" stroke-linejoin="round"/>
<path d="M92.4191 30.3765C96.6316 29.4501 99.1657 31.728 98.4137 35.1449L98.5499 35.352C102.768 34.4256 105.297 36.7035 104.544 40.115" stroke="#231F20" stroke-width="0.5" stroke-linecap="round" stroke-linejoin="round"/>
<path d="M88.1084 38.1477C92.321 37.2212 94.8551 39.5046 94.103 42.9161L94.2393 43.1232C98.4573 42.1967 100.986 44.4747 100.234 47.8916" stroke="#231F20" stroke-width="0.5" stroke-linecap="round" stroke-linejoin="round"/>
<path d="M107.063 30.1311C106.424 30.13 105.787 30.1912 105.161 30.3141C104.582 28.6277 103.492 27.164 102.041 26.1272C100.591 25.0903 98.8529 24.5321 97.0701 24.5305C95.3953 24.5249 93.7567 25.0171 92.3622 25.9445C92.0553 24.5987 91.4271 23.3472 90.5314 22.2969C89.6357 21.2466 88.499 20.4288 87.2185 19.9133C85.938 19.3979 84.5518 19.2001 83.1782 19.3368C81.8046 19.4736 80.4846 19.9409 79.3309 20.6987C79.1827 18.5748 78.2485 16.5823 76.7105 15.11C75.1726 13.6377 73.1413 12.7913 71.013 12.7357H70.769C70.8029 11.1804 70.5258 9.63386 69.954 8.18699C69.3822 6.74012 68.5272 5.42202 67.4392 4.31001C66.3512 3.19801 65.052 2.3145 63.6179 1.71131C62.1839 1.10813 60.6438 0.797424 59.088 0.797424C57.5322 0.797424 55.9921 1.10813 54.5581 1.71131C53.124 2.3145 51.8248 3.19801 50.7368 4.31001C49.6488 5.42202 48.7938 6.74012 48.222 8.18699C47.6502 9.63386 47.3731 11.1804 47.407 12.7357H47.163C45.0347 12.7913 43.0034 13.6377 41.4654 15.11C39.9275 16.5823 38.9933 18.5748 38.8451 20.6987C37.6914 19.9409 36.3714 19.4736 34.9978 19.3368C33.6242 19.2001 32.238 19.3979 30.9575 19.9133C29.677 20.4288 28.5403 21.2466 27.6446 22.2969C26.7489 23.3472 26.1207 24.5987 25.8138 25.9445C24.7243 25.2255 23.4847 24.7653 22.1899 24.5992C20.8951 24.433 19.5795 24.5654 18.3438 24.986C17.108 25.4067 15.9849 26.1045 15.0604 27.0261C14.1358 27.9477 13.4345 29.0686 13.0099 30.303C12.3852 30.1802 11.75 30.1189 11.1134 30.1201C8.88741 30.1141 6.72329 30.8525 4.96511 32.2178C3.20692 33.5831 1.95556 35.4969 1.40998 37.655C0.864388 39.8132 1.05588 42.0918 1.954 44.1286C2.85212 46.1654 4.40532 47.8435 6.36671 48.8962C6.41532 50.9553 7.20552 52.9276 8.59206 54.4507C9.97859 55.9737 11.8683 56.9451 13.9138 57.1863C14.6616 59.315 16.2189 61.0627 18.2476 62.0501C20.2763 63.0374 22.6126 63.1846 24.7491 62.4598C25.4803 63.4133 26.4041 64.202 27.4603 64.7747C28.5165 65.3475 29.6815 65.6913 30.8794 65.7839C32.0774 65.8765 33.2814 65.7158 34.4131 65.3121C35.5448 64.9085 36.5788 64.2711 37.4477 63.4413C38.9605 64.8867 40.9507 65.7273 43.0415 65.8039C45.1324 65.8806 47.1788 65.188 48.7933 63.8572C48.8654 63.7962 48.9375 63.7352 49.004 63.6687C49.3275 65.9461 50.411 68.0474 52.0787 69.6316C53.7465 71.2158 55.9006 72.19 58.1916 72.3961C60.4826 72.6022 62.776 72.0282 64.6997 70.7671C66.6235 69.506 68.0646 67.6318 68.7894 65.4487C68.9887 64.872 69.1335 64.278 69.2219 63.6742L69.4382 63.8628C70.9739 65.1174 72.895 65.8048 74.878 65.8092C77.0798 65.8104 79.1972 64.9622 80.7893 63.4413C81.6578 64.271 82.6913 64.9083 83.8225 65.3119C84.9538 65.7155 86.1573 65.8762 87.3548 65.7836C88.5523 65.691 89.7169 65.3471 90.7727 64.7745C91.8284 64.2018 92.7517 63.4131 93.4823 62.4598C95.6189 63.1846 97.9551 63.0374 99.9838 62.0501C102.013 61.0627 103.57 59.315 104.318 57.1863C106.363 56.9451 108.253 55.9737 109.639 54.4507C111.026 52.9276 111.816 50.9553 111.865 48.8962C113.824 47.8387 115.374 46.1564 116.267 44.1169C117.16 42.0773 117.346 39.7977 116.795 37.6405C116.243 35.4833 114.986 33.5724 113.224 32.2117C111.461 30.851 109.295 30.1187 107.068 30.1311H107.063Z" fill="url(#paint6_linear_66_1273)" stroke="#231F20" stroke-width="0.5" stroke-linecap="round" stroke-linejoin="round"/>
<path d="M59.2128 72.4413H59.0852C56.9124 72.44 54.795 71.7556 53.0326 70.4848C51.2702 69.214 49.9521 67.4212 49.2646 65.36C49.0961 64.8708 48.9699 64.368 48.8875 63.8572C48.9596 63.7962 49.0317 63.7352 49.0983 63.6687C49.4713 66.0923 50.693 68.3047 52.5455 69.9113C54.3979 71.518 56.7608 72.4146 59.2128 72.4413Z" stroke="#231F20" stroke-width="0.5" stroke-linecap="round" stroke-linejoin="round"/>
<path d="M39.9431 28.1293C35.6511 27.1866 33.0725 29.5045 33.8433 32.9758L33.7047 33.1865C29.4182 32.2439 26.8397 34.5673 27.6049 38.0386" stroke="#231F20" stroke-width="0.5" stroke-linecap="round" stroke-linejoin="round"/>
<path d="M21.3388 32.5045C17.0468 31.5618 14.4683 33.8853 15.2391 37.3566L15.1005 37.5673C10.814 36.6246 8.23546 38.9425 9.0007 42.4194" stroke="#231F20" stroke-width="0.5" stroke-linecap="round" stroke-linejoin="round"/>
<path d="M34.4533 44.4933C30.1613 43.5506 27.5828 45.874 28.3536 49.3453L28.2149 49.5561C23.9285 48.6134 21.3499 50.9313 22.1152 54.4081" stroke="#231F20" stroke-width="0.5" stroke-linecap="round" stroke-linejoin="round"/>
<path d="M55.7636 32.5045C51.4772 31.5618 48.8986 33.8853 49.6639 37.3566L49.5252 37.5673C45.2332 36.6246 42.6603 38.9425 43.4255 42.4194" stroke="#231F20" stroke-width="0.5" stroke-linecap="round" stroke-linejoin="round"/>
<path d="M69.8818 48.9295C66.9096 45.6966 63.4715 46.1125 62.1185 49.4008L61.8856 49.4951C58.9133 46.2622 55.4753 46.6781 54.1223 49.9664" stroke="#231F20" stroke-width="0.5" stroke-linecap="round" stroke-linejoin="round"/>
<path d="M51.1944 56.6151C48.2277 53.3767 44.7841 53.7926 43.431 57.0809L43.1981 57.1752C40.2259 53.9423 36.7823 54.3582 35.4348 57.6466" stroke="#231F20" stroke-width="0.5" stroke-linecap="round" stroke-linejoin="round"/>
<path d="M88.9019 54.9849C85.9352 51.7465 82.4916 52.1679 81.1386 55.4562L80.9057 55.5505C77.939 52.3121 74.4954 52.7335 73.1424 56.0163" stroke="#231F20" stroke-width="0.5" stroke-linecap="round" stroke-linejoin="round"/>
<path d="M88.7245 38.2715C85.2753 35.5488 81.9427 36.5026 81.122 39.9684L80.9057 40.0959C77.4621 37.3732 74.1294 38.327 73.3032 41.7928" stroke="#231F20" stroke-width="0.5" stroke-linecap="round" stroke-linejoin="round"/>
<path d="M80.0074 29.5212C77.3567 26.0166 73.9076 26.1053 72.244 29.2494L72.0056 29.3215C69.355 25.8169 65.9058 25.9057 64.2423 29.0498" stroke="#231F20" stroke-width="0.5" stroke-linecap="round" stroke-linejoin="round"/>
<path d="M62.5177 13.8504C58.2257 12.9077 55.6472 15.2311 56.418 18.7024L56.2793 18.9131C51.9929 17.9705 49.4144 20.2884 50.1796 23.7652" stroke="#231F20" stroke-width="0.5" stroke-linecap="round" stroke-linejoin="round"/>
<path d="M93.1107 30.3419C97.3972 29.3992 99.9757 31.7171 99.2105 35.1939L99.3491 35.4047C103.641 34.462 106.214 36.7799 105.449 40.2512" stroke="#231F20" stroke-width="0.5" stroke-linecap="round" stroke-linejoin="round"/>
<path d="M88.7245 38.2493C93.011 37.3067 95.5895 39.6301 94.8242 43.1014L94.9629 43.3121C99.2549 42.3694 101.828 44.6874 101.063 48.1642" stroke="#231F20" stroke-width="0.5" stroke-linecap="round" stroke-linejoin="round"/>
<defs>
<linearGradient id="paint0_linear_66_1273" x1="33.3214" y1="73.3025" x2="39.0746" y2="74.045" gradientUnits="userSpaceOnUse">
<stop offset="0.02" stop-color="white"/>
<stop offset="1" stop-color="#2F5D7D"/>
</linearGradient>
<linearGradient id="paint1_linear_66_1273" x1="12.7576" y1="61.7593" x2="17.3277" y2="62.2939" gradientUnits="userSpaceOnUse">
<stop offset="0.02" stop-color="white"/>
<stop offset="1" stop-color="#2F5D7D"/>
</linearGradient>
<linearGradient id="paint2_linear_66_1273" x1="23.0173" y1="69.2332" x2="27.9486" y2="69.8293" gradientUnits="userSpaceOnUse">
<stop offset="0.02" stop-color="white"/>
<stop offset="1" stop-color="#2F5D7D"/>
</linearGradient>
<linearGradient id="paint3_linear_66_1273" x1="78.7416" y1="73.3025" x2="84.4948" y2="74.045" gradientUnits="userSpaceOnUse">
<stop offset="0.02" stop-color="white"/>
<stop offset="1" stop-color="#2F5D7D"/>
</linearGradient>
<linearGradient id="paint4_linear_66_1273" x1="100.46" y1="61.7593" x2="105.022" y2="62.2919" gradientUnits="userSpaceOnUse">
<stop offset="0.02" stop-color="white"/>
<stop offset="1" stop-color="#2F5D7D"/>
</linearGradient>
<linearGradient id="paint5_linear_66_1273" x1="89.8524" y1="69.2332" x2="94.7809" y2="69.8286" gradientUnits="userSpaceOnUse">
<stop offset="0.02" stop-color="white"/>
<stop offset="1" stop-color="#2F5D7D"/>
</linearGradient>
<linearGradient id="paint6_linear_66_1273" x1="57.9873" y1="1.4013" x2="60.0667" y2="73.0457" gradientUnits="userSpaceOnUse">
<stop offset="0.0327377" stop-color="#A4AEB4"/>
<stop offset="0.438988" stop-color="#7E8E99"/>
<stop offset="0.975446" stop-color="#2E4C60"/>
</linearGradient>
</defs>
</svg>
