<svg width="123" height="119" viewBox="0 0 123 119" fill="none" xmlns="http://www.w3.org/2000/svg">
<path d="M1.65345 59.8104C1.07124 59.8872 1.07504 60.731 1.65791 60.8024L118.387 75.1169C118.969 75.1883 119.178 74.3722 118.633 74.1559L9.47381 30.8412C8.92401 30.623 8.5177 31.372 9.00034 31.7139L104.539 99.405C105.024 99.7488 105.597 99.1096 105.202 98.665L27.7142 11.4314C27.3161 10.9831 26.6101 11.4875 26.9051 12.0094L84.1422 113.286C84.4377 113.809 85.2353 113.462 85.0542 112.889L50.05 2.20818C49.868 1.6328 49.0114 1.81258 49.0761 2.41257L61.5126 117.723C61.5771 118.322 62.4497 118.317 62.5074 117.718L73.6302 2.22711C73.688 1.6267 72.83 1.45643 72.6542 2.03341L38.7851 113.169C38.6103 113.743 39.4088 114.082 39.7003 113.558L96.3185 11.7792C96.6095 11.256 95.9023 10.7564 95.5064 11.2055L18.2945 98.8122C17.9016 99.258 18.4756 99.8947 18.9596 99.5501L114.352 31.6244C114.835 31.2808 114.425 30.5321 113.876 30.7532L4.98028 74.5822C4.43512 74.8016 4.64967 75.6185 5.23229 75.5417L121.783 60.1843C122.365 60.1076 122.361 59.2638 121.779 59.1923L5.04912 44.8779C4.46704 44.8065 4.25875 45.6226 4.80385 45.8389L113.963 89.1536C114.512 89.3717 114.919 88.6228 114.436 88.2809L18.8972 20.5898C18.412 20.246 17.8394 20.8852 18.2343 21.3298L95.7222 108.563C96.1204 109.012 96.8263 108.507 96.5313 107.985L39.2943 6.70862C38.9987 6.18568 38.2011 6.53268 38.3822 7.10539L73.3865 117.787C73.5684 118.362 74.425 118.182 74.3603 117.582L61.9238 2.27149C61.8593 1.67288 60.9867 1.67786 60.929 2.27717L49.8062 117.768C49.7484 118.368 50.6064 118.538 50.7822 117.961L84.6514 6.82545C84.8261 6.25195 84.0276 5.91269 83.7361 6.43662L27.1179 108.216C26.8268 108.739 27.5341 109.238 27.9299 108.789L105.142 21.1826C105.535 20.7368 104.961 20.1 104.477 20.4447L9.08406 88.3704C8.60161 88.7139 9.01134 89.4627 9.56077 89.2415L118.456 45.4126C119.001 45.1932 118.787 44.3763 118.204 44.4531L1.65345 59.8104Z" fill="url(#paint0_radial_66_1253)"/>
<path d="M76.0002 60.3415C76.0002 68.6257 69.2845 75.3415 61.0002 75.3415C52.7159 75.3415 46.0002 68.6257 46.0002 60.3415C46.0002 52.0572 52.7159 45.3415 61.0002 45.3415C69.2845 45.3415 76.0002 52.0572 76.0002 60.3415Z" fill="white"/>
<defs>
<radialGradient id="paint0_radial_66_1253" cx="0" cy="0" r="1" gradientUnits="userSpaceOnUse" gradientTransform="translate(61.7182 59.9974) rotate(-90.2925) scale(62.6716 63.9629)">
<stop stop-color="#FFC50F"/>
<stop offset="1" stop-color="#FFE029"/>
</radialGradient>
</defs>
</svg>
