<svg width="117" height="73" viewBox="0 0 117 73" fill="none" xmlns="http://www.w3.org/2000/svg">
<path fill-rule="evenodd" clip-rule="evenodd" d="M106.457 30.3337C105.818 30.3325 105.181 30.3938 104.555 30.5167C103.976 28.8303 102.886 27.3666 101.435 26.3297C99.9851 25.2929 98.2472 24.7347 96.4643 24.733C94.7896 24.7275 93.151 25.2196 91.7564 26.1471C91.4496 24.8013 90.8214 23.5497 89.9257 22.4995C89.03 21.4492 87.8933 20.6314 86.6128 20.1159C85.3323 19.6004 83.946 19.4026 82.5725 19.5394C81.1989 19.6762 79.8789 20.1434 78.7251 20.9013C78.5769 18.7774 77.6427 16.7849 76.1048 15.3126C74.5669 13.8403 72.5356 12.9938 70.4073 12.9383H70.1633C70.1972 11.3829 69.9201 9.83644 69.3483 8.38957C68.7765 6.9427 67.9215 5.6246 66.8335 4.51259C65.7454 3.40058 64.4463 2.51707 63.0122 1.91389C61.5781 1.31071 60.038 1 58.4823 1C56.9265 1 55.3864 1.31071 53.9524 1.91389C52.5183 2.51707 51.2191 3.40058 50.1311 4.51259C49.0431 5.6246 48.188 6.9427 47.6162 8.38957C47.0444 9.83644 46.7674 11.3829 46.8013 12.9383H46.5573C44.4289 12.9938 42.3977 13.8403 40.8597 15.3126C39.3218 16.7849 38.3876 18.7774 38.2394 20.9013C37.0857 20.1434 35.7657 19.6762 34.3921 19.5394C33.0185 19.4026 31.6323 19.6004 30.3518 20.1159C29.0713 20.6314 27.9346 21.4492 27.0389 22.4995C26.1431 23.5497 25.515 24.8013 25.2081 26.1471C24.1186 25.4281 22.879 24.9679 21.5842 24.8017C20.2894 24.6356 18.9738 24.7679 17.738 25.1886C16.5023 25.6093 15.3792 26.3071 14.4546 27.2287C13.5301 28.1503 12.8287 29.2712 12.4042 30.5056C11.7795 30.3827 11.1443 30.3214 10.5077 30.3226C8.28169 30.3167 6.11758 31.0551 4.35939 32.4204C2.60121 33.7857 1.34985 35.6995 0.804263 37.8576C0.258675 40.0157 0.450165 42.2943 1.34829 44.3311C2.24641 46.3679 3.79961 48.0461 5.761 49.0988C5.80961 51.1579 6.5998 53.1302 7.98634 54.6533C9.37288 56.1763 11.2626 57.1477 13.3081 57.3889C14.0559 59.5175 15.6132 61.2653 17.6419 62.2526C19.6706 63.24 22.0068 63.3872 24.1434 62.6624C24.8746 63.6158 25.7984 64.4046 26.8546 64.9773C27.9108 65.55 29.0758 65.8939 30.2737 65.9865C31.4717 66.0791 32.6757 65.9183 33.8074 65.5147C34.939 65.1111 35.973 64.4737 36.842 63.6439C38.3548 65.0893 40.345 65.9299 42.4358 66.0065C44.4665 66.0809 46.4553 65.4297 48.0472 64.1731L48.035 64.0996C48.0211 64.0131 48.0534 63.9256 48.1203 63.869C48.1938 63.8068 48.2578 63.7525 48.3158 63.6945C48.3824 63.6279 48.4808 63.6044 48.5703 63.6337C48.6599 63.663 48.7253 63.7401 48.7396 63.8332C49.1037 66.1983 50.2958 68.3572 52.1035 69.925C53.9112 71.4929 56.217 72.3678 58.6098 72.3938C58.7434 72.3953 58.8515 72.5013 58.8568 72.6335C60.7138 72.5686 62.5266 71.9971 64.094 70.9696C66.0178 69.7085 67.4589 67.8344 68.1837 65.6513C68.383 65.0746 68.5278 64.4805 68.6162 63.8768L68.8325 64.0654C70.3682 65.32 72.2892 66.0074 74.2723 66.0117C76.4741 66.013 78.5915 65.1648 80.1835 63.6439C81.052 64.4735 82.0856 65.1109 83.2168 65.5145C84.3481 65.918 85.5516 66.0788 86.7491 65.9862C87.9466 65.8936 89.1112 65.5497 90.1669 64.977C91.2227 64.4044 92.146 63.6157 92.8766 62.6624C95.0132 63.3872 97.3494 63.24 99.3781 62.2526C101.407 61.2653 102.964 59.5175 103.712 57.3889C105.757 57.1477 107.647 56.1763 109.034 54.6533C110.42 53.1302 111.21 51.1579 111.259 49.0988C113.218 48.0413 114.768 46.359 115.661 44.3195C116.555 42.2799 116.74 40.0003 116.189 37.8431C115.637 35.6858 114.381 33.7749 112.618 32.4142C110.856 31.0536 108.689 30.3212 106.462 30.3337H106.457ZM39.391 28.0877C37.1978 27.606 35.3928 27.947 34.2298 28.9071C33.0859 29.8514 32.6143 31.3521 32.9668 33.1059C30.8599 32.6831 29.1253 33.033 27.9954 33.9672C26.8244 34.9355 26.3565 36.487 26.7551 38.295C26.7848 38.4299 26.9182 38.5151 27.0531 38.4853C27.1879 38.4556 27.2731 38.3222 27.2434 38.1874C26.8767 36.5241 27.3155 35.1782 28.314 34.3526C29.3207 33.5202 30.9496 33.1724 33.0453 33.6333C33.1465 33.6555 33.2509 33.6131 33.3078 33.5265L33.4465 33.3158C33.4836 33.2593 33.4963 33.1902 33.4817 33.1242C33.1124 31.461 33.5499 30.1168 34.5481 29.2927C35.5547 28.4617 37.1849 28.1151 39.2837 28.5761C39.4186 28.6057 39.5519 28.5204 39.5816 28.3855C39.6112 28.2506 39.5259 28.1173 39.391 28.0877ZM15.6254 33.2852C16.7884 32.3236 18.5934 31.9812 20.7868 32.4629C20.9216 32.4925 21.0069 32.6259 20.9773 32.7607C20.9477 32.8956 20.8144 32.9809 20.6795 32.9513C18.5809 32.4903 16.9506 32.8382 15.944 33.6705C14.9456 34.496 14.5081 35.8417 14.8774 37.505C14.8921 37.571 14.8794 37.6401 14.8422 37.6966L14.7036 37.9073C14.6467 37.9938 14.5422 38.0363 14.441 38.014C12.3451 37.5531 10.7163 37.8997 9.70971 38.7313C8.71132 39.5562 8.27242 40.902 8.63914 42.5682C8.66882 42.703 8.58357 42.8364 8.44872 42.8661C8.31388 42.8958 8.18051 42.8105 8.15083 42.6757C7.75231 40.865 8.22006 39.3135 9.39124 38.3458C10.5212 37.4123 12.2558 37.0638 14.3625 37.4866C14.0101 35.7328 14.4817 34.2309 15.6254 33.2852ZM33.9012 44.4517C31.7079 43.9699 29.9028 44.3124 28.7399 45.274C27.5961 46.2196 27.1246 47.7216 27.477 49.4754C25.3703 49.0526 23.6356 49.4011 22.5057 50.3346C21.3345 51.3023 20.8668 52.8538 21.2653 54.6645C21.295 54.7993 21.4284 54.8846 21.5632 54.8549C21.698 54.8252 21.7833 54.6918 21.7536 54.557C21.3869 52.8908 21.8258 51.5449 22.8242 50.7201C23.8307 49.8885 25.4596 49.5419 27.5555 50.0028C27.6567 50.0251 27.7611 49.9826 27.8181 49.896L27.9567 49.6853C27.9939 49.6288 28.0066 49.5597 27.9919 49.4937C27.6226 47.8305 28.0601 46.4848 29.0585 45.6593C30.0651 44.827 31.6953 44.4791 33.794 44.94C33.9288 44.9696 34.0622 44.8843 34.0918 44.7495C34.1214 44.6146 34.0361 44.4813 33.9012 44.4517ZM50.0543 33.2852C51.2173 32.3236 53.0209 31.9811 55.2116 32.4629C55.3465 32.4926 55.4317 32.6259 55.4021 32.7608C55.3724 32.8956 55.2391 32.9809 55.1042 32.9512C53.0085 32.4903 51.3796 32.8382 50.373 33.6705C49.5131 34.3815 49.0683 35.4783 49.1955 36.8312C50.0833 36.1024 51.2947 35.5461 52.8297 35.1623L59.0697 33.6423C61.7363 32.949 63.0697 31.669 63.0697 29.8023C63.0697 28.789 62.563 27.909 61.5497 27.1623C60.5897 26.4157 58.9097 26.0423 56.5097 26.0423C54.323 26.0423 52.2697 26.3357 50.3497 26.9223C48.4297 27.4557 46.883 28.0957 45.7097 28.8423C44.803 28.149 44.0297 27.3223 43.3897 26.3623C42.7497 25.349 42.4297 24.149 42.4297 22.7623C42.4297 21.3757 42.8297 20.1757 43.6297 19.1623C44.4297 18.0957 45.523 17.2423 46.9097 16.6023C48.3497 15.909 50.0297 15.4023 51.9497 15.0823C53.4595 14.8375 55.0786 14.6863 56.807 14.6288C57.9701 13.6689 59.774 13.3274 61.9656 13.8088C62.1005 13.8384 62.1858 13.9717 62.1562 14.1066C62.1266 14.2414 61.9932 14.3267 61.8584 14.2971C60.1472 13.9213 58.7475 14.0832 57.7433 14.607C57.9703 14.6039 58.1991 14.6023 58.4297 14.6023C64.723 14.6023 69.4697 16.0157 72.6697 18.8423C75.3602 21.1359 76.9382 24.0314 77.4036 27.5287C78.1686 27.984 78.915 28.6659 79.601 29.5729C79.6843 29.6831 79.6626 29.8398 79.5525 29.9231C79.4423 30.0064 79.2856 29.9847 79.2023 29.8745C78.6483 29.1421 78.0644 28.5775 77.4758 28.1694C77.5251 28.7004 77.5497 29.2447 77.5497 29.8023C77.5497 33.5236 76.4035 36.6617 74.1113 39.2166C74.5104 38.9172 74.9631 38.7033 75.4583 38.5833C76.8822 38.2382 78.5946 38.6842 80.3046 39.9857C80.7528 38.2521 81.8318 37.1082 83.273 36.7589C84.7064 36.4114 86.4338 36.8659 88.1579 38.1878C90.3067 37.7358 92.0759 38.0821 93.2224 39.03C94.366 39.9757 94.839 41.4776 94.4892 43.2315C96.5985 42.8087 98.3334 43.157 99.4628 44.0907C100.633 45.0585 101.1 46.6101 100.701 48.4205C100.671 48.5554 100.538 48.6406 100.403 48.6109C100.268 48.5813 100.183 48.4479 100.213 48.313C100.58 46.6466 100.142 45.3009 99.1442 44.4761C98.1384 43.6446 96.5096 43.2979 94.4108 43.7589C94.3096 43.7811 94.2052 43.7386 94.1483 43.6521L94.0097 43.4414C93.9726 43.385 93.9599 43.3161 93.9744 43.2502C94.341 41.5869 93.9023 40.241 92.9037 39.4154C91.9122 38.5955 90.317 38.2457 88.2665 38.6759C88.1781 38.7407 88.0541 38.7416 87.9639 38.6704C86.2771 37.3389 84.659 36.9374 83.3907 37.2448C82.1332 37.5497 81.1528 38.5679 80.7595 40.2286C80.7439 40.2948 80.7019 40.3517 80.6433 40.3863L80.427 40.5138C80.338 40.5663 80.226 40.5587 80.145 40.4946C78.4611 39.1632 76.8444 38.7618 75.5761 39.0692C74.3184 39.3741 73.3366 40.3925 72.9407 42.0533C72.9086 42.1876 72.7738 42.2706 72.6395 42.2385C72.5052 42.2065 72.4223 42.0717 72.4543 41.9374C72.6274 41.2113 72.9085 40.5846 73.2787 40.0714C70.2677 42.9251 65.6647 44.9688 59.4697 46.2023L51.3897 47.8023C50.483 47.3223 49.6297 46.469 48.8297 45.2423C48.0297 43.9623 47.6297 42.469 47.6297 40.7623C47.6297 39.5969 47.8417 38.6434 48.2657 37.902C46.4555 37.6253 45.0403 37.9808 44.1325 38.7313C43.1349 39.556 42.6972 40.9018 43.0639 42.5682C43.0936 42.703 43.0084 42.8364 42.8735 42.8661C42.7387 42.8958 42.6053 42.8105 42.5756 42.6757C42.1772 40.8652 42.6433 39.3136 43.8139 38.3459C44.905 37.4439 46.5611 37.0881 48.5741 37.4463C48.6286 37.3778 48.6855 37.3117 48.7447 37.248C48.4823 35.5967 48.9629 34.1876 50.0543 33.2852ZM69.4601 48.9628C67.9414 47.3109 66.2689 46.5541 64.7675 46.673C63.2908 46.79 62.0464 47.7486 61.3324 49.3881C59.8491 47.8337 58.2295 47.1232 56.7713 47.2387C55.2589 47.3585 53.9901 48.361 53.2853 50.0739C53.2328 50.2016 53.2937 50.3477 53.4214 50.4002C53.5491 50.4527 53.6952 50.3918 53.7477 50.2641C54.396 48.6886 55.5228 47.8391 56.8107 47.7371C58.1097 47.6342 59.6423 48.2859 61.0958 49.8669C61.1664 49.9436 61.2771 49.9685 61.3737 49.9294L61.6066 49.8351C61.6689 49.8099 61.7184 49.7607 61.744 49.6985C62.3922 48.123 63.519 47.2735 64.807 47.1715C66.1059 47.0686 67.6385 47.7203 69.0921 49.3012C69.1855 49.4029 69.3437 49.4095 69.4453 49.3161C69.5469 49.2226 69.5536 49.0645 69.4601 48.9628ZM49.0825 55.8061C48.8606 56.5649 48.7497 57.3903 48.7497 58.2823C48.7497 60.469 49.4163 62.2823 50.7497 63.7223C52.1363 65.109 54.0297 65.8023 56.4297 65.8023C58.8297 65.8023 60.6963 65.109 62.0297 63.7223C63.4163 62.2823 64.1097 60.469 64.1097 58.2823C64.1097 56.0957 63.4163 54.309 62.0297 52.9223C60.6963 51.4823 58.8297 50.7623 56.4297 50.7623C54.0297 50.7623 52.1363 51.4823 50.7497 52.9223C50.0806 53.6181 49.5795 54.4146 49.2462 55.3117C48.1808 54.5916 47.093 54.2743 46.0823 54.3539C44.6049 54.4701 43.3591 55.4286 42.645 57.0682C41.1615 55.5138 39.5406 54.8033 38.0817 54.9188C36.5687 55.0386 35.2998 56.0412 34.5978 57.7543C34.5454 57.8821 34.6065 58.0281 34.7343 58.0805C34.8621 58.1328 35.0081 58.0717 35.0604 57.9439C35.7059 56.3688 36.8325 55.5192 38.1212 55.4172C39.4209 55.3143 40.9549 55.9661 42.4084 57.547C42.4789 57.6237 42.5896 57.6486 42.6862 57.6095L42.9191 57.5152C42.9814 57.49 43.0309 57.4408 43.0565 57.3786C43.7047 55.8033 44.8328 54.9537 46.1215 54.8523C47.0304 54.7808 48.0533 55.0787 49.0825 55.8061ZM88.4806 55.0186C86.9645 53.3636 85.2918 52.6067 83.7896 52.7264C82.3124 52.8441 81.0668 53.8038 80.3527 55.4432C78.8718 53.8863 77.2523 53.1758 75.7935 53.2913C74.2806 53.4111 73.0104 54.4134 72.3055 56.1236C72.2529 56.2512 72.3138 56.3974 72.4414 56.45C72.5691 56.5026 72.7152 56.4418 72.7678 56.3141C73.416 54.7415 74.5441 53.8918 75.833 53.7897C77.1325 53.6868 78.6651 54.3385 80.1157 55.9219C80.1862 55.9989 80.2971 56.024 80.3938 55.9848L80.6267 55.8905C80.689 55.8653 80.7385 55.8161 80.7641 55.7539C81.4123 54.1784 82.5405 53.3275 83.8293 53.2248C85.1288 53.1213 86.6613 53.7729 88.1119 55.3563C88.2051 55.4581 88.3633 55.465 88.4651 55.3718C88.5669 55.2785 88.5738 55.1204 88.4806 55.0186ZM92.5587 30.7886C94.6546 30.3277 96.2835 30.6742 97.2901 31.5059C98.2885 32.3307 98.7274 33.6766 98.3606 35.3428C98.3461 35.4086 98.3589 35.4776 98.3959 35.5339L98.5346 35.7446C98.5915 35.8312 98.6959 35.8736 98.7971 35.8514C100.896 35.3904 102.525 35.7371 103.531 36.568C104.528 37.3921 104.966 38.7365 104.599 40.4C104.569 40.5348 104.655 40.6682 104.789 40.6979C104.924 40.7276 105.058 40.6424 105.087 40.5076C105.486 38.6997 105.02 37.1495 103.849 36.1825C102.72 35.2495 100.985 34.9012 98.8754 35.3241C99.2253 33.5676 98.7524 32.0655 97.6085 31.1204C96.4455 30.1595 94.6419 29.8185 92.4513 30.3003C92.3165 30.3299 92.2312 30.4633 92.2609 30.5981C92.2905 30.733 92.4239 30.8183 92.5587 30.7886Z" fill="url(#paint0_linear_114_19288)"/>
<path d="M104.555 30.5167L104.318 30.5978C104.359 30.716 104.48 30.7861 104.603 30.762L104.555 30.5167ZM106.457 30.3337L106.456 30.5837H106.457V30.3337ZM96.4643 24.733L96.4635 24.983L96.4641 24.983L96.4643 24.733ZM91.7564 26.1471L91.5127 26.2026C91.531 26.2828 91.5874 26.3488 91.6637 26.3792C91.7401 26.4097 91.8265 26.4007 91.8949 26.3552L91.7564 26.1471ZM89.9257 22.4995L89.7355 22.6617L89.7355 22.6617L89.9257 22.4995ZM82.5725 19.5394L82.5972 19.7882L82.5972 19.7882L82.5725 19.5394ZM78.7251 20.9013L78.4757 20.9187C78.4819 21.0072 78.5346 21.0859 78.6142 21.1253C78.6937 21.1647 78.7882 21.159 78.8624 21.1102L78.7251 20.9013ZM76.1048 15.3126L76.2777 15.132L76.2777 15.132L76.1048 15.3126ZM70.4073 12.9383L70.4138 12.6883H70.4073V12.9383ZM70.1633 12.9383L69.9134 12.9329C69.9119 13.0001 69.9376 13.0651 69.9846 13.1132C70.0317 13.1612 70.0961 13.1883 70.1633 13.1883V12.9383ZM69.3483 8.38957L69.1158 8.48145L69.1158 8.48145L69.3483 8.38957ZM66.8335 4.51259L66.6548 4.68743L66.6548 4.68743L66.8335 4.51259ZM63.0122 1.91389L62.9153 2.14433L62.9153 2.14433L63.0122 1.91389ZM53.9524 1.91389L53.8554 1.68344L53.8554 1.68344L53.9524 1.91389ZM47.6162 8.38957L47.8488 8.48145L47.8488 8.48145L47.6162 8.38957ZM46.8013 12.9383V13.1883C46.8685 13.1883 46.9329 13.1612 46.9799 13.1132C47.027 13.0651 47.0527 13.0001 47.0512 12.9329L46.8013 12.9383ZM46.5573 12.9383V12.6882L46.5508 12.6884L46.5573 12.9383ZM40.8597 15.3126L40.6869 15.132L40.6869 15.132L40.8597 15.3126ZM38.2394 20.9013L38.1022 21.1102C38.1764 21.159 38.2709 21.1647 38.3504 21.1253C38.43 21.0859 38.4826 21.0072 38.4888 20.9187L38.2394 20.9013ZM34.3921 19.5394L34.3673 19.7882L34.3673 19.7882L34.3921 19.5394ZM30.3518 20.1159L30.2584 19.884L30.2584 19.884L30.3518 20.1159ZM27.0389 22.4995L27.2291 22.6617L27.2291 22.6617L27.0389 22.4995ZM25.2081 26.1471L25.0704 26.3557C25.1389 26.4009 25.2251 26.4096 25.3012 26.3791C25.3773 26.3485 25.4336 26.2826 25.4519 26.2026L25.2081 26.1471ZM21.5842 24.8017L21.616 24.5538L21.616 24.5538L21.5842 24.8017ZM17.738 25.1886L17.6575 24.9519L17.6575 24.9519L17.738 25.1886ZM14.4546 27.2287L14.2782 27.0516L14.2782 27.0516L14.4546 27.2287ZM12.4042 30.5056L12.3559 30.7509C12.4785 30.775 12.6 30.705 12.6406 30.5869L12.4042 30.5056ZM10.5077 30.3226L10.5071 30.5726L10.5082 30.5726L10.5077 30.3226ZM4.35939 32.4204L4.51272 32.6178L4.51272 32.6178L4.35939 32.4204ZM0.804263 37.8576L0.561889 37.7963L0.804263 37.8576ZM1.34829 44.3311L1.11954 44.432L1.11954 44.432L1.34829 44.3311ZM5.761 49.0988L6.01093 49.0929C6.00881 49.0029 5.95851 48.9211 5.87922 48.8785L5.761 49.0988ZM13.3081 57.3889L13.5439 57.306C13.5123 57.216 13.4321 57.1518 13.3373 57.1406L13.3081 57.3889ZM17.6419 62.2526L17.5325 62.4774L17.5325 62.4774L17.6419 62.2526ZM24.1434 62.6624L24.3418 62.5103C24.2766 62.4253 24.1646 62.3913 24.0631 62.4257L24.1434 62.6624ZM30.2737 65.9865L30.2545 66.2357L30.2545 66.2357L30.2737 65.9865ZM33.8074 65.5147L33.8913 65.7502L33.8913 65.7502L33.8074 65.5147ZM36.842 63.6439L37.0147 63.4632C36.9181 63.3709 36.766 63.3708 36.6694 63.4631L36.842 63.6439ZM42.4358 66.0065L42.4267 66.2563L42.4267 66.2563L42.4358 66.0065ZM48.0472 64.1731L48.2021 64.3693C48.2735 64.3129 48.3087 64.2221 48.2938 64.1323L48.0472 64.1731ZM48.035 64.0996L47.7882 64.1394L47.7884 64.1404L48.035 64.0996ZM48.1203 63.869L48.2818 64.0598L48.2818 64.0598L48.1203 63.869ZM48.3158 63.6945L48.139 63.5177L48.139 63.5177L48.3158 63.6945ZM48.5703 63.6337L48.4925 63.8713L48.4926 63.8713L48.5703 63.6337ZM48.7396 63.8332L48.9867 63.7952L48.9867 63.7952L48.7396 63.8332ZM52.1035 69.925L51.9397 70.1139L51.9397 70.1139L52.1035 69.925ZM58.6098 72.3938L58.6071 72.6438L58.6071 72.6438L58.6098 72.3938ZM58.8568 72.6335L58.607 72.6436C58.6126 72.7811 58.7281 72.8882 58.8656 72.8834L58.8568 72.6335ZM64.094 70.9696L63.957 70.7605L63.957 70.7605L64.094 70.9696ZM68.1837 65.6513L67.9474 65.5696L67.9464 65.5725L68.1837 65.6513ZM68.6162 63.8768L68.7805 63.6884C68.7115 63.6283 68.6153 63.6106 68.5295 63.6423C68.4437 63.6741 68.3821 63.7501 68.3688 63.8406L68.6162 63.8768ZM68.8325 64.0654L68.6681 64.2539L68.6743 64.259L68.8325 64.0654ZM74.2723 66.0117L74.2718 66.2617L74.2722 66.2617L74.2723 66.0117ZM80.1835 63.6439L80.3562 63.4631C80.2596 63.3708 80.1075 63.3708 80.0109 63.4631L80.1835 63.6439ZM83.2168 65.5145L83.3008 65.279L83.3008 65.279L83.2168 65.5145ZM86.7491 65.9862L86.7684 66.2354L86.7684 66.2354L86.7491 65.9862ZM90.1669 64.977L90.2861 65.1968L90.2861 65.1968L90.1669 64.977ZM92.8766 62.6624L92.9569 62.4257C92.8554 62.3912 92.7433 62.4253 92.6782 62.5103L92.8766 62.6624ZM99.3781 62.2526L99.4875 62.4774L99.4875 62.4774L99.3781 62.2526ZM103.712 57.3889L103.683 57.1406C103.588 57.1518 103.508 57.216 103.476 57.306L103.712 57.3889ZM111.259 49.0988L111.14 48.8788C111.061 48.9214 111.011 49.0031 111.009 49.0929L111.259 49.0988ZM115.661 44.3195L115.89 44.4198L115.89 44.4198L115.661 44.3195ZM116.189 37.8431L116.431 37.7811L116.431 37.7811L116.189 37.8431ZM112.618 32.4142L112.771 32.2164L112.771 32.2164L112.618 32.4142ZM106.462 30.3337V30.5837L106.464 30.5837L106.462 30.3337ZM34.2298 28.9071L34.0706 28.7143L34.0706 28.7143L34.2298 28.9071ZM39.391 28.0877L39.3374 28.3319L39.3374 28.3319L39.391 28.0877ZM32.9668 33.1059L32.9176 33.351C32.9996 33.3674 33.0844 33.3418 33.1436 33.2826C33.2027 33.2234 33.2283 33.1386 33.2119 33.0566L32.9668 33.1059ZM27.9954 33.9672L28.1547 34.1599L28.1547 34.1599L27.9954 33.9672ZM26.7551 38.295L26.511 38.3488L26.511 38.3488L26.7551 38.295ZM27.2434 38.1874L26.9992 38.2412L26.9992 38.2412L27.2434 38.1874ZM28.314 34.3526L28.4733 34.5452L28.4733 34.5452L28.314 34.3526ZM33.0453 33.6333L33.099 33.3891L33.099 33.3891L33.0453 33.6333ZM33.3078 33.5265L33.5167 33.6639L33.5167 33.6639L33.3078 33.5265ZM33.4465 33.3158L33.2376 33.1784L33.2376 33.1784L33.4465 33.3158ZM33.4817 33.1242L33.2376 33.1784L33.2376 33.1784L33.4817 33.1242ZM34.5481 29.2927L34.3889 29.0999L34.3889 29.0999L34.5481 29.2927ZM39.2837 28.5761L39.2301 28.8202L39.2301 28.8202L39.2837 28.5761ZM39.5816 28.3855L39.3374 28.3319L39.3374 28.3319L39.5816 28.3855ZM20.7868 32.4629L20.7331 32.7071L20.7331 32.7071L20.7868 32.4629ZM15.6254 33.2852L15.4661 33.0925L15.4661 33.0925L15.6254 33.2852ZM20.9773 32.7607L21.2215 32.8143L21.2215 32.8143L20.9773 32.7607ZM20.6795 32.9513L20.6259 33.1954L20.6259 33.1954L20.6795 32.9513ZM15.944 33.6705L16.1033 33.8632L16.1033 33.8632L15.944 33.6705ZM14.8774 37.505L15.1215 37.4508L15.1215 37.4508L14.8774 37.505ZM14.8422 37.6966L15.0511 37.834L15.0511 37.834L14.8422 37.6966ZM14.7036 37.9073L14.9124 38.0447L14.9124 38.0447L14.7036 37.9073ZM14.441 38.014L14.3873 38.2582L14.3873 38.2582L14.441 38.014ZM9.70971 38.7313L9.55047 38.5386L9.55047 38.5386L9.70971 38.7313ZM8.63914 42.5682L8.39499 42.6219L8.39499 42.6219L8.63914 42.5682ZM8.44872 42.8661L8.50246 43.1103L8.50246 43.1103L8.44872 42.8661ZM8.15083 42.6757L7.90667 42.7294L7.90667 42.7294L8.15083 42.6757ZM9.39124 38.3458L9.23201 38.1531L9.23201 38.1531L9.39124 38.3458ZM14.3625 37.4866L14.3133 37.7317C14.3953 37.7482 14.4802 37.7225 14.5393 37.6634C14.5985 37.6042 14.6241 37.5194 14.6076 37.4373L14.3625 37.4866ZM28.7399 45.274L28.5806 45.0813L28.5806 45.0813L28.7399 45.274ZM33.9012 44.4517L33.9549 44.2075L33.9549 44.2075L33.9012 44.4517ZM27.477 49.4754L27.4278 49.7205C27.5098 49.7369 27.5946 49.7113 27.6538 49.6521C27.7129 49.593 27.7386 49.5081 27.7221 49.4261L27.477 49.4754ZM22.5057 50.3346L22.6649 50.5274L22.6649 50.5274L22.5057 50.3346ZM21.2653 54.6645L21.5095 54.6107L21.5095 54.6107L21.2653 54.6645ZM21.5632 54.8549L21.5095 54.6107L21.5095 54.6107L21.5632 54.8549ZM21.7536 54.557L21.9978 54.5032L21.9978 54.5032L21.7536 54.557ZM22.8242 50.7201L22.6649 50.5274L22.6649 50.5274L22.8242 50.7201ZM27.5555 50.0028L27.5018 50.247L27.5018 50.247L27.5555 50.0028ZM27.8181 49.896L28.0269 50.0335L28.0269 50.0335L27.8181 49.896ZM27.9567 49.6853L27.7478 49.5479L27.7478 49.5479L27.9567 49.6853ZM27.9919 49.4937L28.236 49.4395L28.236 49.4395L27.9919 49.4937ZM29.0585 45.6593L29.2178 45.852L29.2178 45.852L29.0585 45.6593ZM33.794 44.94L33.8476 44.6958L33.8476 44.6958L33.794 44.94ZM34.0918 44.7495L33.8476 44.6958L33.8476 44.6959L34.0918 44.7495ZM55.2116 32.4629L55.1579 32.7071L55.1579 32.7071L55.2116 32.4629ZM50.0543 33.2852L50.2137 33.4779L50.2137 33.4779L50.0543 33.2852ZM55.4021 32.7608L55.1579 32.7071L55.1579 32.7071L55.4021 32.7608ZM55.1042 32.9512L55.1579 32.7071L55.1579 32.7071L55.1042 32.9512ZM50.373 33.6705L50.5323 33.8632L50.5323 33.8632L50.373 33.6705ZM49.1955 36.8312L48.9466 36.8546C48.9552 36.9467 49.014 37.0264 49.0993 37.062C49.1847 37.0976 49.2827 37.0831 49.3541 37.0245L49.1955 36.8312ZM52.8297 35.1623L52.7705 34.9194L52.769 34.9198L52.8297 35.1623ZM59.0697 33.6423L59.1288 33.8852L59.1326 33.8843L59.0697 33.6423ZM61.5497 27.1623L61.3961 27.3597L61.4014 27.3636L61.5497 27.1623ZM50.3497 26.9223L50.4166 27.1633L50.4227 27.1614L50.3497 26.9223ZM45.7097 28.8423L45.5578 29.0409C45.6411 29.1046 45.7554 29.1096 45.8439 29.0532L45.7097 28.8423ZM43.3897 26.3623L43.1782 26.4959L43.1816 26.501L43.3897 26.3623ZM43.6297 19.1623L43.8259 19.3173L43.8297 19.3123L43.6297 19.1623ZM46.9097 16.6023L47.0144 16.8293L47.0181 16.8276L46.9097 16.6023ZM51.9497 15.0823L51.9096 14.8355L51.9086 14.8357L51.9497 15.0823ZM56.807 14.6288L56.8153 14.8787C56.8705 14.8768 56.9235 14.8568 56.9661 14.8216L56.807 14.6288ZM61.9656 13.8088L61.912 14.0529L61.912 14.0529L61.9656 13.8088ZM62.1562 14.1066L61.912 14.0529L61.912 14.0529L62.1562 14.1066ZM61.8584 14.2971L61.8048 14.5413L61.8048 14.5413L61.8584 14.2971ZM57.7433 14.607L57.6277 14.3853C57.525 14.4388 57.4725 14.5559 57.5009 14.6681C57.5292 14.7804 57.6309 14.8585 57.7467 14.8569L57.7433 14.607ZM72.6697 18.8423L72.5041 19.0297L72.5075 19.0326L72.6697 18.8423ZM77.4036 27.5287L77.1558 27.5617C77.1659 27.6374 77.2101 27.7044 77.2758 27.7435L77.4036 27.5287ZM79.601 29.5729L79.4017 29.7237L79.4017 29.7237L79.601 29.5729ZM79.2023 29.8745L79.0029 30.0253L79.0029 30.0253L79.2023 29.8745ZM77.4758 28.1694L77.6183 27.964C77.5384 27.9086 77.4337 27.9045 77.3498 27.9535C77.2658 28.0025 77.2179 28.0957 77.2269 28.1925L77.4758 28.1694ZM74.1113 39.2166L73.9252 39.0497C73.8393 39.1454 73.8401 39.2907 73.9269 39.3855C74.0138 39.4803 74.1584 39.4938 74.2613 39.4166L74.1113 39.2166ZM75.4583 38.5833L75.3995 38.3403L75.3994 38.3403L75.4583 38.5833ZM80.3046 39.9857L80.1532 40.1846C80.2198 40.2353 80.3074 40.2493 80.3865 40.2219C80.4656 40.1945 80.5257 40.1293 80.5466 40.0482L80.3046 39.9857ZM83.273 36.7589L83.3318 37.0019L83.3318 37.0019L83.273 36.7589ZM88.1579 38.1878L88.0057 38.3862C88.0636 38.4306 88.138 38.4475 88.2093 38.4324L88.1579 38.1878ZM93.2224 39.03L93.3817 38.8374L93.3817 38.8374L93.2224 39.03ZM94.4892 43.2315L94.244 43.1826C94.2277 43.2646 94.2534 43.3493 94.3125 43.4084C94.3716 43.4675 94.4564 43.4931 94.5383 43.4767L94.4892 43.2315ZM99.4628 44.0907L99.6221 43.8981L99.6221 43.8981L99.4628 44.0907ZM100.701 48.4205L100.945 48.4743L100.945 48.4743L100.701 48.4205ZM100.213 48.313L100.457 48.3668L100.457 48.3668L100.213 48.313ZM99.1442 44.4761L99.3035 44.2834L99.3035 44.2834L99.1442 44.4761ZM94.4108 43.7589L94.3572 43.5147L94.3572 43.5147L94.4108 43.7589ZM94.1483 43.6521L93.9395 43.7895L93.9395 43.7895L94.1483 43.6521ZM94.0097 43.4414L93.8008 43.5788L93.8008 43.5788L94.0097 43.4414ZM93.9744 43.2502L94.2185 43.304L94.2185 43.304L93.9744 43.2502ZM92.9037 39.4154L92.7444 39.608L92.7444 39.608L92.9037 39.4154ZM88.2665 38.6759L88.2152 38.4312C88.1803 38.4385 88.1474 38.4532 88.1187 38.4743L88.2665 38.6759ZM87.9639 38.6704L88.1188 38.4741L88.1188 38.4741L87.9639 38.6704ZM83.3907 37.2448L83.4496 37.4878L83.4496 37.4878L83.3907 37.2448ZM80.7595 40.2286L81.0028 40.2862L81.0028 40.2862L80.7595 40.2286ZM80.6433 40.3863L80.7703 40.6016L80.7703 40.6016L80.6433 40.3863ZM80.427 40.5138L80.554 40.7292L80.554 40.7292L80.427 40.5138ZM80.145 40.4946L80.3 40.2985L80.3 40.2985L80.145 40.4946ZM75.5761 39.0692L75.635 39.3122L75.635 39.3122L75.5761 39.0692ZM72.9407 42.0533L73.1839 42.1113L73.1839 42.1113L72.9407 42.0533ZM72.6395 42.2385L72.5815 42.4817L72.5815 42.4817L72.6395 42.2385ZM72.4543 41.9374L72.2111 41.8794L72.2111 41.8794L72.4543 41.9374ZM73.2787 40.0714L73.4815 40.2177C73.557 40.1131 73.5404 39.9682 73.4433 39.8832C73.3462 39.7983 73.2004 39.8012 73.1067 39.89L73.2787 40.0714ZM59.4697 46.2023L59.5182 46.4476L59.5185 46.4475L59.4697 46.2023ZM51.3897 47.8023L51.2727 48.0233C51.3234 48.0501 51.3819 48.0587 51.4382 48.0476L51.3897 47.8023ZM48.8297 45.2423L48.6176 45.3748L48.6203 45.3789L48.8297 45.2423ZM48.2657 37.902L48.4827 38.0261C48.5236 37.9546 48.5267 37.8675 48.4908 37.7933C48.455 37.7191 48.3849 37.6673 48.3035 37.6548L48.2657 37.902ZM44.1325 38.7313L43.9732 38.5386L43.9732 38.5386L44.1325 38.7313ZM43.0639 42.5682L43.3081 42.5145L43.3081 42.5145L43.0639 42.5682ZM42.8735 42.8661L42.9273 43.1103L42.9273 43.1103L42.8735 42.8661ZM42.5756 42.6757L42.3315 42.7294L42.3315 42.7294L42.5756 42.6757ZM43.8139 38.3459L43.6546 38.1532L43.6546 38.1532L43.8139 38.3459ZM48.5741 37.4463L48.5303 37.6924C48.6206 37.7085 48.7125 37.6738 48.7696 37.602L48.5741 37.4463ZM48.7447 37.248L48.9278 37.4182C48.9802 37.3619 49.0037 37.2846 48.9916 37.2087L48.7447 37.248ZM64.7675 46.673L64.7477 46.4238L64.7477 46.4238L64.7675 46.673ZM69.4601 48.9628L69.6442 48.7936L69.6442 48.7936L69.4601 48.9628ZM61.3324 49.3881L61.1516 49.5607C61.2094 49.6213 61.2937 49.6489 61.3761 49.6342C61.4586 49.6196 61.5282 49.5647 61.5617 49.4879L61.3324 49.3881ZM56.7713 47.2387L56.7515 46.9894L56.7515 46.9894L56.7713 47.2387ZM53.2853 50.0739L53.5165 50.169L53.5165 50.169L53.2853 50.0739ZM53.4214 50.4002L53.5165 50.169L53.5165 50.169L53.4214 50.4002ZM53.7477 50.2641L53.5165 50.169L53.5165 50.169L53.7477 50.2641ZM56.8107 47.7371L56.8305 47.9863L56.8305 47.9863L56.8107 47.7371ZM61.0958 49.8669L60.9118 50.0361L60.9118 50.0361L61.0958 49.8669ZM61.3737 49.9294L61.4675 50.1611L61.4675 50.1611L61.3737 49.9294ZM61.6066 49.8351L61.5128 49.6034L61.5128 49.6034L61.6066 49.8351ZM61.744 49.6985L61.5128 49.6034L61.5128 49.6034L61.744 49.6985ZM64.807 47.1715L64.8267 47.4207L64.8267 47.4207L64.807 47.1715ZM69.0921 49.3012L69.2761 49.132L69.2761 49.132L69.0921 49.3012ZM69.4453 49.3161L69.2761 49.132L69.2761 49.132L69.4453 49.3161ZM49.0825 55.8061L49.3224 55.8762C49.3524 55.7737 49.3139 55.6635 49.2267 55.6019L49.0825 55.8061ZM50.7497 63.7223L50.5661 63.8923L50.5729 63.8991L50.7497 63.7223ZM62.0297 63.7223L61.8496 63.5489L61.8495 63.549L62.0297 63.7223ZM62.0297 52.9223L61.8461 53.0923L61.8529 53.0991L62.0297 52.9223ZM50.7497 52.9223L50.5696 52.7489L50.5695 52.749L50.7497 52.9223ZM49.2462 55.3117L49.1061 55.5189C49.1697 55.5618 49.2495 55.5732 49.3225 55.5498C49.3955 55.5264 49.4538 55.4707 49.4805 55.3988L49.2462 55.3117ZM46.0823 54.3539L46.0626 54.1046L46.0626 54.1046L46.0823 54.3539ZM42.645 57.0682L42.4641 57.2408C42.522 57.3014 42.6063 57.329 42.6887 57.3144C42.7711 57.2997 42.8408 57.2448 42.8742 57.168L42.645 57.0682ZM38.0817 54.9188L38.062 54.6696L38.062 54.6696L38.0817 54.9188ZM34.5978 57.7543L34.8291 57.8491L34.8291 57.8491L34.5978 57.7543ZM34.7343 58.0805L34.8291 57.8491L34.8291 57.8491L34.7343 58.0805ZM35.0604 57.9439L34.8291 57.8491L34.8291 57.8491L35.0604 57.9439ZM38.1212 55.4172L38.1015 55.168L38.1015 55.168L38.1212 55.4172ZM42.4084 57.547L42.5924 57.3778L42.5924 57.3778L42.4084 57.547ZM42.6862 57.6095L42.78 57.8413L42.78 57.8413L42.6862 57.6095ZM42.9191 57.5152L42.8253 57.2835L42.8253 57.2835L42.9191 57.5152ZM43.0565 57.3786L42.8253 57.2835L42.8253 57.2835L43.0565 57.3786ZM46.1215 54.8523L46.1019 54.6031L46.1019 54.6031L46.1215 54.8523ZM83.7896 52.7264L83.7697 52.4772L83.7697 52.4772L83.7896 52.7264ZM88.4806 55.0186L88.2962 55.1874L88.2962 55.1874L88.4806 55.0186ZM80.3527 55.4432L80.1716 55.6155C80.2293 55.6762 80.3137 55.7039 80.3962 55.6894C80.4787 55.6748 80.5485 55.6198 80.5819 55.543L80.3527 55.4432ZM75.7935 53.2913L75.8132 53.5405L75.8132 53.5405L75.7935 53.2913ZM72.3055 56.1236L72.0744 56.0283L72.0744 56.0283L72.3055 56.1236ZM72.4414 56.45L72.3461 56.6811L72.3462 56.6811L72.4414 56.45ZM72.7678 56.3141L72.999 56.4094L72.999 56.4094L72.7678 56.3141ZM75.833 53.7897L75.8527 54.039L75.8527 54.039L75.833 53.7897ZM80.1157 55.9219L80.3 55.7531L80.3 55.7531L80.1157 55.9219ZM80.3938 55.9848L80.4876 56.2165L80.4876 56.2165L80.3938 55.9848ZM80.6267 55.8905L80.5329 55.6588L80.5329 55.6588L80.6267 55.8905ZM80.7641 55.7539L80.5329 55.6588L80.5329 55.6588L80.7641 55.7539ZM83.8293 53.2248L83.8094 52.9756L83.8094 52.9756L83.8293 53.2248ZM88.1119 55.3563L87.9275 55.5252L87.9275 55.5252L88.1119 55.3563ZM97.2901 31.5059L97.1308 31.6986L97.1308 31.6986L97.2901 31.5059ZM92.5587 30.7886L92.6124 31.0328L92.6124 31.0328L92.5587 30.7886ZM98.3606 35.3428L98.1165 35.289L98.1165 35.289L98.3606 35.3428ZM98.3959 35.5339L98.6048 35.3965L98.6048 35.3965L98.3959 35.5339ZM98.5346 35.7446L98.7434 35.6072L98.7434 35.6072L98.5346 35.7446ZM98.7971 35.8514L98.7434 35.6072L98.7434 35.6072L98.7971 35.8514ZM103.531 36.568L103.69 36.3753L103.69 36.3753L103.531 36.568ZM104.599 40.4L104.843 40.4538L104.843 40.4538L104.599 40.4ZM105.087 40.5076L105.331 40.5614L105.331 40.5614L105.087 40.5076ZM103.849 36.1825L103.69 36.3753L103.69 36.3753L103.849 36.1825ZM98.8754 35.3241L98.6302 35.2752C98.6139 35.3572 98.6396 35.4419 98.6987 35.501C98.7579 35.56 98.8426 35.5856 98.9245 35.5692L98.8754 35.3241ZM97.6085 31.1204L97.7678 30.9277L97.7678 30.9277L97.6085 31.1204ZM92.4513 30.3003L92.3976 30.0561L92.3976 30.0561L92.4513 30.3003ZM92.2609 30.5981L92.0167 30.6518L92.0167 30.6518L92.2609 30.5981ZM104.603 30.762C105.213 30.6423 105.834 30.5826 106.456 30.5837L106.457 30.0837C105.803 30.0825 105.149 30.1454 104.507 30.2714L104.603 30.762ZM101.29 26.5331C102.698 27.5397 103.757 28.9607 104.318 30.5978L104.791 30.4356C104.196 28.6999 103.074 27.1935 101.581 26.1264L101.29 26.5331ZM96.4641 24.983C98.1949 24.9847 99.882 25.5266 101.29 26.5331L101.581 26.1264C100.088 25.0593 98.2995 24.4848 96.4646 24.483L96.4641 24.983ZM91.8949 26.3552C93.2481 25.4552 94.8383 24.9776 96.4635 24.983L96.4652 24.483C94.7409 24.4773 93.0538 24.984 91.618 25.9389L91.8949 26.3552ZM89.7355 22.6617C90.605 23.6812 91.2148 24.8962 91.5127 26.2026L92.0002 26.0915C91.6843 24.7063 91.0378 23.4182 90.1159 22.3372L89.7355 22.6617ZM86.5195 20.3478C87.7625 20.8482 88.866 21.6421 89.7355 22.6617L90.1159 22.3372C89.194 21.2562 88.0241 20.4145 86.7062 19.884L86.5195 20.3478ZM82.5972 19.7882C83.9306 19.6554 85.2764 19.8474 86.5195 20.3478L86.7062 19.884C85.3882 19.3534 83.9614 19.1499 82.5477 19.2906L82.5972 19.7882ZM78.8624 21.1102C79.9824 20.3745 81.2638 19.9209 82.5972 19.7882L82.5477 19.2906C81.134 19.4314 79.7753 19.9123 78.5879 20.6923L78.8624 21.1102ZM75.932 15.4932C77.425 16.9225 78.3319 18.8568 78.4757 20.9187L78.9745 20.8839C78.822 18.698 77.8605 16.6473 76.2777 15.132L75.932 15.4932ZM70.4008 13.1882C72.467 13.2421 74.4389 14.0639 75.932 15.4932L76.2777 15.132C74.6949 13.6167 72.6043 12.7455 70.4138 12.6884L70.4008 13.1882ZM70.1633 13.1883H70.4073V12.6883H70.1633V13.1883ZM69.1158 8.48145C69.6754 9.89736 69.9465 11.4108 69.9134 12.9329L70.4133 12.9438C70.4479 11.3551 70.1649 9.77551 69.5808 8.29768L69.1158 8.48145ZM66.6548 4.68743C67.7195 5.77564 68.5563 7.06554 69.1158 8.48145L69.5808 8.29768C68.9968 6.81985 68.1235 5.47355 67.0122 4.33775L66.6548 4.68743ZM62.9153 2.14433C64.3187 2.73461 65.59 3.59922 66.6548 4.68743L67.0122 4.33775C65.9008 3.20195 64.5739 2.29953 63.1091 1.68344L62.9153 2.14433ZM58.4823 1.25C60.0048 1.25 61.5119 1.55406 62.9153 2.14433L63.1091 1.68344C61.6444 1.06735 60.0713 0.75 58.4823 0.75V1.25ZM54.0493 2.14433C55.4527 1.55406 56.9598 1.25 58.4823 1.25V0.75C56.8932 0.75 55.3202 1.06735 53.8554 1.68344L54.0493 2.14433ZM50.3098 4.68743C51.3745 3.59922 52.6459 2.73461 54.0493 2.14433L53.8554 1.68344C52.3907 2.29953 51.0637 3.20195 49.9524 4.33775L50.3098 4.68743ZM47.8488 8.48145C48.4083 7.06554 49.245 5.77564 50.3098 4.68743L49.9524 4.33775C48.8411 5.47355 47.9678 6.81986 47.3837 8.29768L47.8488 8.48145ZM47.0512 12.9329C47.018 11.4108 47.2892 9.89736 47.8488 8.48145L47.3837 8.29768C46.7997 9.77551 46.5167 11.3551 46.5513 12.9438L47.0512 12.9329ZM46.5573 13.1883H46.8013V12.6883H46.5573V13.1883ZM41.0326 15.4932C42.5256 14.0639 44.4976 13.2421 46.5638 13.1882L46.5508 12.6884C44.3603 12.7455 42.2697 13.6167 40.6869 15.132L41.0326 15.4932ZM38.4888 20.9187C38.6327 18.8568 39.5396 16.9225 41.0326 15.4932L40.6869 15.132C39.104 16.6473 38.1426 18.698 37.99 20.8839L38.4888 20.9187ZM34.3673 19.7882C35.7007 19.9209 36.9822 20.3745 38.1022 21.1102L38.3767 20.6923C37.1892 19.9123 35.8306 19.4314 34.4169 19.2906L34.3673 19.7882ZM30.4451 20.3478C31.6882 19.8474 33.0339 19.6554 34.3673 19.7882L34.4169 19.2906C33.0031 19.1499 31.5763 19.3534 30.2584 19.884L30.4451 20.3478ZM27.2291 22.6617C28.0986 21.6421 29.2021 20.8482 30.4451 20.3478L30.2584 19.884C28.9405 20.4145 27.7706 21.2562 26.8486 22.3372L27.2291 22.6617ZM25.4519 26.2026C25.7498 24.8962 26.3595 23.6813 27.2291 22.6617L26.8486 22.3372C25.9267 23.4182 25.2802 24.7063 24.9644 26.0915L25.4519 26.2026ZM21.5524 25.0497C22.8093 25.211 24.0127 25.6577 25.0704 26.3557L25.3458 25.9384C24.2245 25.1984 22.9486 24.7247 21.616 24.5538L21.5524 25.0497ZM17.8186 25.4253C19.0183 25.0169 20.2954 24.8884 21.5524 25.0497L21.616 24.5538C20.2834 24.3828 18.9293 24.519 17.6575 24.9519L17.8186 25.4253ZM14.6311 27.4057C15.5286 26.5111 16.619 25.8336 17.8186 25.4253L17.6575 24.9519C16.3856 25.3849 15.2297 26.1031 14.2782 27.0516L14.6311 27.4057ZM12.6406 30.5869C13.0528 29.3886 13.7336 28.3004 14.6311 27.4057L14.2782 27.0516C13.3266 28.0001 12.6047 29.1538 12.1678 30.4243L12.6406 30.5869ZM10.5082 30.5726C11.1284 30.5715 11.7473 30.6312 12.3559 30.7509L12.4524 30.2603C11.8117 30.1343 11.1602 30.0714 10.5073 30.0726L10.5082 30.5726ZM4.51272 32.6178C6.22688 31.2867 8.33678 30.5669 10.5071 30.5726L10.5084 30.0726C8.2266 30.0666 6.00829 30.8234 4.20606 32.2229L4.51272 32.6178ZM1.04664 37.9189C1.57856 35.8148 2.79857 33.9489 4.51272 32.6178L4.20606 32.2229C2.40384 33.6224 1.12114 35.5842 0.561889 37.7963L1.04664 37.9189ZM1.57703 44.2303C0.701409 42.2445 0.514715 40.023 1.04664 37.9189L0.561889 37.7963C0.00263483 40.0085 0.198922 42.3442 1.11954 44.432L1.57703 44.2303ZM5.87922 48.8785C3.96696 47.8522 2.45266 46.2161 1.57703 44.2303L1.11954 44.432C2.04015 46.5198 3.63226 48.24 5.64277 49.3191L5.87922 48.8785ZM8.17121 54.485C6.82521 53.0064 6.05812 51.0918 6.01093 49.0929L5.51107 49.1047C5.5611 51.224 6.3744 53.254 7.80148 54.8216L8.17121 54.485ZM13.3373 57.1406C11.3517 56.9065 9.51721 55.9635 8.17121 54.485L7.80148 54.8216C9.22855 56.3891 11.1735 57.3889 13.2788 57.6372L13.3373 57.1406ZM17.7513 62.0278C15.7818 61.0693 14.2699 59.3726 13.5439 57.306L13.0722 57.4718C13.8418 59.6625 15.4446 61.4613 17.5325 62.4774L17.7513 62.0278ZM24.0631 62.4257C21.9889 63.1293 19.7208 62.9864 17.7513 62.0278L17.5325 62.4774C19.6204 63.4936 22.0248 63.6451 24.2237 62.8992L24.0631 62.4257ZM26.9737 64.7575C25.9484 64.2016 25.0516 63.4358 24.3418 62.5103L23.9451 62.8145C24.6976 63.7958 25.6483 64.6076 26.7354 65.1971L26.9737 64.7575ZM30.293 65.7372C29.1301 65.6473 27.9991 65.3135 26.9737 64.7575L26.7354 65.1971C27.8225 65.7865 29.0215 66.1404 30.2545 66.2357L30.293 65.7372ZM33.7234 65.2792C32.6248 65.6711 31.4559 65.8271 30.293 65.7372L30.2545 66.2357C31.4874 66.331 32.7266 66.1656 33.8913 65.7502L33.7234 65.2792ZM36.6694 63.4631C35.8258 64.2686 34.822 64.8874 33.7234 65.2792L33.8913 65.7502C35.0561 65.3348 36.1203 64.6787 37.0147 63.8247L36.6694 63.4631ZM42.445 65.7567C40.4153 65.6823 38.4833 64.8663 37.0147 63.4632L36.6693 63.8247C38.2263 65.3123 40.2747 66.1775 42.4267 66.2563L42.445 65.7567ZM47.8923 63.9768C46.3469 65.1968 44.4163 65.8289 42.445 65.7567L42.4267 66.2563C44.5167 66.3329 46.5636 65.6627 48.2021 64.3693L47.8923 63.9768ZM47.7884 64.1404L47.8005 64.2139L48.2938 64.1323L48.2817 64.0588L47.7884 64.1404ZM47.9589 63.6781C47.825 63.7913 47.7603 63.9664 47.7882 64.1394L48.2818 64.0598L48.2818 64.0598L47.9589 63.6781ZM48.139 63.5177C48.0897 63.5671 48.0337 63.6148 47.9589 63.6781L48.2818 64.0598C48.3538 63.9989 48.426 63.9378 48.4926 63.8713L48.139 63.5177ZM48.6481 63.3961C48.469 63.3375 48.2722 63.3845 48.139 63.5177L48.4925 63.8713L48.4925 63.8713L48.6481 63.3961ZM48.9867 63.7952C48.9581 63.609 48.8272 63.4547 48.6481 63.3961L48.4926 63.8713L48.4926 63.8713L48.9867 63.7952ZM52.2673 69.7362C50.5044 68.2071 49.3418 66.1017 48.9867 63.7952L48.4926 63.8713C48.8656 66.2949 50.0873 68.5072 51.9397 70.1139L52.2673 69.7362ZM58.6125 72.1439C56.279 72.1185 54.0303 71.2652 52.2673 69.7362L51.9397 70.1139C53.7922 71.7206 56.1551 72.6172 58.6071 72.6438L58.6125 72.1439ZM59.1066 72.6234C59.0959 72.3589 58.8798 72.1468 58.6125 72.1439L58.6071 72.6438L58.607 72.6436L59.1066 72.6234ZM63.957 70.7605C62.428 71.7629 60.6596 72.3203 58.8481 72.3837L58.8656 72.8834C60.768 72.8168 62.6253 72.2314 64.2311 71.1787L63.957 70.7605ZM67.9464 65.5725C67.2394 67.7021 65.8336 69.5303 63.957 70.7605L64.2311 71.1787C66.202 69.8867 67.6784 67.9666 68.4209 65.7301L67.9464 65.5725ZM68.3688 63.8406C68.2827 64.4288 68.1416 65.0077 67.9474 65.5696L68.42 65.733C68.6244 65.1415 68.7729 64.5322 68.8636 63.913L68.3688 63.8406ZM68.9967 63.8769L68.7805 63.6884L68.4519 64.0653L68.6682 64.2538L68.9967 63.8769ZM74.2729 65.7617C72.3472 65.7575 70.4819 65.09 68.9906 63.8717L68.6743 64.259C70.2545 65.55 72.2312 66.2572 74.2718 66.2617L74.2729 65.7617ZM80.0109 63.4631C78.4653 64.9396 76.4099 65.7629 74.2725 65.7617L74.2722 66.2617C76.5383 66.263 78.7176 65.39 80.3562 63.8247L80.0109 63.4631ZM83.3008 65.279C82.2027 64.8872 81.1993 64.2685 80.3562 63.4631L80.0109 63.8247C80.9047 64.6786 81.9685 65.3346 83.1328 65.7499L83.3008 65.279ZM86.7299 65.7369C85.5674 65.8268 84.399 65.6708 83.3008 65.279L83.1328 65.7499C84.2971 66.1653 85.5359 66.3307 86.7684 66.2354L86.7299 65.7369ZM90.0477 64.7573C89.0228 65.3132 87.8923 65.647 86.7299 65.7369L86.7684 66.2354C88.0009 66.1401 89.1995 65.7862 90.2861 65.1968L90.0477 64.7573ZM92.6782 62.5103C91.9689 63.4357 91.0726 64.2014 90.0477 64.7573L90.2861 65.1968C91.3728 64.6074 92.323 63.7956 93.075 62.8145L92.6782 62.5103ZM99.2687 62.0278C97.2992 62.9864 95.0312 63.1293 92.9569 62.4257L92.7963 62.8992C94.9952 63.6451 97.3996 63.4936 99.4875 62.4774L99.2687 62.0278ZM103.476 57.306C102.75 59.3726 101.238 61.0693 99.2687 62.0278L99.4875 62.4774C101.575 61.4613 103.178 59.6625 103.948 57.4718L103.476 57.306ZM108.849 54.485C107.503 55.9635 105.668 56.9065 103.683 57.1406L103.741 57.6372C105.847 57.3889 107.791 56.3891 109.219 54.8216L108.849 54.485ZM111.009 49.0929C110.962 51.0918 110.195 53.0064 108.849 54.485L109.219 54.8216C110.646 53.254 111.459 51.224 111.509 49.1047L111.009 49.0929ZM115.432 44.2192C114.561 46.2076 113.051 47.8478 111.14 48.8788L111.378 49.3188C113.386 48.2348 114.975 46.5104 115.89 44.4198L115.432 44.2192ZM115.947 37.905C116.484 40.0082 116.303 42.2307 115.432 44.2192L115.89 44.4198C116.806 42.3291 116.996 39.9924 116.431 37.7811L115.947 37.905ZM112.465 32.6121C114.184 33.9387 115.409 35.8018 115.947 37.905L116.431 37.7811C115.866 35.5699 114.578 33.6111 112.771 32.2164L112.465 32.6121ZM106.464 30.5837C108.635 30.5715 110.747 31.2855 112.465 32.6121L112.771 32.2164C110.964 30.8216 108.743 30.0709 106.461 30.0837L106.464 30.5837ZM106.457 30.5837H106.462V30.0837H106.457V30.5837ZM34.3889 29.0999C35.4737 28.2044 37.1913 27.8605 39.3374 28.3319L39.4446 27.8435C37.2043 27.3515 35.3119 27.6895 34.0706 28.7143L34.3889 29.0999ZM33.2119 33.0566C32.874 31.3752 33.3293 29.9747 34.3889 29.0999L34.0706 28.7143C32.8425 29.7282 32.3547 31.3291 32.7217 33.1551L33.2119 33.0566ZM28.1547 34.1599C29.2086 33.2885 30.8583 32.9378 32.9176 33.351L33.0159 32.8607C30.8615 32.4285 29.0419 32.7776 27.8361 33.7746L28.1547 34.1599ZM26.9992 38.2412C26.6166 36.5054 27.07 35.0568 28.1547 34.1599L27.8361 33.7746C26.5787 34.8142 26.0964 36.4685 26.511 38.3488L26.9992 38.2412ZM26.9992 38.2412L26.9992 38.2412L26.511 38.3488C26.5704 38.6185 26.8372 38.7889 27.1069 38.7295L26.9992 38.2412ZM26.9992 38.2412L26.9992 38.2412L27.1069 38.7295C27.3765 38.67 27.547 38.4032 27.4875 38.1336L26.9992 38.2412ZM28.1547 34.1599C27.07 35.0568 26.6166 36.5054 26.9992 38.2412L27.4875 38.1336C27.1368 36.5429 27.5609 35.2997 28.4733 34.5452L28.1547 34.1599ZM33.099 33.3891C30.9557 32.9178 29.2395 33.263 28.1547 34.1599L28.4733 34.5452C29.4019 33.7775 30.9434 33.427 32.9916 33.8775L33.099 33.3891ZM33.099 33.3891L33.099 33.3891L32.9916 33.8774C33.194 33.922 33.4028 33.837 33.5167 33.6639L33.099 33.3891ZM33.2376 33.1784L33.099 33.3891L33.5167 33.6639L33.6553 33.4532L33.2376 33.1784ZM33.2376 33.1784L33.2376 33.1784L33.6553 33.4532C33.7296 33.3403 33.755 33.202 33.7257 33.07L33.2376 33.1784ZM34.3889 29.0999C33.3043 29.9953 32.8522 31.4426 33.2376 33.1784L33.7257 33.07C33.3725 31.4794 33.7955 30.2382 34.7073 29.4855L34.3889 29.0999ZM39.3374 28.3319C37.1913 27.8605 35.4737 28.2044 34.3889 29.0999L34.7073 29.4855C35.6356 28.719 37.1786 28.3696 39.2301 28.8202L39.3374 28.3319ZM39.3374 28.3319L39.3374 28.3319L39.2301 28.8202C39.4998 28.8795 39.7665 28.7089 39.8257 28.4391L39.3374 28.3319ZM39.3374 28.3319L39.3374 28.3319L39.8257 28.4391C39.885 28.1694 39.7143 27.9028 39.4446 27.8435L39.3374 28.3319ZM20.8404 32.2187C18.5997 31.7266 16.7073 32.0662 15.4661 33.0925L15.7847 33.4779C16.8694 32.581 18.587 32.2357 20.7331 32.7071L20.8404 32.2187ZM21.2215 32.8143C21.2807 32.5446 21.1101 32.278 20.8404 32.2187L20.7331 32.7071L20.7331 32.7071L21.2215 32.8143ZM20.6259 33.1954C20.8956 33.2547 21.1622 33.0841 21.2215 32.8143L20.7331 32.7071L20.7331 32.7071L20.6259 33.1954ZM16.1033 33.8632C17.0318 33.0955 18.5747 32.7449 20.6259 33.1954L20.7331 32.7071C18.587 32.2357 16.8694 32.581 15.7847 33.4779L16.1033 33.8632ZM15.1215 37.4508C14.7683 35.8602 15.1912 34.6174 16.1033 33.8632L15.7847 33.4779C14.7 34.3747 14.2479 35.8233 14.6334 37.5592L15.1215 37.4508ZM15.0511 37.834C15.1254 37.721 15.1508 37.5828 15.1215 37.4508L14.6334 37.5592L14.6334 37.5592L15.0511 37.834ZM14.9124 38.0447L15.0511 37.834L14.6334 37.5592L14.4947 37.7699L14.9124 38.0447ZM14.3873 38.2582C14.5897 38.3027 14.7986 38.2178 14.9124 38.0447L14.4947 37.7699L14.4947 37.7699L14.3873 38.2582ZM9.86894 38.924C10.7974 38.157 12.3389 37.8077 14.3873 38.2582L14.4947 37.7699C12.3514 37.2985 10.6352 37.6424 9.55047 38.5386L9.86894 38.924ZM8.8833 42.5145C8.5325 40.9207 8.95684 39.6776 9.86894 38.924L9.55047 38.5386C8.4658 39.4347 8.01233 40.8834 8.39499 42.6219L8.8833 42.5145ZM8.50246 43.1103C8.77215 43.0509 8.94266 42.7842 8.8833 42.5145L8.39499 42.6219L8.39499 42.6219L8.50246 43.1103ZM7.90667 42.7294C7.96603 42.9991 8.23277 43.1696 8.50246 43.1103L8.39499 42.6219L8.39499 42.6219L7.90667 42.7294ZM9.23201 38.1531C7.97433 39.1922 7.49229 40.8467 7.90667 42.7294L8.39499 42.6219C8.01233 40.8834 8.46578 39.4347 9.55047 38.5386L9.23201 38.1531ZM14.4117 37.2415C12.2576 36.8092 10.4379 37.1568 9.23201 38.1531L9.55047 38.5386C10.6044 37.6678 12.2541 37.3185 14.3133 37.7317L14.4117 37.2415ZM15.4661 33.0925C14.2383 34.1077 13.7505 35.7098 14.1174 37.5359L14.6076 37.4373C14.2697 35.7558 14.7251 34.354 15.7847 33.4779L15.4661 33.0925ZM28.8992 45.4666C29.9839 44.5697 31.7015 44.2245 33.8476 44.6958L33.9549 44.2075C31.7142 43.7154 29.8218 44.055 28.5806 45.0813L28.8992 45.4666ZM27.7221 49.4261C27.3842 47.7446 27.8395 46.3428 28.8992 45.4666L28.5806 45.0813C27.3527 46.0965 26.8649 47.6986 27.2319 49.5246L27.7221 49.4261ZM22.6649 50.5274C23.7189 49.6566 25.3685 49.3073 27.4278 49.7205L27.5262 49.2303C25.372 48.798 23.5524 49.1455 22.3465 50.1419L22.6649 50.5274ZM21.5095 54.6107C21.1268 52.8721 21.5803 51.4235 22.6649 50.5274L22.3465 50.1419C21.0888 51.181 20.6068 52.8355 21.0211 54.7182L21.5095 54.6107ZM21.5095 54.6107L21.5095 54.6107L21.0211 54.7182C21.0805 54.9879 21.3472 55.1584 21.6169 55.099L21.5095 54.6107ZM21.5095 54.6107L21.5095 54.6107L21.6169 55.099C21.8866 55.0397 22.0571 54.7729 21.9978 54.5032L21.5095 54.6107ZM22.6649 50.5274C21.5803 51.4235 21.1268 52.8721 21.5095 54.6107L21.9978 54.5032C21.647 52.9094 22.0713 51.6664 22.9834 50.9128L22.6649 50.5274ZM27.6092 49.7586C25.4659 49.2873 23.7497 49.6312 22.6649 50.5274L22.9834 50.9128C23.9118 50.1458 25.4533 49.7965 27.5018 50.247L27.6092 49.7586ZM27.6092 49.7586L27.6092 49.7586L27.5018 50.247C27.7042 50.2915 27.913 50.2066 28.0269 50.0335L27.6092 49.7586ZM27.7478 49.5479L27.6092 49.7586L28.0269 50.0335L28.1656 49.8227L27.7478 49.5479ZM27.7478 49.5479L27.7478 49.5479L28.1655 49.8227C28.2399 49.7098 28.2653 49.5715 28.236 49.4395L27.7478 49.5479ZM28.8992 45.4666C27.8145 46.3635 27.3624 47.8121 27.7478 49.5479L28.236 49.4395C27.8828 47.8489 28.3057 46.6061 29.2178 45.852L28.8992 45.4666ZM33.8476 44.6958C31.7015 44.2245 29.9839 44.5697 28.8992 45.4666L29.2178 45.852C30.1462 45.0843 31.6892 44.7337 33.7403 45.1842L33.8476 44.6958ZM33.8476 44.6959L33.8476 44.6958L33.7403 45.1842C34.01 45.2434 34.2767 45.0728 34.336 44.8031L33.8476 44.6959ZM33.8476 44.6958L33.8476 44.6958L34.336 44.8031C34.3952 44.5334 34.2246 44.2667 33.9549 44.2075L33.8476 44.6958ZM55.2653 32.2187C53.0272 31.7265 51.1362 32.0663 49.895 33.0925L50.2137 33.4779C51.2984 32.581 53.0146 32.2357 55.1579 32.7071L55.2653 32.2187ZM55.6462 32.8145C55.7056 32.5448 55.535 32.2781 55.2653 32.2187L55.1579 32.7071L55.1579 32.7071L55.6462 32.8145ZM55.0505 33.1954C55.3202 33.2547 55.5869 33.0842 55.6462 32.8145L55.1579 32.7071L55.1579 32.7071L55.0505 33.1954ZM50.5323 33.8632C51.4608 33.0954 53.0024 32.745 55.0505 33.1954L55.1579 32.7071C53.0146 32.2357 51.2984 32.581 50.2137 33.4779L50.5323 33.8632ZM49.4444 36.8078C49.3239 35.5261 49.7444 34.5146 50.5323 33.8632L50.2137 33.4779C49.2818 34.2484 48.8127 35.4304 48.9466 36.8546L49.4444 36.8078ZM49.3541 37.0245C50.2047 36.3262 51.3785 35.7828 52.8903 35.4049L52.769 34.9198C51.2109 35.3093 49.962 35.8785 49.0369 36.638L49.3541 37.0245ZM52.8888 35.4052L59.1288 33.8852L59.0105 33.3994L52.7705 34.9194L52.8888 35.4052ZM59.1326 33.8843C60.4885 33.5317 61.5338 33.0233 62.2428 32.3427C62.9591 31.655 63.3197 30.803 63.3197 29.8023H62.8197C62.8197 30.6683 62.5135 31.3896 61.8965 31.982C61.2722 32.5813 60.3175 33.0596 59.0068 33.4004L59.1326 33.8843ZM63.3197 29.8023C63.3197 28.6903 62.758 27.7421 61.698 26.9611L61.4014 27.3636C62.368 28.0759 62.8197 28.8877 62.8197 29.8023H63.3197ZM61.7031 26.965C60.6733 26.164 58.9195 25.7923 56.5097 25.7923V26.2923C58.8998 26.2923 60.506 26.6673 61.3962 27.3597L61.7031 26.965ZM56.5097 25.7923C54.3004 25.7923 52.2223 26.0887 50.2766 26.6832L50.4227 27.1614C52.317 26.5826 54.3456 26.2923 56.5097 26.2923V25.7923ZM50.2827 26.6814C48.3483 27.2188 46.7765 27.8671 45.5754 28.6314L45.8439 29.0532C46.9895 28.3242 48.511 27.6925 50.4166 27.1632L50.2827 26.6814ZM45.8615 28.6437C44.977 27.9673 44.2226 27.161 43.5977 26.2236L43.1816 26.501C43.8368 27.4837 44.629 28.3307 45.5578 29.0409L45.8615 28.6437ZM43.601 26.2288C42.99 25.2614 42.6797 24.1093 42.6797 22.7623H42.1797C42.1797 24.1887 42.5093 25.4366 43.1783 26.4958L43.601 26.2288ZM42.6797 22.7623C42.6797 21.4274 43.0634 20.2831 43.8259 19.3172L43.4334 19.0074C42.5959 20.0682 42.1797 21.3239 42.1797 22.7623H42.6797ZM43.8297 19.3123C44.6014 18.2834 45.6599 17.4545 47.0144 16.8293L46.8049 16.3753C45.3861 17.0302 44.2579 17.9079 43.4297 19.0123L43.8297 19.3123ZM47.0181 16.8276C48.4327 16.1465 50.0892 15.6458 51.9908 15.3289L51.9086 14.8357C49.9701 15.1588 48.2666 15.6715 46.8012 16.3771L47.0181 16.8276ZM51.9897 15.3291C53.4878 15.0862 55.0962 14.9359 56.8153 14.8787L56.7987 14.3789C55.061 14.4368 53.4312 14.5888 51.9096 14.8355L51.9897 15.3291ZM62.0193 13.5646C59.7804 13.0728 57.8892 13.4116 56.6479 14.436L56.9661 14.8216C58.051 13.9263 59.7676 13.5819 61.912 14.0529L62.0193 13.5646ZM62.4004 14.1602C62.4596 13.8905 62.289 13.6238 62.0193 13.5646L61.912 14.0529L61.912 14.0529L62.4004 14.1602ZM61.8048 14.5413C62.0745 14.6005 62.3411 14.4299 62.4004 14.1602L61.912 14.0529L61.912 14.0529L61.8048 14.5413ZM57.8589 14.8286C58.7973 14.3392 60.1336 14.1742 61.8048 14.5413L61.912 14.0529C60.1609 13.6683 58.6977 13.8272 57.6277 14.3853L57.8589 14.8286ZM57.7467 14.8569C57.9725 14.8539 58.2002 14.8523 58.4297 14.8523V14.3523C58.1979 14.3523 57.968 14.3539 57.7399 14.357L57.7467 14.8569ZM58.4297 14.8523C64.6903 14.8523 69.3673 16.2588 72.5042 19.0297L72.8352 18.6549C69.572 15.7725 64.7557 14.3523 58.4297 14.3523V14.8523ZM72.5075 19.0326C75.1511 21.2862 76.6985 24.1257 77.1558 27.5617L77.6514 27.4957C77.1778 23.937 75.5693 20.9856 72.8318 18.6521L72.5075 19.0326ZM77.2758 27.7435C78.0083 28.1795 78.7315 28.8377 79.4017 29.7237L79.8004 29.4221C79.0986 28.4941 78.329 27.7885 77.5315 27.3139L77.2758 27.7435ZM79.4017 29.7237L79.4017 29.7237L79.7033 30.1225C79.9235 29.9559 79.967 29.6424 79.8004 29.4221L79.4017 29.7237ZM79.4017 29.7237L79.4017 29.7237L79.0029 30.0253C79.1694 30.2456 79.483 30.2891 79.7033 30.1225L79.4017 29.7237ZM79.4017 29.7237C78.8342 28.9734 78.2317 28.3893 77.6183 27.964L77.3334 28.3749C77.897 28.7657 78.4624 29.3107 79.0029 30.0253L79.4017 29.7237ZM77.2269 28.1925C77.2754 28.7155 77.2997 29.2521 77.2997 29.8023H77.7997C77.7997 29.2374 77.7747 28.6853 77.7248 28.1464L77.2269 28.1925ZM77.2997 29.8023C77.2997 33.4676 76.1727 36.5447 73.9252 39.0497L74.2974 39.3836C76.6344 36.7788 77.7997 33.5796 77.7997 29.8023H77.2997ZM75.3994 38.3403C74.8715 38.4683 74.3877 38.6967 73.9613 39.0167L74.2613 39.4166C74.6331 39.1377 75.0547 38.9384 75.5172 38.8263L75.3994 38.3403ZM80.456 39.7867C78.7076 38.4561 76.9192 37.972 75.3995 38.3403L75.5172 38.8263C76.8452 38.5044 78.4816 38.9124 80.1532 40.1846L80.456 39.7867ZM83.2141 36.5159C81.6666 36.891 80.5292 38.1182 80.0626 39.9231L80.5466 40.0482C80.9764 38.3861 81.9971 37.3254 83.3318 37.0019L83.2141 36.5159ZM88.31 37.9894C86.5477 36.6382 84.744 36.1451 83.2141 36.5159L83.3318 37.0019C84.6688 36.6778 86.3198 37.0936 88.0057 38.3862L88.31 37.9894ZM93.3817 38.8374C92.1581 37.8257 90.3028 37.4811 88.1064 37.9432L88.2093 38.4324C90.3107 37.9904 91.9936 38.3385 93.063 39.2227L93.3817 38.8374ZM94.7344 43.2804C95.0986 41.4543 94.6093 39.8524 93.3817 38.8374L93.063 39.2227C94.1228 40.0989 94.5794 41.5009 94.244 43.1826L94.7344 43.2804ZM99.6221 43.8981C98.4166 42.9015 96.5967 42.554 94.44 42.9864L94.5383 43.4767C96.6003 43.0633 98.2502 43.4126 99.3035 44.2834L99.6221 43.8981ZM100.945 48.4743C101.36 46.5919 100.879 44.9374 99.6221 43.8981L99.3035 44.2834C100.388 45.1796 100.84 46.6282 100.457 48.3668L100.945 48.4743ZM100.349 48.8551C100.619 48.9145 100.886 48.744 100.945 48.4743L100.457 48.3668L100.457 48.3668L100.349 48.8551ZM99.9686 48.2593C99.9092 48.529 100.08 48.7957 100.349 48.8551L100.457 48.3668L100.457 48.3668L99.9686 48.2593ZM98.9849 44.6688C99.8962 45.4221 100.319 46.6651 99.9686 48.2593L100.457 48.3668C100.84 46.6282 100.387 45.1796 99.3035 44.2834L98.9849 44.6688ZM94.4644 44.0031C96.5159 43.5525 98.0573 43.9019 98.9849 44.6688L99.3035 44.2834C98.2195 43.3872 96.5033 43.0433 94.3572 43.5147L94.4644 44.0031ZM93.9395 43.7895C94.0533 43.9626 94.2621 44.0475 94.4644 44.0031L94.3572 43.5147L94.3572 43.5147L93.9395 43.7895ZM93.8008 43.5788L93.9395 43.7895L94.3572 43.5147L94.2185 43.304L93.8008 43.5788ZM93.7303 43.1964C93.7012 43.3281 93.7267 43.4661 93.8008 43.5788L94.2185 43.304L94.2185 43.304L93.7303 43.1964ZM92.7444 39.608C93.6568 40.3625 94.0809 41.6057 93.7302 43.1964L94.2185 43.304C94.6012 41.5682 94.1477 40.1196 93.063 39.2227L92.7444 39.608ZM88.3178 38.9206C90.3206 38.5004 91.8298 38.8518 92.7444 39.608L93.063 39.2227C91.9946 38.3393 90.3133 37.9911 88.2152 38.4312L88.3178 38.9206ZM87.809 38.8666C87.9897 39.0092 88.2376 39.007 88.4143 38.8775L88.1187 38.4743L88.1188 38.4741L87.809 38.8666ZM83.4496 37.4878C84.6193 37.2043 86.1601 37.565 87.809 38.8666L88.1188 38.4741C86.3941 37.1127 84.6987 36.6706 83.3318 37.0019L83.4496 37.4878ZM81.0028 40.2862C81.3789 38.6978 82.3012 37.7662 83.4496 37.4878L83.3318 37.0019C81.9651 37.3332 80.9266 38.4379 80.5163 40.171L81.0028 40.2862ZM80.7703 40.6016C80.8875 40.5325 80.9714 40.4186 81.0028 40.2862L80.5163 40.171L80.5163 40.171L80.7703 40.6016ZM80.554 40.7292L80.7703 40.6016L80.5163 40.171L80.3 40.2985L80.554 40.7292ZM79.9899 40.6907C80.1519 40.8188 80.3761 40.8341 80.554 40.7292L80.3 40.2985L80.3 40.2985L79.9899 40.6907ZM75.635 39.3122C76.8047 39.0287 78.344 39.3894 79.9899 40.6907L80.3 40.2985C78.5781 38.9371 76.8841 38.4949 75.5172 38.8263L75.635 39.3122ZM73.1839 42.1113C73.5626 40.5226 74.4863 39.5906 75.635 39.3122L75.5172 38.8263C74.1505 39.1575 73.1106 40.2623 72.6975 41.9954L73.1839 42.1113ZM72.5815 42.4817C72.8501 42.5458 73.1198 42.3799 73.1839 42.1113L72.6975 41.9953L72.6975 41.9954L72.5815 42.4817ZM72.2111 41.8794C72.1471 42.148 72.3129 42.4177 72.5815 42.4817L72.6975 41.9954L72.6975 41.9953L72.2111 41.8794ZM73.076 39.9251C72.6843 40.468 72.3908 41.1257 72.2111 41.8794L72.6975 41.9954C72.864 41.297 73.1327 40.7011 73.4815 40.2177L73.076 39.9251ZM73.1067 39.89C70.1435 42.6985 65.5921 44.7284 59.4208 45.9571L59.5185 46.4475C65.7373 45.2092 70.392 43.1518 73.4507 40.2529L73.1067 39.89ZM59.4211 45.9571L51.3411 47.5571L51.4382 48.0476L59.5182 46.4476L59.4211 45.9571ZM51.5066 47.5814C50.6501 47.1279 49.8252 46.3112 49.0391 45.1058L48.6203 45.3789C49.4341 46.6268 50.3159 47.5168 51.2727 48.0233L51.5066 47.5814ZM49.0417 45.1098C48.2696 43.8746 47.8797 42.4284 47.8797 40.7623H47.3797C47.3797 42.5096 47.7897 44.0501 48.6177 45.3748L49.0417 45.1098ZM47.8797 40.7623C47.8797 39.6252 48.0868 38.7184 48.4827 38.0261L48.0487 37.7779C47.5966 38.5684 47.3797 39.5685 47.3797 40.7623H47.8797ZM44.2918 38.9239C45.1291 38.2317 46.4654 37.8797 48.2279 38.1491L48.3035 37.6548C46.4456 37.3708 44.9514 37.7298 43.9732 38.5386L44.2918 38.9239ZM43.3081 42.5145C42.9572 40.9203 43.3805 39.6773 44.2918 38.9239L43.9732 38.5386C42.8892 39.4347 42.4371 40.8833 42.8198 42.6219L43.3081 42.5145ZM42.9273 43.1103C43.1969 43.0509 43.3675 42.7842 43.3081 42.5145L42.8198 42.6219L42.8198 42.6219L42.9273 43.1103ZM42.3315 42.7294C42.3908 42.9991 42.6576 43.1696 42.9273 43.1103L42.8198 42.6219L42.8198 42.6219L42.3315 42.7294ZM43.6546 38.1532C42.3975 39.1925 41.9172 40.8471 42.3315 42.7294L42.8198 42.6219C42.4371 40.8834 42.8892 39.4347 43.9732 38.5386L43.6546 38.1532ZM48.6178 37.2002C46.5574 36.8336 44.8191 37.1905 43.6546 38.1532L43.9732 38.5386C44.9908 37.6973 46.5648 37.3427 48.5303 37.6924L48.6178 37.2002ZM48.7696 37.602C48.8202 37.5385 48.8729 37.4772 48.9278 37.4182L48.5616 37.0778C48.498 37.1462 48.437 37.2171 48.3785 37.2905L48.7696 37.602ZM49.895 33.0925C48.7242 34.0606 48.224 35.5641 48.4978 37.2872L48.9916 37.2087C48.7406 35.6294 49.2017 34.3146 50.2137 33.4779L49.895 33.0925ZM64.7872 46.9223C66.1873 46.8114 67.7899 47.5155 69.2761 49.132L69.6442 48.7936C68.0929 47.1063 66.3505 46.2969 64.7477 46.4238L64.7872 46.9223ZM61.5617 49.4879C62.2462 47.916 63.4197 47.0306 64.7872 46.9223L64.7477 46.4238C63.1619 46.5494 61.8467 47.5811 61.1032 49.2883L61.5617 49.4879ZM56.791 47.4879C58.1509 47.3802 59.7014 48.0411 61.1516 49.5607L61.5133 49.2155C59.9967 47.6263 58.3081 46.8661 56.7515 46.9894L56.791 47.4879ZM53.5165 50.169C54.1931 48.5247 55.391 47.5988 56.791 47.4879L56.7515 46.9894C55.1268 47.1181 53.7871 48.1974 53.0542 49.9787L53.5165 50.169ZM53.5165 50.169L53.5165 50.169L53.0542 49.9787C52.9491 50.2341 53.0709 50.5263 53.3263 50.6314L53.5165 50.169ZM53.5165 50.169L53.5165 50.169L53.3263 50.6314C53.5817 50.7365 53.8739 50.6146 53.9789 50.3592L53.5165 50.169ZM56.791 47.4879C55.391 47.5988 54.1931 48.5247 53.5165 50.169L53.9789 50.3593C54.5989 48.8526 55.6546 48.0795 56.8305 47.9863L56.791 47.4879ZM61.2799 49.6977C59.7937 48.0812 58.1911 47.377 56.791 47.4879L56.8305 47.9863C58.0282 47.8914 59.491 48.4907 60.9118 50.0361L61.2799 49.6977ZM61.2799 49.6977L61.2799 49.6977L60.9118 50.0361C61.0528 50.1895 61.2743 50.2393 61.4675 50.1611L61.2799 49.6977ZM61.5128 49.6034L61.2799 49.6977L61.4675 50.1611L61.7004 50.0669L61.5128 49.6034ZM61.5128 49.6034L61.5128 49.6034L61.7004 50.0669C61.825 50.0164 61.924 49.9179 61.9752 49.7936L61.5128 49.6034ZM64.7872 46.9223C63.3872 47.0332 62.1893 47.9591 61.5128 49.6034L61.9752 49.7936C62.5951 48.287 63.6508 47.5138 64.8267 47.4207L64.7872 46.9223ZM69.2761 49.132C67.7899 47.5155 66.1873 46.8114 64.7872 46.9223L64.8267 47.4207C66.0245 47.3258 67.4872 47.925 68.908 49.4704L69.2761 49.132ZM69.2761 49.132L69.2761 49.132L68.908 49.4704C69.0949 49.6737 69.4112 49.687 69.6145 49.5001L69.2761 49.132ZM69.2761 49.132L69.2761 49.132L69.6145 49.5001C69.8178 49.3132 69.8311 48.9969 69.6442 48.7936L69.2761 49.132ZM48.9997 58.2823C48.9997 57.4111 49.108 56.6096 49.3224 55.8762L48.8425 55.7359C48.6132 56.5203 48.4997 57.3696 48.4997 58.2823H48.9997ZM50.9331 63.5525C49.6476 62.1641 48.9997 60.4138 48.9997 58.2823H48.4997C48.4997 60.5242 49.1851 62.4006 50.5662 63.8922L50.9331 63.5525ZM56.4297 65.5523C54.0802 65.5523 52.2561 64.8752 50.9264 63.5455L50.5729 63.8991C52.0165 65.3427 53.9791 66.0523 56.4297 66.0523V65.5523ZM61.8495 63.549C60.5744 64.8751 58.7796 65.5523 56.4297 65.5523V66.0523C58.8798 66.0523 60.8183 65.3428 62.2099 63.8956L61.8495 63.549ZM63.8597 58.2823C63.8597 60.411 63.187 62.1601 61.8496 63.5489L62.2097 63.8957C63.6457 62.4046 64.3597 60.527 64.3597 58.2823H63.8597ZM61.8529 53.0991C63.1871 54.4333 63.8597 56.1536 63.8597 58.2823H64.3597C64.3597 56.0377 63.6456 54.1847 62.2064 52.7455L61.8529 53.0991ZM56.4297 51.0123C58.7767 51.0123 60.5705 51.7144 61.8462 53.0922L62.2131 52.7525C60.8222 51.2503 58.8826 50.5123 56.4297 50.5123V51.0123ZM50.9297 53.0957C52.26 51.7143 54.0829 51.0123 56.4297 51.0123V50.5123C53.9764 50.5123 52.0127 51.2503 50.5696 52.7489L50.9297 53.0957ZM49.4805 55.3988C49.8018 54.5341 50.2844 53.7669 50.9299 53.0956L50.5695 52.749C49.8769 53.4693 49.3572 54.2951 49.0118 55.2247L49.4805 55.3988ZM49.3862 55.1046C48.2841 54.3597 47.141 54.0198 46.0626 54.1046L46.1019 54.6031C47.0449 54.5289 48.0774 54.8235 49.1061 55.5189L49.3862 55.1046ZM46.0626 54.1046C44.4761 54.2294 43.1594 55.261 42.4158 56.9684L42.8742 57.168C43.5588 55.5962 44.7337 54.7107 46.1019 54.6031L46.0626 54.1046ZM42.8259 56.8956C41.3091 55.3063 39.6191 54.5463 38.062 54.6696L38.1015 55.168C39.462 55.0603 41.0139 55.7213 42.4641 57.2408L42.8259 56.8956ZM38.062 54.6696C36.4367 54.7982 35.0967 55.8775 34.3664 57.6595L34.8291 57.8491C35.5029 56.2048 36.7007 55.2789 38.1015 55.168L38.062 54.6696ZM34.3664 57.6595C34.2617 57.9151 34.384 58.2071 34.6395 58.3118L34.8291 57.8491L34.8291 57.8491L34.3664 57.6595ZM34.6395 58.3118C34.895 58.4165 35.1871 58.2942 35.2918 58.0387L34.8291 57.8491L34.8291 57.8491L34.6395 58.3118ZM35.2918 58.0387C35.9089 56.5327 36.9643 55.7596 38.1409 55.6664L38.1015 55.168C36.7008 55.2789 35.5029 56.2048 34.8291 57.8491L35.2918 58.0387ZM38.1409 55.6664C39.3395 55.5716 40.8037 56.1709 42.2243 57.7162L42.5924 57.3778C41.1062 55.7613 39.5023 55.0571 38.1015 55.168L38.1409 55.6664ZM42.2243 57.7162C42.3654 57.8696 42.5868 57.9194 42.78 57.8413L42.5924 57.3778L42.5924 57.3778L42.2243 57.7162ZM42.78 57.8413L43.0129 57.747L42.8253 57.2835L42.5924 57.3778L42.78 57.8413ZM43.0129 57.747C43.1375 57.6966 43.2366 57.5981 43.2877 57.4738L42.8253 57.2835L42.8253 57.2835L43.0129 57.747ZM43.2877 57.4738C43.9076 55.9673 44.9645 55.1941 46.1411 55.1015L46.1019 54.6031C44.7011 54.7133 43.5019 55.6392 42.8253 57.2835L43.2877 57.4738ZM46.1411 55.1015C46.9797 55.0356 47.9458 55.3089 48.9382 56.0102L49.2267 55.6019C48.1609 54.8486 47.0811 54.526 46.1019 54.6031L46.1411 55.1015ZM83.8094 52.9756C85.2102 52.864 86.8128 53.5682 88.2962 55.1874L88.6649 54.8497C87.1161 53.159 85.3734 52.3494 83.7697 52.4772L83.8094 52.9756ZM80.5819 55.543C81.2665 53.9712 82.4414 53.0846 83.8094 52.9756L83.7697 52.4772C82.1835 52.6035 80.867 53.6363 80.1235 55.3433L80.5819 55.543ZM75.8132 53.5405C77.1736 53.4328 78.7241 54.0937 80.1716 55.6155L80.5339 55.2709C79.0196 53.6789 77.331 52.9188 75.7738 53.0421L75.8132 53.5405ZM72.5367 56.2189C73.2133 54.5773 74.4125 53.6514 75.8132 53.5405L75.7738 53.0421C74.1488 53.1707 72.8076 54.2495 72.0744 56.0283L72.5367 56.2189ZM72.5367 56.2189L72.5367 56.2189L72.0744 56.0283C71.9692 56.2836 72.0909 56.5759 72.3461 56.6811L72.5367 56.2189ZM72.5367 56.2188L72.5367 56.2189L72.3462 56.6811C72.6015 56.7864 72.8937 56.6647 72.999 56.4094L72.5367 56.2188ZM75.8132 53.5405C74.4125 53.6514 73.2133 54.5773 72.5367 56.2189L72.999 56.4094C73.6187 54.9057 74.6757 54.1321 75.8527 54.039L75.8132 53.5405ZM80.3 55.7531C78.8166 54.1338 77.214 53.4296 75.8132 53.5405L75.8527 54.039C77.051 53.9441 78.5136 54.5432 79.9313 56.0908L80.3 55.7531ZM80.3 55.7531L80.3 55.7531L79.9313 56.0908C80.0723 56.2447 80.2941 56.2949 80.4876 56.2165L80.3 55.7531ZM80.5329 55.6588L80.3 55.7531L80.4876 56.2165L80.7205 56.1223L80.5329 55.6588ZM80.5329 55.6588L80.5329 55.6588L80.7205 56.1223C80.8451 56.0718 80.9441 55.9734 80.9953 55.849L80.5329 55.6588ZM83.8094 52.9756C82.4087 53.0872 81.2095 54.0145 80.5329 55.6588L80.9953 55.849C81.6152 54.3424 82.6724 53.5678 83.8491 53.474L83.8094 52.9756ZM88.2962 55.1874C86.8128 53.5682 85.2102 52.864 83.8094 52.9756L83.8491 53.474C85.0473 53.3786 86.5098 53.9776 87.9275 55.5252L88.2962 55.1874ZM88.2962 55.1874L88.2962 55.1874L87.9275 55.5252C88.1141 55.7288 88.4304 55.7427 88.634 55.5561L88.2962 55.1874ZM88.2962 55.1874L88.2962 55.1874L88.634 55.5561C88.8376 55.3696 88.8514 55.0533 88.6649 54.8497L88.2962 55.1874ZM97.4493 31.3131C96.3646 30.4169 94.6484 30.0731 92.505 30.5444L92.6124 31.0328C94.6609 30.5823 96.2024 30.9316 97.1308 31.6986L97.4493 31.3131ZM98.6048 35.3965C98.9874 33.6579 98.534 32.2093 97.4493 31.3131L97.1308 31.6986C98.0429 32.4522 98.4673 33.6952 98.1165 35.289L98.6048 35.3965ZM98.6048 35.3965L98.6048 35.3965L98.1165 35.289C98.0875 35.4208 98.1129 35.5586 98.1871 35.6713L98.6048 35.3965ZM98.7434 35.6072L98.6048 35.3965L98.1871 35.6713L98.3257 35.882L98.7434 35.6072ZM98.7434 35.6072L98.7434 35.6072L98.3257 35.882C98.4396 36.0551 98.6484 36.14 98.8507 36.0956L98.7434 35.6072ZM103.69 36.3753C102.606 35.4797 100.89 35.1359 98.7434 35.6072L98.8507 36.0956C100.902 35.645 102.444 35.9944 103.371 36.7607L103.69 36.3753ZM104.843 40.4538C105.226 38.7179 104.774 37.2707 103.69 36.3753L103.371 36.7607C104.283 37.5135 104.706 38.755 104.355 40.3461L104.843 40.4538ZM104.843 40.4538L104.843 40.4538L104.355 40.3461C104.295 40.6158 104.466 40.8826 104.736 40.942L104.843 40.4538ZM104.843 40.4538L104.843 40.4538L104.736 40.942C105.005 41.0015 105.272 40.8311 105.331 40.5614L104.843 40.4538ZM103.69 36.3753C104.774 37.2707 105.226 38.718 104.843 40.4538L105.331 40.5614C105.746 38.6815 105.265 37.0283 104.008 35.9898L103.69 36.3753ZM98.9245 35.5692C100.987 35.1558 102.636 35.5051 103.69 36.3753L104.008 35.9898C102.803 34.994 100.983 34.6466 98.8263 35.0789L98.9245 35.5692ZM97.4493 31.3131C98.5091 32.1887 98.9657 33.5908 98.6302 35.2752L99.1206 35.3729C99.4848 33.5444 98.9958 31.9422 97.7678 30.9277L97.4493 31.3131ZM92.505 30.5444C94.6484 30.0731 96.3646 30.4169 97.4493 31.3131L97.7678 30.9277C96.5265 29.9022 94.6354 29.564 92.3976 30.0561L92.505 30.5444ZM92.505 30.5444L92.505 30.5444L92.3976 30.0561C92.1279 30.1154 91.9574 30.3821 92.0167 30.6518L92.505 30.5444ZM92.505 30.5444L92.505 30.5444L92.0167 30.6518C92.076 30.9215 92.3427 31.0921 92.6124 31.0328L92.505 30.5444Z" fill="#231F20"/>
<defs>
<linearGradient id="paint0_linear_114_19288" x1="57.3815" y1="1.60387" x2="59.461" y2="73.2483" gradientUnits="userSpaceOnUse">
<stop stop-color="#D1D3D4"/>
<stop offset="0.18" stop-color="#CED0D2"/>
<stop offset="0.33" stop-color="#C4C8CB"/>
<stop offset="0.46" stop-color="#B4BBBF"/>
<stop offset="0.551983" stop-color="#A4AEB4"/>
<stop offset="0.552083" stop-color="#A4AEB4"/>
<stop offset="0.5799" stop-color="#A0AAB0"/>
<stop offset="0.58" stop-color="#9CA7AE"/>
<stop offset="0.746279" stop-color="#7E8E99"/>
<stop offset="0.975446" stop-color="#59707F"/>
</linearGradient>
</defs>
</svg>
