<svg width="58" height="71" viewBox="0 0 58 71" fill="none" xmlns="http://www.w3.org/2000/svg">
<path d="M27.7382 1.5C28.1231 0.833335 29.0853 0.833333 29.4702 1.5L52.5102 41.4063C52.8951 42.073 52.4139 42.9063 51.6441 42.9063H5.56429C4.79449 42.9063 4.31336 42.073 4.69826 41.4063L27.7382 1.5Z" fill="#ED683C"/>
<path d="M26.6788 27.3121C27.224 25.3642 29.9855 25.3642 30.5307 27.3121L42.0494 68.4609C42.4064 69.7361 41.4477 71 40.1234 71H17.0861C15.7618 71 14.8031 69.7361 15.1601 68.4609L26.6788 27.3121Z" fill="#ED683C"/>
<path d="M23.0812 33.7123V20.3389H25.5038V26.0004H31.7008V20.3389H34.1299V33.7123H31.7008V28.0312H25.5038V33.7123H23.0812Z" fill="white"/>
</svg>
