<svg width="106" height="96" viewBox="0 0 106 96" fill="none" xmlns="http://www.w3.org/2000/svg">
<path d="M95 9H11C4.92487 9 0 13.9249 0 20V25.4582H106V20C106 13.9249 101.075 9 95 9Z" fill="#13364D"/>
<path d="M11 95H95C101.075 95 106 90.0751 106 84V30.0165V25.4582H0V84C0 90.0751 4.92487 95 11 95Z" fill="white"/>
<path d="M0.5 25.9582H105.5V30.0165V84C105.5 89.799 100.799 94.5 95 94.5H11C5.20101 94.5 0.5 89.799 0.5 84V25.9582ZM105.5 24.9582H0.5V20C0.5 14.201 5.20101 9.5 11 9.5H95C100.799 9.5 105.5 14.201 105.5 20V24.9582Z" stroke="black"/>
<path d="M39.3718 19.7823C39.4452 19.7956 39.5352 19.8089 39.6418 19.8223C39.7485 19.8289 39.8485 19.8323 39.9418 19.8323C40.1685 19.8323 40.3752 19.7989 40.5618 19.7323C40.7552 19.6656 40.9185 19.5623 41.0518 19.4223C41.1918 19.2823 41.2985 19.1023 41.3718 18.8823C41.4518 18.6556 41.4918 18.3856 41.4918 18.0723C41.4918 17.4723 41.3518 17.0223 41.0718 16.7223C40.7918 16.4156 40.4185 16.2623 39.9518 16.2623C39.8585 16.2623 39.7618 16.2656 39.6618 16.2723C39.5685 16.2789 39.4718 16.2889 39.3718 16.3023V19.7823ZM39.9318 21.2423C39.8185 21.2423 39.6885 21.2389 39.5418 21.2323C39.3952 21.2256 39.2418 21.2123 39.0818 21.1923C38.9285 21.1723 38.7718 21.1456 38.6118 21.1123C38.4585 21.0856 38.3152 21.0456 38.1818 20.9923C37.8152 20.8523 37.6318 20.6089 37.6318 20.2623V15.5923C37.6318 15.4523 37.6685 15.3456 37.7418 15.2723C37.8218 15.1923 37.9285 15.1289 38.0618 15.0823C38.3485 14.9889 38.6518 14.9289 38.9718 14.9023C39.2918 14.8689 39.5785 14.8523 39.8318 14.8523C40.3518 14.8523 40.8218 14.9156 41.2418 15.0423C41.6685 15.1689 42.0318 15.3656 42.3318 15.6323C42.6385 15.8923 42.8752 16.2223 43.0418 16.6223C43.2085 17.0223 43.2918 17.4956 43.2918 18.0423C43.2918 18.5756 43.2118 19.0423 43.0518 19.4423C42.8918 19.8356 42.6618 20.1689 42.3618 20.4423C42.0685 20.7089 41.7152 20.9089 41.3018 21.0423C40.8885 21.1756 40.4318 21.2423 39.9318 21.2423Z" fill="white"/>
<path d="M48.042 20.0023C48.1553 20.0023 48.2787 19.9923 48.412 19.9723C48.552 19.9456 48.6553 19.9123 48.722 19.8723V19.0723L48.002 19.1323C47.8153 19.1456 47.662 19.1856 47.542 19.2523C47.422 19.3189 47.362 19.4189 47.362 19.5523C47.362 19.6856 47.412 19.7956 47.512 19.8823C47.6187 19.9623 47.7953 20.0023 48.042 20.0023ZM47.962 16.0723C48.322 16.0723 48.6487 16.1089 48.942 16.1823C49.242 16.2556 49.4953 16.3689 49.702 16.5223C49.9153 16.6689 50.0787 16.8589 50.192 17.0923C50.3053 17.3189 50.362 17.5889 50.362 17.9023V20.1423C50.362 20.3156 50.312 20.4589 50.212 20.5723C50.1187 20.6789 50.0053 20.7723 49.872 20.8523C49.4387 21.1123 48.8287 21.2423 48.042 21.2423C47.6887 21.2423 47.3687 21.2089 47.082 21.1423C46.802 21.0756 46.5587 20.9756 46.352 20.8423C46.152 20.7089 45.9953 20.5389 45.882 20.3323C45.7753 20.1256 45.722 19.8856 45.722 19.6123C45.722 19.1523 45.8587 18.7989 46.132 18.5523C46.4053 18.3056 46.8287 18.1523 47.402 18.0923L48.712 17.9523V17.8823C48.712 17.6889 48.6253 17.5523 48.452 17.4723C48.2853 17.3856 48.042 17.3423 47.722 17.3423C47.4687 17.3423 47.222 17.3689 46.982 17.4223C46.742 17.4756 46.5253 17.5423 46.332 17.6223C46.2453 17.5623 46.172 17.4723 46.112 17.3523C46.052 17.2256 46.022 17.0956 46.022 16.9623C46.022 16.7889 46.062 16.6523 46.142 16.5523C46.2287 16.4456 46.3587 16.3556 46.532 16.2823C46.7253 16.2089 46.952 16.1556 47.212 16.1223C47.4787 16.0889 47.7287 16.0723 47.962 16.0723Z" fill="white"/>
<path d="M53.1614 14.8723C53.1614 14.6189 53.2448 14.4056 53.4114 14.2323C53.5848 14.0589 53.8114 13.9723 54.0914 13.9723C54.3714 13.9723 54.5948 14.0589 54.7614 14.2323C54.9348 14.4056 55.0214 14.6189 55.0214 14.8723C55.0214 15.1256 54.9348 15.3389 54.7614 15.5123C54.5948 15.6856 54.3714 15.7723 54.0914 15.7723C53.8114 15.7723 53.5848 15.6856 53.4114 15.5123C53.2448 15.3389 53.1614 15.1256 53.1614 14.8723ZM54.9414 21.0723C54.8681 21.0856 54.7581 21.1023 54.6114 21.1223C54.4714 21.1489 54.3281 21.1623 54.1814 21.1623C54.0348 21.1623 53.9014 21.1523 53.7814 21.1323C53.6681 21.1123 53.5714 21.0723 53.4914 21.0123C53.4114 20.9523 53.3481 20.8723 53.3014 20.7723C53.2614 20.6656 53.2414 20.5289 53.2414 20.3623V16.2923C53.3148 16.2789 53.4214 16.2623 53.5614 16.2423C53.7081 16.2156 53.8548 16.2023 54.0014 16.2023C54.1481 16.2023 54.2781 16.2123 54.3914 16.2323C54.5114 16.2523 54.6114 16.2923 54.6914 16.3523C54.7714 16.4123 54.8314 16.4956 54.8714 16.6023C54.9181 16.7023 54.9414 16.8356 54.9414 17.0023V21.0723Z" fill="white"/>
<path d="M59.5537 21.0723C59.4804 21.0856 59.3704 21.1023 59.2237 21.1223C59.0837 21.1489 58.9404 21.1623 58.7937 21.1623C58.647 21.1623 58.5137 21.1523 58.3937 21.1323C58.2804 21.1123 58.1837 21.0723 58.1037 21.0123C58.0237 20.9523 57.9604 20.8723 57.9137 20.7723C57.8737 20.6656 57.8537 20.5289 57.8537 20.3623V14.5623C57.927 14.5489 58.0337 14.5323 58.1737 14.5123C58.3204 14.4856 58.467 14.4723 58.6137 14.4723C58.7604 14.4723 58.8904 14.4823 59.0037 14.5023C59.1237 14.5223 59.2237 14.5623 59.3037 14.6223C59.3837 14.6823 59.4437 14.7656 59.4837 14.8723C59.5304 14.9723 59.5537 15.1056 59.5537 15.2723V21.0723Z" fill="white"/>
<path d="M63.1864 19.8423C63.1131 19.6756 63.0331 19.4889 62.9464 19.2823C62.8664 19.0756 62.7798 18.8389 62.6864 18.5723C62.5998 18.3056 62.5064 18.0023 62.4064 17.6623C62.3131 17.3156 62.2131 16.9189 62.1064 16.4723C62.1998 16.3789 62.3231 16.2989 62.4764 16.2323C62.6364 16.1589 62.8098 16.1223 62.9964 16.1223C63.2298 16.1223 63.4231 16.1723 63.5764 16.2723C63.7298 16.3656 63.8431 16.5456 63.9164 16.8123L64.7064 19.5623H64.7464C64.8264 19.3356 64.9031 19.0889 64.9764 18.8223C65.0564 18.5556 65.1331 18.2823 65.2064 18.0023C65.2798 17.7156 65.3464 17.4323 65.4064 17.1523C65.4731 16.8656 65.5298 16.5856 65.5764 16.3123C65.8164 16.1856 66.0798 16.1223 66.3664 16.1223C66.5998 16.1223 66.7931 16.1723 66.9464 16.2723C67.0998 16.3723 67.1764 16.5456 67.1764 16.7923C67.1764 16.9723 67.1531 17.1823 67.1064 17.4223C67.0598 17.6556 66.9964 17.9056 66.9164 18.1723C66.8431 18.4389 66.7531 18.7156 66.6464 19.0023C66.5464 19.2823 66.4398 19.5589 66.3264 19.8323C66.2131 20.1056 66.0964 20.3656 65.9764 20.6123C65.8564 20.8523 65.7398 21.0689 65.6264 21.2623C65.4398 21.5889 65.2664 21.8556 65.1064 22.0623C64.9464 22.2689 64.7931 22.4289 64.6464 22.5423C64.4998 22.6623 64.3531 22.7423 64.2064 22.7823C64.0598 22.8289 63.9064 22.8523 63.7464 22.8523C63.4664 22.8523 63.2398 22.7689 63.0664 22.6023C62.8931 22.4356 62.7898 22.2189 62.7564 21.9523C62.9698 21.7856 63.1831 21.5989 63.3964 21.3923C63.6098 21.1923 63.8031 20.9856 63.9764 20.7723C63.8631 20.7389 63.7398 20.6623 63.6064 20.5423C63.4798 20.4156 63.3398 20.1823 63.1864 19.8423Z" fill="white"/>
<path d="M36.025 52.5425L30.525 54.2475C29.975 53.8808 29.425 53.3675 28.875 52.7075C28.325 52.0475 28.05 51.1308 28.05 49.9575C28.05 47.7575 29.3883 46.2175 32.065 45.3375L38.225 43.2475H40.26C41.8367 43.2475 43.0833 43.7058 44 44.6225C44.9167 45.5392 45.375 46.7858 45.375 48.3625V77.0175C44.9717 77.0908 44.3667 77.1825 43.56 77.2925C42.79 77.4392 42.0017 77.5125 41.195 77.5125C40.3883 77.5125 39.655 77.4575 38.995 77.3475C38.3717 77.2375 37.84 77.0175 37.4 76.6875C36.96 76.3575 36.6117 75.9175 36.355 75.3675C36.135 74.7808 36.025 74.0292 36.025 73.1125V52.5425Z" fill="black"/>
<path d="M61.9068 42.8075C66.1235 42.8075 69.3318 43.6875 71.5318 45.4475C73.7318 47.1708 74.8318 49.4992 74.8318 52.4325C74.8318 54.1925 74.3551 55.6958 73.4018 56.9425C72.4851 58.1525 71.3851 59.0692 70.1018 59.6925C70.8718 59.9858 71.5868 60.3525 72.2468 60.7925C72.9068 61.2325 73.4935 61.7825 74.0068 62.4425C74.5201 63.1025 74.9235 63.8725 75.2168 64.7525C75.5101 65.6325 75.6568 66.6592 75.6568 67.8325C75.6568 69.4092 75.3085 70.8208 74.6118 72.0675C73.9518 73.3142 73.0168 74.3775 71.8068 75.2575C70.5968 76.1375 69.1485 76.7975 67.4618 77.2375C65.8118 77.7142 63.9968 77.9525 62.0168 77.9525C58.2035 77.9525 55.3251 77.4208 53.3818 76.3575C51.4385 75.2942 50.4668 73.9375 50.4668 72.2875C50.4668 71.2975 50.7051 70.4542 51.1818 69.7575C51.6585 69.0242 52.2451 68.4558 52.9418 68.0525C53.6751 68.5658 54.6468 69.1158 55.8568 69.7025C57.1035 70.2525 58.7168 70.5275 60.6968 70.5275C62.5668 70.5275 63.9418 70.1975 64.8218 69.5375C65.7385 68.8775 66.1968 68.0158 66.1968 66.9525C66.1968 65.8892 65.8301 65.0825 65.0968 64.5325C64.4001 63.9825 63.1718 63.7075 61.4118 63.7075H56.2418C55.9851 63.3042 55.7651 62.8092 55.5818 62.2225C55.3985 61.6358 55.3068 60.9392 55.3068 60.1325C55.3068 59.2892 55.3801 58.5742 55.5268 57.9875C55.7101 57.3642 55.9485 56.8508 56.2418 56.4475H61.4118C64.0518 56.4475 65.3718 55.4392 65.3718 53.4225C65.3718 52.4692 64.9501 51.6992 64.1068 51.1125C63.2635 50.5258 61.9985 50.2325 60.3118 50.2325C58.8085 50.2325 57.4885 50.4158 56.3518 50.7825C55.2151 51.1125 54.2801 51.5342 53.5468 52.0475C52.9235 51.6075 52.4101 51.0758 52.0068 50.4525C51.6035 49.7925 51.4018 49.0225 51.4018 48.1425C51.4018 46.3092 52.3551 44.9708 54.2618 44.1275C56.1685 43.2475 58.7168 42.8075 61.9068 42.8075Z" fill="black"/>
<line x1="24" y1="17" x2="24" stroke="black" stroke-width="4"/>
<line x1="82" y1="17" x2="82" stroke="black" stroke-width="4"/>
</svg>
