<svg width="107" height="104" viewBox="0 0 107 104" fill="none" xmlns="http://www.w3.org/2000/svg">
<circle cx="54.7123" cy="52" r="50.284" fill="url(#paint0_radial_66_1346)" stroke="#231F20" stroke-width="2"/>
<path d="M89.9659 22.6691C89.8673 22.6689 89.769 22.6775 89.6723 22.6947C89.583 22.4582 89.4147 22.2528 89.1909 22.1074C88.967 21.9619 88.6988 21.8836 88.4237 21.8834C88.1652 21.8826 87.9123 21.9516 87.697 22.0817C87.6497 21.8929 87.5527 21.7174 87.4145 21.57C87.2762 21.4227 87.1008 21.308 86.9032 21.2356C86.7055 21.1633 86.4916 21.1356 86.2796 21.1548C86.0676 21.1739 85.8639 21.2395 85.6858 21.3458C85.6629 21.0479 85.5187 20.7683 85.2814 20.5618C85.044 20.3553 84.7305 20.2365 84.402 20.2287H84.3644C84.3696 20.0105 84.3268 19.7936 84.2386 19.5906C84.1503 19.3876 84.0184 19.2027 83.8505 19.0467C83.6825 18.8907 83.482 18.7668 83.2607 18.6821C83.0394 18.5975 82.8017 18.5539 82.5615 18.5539C82.3214 18.5539 82.0837 18.5975 81.8624 18.6821C81.6411 18.7668 81.4406 18.8907 81.2726 19.0467C81.1047 19.2027 80.9727 19.3876 80.8845 19.5906C80.7962 19.7936 80.7535 20.0105 80.7587 20.2287H80.7211C80.3926 20.2365 80.0791 20.3553 79.8417 20.5618C79.6043 20.7683 79.4602 21.0479 79.4373 21.3458C79.2592 21.2395 79.0555 21.1739 78.8435 21.1548C78.6315 21.1356 78.4176 21.1633 78.2199 21.2356C78.0223 21.308 77.8469 21.4227 77.7086 21.57C77.5704 21.7174 77.4734 21.8929 77.4261 22.0817C77.2579 21.9809 77.0666 21.9163 76.8667 21.893C76.6669 21.8697 76.4639 21.8883 76.2731 21.9473C76.0824 22.0063 75.9091 22.1042 75.7664 22.2335C75.6237 22.3628 75.5154 22.52 75.4499 22.6932C75.3535 22.6759 75.2555 22.6673 75.1572 22.6675C74.8137 22.6667 74.4796 22.7703 74.2083 22.9618C73.9369 23.1533 73.7438 23.4218 73.6596 23.7246C73.5754 24.0273 73.6049 24.347 73.7436 24.6327C73.8822 24.9185 74.1219 25.1539 74.4246 25.3016C74.4321 25.5904 74.5541 25.8671 74.7681 26.0808C74.9821 26.2944 75.2737 26.4307 75.5894 26.4646C75.7048 26.7632 75.9452 27.0084 76.2583 27.1469C76.5714 27.2854 76.932 27.306 77.2617 27.2044C77.3746 27.3381 77.5172 27.4488 77.6802 27.5291C77.8432 27.6095 78.023 27.6577 78.2079 27.6707C78.3928 27.6837 78.5786 27.6611 78.7533 27.6045C78.9279 27.5479 79.0875 27.4585 79.2216 27.3421C79.4551 27.5448 79.7623 27.6627 80.085 27.6735C80.4077 27.6842 80.7235 27.5871 80.9727 27.4004C80.9838 27.3918 80.9949 27.3833 81.0052 27.374C81.0551 27.6934 81.2223 27.9882 81.4797 28.2105C81.7371 28.4327 82.0696 28.5694 82.4232 28.5983C82.7768 28.6272 83.1307 28.5467 83.4277 28.3698C83.7246 28.1928 83.947 27.9299 84.0588 27.6237C84.0896 27.5428 84.112 27.4594 84.1256 27.3747L84.159 27.4012C84.396 27.5772 84.6925 27.6736 84.9986 27.6742C85.3384 27.6744 85.6652 27.5554 85.9109 27.3421C86.0449 27.4584 86.2044 27.5479 86.379 27.6045C86.5536 27.6611 86.7394 27.6836 86.9242 27.6706C87.109 27.6577 87.2888 27.6094 87.4517 27.5291C87.6147 27.4487 87.7572 27.3381 87.8699 27.2044C88.1997 27.306 88.5603 27.2854 88.8734 27.1469C89.1865 27.0084 89.4268 26.7632 89.5422 26.4646C89.8579 26.4307 90.1496 26.2944 90.3636 26.0808C90.5776 25.8671 90.6995 25.5904 90.707 25.3016C91.0095 25.1532 91.2486 24.9172 91.3865 24.6311C91.5244 24.345 91.553 24.0252 91.4679 23.7225C91.3828 23.4199 91.1888 23.1518 90.9168 22.9609C90.6448 22.7701 90.3104 22.6673 89.9667 22.6691H89.9659Z" fill="#9CA7AE"/>
<path d="M82.5808 28.6046H82.5611C82.2258 28.6045 81.899 28.5084 81.627 28.3302C81.355 28.1519 81.1515 27.9004 81.0454 27.6112C81.0194 27.5426 80.9999 27.4721 80.9872 27.4004C80.9983 27.3918 81.0095 27.3833 81.0197 27.374C81.0773 27.714 81.2659 28.0243 81.5518 28.2497C81.8377 28.4751 82.2024 28.6009 82.5808 28.6046Z" fill="#9CA7AE"/>
<path d="M79.6068 22.3882C78.9443 22.256 78.5464 22.5812 78.6653 23.0681L78.6439 23.0977C77.9824 22.9655 77.5844 23.2914 77.7025 23.7784" fill="#9CA7AE"/>
<path d="M76.7354 23.002C76.073 22.8698 75.675 23.1957 75.794 23.6827L75.7726 23.7123C75.111 23.58 74.713 23.9052 74.8311 24.3929" fill="#9CA7AE"/>
<path d="M78.7595 24.6839C78.097 24.5516 77.6991 24.8776 77.818 25.3646L77.7966 25.3941C77.1351 25.2619 76.7371 25.5871 76.8552 26.0748" fill="#9CA7AE"/>
<path d="M82.0485 23.002C81.3869 22.8698 80.9889 23.1957 81.107 23.6827L81.0856 23.7123C80.4232 23.58 80.0261 23.9052 80.1442 24.3929" fill="#9CA7AE"/>
<path d="M84.2275 25.3062C83.7687 24.8527 83.2381 24.911 83.0293 25.3724L82.9933 25.3856C82.5346 24.932 82.004 24.9904 81.7951 25.4517" fill="#9CA7AE"/>
<path d="M81.3432 26.3844C80.8854 25.9301 80.3539 25.9885 80.1451 26.4498L80.1091 26.463C79.6504 26.0095 79.1189 26.0678 78.9109 26.5291" fill="#9CA7AE"/>
<path d="M87.163 26.1557C86.7051 25.7014 86.1736 25.7605 85.9648 26.2218L85.9289 26.2351C85.471 25.7808 84.9395 25.8399 84.7307 26.3004" fill="#9CA7AE"/>
<path d="M87.1356 23.8111C86.6033 23.4291 86.0889 23.5629 85.9622 24.0491L85.9289 24.067C85.3974 23.685 84.883 23.8188 84.7555 24.305" fill="#9CA7AE"/>
<path d="M85.7902 22.5835C85.3811 22.0918 84.8488 22.1043 84.592 22.5454L84.5552 22.5555C84.1461 22.0638 83.6138 22.0763 83.3571 22.5174" fill="#9CA7AE"/>
<path d="M83.0909 20.3851C82.4285 20.2528 82.0305 20.5788 82.1495 21.0658L82.1281 21.0953C81.4665 20.9631 81.0685 21.2882 81.1866 21.776" fill="#9CA7AE"/>
<path d="M87.8126 22.6986C88.4741 22.5664 88.8721 22.8916 88.754 23.3793L88.7754 23.4089C89.4378 23.2766 89.8349 23.6018 89.7168 24.0888" fill="#9CA7AE"/>
<path d="M87.1356 23.8079C87.7972 23.6757 88.1951 24.0016 88.077 24.4886L88.0984 24.5182C88.7609 24.3859 89.158 24.7111 89.0399 25.1989" fill="#9CA7AE"/>
<path d="M79.6068 22.3882C78.9443 22.256 78.5464 22.5812 78.6653 23.0681L78.6439 23.0977C77.9824 22.9655 77.5844 23.2914 77.7025 23.7784M76.7354 23.002C76.073 22.8698 75.675 23.1957 75.794 23.6827L75.7726 23.7123C75.111 23.58 74.713 23.9052 74.8311 24.3929M78.7595 24.6839C78.097 24.5516 77.6991 24.8776 77.818 25.3646L77.7966 25.3941C77.1351 25.2619 76.7371 25.5871 76.8552 26.0748M82.0485 23.002C81.3869 22.8698 80.9889 23.1957 81.107 23.6827L81.0856 23.7123C80.4232 23.58 80.0261 23.9052 80.1442 24.3929M84.2275 25.3062C83.7687 24.8527 83.2381 24.911 83.0293 25.3724L82.9933 25.3856C82.5346 24.932 82.004 24.9904 81.7951 25.4517M81.3432 26.3844C80.8854 25.9301 80.3539 25.9885 80.1451 26.4498L80.1091 26.463C79.6504 26.0095 79.1189 26.0678 78.9109 26.5291M87.163 26.1557C86.7051 25.7014 86.1736 25.7605 85.9648 26.2218L85.9289 26.2351C85.471 25.7808 84.9395 25.8399 84.7307 26.3004M87.1356 23.8111C86.6033 23.4291 86.0889 23.5629 85.9622 24.0491L85.9289 24.067C85.3974 23.685 84.883 23.8188 84.7555 24.305M85.7902 22.5835C85.3811 22.0918 84.8488 22.1043 84.592 22.5454L84.5552 22.5555C84.1461 22.0638 83.6138 22.0763 83.3571 22.5174M83.0909 20.3851C82.4285 20.2528 82.0305 20.5788 82.1495 21.0658L82.1281 21.0953C81.4665 20.9631 81.0685 21.2882 81.1866 21.776M87.8126 22.6986C88.4741 22.5664 88.8721 22.8916 88.754 23.3793L88.7754 23.4089C89.4378 23.2766 89.8349 23.6018 89.7168 24.0888M87.1356 23.8079C87.7972 23.6757 88.1951 24.0016 88.077 24.4886L88.0984 24.5182C88.7609 24.3859 89.158 24.7111 89.0399 25.1989M89.9659 22.6691C89.8673 22.6689 89.769 22.6775 89.6723 22.6947C89.583 22.4582 89.4147 22.2528 89.1909 22.1074C88.967 21.9619 88.6988 21.8836 88.4237 21.8834C88.1652 21.8826 87.9123 21.9516 87.697 22.0817C87.6497 21.8929 87.5527 21.7174 87.4145 21.57C87.2762 21.4227 87.1008 21.308 86.9032 21.2356C86.7055 21.1633 86.4916 21.1356 86.2796 21.1548C86.0676 21.1739 85.8639 21.2395 85.6858 21.3458C85.6629 21.0479 85.5187 20.7683 85.2814 20.5618C85.044 20.3553 84.7305 20.2365 84.402 20.2287H84.3644C84.3696 20.0105 84.3268 19.7936 84.2386 19.5906C84.1503 19.3876 84.0184 19.2027 83.8505 19.0467C83.6825 18.8907 83.482 18.7668 83.2607 18.6821C83.0394 18.5975 82.8017 18.5539 82.5615 18.5539C82.3214 18.5539 82.0837 18.5975 81.8624 18.6821C81.6411 18.7668 81.4406 18.8907 81.2726 19.0467C81.1047 19.2027 80.9727 19.3876 80.8845 19.5906C80.7962 19.7936 80.7535 20.0105 80.7587 20.2287H80.7211C80.3926 20.2365 80.0791 20.3553 79.8417 20.5618C79.6043 20.7683 79.4602 21.0479 79.4373 21.3458C79.2592 21.2395 79.0555 21.1739 78.8435 21.1548C78.6315 21.1356 78.4176 21.1633 78.2199 21.2356C78.0223 21.308 77.8469 21.4227 77.7086 21.57C77.5704 21.7174 77.4734 21.8929 77.4261 22.0817C77.2579 21.9809 77.0666 21.9163 76.8667 21.893C76.6669 21.8697 76.4639 21.8883 76.2731 21.9473C76.0824 22.0063 75.9091 22.1042 75.7664 22.2335C75.6237 22.3628 75.5154 22.52 75.4499 22.6932C75.3535 22.6759 75.2555 22.6673 75.1572 22.6675C74.8137 22.6667 74.4796 22.7703 74.2083 22.9618C73.9369 23.1533 73.7438 23.4218 73.6596 23.7246C73.5754 24.0273 73.6049 24.347 73.7436 24.6327C73.8822 24.9185 74.1219 25.1539 74.4246 25.3016C74.4321 25.5904 74.5541 25.8671 74.7681 26.0808C74.9821 26.2944 75.2737 26.4307 75.5894 26.4646C75.7048 26.7632 75.9452 27.0084 76.2583 27.1469C76.5714 27.2854 76.932 27.306 77.2617 27.2044C77.3746 27.3381 77.5172 27.4488 77.6802 27.5291C77.8432 27.6095 78.023 27.6577 78.2079 27.6707C78.3928 27.6837 78.5786 27.6611 78.7533 27.6045C78.9279 27.5479 79.0875 27.4585 79.2216 27.3421C79.4551 27.5448 79.7623 27.6627 80.085 27.6735C80.4077 27.6842 80.7235 27.5871 80.9727 27.4004C80.9838 27.3918 80.9949 27.3833 81.0052 27.374C81.0551 27.6934 81.2223 27.9882 81.4797 28.2105C81.7371 28.4327 82.0696 28.5694 82.4232 28.5983C82.7768 28.6272 83.1307 28.5467 83.4277 28.3698C83.7246 28.1928 83.947 27.9299 84.0588 27.6237C84.0896 27.5428 84.112 27.4594 84.1256 27.3747L84.159 27.4012C84.396 27.5772 84.6925 27.6736 84.9986 27.6742C85.3384 27.6744 85.6652 27.5554 85.9109 27.3421C86.0449 27.4584 86.2044 27.5479 86.379 27.6045C86.5536 27.6611 86.7394 27.6836 86.9242 27.6706C87.109 27.6577 87.2888 27.6094 87.4517 27.5291C87.6147 27.4487 87.7572 27.3381 87.8699 27.2044C88.1997 27.306 88.5603 27.2854 88.8734 27.1469C89.1865 27.0084 89.4268 26.7632 89.5422 26.4646C89.8579 26.4307 90.1496 26.2944 90.3636 26.0808C90.5776 25.8671 90.6995 25.5904 90.707 25.3016C91.0095 25.1532 91.2486 24.9172 91.3865 24.6311C91.5244 24.345 91.553 24.0252 91.4679 23.7225C91.3828 23.4199 91.1888 23.1518 90.9168 22.9609C90.6448 22.7701 90.3104 22.6673 89.9667 22.6691H89.9659ZM82.5808 28.6046H82.5611C82.2258 28.6045 81.899 28.5084 81.627 28.3302C81.355 28.1519 81.1515 27.9004 81.0454 27.6112C81.0194 27.5426 80.9999 27.4721 80.9872 27.4004C80.9983 27.3918 81.0095 27.3833 81.0197 27.374C81.0773 27.714 81.2659 28.0243 81.5518 28.2497C81.8377 28.4751 82.2024 28.6009 82.5808 28.6046Z" stroke="black" stroke-width="0.22" stroke-linecap="round" stroke-linejoin="round"/>
<path d="M88.305 48.6931L103.487 50.6174L89.2613 44.7829L101.762 53.9374L91.5776 42.0871L99.1272 55.8944L94.498 40.7652L96.1442 56.5421L97.6162 40.744L93.1413 55.9213L100.6 42.063L90.46 53.9546L102.943 44.7673L88.7388 50.6764L103.905 48.6107L88.7236 46.6864L102.949 52.5209L90.4488 43.3664L100.633 55.2167L93.0833 41.4094L97.7125 56.5386L96.0663 40.7617L94.5942 56.5598L99.0692 41.3825L91.6107 55.2408L101.75 43.3492L89.2677 52.5365L103.472 46.6274L88.305 48.6931Z" fill="url(#paint1_radial_66_1346)"/>
<path d="M97.847 48.6953C97.847 49.7395 97.028 50.586 96.0177 50.586C95.0074 50.586 94.1884 49.7395 94.1884 48.6953C94.1884 47.651 95.0074 46.8045 96.0177 46.8045C97.028 46.8045 97.847 47.651 97.847 48.6953Z" fill="white"/>
<path d="M75.9634 79.6039L91.1453 81.5282L76.9197 75.6937L89.4202 84.8482L79.2361 72.9979L86.7856 86.8052L82.1564 71.676L83.8027 87.4529L85.2747 71.6548L80.7998 86.8321L88.2582 72.9738L78.1185 84.8654L90.6012 75.6781L76.3972 81.5872L91.5639 79.5215L76.3821 77.5972L90.6076 83.4317L78.1072 74.2772L88.2913 86.1275L80.7418 72.3202L85.371 87.4494L83.7247 71.6725L82.2527 87.4706L86.7276 72.2933L79.2691 86.1516L89.4089 74.26L76.9261 83.4473L91.1302 77.5382L75.9634 79.6039Z" fill="url(#paint2_radial_66_1346)"/>
<path d="M85.5054 79.6061C85.5054 80.6503 84.6864 81.4968 83.6761 81.4968C82.6659 81.4968 81.8469 80.6503 81.8469 79.6061C81.8469 78.5618 82.6659 77.7153 83.6761 77.7153C84.6864 77.7153 85.5054 78.5618 85.5054 79.6061Z" fill="white"/>
<path d="M46.4204 91.6177L62.6144 93.7986L47.4405 87.1862L60.7742 97.5613L49.9112 84.1309L57.9641 99.7792L53.0263 82.6328L54.7823 100.513L56.3524 82.6088L51.5792 99.8097L59.5349 84.1037L48.7191 97.5807L62.0341 87.1685L46.8831 93.8655L63.0609 91.5244L46.867 89.3435L62.0409 95.9559L48.7071 85.5809L59.5701 99.0112L51.5173 83.3629L56.4551 100.509L54.6991 82.6288L53.1289 100.533L57.9022 83.3324L49.9465 99.0385L60.7622 85.5614L47.4473 95.9736L62.5982 89.2767L46.4204 91.6177Z" fill="url(#paint3_radial_66_1346)"/>
<path d="M56.5985 91.6202C56.5985 92.8037 55.7249 93.7631 54.6473 93.7631C53.5696 93.7631 52.696 92.8037 52.696 91.6202C52.696 90.4367 53.5696 89.4774 54.6473 89.4774C55.7249 89.4774 56.5985 90.4367 56.5985 91.6202Z" fill="white"/>
<path d="M99.6859 48.8305C99.6037 48.8303 99.5218 48.8375 99.4412 48.8519C99.3667 48.6546 99.2264 48.4835 99.0398 48.3622C98.8532 48.241 98.6296 48.1757 98.4003 48.1755C98.1848 48.1748 97.974 48.2324 97.7946 48.3409C97.7551 48.1835 97.6743 48.0371 97.559 47.9143C97.4438 47.7915 97.2976 47.6958 97.1328 47.6356C96.9681 47.5753 96.7897 47.5521 96.613 47.5681C96.4363 47.5841 96.2664 47.6388 96.118 47.7274C96.0989 47.479 95.9788 47.246 95.7809 47.0738C95.583 46.9017 95.3217 46.8027 95.0479 46.7962H95.0165C95.0208 46.6143 94.9852 46.4334 94.9116 46.2642C94.8381 46.095 94.7281 45.9409 94.5881 45.8109C94.4481 45.6808 94.2809 45.5775 94.0964 45.507C93.9119 45.4364 93.7138 45.4001 93.5136 45.4001C93.3135 45.4001 93.1153 45.4364 92.9308 45.507C92.7463 45.5775 92.5792 45.6808 92.4392 45.8109C92.2992 45.9409 92.1892 46.095 92.1157 46.2642C92.0421 46.4334 92.0064 46.6143 92.0108 46.7962H91.9794C91.7056 46.8027 91.4442 46.9017 91.2464 47.0738C91.0485 47.246 90.9283 47.479 90.9093 47.7274C90.7608 47.6388 90.591 47.5841 90.4143 47.5681C90.2376 47.5521 90.0592 47.5753 89.8945 47.6356C89.7297 47.6958 89.5835 47.7915 89.4682 47.9143C89.353 48.0371 89.2722 48.1835 89.2327 48.3409C89.0925 48.2568 88.9331 48.203 88.7665 48.1835C88.5999 48.1641 88.4306 48.1796 88.2716 48.2288C88.1126 48.278 87.9682 48.3596 87.8492 48.4673C87.7303 48.5751 87.64 48.7062 87.5854 48.8506C87.505 48.8362 87.4233 48.829 87.3414 48.8292C87.055 48.8285 86.7766 48.9148 86.5504 49.0745C86.3242 49.2341 86.1632 49.4579 86.093 49.7103C86.0228 49.9627 86.0474 50.2292 86.163 50.4674C86.2785 50.7055 86.4784 50.9018 86.7307 51.0249C86.737 51.2657 86.8386 51.4963 87.017 51.6745C87.1954 51.8526 87.4385 51.9662 87.7017 51.9944C87.7979 52.2433 87.9983 52.4477 88.2593 52.5631C88.5203 52.6786 88.8208 52.6958 89.0957 52.6111C89.1898 52.7226 89.3086 52.8148 89.4445 52.8818C89.5804 52.9488 89.7303 52.989 89.8844 52.9998C90.0386 53.0106 90.1935 52.9918 90.3391 52.9446C90.4847 52.8974 90.6177 52.8229 90.7295 52.7258C90.9241 52.8949 91.1802 52.9932 91.4492 53.0021C91.7182 53.0111 91.9814 52.9301 92.1892 52.7745C92.1984 52.7673 92.2077 52.7602 92.2163 52.7524C92.2579 53.0188 92.3973 53.2645 92.6118 53.4497C92.8264 53.635 93.1036 53.7489 93.3983 53.773C93.6931 53.7971 93.9881 53.73 94.2356 53.5825C94.4831 53.4351 94.6685 53.2159 94.7618 52.9606C94.7874 52.8932 94.8061 52.8237 94.8174 52.7531L94.8453 52.7751C95.0428 52.9218 95.29 53.0022 95.5451 53.0027C95.8284 53.0029 96.1008 52.9037 96.3056 52.7258C96.4174 52.8229 96.5503 52.8974 96.6959 52.9446C96.8414 52.9918 96.9963 53.0106 97.1503 52.9998C97.3044 52.9889 97.4542 52.9487 97.5901 52.8817C97.7259 52.8148 97.8447 52.7225 97.9387 52.6111C98.2136 52.6958 98.5141 52.6786 98.7751 52.5631C99.0361 52.4477 99.2365 52.2433 99.3327 51.9944C99.5959 51.9662 99.839 51.8526 100.017 51.6745C100.196 51.4963 100.297 51.2657 100.304 51.0249C100.556 50.9012 100.755 50.7045 100.87 50.466C100.985 50.2275 101.009 49.9609 100.938 49.7086C100.867 49.4563 100.705 49.2329 100.479 49.0738C100.252 48.9146 99.973 48.829 99.6866 48.8305H99.6859Z" fill="#9CA7AE"/>
<path d="M93.5297 53.7783H93.5133C93.2337 53.7782 92.9613 53.6981 92.7346 53.5495C92.5078 53.4009 92.3382 53.1913 92.2498 52.9502C92.2281 52.893 92.2119 52.8342 92.2013 52.7745C92.2106 52.7673 92.2198 52.7602 92.2284 52.7524C92.2764 53.0359 92.4336 53.2946 92.6719 53.4825C92.9102 53.6704 93.2142 53.7752 93.5297 53.7783Z" fill="#9CA7AE"/>
<path d="M91.0505 48.5964C90.4983 48.4861 90.1666 48.7572 90.2658 49.1631L90.2479 49.1878C89.6964 49.0775 89.3647 49.3492 89.4632 49.7552" fill="#9CA7AE"/>
<path d="M88.657 49.108C88.1048 48.9978 87.773 49.2695 87.8722 49.6754L87.8544 49.7001C87.3029 49.5898 86.9711 49.8609 87.0696 50.2675" fill="#9CA7AE"/>
<path d="M90.3442 50.51C89.792 50.3998 89.4603 50.6715 89.5595 51.0774L89.5416 51.1021C88.9901 50.9918 88.6584 51.2629 88.7569 51.6695" fill="#9CA7AE"/>
<path d="M93.0859 49.108C92.5345 48.9978 92.2027 49.2695 92.3012 49.6754L92.2833 49.7001C91.7311 49.5898 91.4001 49.8609 91.4986 50.2675" fill="#9CA7AE"/>
<path d="M94.9023 51.0288C94.5199 50.6507 94.0776 50.6994 93.9035 51.0839L93.8736 51.0949C93.4912 50.7169 93.0488 50.7655 92.8748 51.15" fill="#9CA7AE"/>
<path d="M92.4981 51.9276C92.1164 51.5489 91.6733 51.5975 91.4993 51.982L91.4693 51.9931C91.0869 51.615 90.6439 51.6636 90.4705 52.0482" fill="#9CA7AE"/>
<path d="M97.3494 51.7369C96.9677 51.3582 96.5247 51.4075 96.3506 51.792L96.3206 51.8031C95.9389 51.4244 95.4959 51.4736 95.3218 51.8575" fill="#9CA7AE"/>
<path d="M97.3266 49.7824C96.8828 49.464 96.454 49.5755 96.3484 49.9808L96.3206 49.9958C95.8776 49.6774 95.4488 49.7889 95.3425 50.1942" fill="#9CA7AE"/>
<path d="M96.205 48.7591C95.864 48.3493 95.4203 48.3597 95.2062 48.7273L95.1756 48.7358C94.8346 48.3259 94.3908 48.3363 94.1768 48.704" fill="#9CA7AE"/>
<path d="M93.9549 46.9265C93.4027 46.8163 93.071 47.088 93.1701 47.4939L93.1523 47.5186C92.6008 47.4083 92.2691 47.6794 92.3675 48.086" fill="#9CA7AE"/>
<path d="M97.8909 48.8551C98.4424 48.7449 98.7741 49.0159 98.6757 49.4225L98.6935 49.4472C99.2457 49.3369 99.5767 49.608 99.4783 50.0139" fill="#9CA7AE"/>
<path d="M97.3266 49.7798C97.878 49.6696 98.2098 49.9413 98.1113 50.3472L98.1292 50.3719C98.6814 50.2616 99.0124 50.5327 98.9139 50.9393" fill="#9CA7AE"/>
<path d="M91.0505 48.5964C90.4983 48.4861 90.1666 48.7572 90.2658 49.1631L90.2479 49.1878C89.6964 49.0775 89.3647 49.3492 89.4632 49.7552M88.657 49.108C88.1048 48.9978 87.773 49.2695 87.8722 49.6754L87.8544 49.7001C87.3029 49.5898 86.9711 49.8609 87.0696 50.2675M90.3442 50.51C89.792 50.3998 89.4603 50.6715 89.5595 51.0774L89.5416 51.1021C88.9901 50.9918 88.6584 51.2629 88.7569 51.6695M93.0859 49.108C92.5345 48.9978 92.2027 49.2695 92.3012 49.6754L92.2833 49.7001C91.7311 49.5898 91.4001 49.8609 91.4986 50.2675M94.9023 51.0288C94.5199 50.6507 94.0776 50.6994 93.9035 51.0839L93.8736 51.0949C93.4912 50.7169 93.0488 50.7655 92.8748 51.15M92.4981 51.9276C92.1164 51.5489 91.6733 51.5975 91.4993 51.982L91.4693 51.9931C91.0869 51.615 90.6439 51.6636 90.4705 52.0482M97.3494 51.7369C96.9677 51.3582 96.5247 51.4075 96.3506 51.792L96.3206 51.8031C95.9389 51.4244 95.4959 51.4736 95.3218 51.8575M97.3266 49.7824C96.8828 49.464 96.454 49.5755 96.3484 49.9808L96.3206 49.9958C95.8776 49.6774 95.4488 49.7889 95.3425 50.1942M96.205 48.7591C95.864 48.3493 95.4203 48.3597 95.2062 48.7273L95.1756 48.7358C94.8346 48.3259 94.3908 48.3363 94.1768 48.704M93.9549 46.9265C93.4027 46.8163 93.071 47.088 93.1701 47.4939L93.1523 47.5186C92.6008 47.4083 92.2691 47.6794 92.3675 48.086M97.8909 48.8551C98.4424 48.7449 98.7741 49.0159 98.6757 49.4225L98.6935 49.4472C99.2457 49.3369 99.5767 49.608 99.4783 50.0139M97.3266 49.7798C97.878 49.6696 98.2098 49.9413 98.1113 50.3472L98.1292 50.3719C98.6814 50.2616 99.0124 50.5327 98.9139 50.9393M99.6859 48.8305C99.6037 48.8303 99.5218 48.8375 99.4412 48.8519C99.3667 48.6546 99.2264 48.4835 99.0398 48.3622C98.8532 48.241 98.6296 48.1757 98.4003 48.1755C98.1848 48.1748 97.974 48.2324 97.7946 48.3409C97.7551 48.1835 97.6743 48.0371 97.559 47.9143C97.4438 47.7915 97.2976 47.6958 97.1328 47.6356C96.9681 47.5753 96.7897 47.5521 96.613 47.5681C96.4363 47.5841 96.2664 47.6388 96.118 47.7274C96.0989 47.479 95.9788 47.246 95.7809 47.0738C95.583 46.9017 95.3217 46.8027 95.0479 46.7962H95.0165C95.0208 46.6143 94.9852 46.4334 94.9116 46.2642C94.8381 46.095 94.7281 45.9409 94.5881 45.8109C94.4481 45.6808 94.2809 45.5775 94.0964 45.507C93.9119 45.4364 93.7138 45.4001 93.5136 45.4001C93.3135 45.4001 93.1153 45.4364 92.9308 45.507C92.7463 45.5775 92.5792 45.6808 92.4392 45.8109C92.2992 45.9409 92.1892 46.095 92.1157 46.2642C92.0421 46.4334 92.0064 46.6143 92.0108 46.7962H91.9794C91.7056 46.8027 91.4442 46.9017 91.2464 47.0738C91.0485 47.246 90.9283 47.479 90.9093 47.7274C90.7608 47.6388 90.591 47.5841 90.4143 47.5681C90.2376 47.5521 90.0592 47.5753 89.8945 47.6356C89.7297 47.6958 89.5835 47.7915 89.4682 47.9143C89.353 48.0371 89.2722 48.1835 89.2327 48.3409C89.0925 48.2568 88.9331 48.203 88.7665 48.1835C88.5999 48.1641 88.4306 48.1796 88.2716 48.2288C88.1126 48.278 87.9682 48.3596 87.8492 48.4673C87.7303 48.5751 87.64 48.7062 87.5854 48.8506C87.505 48.8362 87.4233 48.829 87.3414 48.8292C87.055 48.8285 86.7766 48.9148 86.5504 49.0745C86.3242 49.2341 86.1632 49.4579 86.093 49.7103C86.0228 49.9627 86.0474 50.2292 86.163 50.4674C86.2785 50.7055 86.4784 50.9018 86.7307 51.0249C86.737 51.2657 86.8386 51.4963 87.017 51.6745C87.1954 51.8526 87.4385 51.9662 87.7017 51.9944C87.7979 52.2433 87.9983 52.4477 88.2593 52.5631C88.5203 52.6786 88.8208 52.6958 89.0957 52.6111C89.1898 52.7226 89.3086 52.8148 89.4445 52.8818C89.5804 52.9488 89.7303 52.989 89.8844 52.9998C90.0386 53.0106 90.1935 52.9918 90.3391 52.9446C90.4847 52.8974 90.6177 52.8229 90.7295 52.7258C90.9241 52.8949 91.1802 52.9932 91.4492 53.0021C91.7182 53.0111 91.9814 52.9301 92.1892 52.7745C92.1984 52.7673 92.2077 52.7602 92.2163 52.7524C92.2579 53.0188 92.3973 53.2645 92.6118 53.4497C92.8264 53.635 93.1036 53.7489 93.3983 53.773C93.6931 53.7971 93.9881 53.73 94.2356 53.5825C94.4831 53.4351 94.6685 53.2159 94.7618 52.9606C94.7874 52.8932 94.8061 52.8237 94.8174 52.7531L94.8453 52.7751C95.0428 52.9218 95.29 53.0022 95.5451 53.0027C95.8284 53.0029 96.1008 52.9037 96.3056 52.7258C96.4174 52.8229 96.5503 52.8974 96.6959 52.9446C96.8414 52.9918 96.9963 53.0106 97.1503 52.9998C97.3044 52.9889 97.4542 52.9487 97.5901 52.8817C97.7259 52.8148 97.8447 52.7225 97.9387 52.6111C98.2136 52.6958 98.5141 52.6786 98.7751 52.5631C99.0361 52.4477 99.2365 52.2433 99.3327 51.9944C99.5959 51.9662 99.839 51.8526 100.017 51.6745C100.196 51.4963 100.297 51.2657 100.304 51.0249C100.556 50.9012 100.755 50.7045 100.87 50.466C100.985 50.2275 101.009 49.9609 100.938 49.7086C100.867 49.4563 100.705 49.2329 100.479 49.0738C100.252 48.9146 99.973 48.829 99.6866 48.8305H99.6859ZM93.5297 53.7783H93.5133C93.2337 53.7782 92.9613 53.6981 92.7346 53.5495C92.5078 53.4009 92.3382 53.1913 92.2498 52.9502C92.2281 52.893 92.2119 52.8342 92.2013 52.7745C92.2106 52.7673 92.2198 52.7602 92.2284 52.7524C92.2764 53.0359 92.4336 53.2946 92.6719 53.4825C92.9102 53.6704 93.2142 53.7752 93.5297 53.7783Z" stroke="black" stroke-width="0.22" stroke-linecap="round" stroke-linejoin="round"/>
<path d="M86.3443 79.6064C86.2622 79.6063 86.1802 79.6134 86.0996 79.6278C86.0252 79.4306 85.8849 79.2594 85.6983 79.1382C85.5117 79.0169 85.2881 78.9516 85.0587 78.9514C84.8432 78.9508 84.6324 79.0084 84.453 79.1168C84.4135 78.9594 84.3327 78.8131 84.2175 78.6902C84.1022 78.5674 83.956 78.4718 83.7913 78.4115C83.6265 78.3512 83.4482 78.3281 83.2714 78.3441C83.0947 78.3601 82.9249 78.4147 82.7765 78.5034C82.7574 78.255 82.6372 78.022 82.4393 77.8498C82.2415 77.6776 81.9801 77.5786 81.7063 77.5721H81.6749C81.6793 77.3903 81.6436 77.2094 81.5701 77.0402C81.4965 76.871 81.3865 76.7169 81.2465 76.5868C81.1065 76.4568 80.9394 76.3535 80.7549 76.2829C80.5704 76.2124 80.3722 76.176 80.1721 76.176C79.9719 76.176 79.7738 76.2124 79.5893 76.2829C79.4048 76.3535 79.2376 76.4568 79.0977 76.5868C78.9577 76.7169 78.8477 76.871 78.7741 77.0402C78.7005 77.2094 78.6649 77.3903 78.6692 77.5721H78.6379C78.364 77.5786 78.1027 77.6776 77.9048 77.8498C77.707 78.022 77.5868 78.255 77.5677 78.5034C77.4193 78.4147 77.2495 78.3601 77.0727 78.3441C76.896 78.3281 76.7177 78.3512 76.5529 78.4115C76.3882 78.4718 76.2419 78.5674 76.1267 78.6902C76.0115 78.8131 75.9306 78.9594 75.8912 79.1168C75.751 79.0327 75.5915 78.9789 75.4249 78.9595C75.2583 78.9401 75.0891 78.9555 74.9301 79.0047C74.7711 79.0539 74.6266 79.1355 74.5077 79.2433C74.3887 79.3511 74.2985 79.4822 74.2439 79.6265C74.1635 79.6121 74.0818 79.605 73.9999 79.6051C73.7135 79.6044 73.435 79.6908 73.2088 79.8504C72.9826 80.0101 72.8216 80.2339 72.7514 80.4863C72.6813 80.7387 72.7059 81.0051 72.8214 81.2433C72.937 81.4815 73.1368 81.6777 73.3892 81.8008C73.3954 82.0416 73.4971 82.2723 73.6755 82.4504C73.8539 82.6285 74.097 82.7421 74.3601 82.7703C74.4564 83.0192 74.6567 83.2236 74.9177 83.3391C75.1787 83.4546 75.4793 83.4718 75.7542 83.387C75.8482 83.4985 75.9671 83.5908 76.103 83.6577C76.2389 83.7247 76.3888 83.7649 76.5429 83.7757C76.697 83.7866 76.8519 83.7678 76.9975 83.7206C77.1431 83.6734 77.2761 83.5988 77.3879 83.5018C77.5826 83.6708 77.8386 83.7691 78.1076 83.7781C78.3766 83.787 78.6399 83.7061 78.8476 83.5504C78.8569 83.5433 78.8662 83.5362 78.8747 83.5284C78.9163 83.7947 79.0557 84.0404 79.2703 84.2257C79.4849 84.411 79.762 84.5249 80.0568 84.549C80.3515 84.5731 80.6466 84.506 80.8941 84.3585C81.1416 84.211 81.327 83.9918 81.4202 83.7365C81.4459 83.6691 81.4645 83.5996 81.4759 83.529L81.5037 83.5511C81.7013 83.6978 81.9484 83.7782 82.2036 83.7787C82.4868 83.7788 82.7593 83.6797 82.9641 83.5018C83.0758 83.5988 83.2088 83.6734 83.3543 83.7205C83.4999 83.7677 83.6547 83.7865 83.8088 83.7757C83.9629 83.7649 84.1127 83.7247 84.2485 83.6577C84.3843 83.5907 84.5031 83.4985 84.5971 83.387C84.872 83.4718 85.1726 83.4546 85.4336 83.3391C85.6946 83.2236 85.895 83.0192 85.9912 82.7703C86.2543 82.7421 86.4974 82.6285 86.6758 82.4504C86.8542 82.2723 86.9559 82.0416 86.9621 81.8008C87.2142 81.6772 87.4136 81.4804 87.5285 81.2419C87.6435 81.0034 87.6673 80.7368 87.5964 80.4846C87.5255 80.2323 87.3638 80.0088 87.137 79.8497C86.9103 79.6906 86.6315 79.6049 86.345 79.6064H86.3443Z" fill="#9CA7AE"/>
<path d="M80.1881 84.5543H80.1717C79.8922 84.5541 79.6198 84.4741 79.393 84.3255C79.1663 84.1769 78.9967 83.9672 78.9082 83.7262C78.8866 83.669 78.8703 83.6102 78.8597 83.5504C78.869 83.5433 78.8783 83.5362 78.8868 83.5284C78.9348 83.8118 79.092 84.0705 79.3303 84.2584C79.5687 84.4463 79.8727 84.5512 80.1881 84.5543Z" fill="#9CA7AE"/>
<path d="M77.709 79.3723C77.1568 79.2621 76.825 79.5331 76.9242 79.9391L76.9064 79.9637C76.3549 79.8535 76.0231 80.1252 76.1216 80.5311" fill="#9CA7AE"/>
<path d="M75.3154 79.884C74.7632 79.7737 74.4315 80.0454 74.5307 80.4514L74.5128 80.476C73.9613 80.3658 73.6296 80.6368 73.728 81.0434" fill="#9CA7AE"/>
<path d="M77.0027 81.286C76.4505 81.1757 76.1187 81.4474 76.2179 81.8534L76.2001 81.878C75.6486 81.7678 75.3168 82.0388 75.4153 82.4454" fill="#9CA7AE"/>
<path d="M79.7444 79.884C79.1929 79.7737 78.8612 80.0454 78.9596 80.4514L78.9418 80.476C78.3896 80.3658 78.0586 80.6368 78.157 81.0434" fill="#9CA7AE"/>
<path d="M81.5608 81.8047C81.1784 81.4267 80.7361 81.4753 80.562 81.8599L80.532 81.8709C80.1496 81.4928 79.7073 81.5415 79.5332 81.926" fill="#9CA7AE"/>
<path d="M79.1565 82.7035C78.7748 82.3248 78.3318 82.3735 78.1577 82.758L78.1278 82.769C77.7454 82.391 77.3023 82.4396 77.129 82.8241" fill="#9CA7AE"/>
<path d="M84.0078 82.5129C83.6261 82.1342 83.1831 82.1835 83.009 82.568L82.9791 82.579C82.5974 82.2003 82.1543 82.2496 81.9803 82.6335" fill="#9CA7AE"/>
<path d="M83.985 80.5584C83.5413 80.24 83.1125 80.3515 83.0069 80.7568L82.9791 80.7717C82.536 80.4533 82.1073 80.5649 82.001 80.9701" fill="#9CA7AE"/>
<path d="M82.8635 79.5351C82.5225 79.1252 82.0787 79.1356 81.8647 79.5033L81.834 79.5117C81.493 79.1019 81.0492 79.1123 80.8352 79.48" fill="#9CA7AE"/>
<path d="M80.6133 77.7025C80.0612 77.5922 79.7294 77.864 79.8286 78.2699L79.8107 78.2945C79.2593 78.1843 78.9275 78.4554 79.026 78.862" fill="#9CA7AE"/>
<path d="M84.5493 79.6311C85.1008 79.5208 85.4326 79.7919 85.3341 80.1985L85.3519 80.2231C85.9041 80.1129 86.2352 80.3839 86.1367 80.7899" fill="#9CA7AE"/>
<path d="M83.985 80.5558C84.5365 80.4455 84.8682 80.7172 84.7698 81.1232L84.7876 81.1478C85.3398 81.0376 85.6708 81.3087 85.5724 81.7152" fill="#9CA7AE"/>
<path d="M77.709 79.3723C77.1568 79.2621 76.825 79.5331 76.9242 79.9391L76.9064 79.9637C76.3549 79.8535 76.0231 80.1252 76.1216 80.5311M75.3154 79.884C74.7632 79.7737 74.4315 80.0454 74.5307 80.4514L74.5128 80.476C73.9613 80.3658 73.6296 80.6368 73.728 81.0434M77.0027 81.286C76.4505 81.1757 76.1187 81.4474 76.2179 81.8534L76.2001 81.878C75.6486 81.7678 75.3168 82.0388 75.4153 82.4454M79.7444 79.884C79.1929 79.7737 78.8612 80.0454 78.9596 80.4514L78.9418 80.476C78.3896 80.3658 78.0586 80.6368 78.157 81.0434M81.5608 81.8047C81.1784 81.4267 80.7361 81.4753 80.562 81.8599L80.532 81.8709C80.1496 81.4928 79.7073 81.5415 79.5332 81.926M79.1565 82.7035C78.7748 82.3248 78.3318 82.3735 78.1577 82.758L78.1278 82.769C77.7454 82.391 77.3023 82.4396 77.129 82.8241M84.0078 82.5129C83.6261 82.1342 83.1831 82.1835 83.009 82.568L82.9791 82.579C82.5974 82.2003 82.1543 82.2496 81.9803 82.6335M83.985 80.5584C83.5413 80.24 83.1125 80.3515 83.0069 80.7568L82.9791 80.7717C82.536 80.4533 82.1073 80.5649 82.001 80.9701M82.8635 79.5351C82.5225 79.1252 82.0787 79.1356 81.8647 79.5033L81.834 79.5117C81.493 79.1019 81.0492 79.1123 80.8352 79.48M80.6133 77.7025C80.0612 77.5922 79.7294 77.864 79.8286 78.2699L79.8107 78.2945C79.2593 78.1843 78.9275 78.4554 79.026 78.862M84.5493 79.6311C85.1008 79.5208 85.4326 79.7919 85.3341 80.1985L85.3519 80.2231C85.9041 80.1129 86.2352 80.3839 86.1367 80.7899M83.985 80.5558C84.5365 80.4455 84.8682 80.7172 84.7698 81.1232L84.7876 81.1478C85.3398 81.0376 85.6708 81.3087 85.5724 81.7152M86.3443 79.6064C86.2622 79.6063 86.1802 79.6134 86.0996 79.6278C86.0252 79.4306 85.8849 79.2594 85.6983 79.1382C85.5117 79.0169 85.2881 78.9516 85.0587 78.9514C84.8432 78.9508 84.6324 79.0084 84.453 79.1168C84.4135 78.9594 84.3327 78.8131 84.2175 78.6902C84.1022 78.5674 83.956 78.4718 83.7913 78.4115C83.6265 78.3512 83.4482 78.3281 83.2714 78.3441C83.0947 78.3601 82.9249 78.4147 82.7765 78.5034C82.7574 78.255 82.6372 78.022 82.4393 77.8498C82.2415 77.6776 81.9801 77.5786 81.7063 77.5721H81.6749C81.6793 77.3903 81.6436 77.2094 81.5701 77.0402C81.4965 76.871 81.3865 76.7169 81.2465 76.5868C81.1065 76.4568 80.9394 76.3535 80.7549 76.2829C80.5704 76.2124 80.3722 76.176 80.1721 76.176C79.9719 76.176 79.7738 76.2124 79.5893 76.2829C79.4048 76.3535 79.2376 76.4568 79.0977 76.5868C78.9577 76.7169 78.8477 76.871 78.7741 77.0402C78.7005 77.2094 78.6649 77.3903 78.6692 77.5721H78.6379C78.364 77.5786 78.1027 77.6776 77.9048 77.8498C77.707 78.022 77.5868 78.255 77.5677 78.5034C77.4193 78.4147 77.2495 78.3601 77.0727 78.3441C76.896 78.3281 76.7177 78.3512 76.5529 78.4115C76.3882 78.4718 76.2419 78.5674 76.1267 78.6902C76.0115 78.8131 75.9306 78.9594 75.8912 79.1168C75.751 79.0327 75.5915 78.9789 75.4249 78.9595C75.2583 78.9401 75.0891 78.9555 74.9301 79.0047C74.7711 79.0539 74.6266 79.1355 74.5077 79.2433C74.3887 79.3511 74.2985 79.4822 74.2439 79.6265C74.1635 79.6121 74.0818 79.605 73.9999 79.6051C73.7135 79.6044 73.435 79.6908 73.2088 79.8504C72.9826 80.0101 72.8216 80.2339 72.7514 80.4863C72.6813 80.7387 72.7059 81.0051 72.8214 81.2433C72.937 81.4815 73.1368 81.6777 73.3892 81.8008C73.3954 82.0416 73.4971 82.2723 73.6755 82.4504C73.8539 82.6285 74.097 82.7421 74.3601 82.7703C74.4564 83.0192 74.6567 83.2236 74.9177 83.3391C75.1787 83.4546 75.4793 83.4718 75.7542 83.387C75.8482 83.4985 75.9671 83.5908 76.103 83.6577C76.2389 83.7247 76.3888 83.7649 76.5429 83.7757C76.697 83.7866 76.8519 83.7678 76.9975 83.7206C77.1431 83.6734 77.2761 83.5988 77.3879 83.5018C77.5826 83.6708 77.8386 83.7691 78.1076 83.7781C78.3766 83.787 78.6399 83.7061 78.8476 83.5504C78.8569 83.5433 78.8662 83.5362 78.8747 83.5284C78.9163 83.7947 79.0557 84.0404 79.2703 84.2257C79.4849 84.411 79.762 84.5249 80.0568 84.549C80.3515 84.5731 80.6466 84.506 80.8941 84.3585C81.1416 84.211 81.327 83.9918 81.4202 83.7365C81.4459 83.6691 81.4645 83.5996 81.4759 83.529L81.5037 83.5511C81.7013 83.6978 81.9484 83.7782 82.2036 83.7787C82.4868 83.7788 82.7593 83.6797 82.9641 83.5018C83.0758 83.5988 83.2088 83.6734 83.3543 83.7205C83.4999 83.7677 83.6547 83.7865 83.8088 83.7757C83.9629 83.7649 84.1127 83.7247 84.2485 83.6577C84.3843 83.5907 84.5031 83.4985 84.5971 83.387C84.872 83.4718 85.1726 83.4546 85.4336 83.3391C85.6946 83.2236 85.895 83.0192 85.9912 82.7703C86.2543 82.7421 86.4974 82.6285 86.6758 82.4504C86.8542 82.2723 86.9559 82.0416 86.9621 81.8008C87.2142 81.6772 87.4136 81.4804 87.5285 81.2419C87.6435 81.0034 87.6673 80.7368 87.5964 80.4846C87.5255 80.2323 87.3638 80.0088 87.137 79.8497C86.9103 79.6906 86.6315 79.6049 86.345 79.6064H86.3443ZM80.1881 84.5543H80.1717C79.8922 84.5541 79.6198 84.4741 79.393 84.3255C79.1663 84.1769 78.9967 83.9672 78.9082 83.7262C78.8866 83.669 78.8703 83.6102 78.8597 83.5504C78.869 83.5433 78.8783 83.5362 78.8868 83.5284C78.9348 83.8118 79.092 84.0705 79.3303 84.2584C79.5687 84.4463 79.8727 84.5512 80.1881 84.5543Z" stroke="black" stroke-width="0.22" stroke-linecap="round" stroke-linejoin="round"/>
<path d="M55.1002 15.6983H55.8885L55.0319 17.7478L55.3443 16.3297L55.4095 16.0341L55.1069 16.026L52.8494 15.9651L53.6335 12.423L56.4628 12.3326L54.8791 15.3315L54.6855 15.6983H55.1002Z" fill="#FFF200" stroke="black" stroke-width="0.5"/>
<path d="M51.1846 12.9348C52.2493 15.0628 51.0155 14.9568 51.0155 14.9568C50.109 14.5253 51.4594 13.4865 51.1846 12.9348Z" fill="url(#paint4_linear_66_1346)"/>
<path d="M47.9146 11.4735C48.7315 13.3234 47.7607 13.2407 47.7607 13.2407C47.047 12.8694 48.1251 11.9501 47.9146 11.4735Z" fill="url(#paint5_linear_66_1346)"/>
<path d="M49.5306 12.4635C50.4227 14.3998 49.3733 14.3103 49.3733 14.3103C48.5987 13.9217 49.7606 12.9656 49.5306 12.4635Z" fill="url(#paint6_linear_66_1346)"/>
<path d="M58.1788 12.9348C57.1142 15.0628 58.348 14.9568 58.348 14.9568C59.2545 14.5253 57.904 13.4865 58.1788 12.9348Z" fill="url(#paint7_linear_66_1346)"/>
<path d="M61.4498 11.4735C60.632 13.3234 61.6028 13.2407 61.6028 13.2407C62.314 12.8694 61.2383 11.9501 61.4498 11.4735Z" fill="url(#paint8_linear_66_1346)"/>
<path d="M59.8337 12.4635C58.9416 14.3998 59.991 14.3103 59.991 14.3103C60.7648 13.9217 59.6029 12.9656 59.8337 12.4635Z" fill="url(#paint9_linear_66_1346)"/>
<path d="M54.7287 13.7586H54.7092C54.3779 13.7585 54.055 13.6657 53.7862 13.4934C53.5175 13.3212 53.3164 13.0781 53.2116 12.7987C53.1859 12.7324 53.1667 12.6643 53.1541 12.595C53.1651 12.5868 53.1761 12.5785 53.1862 12.5695C53.2431 12.898 53.4294 13.1979 53.7119 13.4157C53.9944 13.6335 54.3548 13.755 54.7287 13.7586Z" stroke="#231F20" stroke-width="0.5" stroke-linecap="round" stroke-linejoin="round"/>
<path d="M51.7901 7.75201C51.1356 7.62423 50.7424 7.93843 50.8599 8.40897L50.8388 8.43754C50.1851 8.30975 49.7919 8.6247 49.9086 9.09525" stroke="#231F20" stroke-width="0.5" stroke-linecap="round" stroke-linejoin="round"/>
<path d="M48.953 8.34508C48.2985 8.2173 47.9053 8.53225 48.0228 9.00279L48.0017 9.03136C47.348 8.90357 46.9548 9.21777 47.0715 9.68907" stroke="#231F20" stroke-width="0.5" stroke-linecap="round" stroke-linejoin="round"/>
<path d="M50.9529 9.9702C50.2984 9.84241 49.9052 10.1574 50.0227 10.6279L50.0016 10.6565C49.3479 10.5287 48.9547 10.8429 49.0714 11.3142" stroke="#231F20" stroke-width="0.5" stroke-linecap="round" stroke-linejoin="round"/>
<path d="M54.2027 8.34508C53.549 8.2173 53.1558 8.53225 53.2725 9.00279L53.2513 9.03136C52.5968 8.90357 52.2044 9.21777 52.3211 9.68907" stroke="#231F20" stroke-width="0.5" stroke-linecap="round" stroke-linejoin="round"/>
<path d="M56.3556 10.5715C55.9024 10.1333 55.3781 10.1897 55.1718 10.6354L55.1362 10.6482C54.683 10.21 54.1587 10.2664 53.9524 10.7121" stroke="#231F20" stroke-width="0.5" stroke-linecap="round" stroke-linejoin="round"/>
<path d="M53.5059 11.6134C53.0535 11.1744 52.5283 11.2308 52.322 11.6765L52.2865 11.6893C51.8332 11.251 51.3081 11.3074 51.1026 11.7532" stroke="#231F20" stroke-width="0.5" stroke-linecap="round" stroke-linejoin="round"/>
<path d="M59.2562 11.3924C58.8038 10.9534 58.2786 11.0105 58.0723 11.4563L58.0368 11.469C57.5844 11.0301 57.0592 11.0872 56.8529 11.5322" stroke="#231F20" stroke-width="0.5" stroke-linecap="round" stroke-linejoin="round"/>
<path d="M59.2291 9.12682C58.7031 8.75775 58.1949 8.88703 58.0698 9.35683L58.0368 9.37412C57.5116 9.00505 57.0034 9.13434 56.8774 9.60413" stroke="#231F20" stroke-width="0.5" stroke-linecap="round" stroke-linejoin="round"/>
<path d="M57.8998 7.94068C57.4956 7.46562 56.9696 7.47765 56.7159 7.90385L56.6796 7.91362C56.2753 7.43856 55.7494 7.45059 55.4957 7.87679" stroke="#231F20" stroke-width="0.5" stroke-linecap="round" stroke-linejoin="round"/>
<path d="M55.2327 5.81646C54.5782 5.68867 54.1849 6.00362 54.3025 6.47417L54.2813 6.50273C53.6277 6.37495 53.2344 6.68915 53.3511 7.16045" stroke="#231F20" stroke-width="0.5" stroke-linecap="round" stroke-linejoin="round"/>
<path d="M59.898 8.05193C60.5517 7.92414 60.9449 8.23834 60.8282 8.70964L60.8493 8.7382C61.5039 8.61042 61.8962 8.92462 61.7795 9.39517" stroke="#231F20" stroke-width="0.5" stroke-linecap="round" stroke-linejoin="round"/>
<path d="M59.2291 9.12381C59.8828 8.99603 60.276 9.31098 60.1593 9.78153L60.1805 9.81009C60.835 9.68231 61.2274 9.9965 61.1107 10.4678" stroke="#231F20" stroke-width="0.5" stroke-linecap="round" stroke-linejoin="round"/>
<path d="M62.1703 8.01809C62.0712 8.01793 61.9724 8.02638 61.8751 8.04333C61.7854 7.81072 61.6162 7.60883 61.3911 7.46582C61.166 7.32281 60.8964 7.24581 60.6197 7.24558C60.3598 7.24482 60.1056 7.3127 59.8892 7.44062C59.8416 7.25499 59.7441 7.08237 59.6051 6.9375C59.4661 6.79264 59.2897 6.67984 59.091 6.60874C58.8923 6.53764 58.6772 6.51035 58.4641 6.52922C58.2509 6.54808 58.0461 6.61253 57.8671 6.71706C57.8441 6.42412 57.6991 6.14929 57.4605 5.94622C57.2218 5.74314 56.9066 5.62638 56.5764 5.61873H56.5385C56.5438 5.40419 56.5008 5.19088 56.4121 4.99131C56.3233 4.79174 56.1907 4.60994 56.0218 4.45656C55.853 4.30318 55.6514 4.18131 55.4289 4.09811C55.2063 4.01492 54.9674 3.97206 54.7259 3.97206C54.4845 3.97206 54.2456 4.01492 54.023 4.09811C53.8005 4.18131 53.5989 4.30318 53.4301 4.45656C53.2612 4.60994 53.1286 4.79174 53.0398 4.99131C52.9511 5.19088 52.9081 5.40419 52.9134 5.61873H52.8755C52.5453 5.62638 52.2301 5.74314 51.9914 5.94622C51.7528 6.14929 51.6078 6.42412 51.5848 6.71706C51.4058 6.61253 51.201 6.54808 50.9878 6.52922C50.7747 6.51035 50.5596 6.53764 50.3609 6.60874C50.1622 6.67984 49.9858 6.79264 49.8468 6.9375C49.7078 7.08237 49.6103 7.25499 49.5627 7.44062C49.3937 7.34145 49.2013 7.27797 49.0004 7.25506C48.7995 7.23214 48.5953 7.2504 48.4036 7.30842C48.2118 7.36644 48.0375 7.46269 47.8941 7.58981C47.7506 7.71693 47.6418 7.87154 47.5759 8.0418C47.479 8.02485 47.3804 8.0164 47.2816 8.01656C46.9362 8.01575 46.6004 8.11759 46.3276 8.30591C46.0547 8.49422 45.8606 8.7582 45.7759 9.05587C45.6912 9.35354 45.721 9.66783 45.8603 9.94877C45.9997 10.2297 46.2407 10.4612 46.5451 10.6064C46.5526 10.8904 46.6752 11.1624 46.8904 11.3725C47.1055 11.5826 47.3988 11.7166 47.7162 11.7498C47.8322 12.0434 48.0739 12.2845 48.3886 12.4207C48.7034 12.5569 49.066 12.5772 49.3975 12.4772C49.511 12.6087 49.6543 12.7175 49.8182 12.7965C49.9821 12.8755 50.1629 12.9229 50.3488 12.9357C50.5346 12.9485 50.7215 12.9263 50.8971 12.8706C51.0727 12.815 51.2331 12.7271 51.368 12.6126C51.6027 12.812 51.9115 12.9279 52.236 12.9385C52.5604 12.949 52.878 12.8535 53.1285 12.67C53.1397 12.6616 53.1509 12.6531 53.1612 12.644C53.2114 12.9581 53.3795 13.2479 53.6383 13.4664C53.8971 13.6849 54.2313 13.8193 54.5868 13.8477C54.9423 13.8762 55.2982 13.797 55.5967 13.623C55.8952 13.4491 56.1189 13.1906 56.2313 12.8895C56.2623 12.8099 56.2847 12.728 56.2985 12.6447L56.332 12.6707C56.5703 12.8438 56.8684 12.9386 57.1761 12.9392C57.5178 12.9394 57.8463 12.8224 58.0934 12.6126C58.2282 12.727 58.3885 12.8149 58.5641 12.8706C58.7396 12.9263 58.9264 12.9484 59.1122 12.9357C59.298 12.9229 59.4787 12.8755 59.6425 12.7965C59.8064 12.7175 59.9496 12.6087 60.063 12.4772C60.3945 12.5772 60.7571 12.5569 61.0719 12.4207C61.3866 12.2845 61.6283 12.0434 61.7443 11.7498C62.0617 11.7166 62.355 11.5826 62.5701 11.3725C62.7853 11.1624 62.9079 10.8904 62.9154 10.6064C63.2195 10.4605 63.4599 10.2285 63.5986 9.94716C63.7372 9.66584 63.766 9.35141 63.6804 9.05386C63.5949 8.75632 63.3998 8.49274 63.1263 8.30506C62.8529 8.11738 62.5166 8.01637 62.1711 8.01809H62.1703Z" fill="#58636A" stroke="#231F20" stroke-width="0.2" stroke-linecap="round" stroke-linejoin="round"/>
<path d="M54.7453 13.854H54.7255C54.3884 13.8538 54.0598 13.7594 53.7863 13.5841C53.5129 13.4088 53.3083 13.1615 53.2016 12.8772C53.1755 12.8098 53.1559 12.7404 53.1431 12.67C53.1543 12.6616 53.1655 12.6531 53.1758 12.644C53.2337 12.9783 53.4233 13.2834 53.7107 13.505C53.9982 13.7266 54.3648 13.8503 54.7453 13.854Z" stroke="#231F20" stroke-width="0.2" stroke-linecap="round" stroke-linejoin="round"/>
<path d="M51.7552 7.74198C51.0892 7.61195 50.6891 7.93166 50.8087 8.41046L50.7871 8.43953C50.122 8.3095 49.7219 8.62998 49.8406 9.10878" stroke="#231F20" stroke-width="0.2" stroke-linecap="round" stroke-linejoin="round"/>
<path d="M48.8683 8.34545C48.2023 8.21543 47.8022 8.5359 47.9218 9.01471L47.9003 9.04377C47.2352 8.91374 46.835 9.23345 46.9538 9.71302" stroke="#231F20" stroke-width="0.2" stroke-linecap="round" stroke-linejoin="round"/>
<path d="M50.9033 9.99908C50.2373 9.86905 49.8372 10.1895 49.9568 10.6683L49.9353 10.6974C49.2702 10.5674 48.8701 10.8871 48.9888 11.3666" stroke="#231F20" stroke-width="0.2" stroke-linecap="round" stroke-linejoin="round"/>
<path d="M54.2101 8.34545C53.545 8.21543 53.1448 8.5359 53.2636 9.01471L53.2421 9.04377C52.5761 8.91374 52.1768 9.23345 52.2956 9.71302" stroke="#231F20" stroke-width="0.2" stroke-linecap="round" stroke-linejoin="round"/>
<path d="M56.4009 10.611C55.9397 10.1651 55.4062 10.2224 55.1962 10.676L55.1601 10.689C54.6989 10.2431 54.1654 10.3004 53.9554 10.754" stroke="#231F20" stroke-width="0.2" stroke-linecap="round" stroke-linejoin="round"/>
<path d="M53.5011 11.6711C53.0407 11.2244 52.5064 11.2817 52.2964 11.7353L52.2603 11.7483C51.7991 11.3024 51.2647 11.3598 51.0556 11.8133" stroke="#231F20" stroke-width="0.2" stroke-linecap="round" stroke-linejoin="round"/>
<path d="M59.3522 11.4462C58.8919 10.9995 58.3575 11.0576 58.1476 11.5112L58.1115 11.5242C57.6511 11.0775 57.1168 11.1357 56.9068 11.5885" stroke="#231F20" stroke-width="0.2" stroke-linecap="round" stroke-linejoin="round"/>
<path d="M59.3247 9.14091C58.7895 8.76536 58.2724 8.89692 58.145 9.37495L58.1115 9.39255C57.5771 9.017 57.06 9.14856 56.9318 9.62659" stroke="#231F20" stroke-width="0.2" stroke-linecap="round" stroke-linejoin="round"/>
<path d="M57.9721 7.93396C57.5608 7.45056 57.0255 7.4628 56.7674 7.89648L56.7304 7.90642C56.3191 7.42303 55.7839 7.43527 55.5258 7.86894" stroke="#231F20" stroke-width="0.2" stroke-linecap="round" stroke-linejoin="round"/>
<path d="M55.2581 5.77246C54.5921 5.64244 54.192 5.96291 54.3116 6.44171L54.2901 6.47078C53.625 6.34075 53.2248 6.66046 53.3436 7.14003" stroke="#231F20" stroke-width="0.2" stroke-linecap="round" stroke-linejoin="round"/>
<path d="M60.0053 8.04716C60.6705 7.91713 61.0706 8.23684 60.9519 8.71641L60.9734 8.74548C61.6394 8.61545 62.0386 8.93516 61.9199 9.41396" stroke="#231F20" stroke-width="0.2" stroke-linecap="round" stroke-linejoin="round"/>
<path d="M59.3247 9.13784C59.9898 9.00782 60.39 9.32829 60.2712 9.80709L60.2927 9.83616C60.9587 9.70613 61.358 10.0258 61.2392 10.5054" stroke="#231F20" stroke-width="0.2" stroke-linecap="round" stroke-linejoin="round"/>
<path d="M24.5205 68.4449C34.6233 75.7716 28.4818 85.9191 15.693 81.938C23.974 80.6608 26.4708 73.8864 24.5205 68.4449Z" fill="url(#paint10_linear_66_1346)" stroke="black" stroke-width="0.3"/>
<path d="M7.22348 56.2174C18.0977 57.9435 22.716 49.2978 14.6575 42.86C14.2733 42.553 13.7231 42.9659 13.8386 43.4439C14.9382 47.9947 13.0174 53.1379 7.1905 55.1999C6.69085 55.3767 6.70002 56.1343 7.22348 56.2174Z" fill="url(#paint11_linear_66_1346)"/>
<path d="M16.8011 30.3955C27.6753 32.1217 32.2935 23.476 24.2351 17.0381C23.8508 16.7312 23.3007 17.144 23.4162 17.6221C24.5157 22.1729 22.595 27.3161 16.7681 29.3781C16.2684 29.5549 16.2776 30.3124 16.8011 30.3955Z" fill="url(#paint12_linear_66_1346)"/>
<path d="M22.5404 48.8305C22.4583 48.8303 22.3763 48.8375 22.2957 48.8519C22.2213 48.6546 22.081 48.4835 21.8944 48.3622C21.7078 48.241 21.4842 48.1757 21.2549 48.1755C21.0394 48.1748 20.8286 48.2324 20.6491 48.3409C20.6097 48.1835 20.5289 48.0371 20.4136 47.9143C20.2984 47.7915 20.1521 47.6958 19.9874 47.6356C19.8226 47.5753 19.6443 47.5521 19.4676 47.5681C19.2909 47.5841 19.121 47.6388 18.9726 47.7274C18.9535 47.479 18.8333 47.246 18.6355 47.0738C18.4376 46.9017 18.1763 46.8027 17.9024 46.7962H17.8711C17.8754 46.6143 17.8398 46.4334 17.7662 46.2642C17.6926 46.095 17.5826 45.9409 17.4427 45.8109C17.3027 45.6808 17.1355 45.5775 16.951 45.507C16.7665 45.4364 16.5684 45.4001 16.3682 45.4001C16.1681 45.4001 15.9699 45.4364 15.7854 45.507C15.6009 45.5775 15.4338 45.6808 15.2938 45.8109C15.1538 45.9409 15.0438 46.095 14.9702 46.2642C14.8967 46.4334 14.861 46.6143 14.8654 46.7962H14.834C14.5602 46.8027 14.2988 46.9017 14.101 47.0738C13.9031 47.246 13.7829 47.479 13.7639 47.7274C13.6154 47.6388 13.4456 47.5841 13.2689 47.5681C13.0922 47.5521 12.9138 47.5753 12.7491 47.6356C12.5843 47.6958 12.4381 47.7915 12.3228 47.9143C12.2076 48.0371 12.1268 48.1835 12.0873 48.3409C11.9471 48.2568 11.7876 48.203 11.6211 48.1835C11.4545 48.1641 11.2852 48.1796 11.1262 48.2288C10.9672 48.278 10.8227 48.3596 10.7038 48.4673C10.5848 48.5751 10.4946 48.7062 10.44 48.8506C10.3596 48.8362 10.2779 48.829 10.196 48.8292C9.9096 48.8285 9.63118 48.9148 9.40498 49.0745C9.17877 49.2341 9.01778 49.4579 8.94759 49.7103C8.87739 49.9627 8.90203 50.2292 9.01758 50.4674C9.13313 50.7055 9.33296 50.9018 9.5853 51.0249C9.59155 51.2657 9.69322 51.4963 9.8716 51.6745C10.05 51.8526 10.2931 51.9662 10.5563 51.9944C10.6525 52.2433 10.8528 52.4477 11.1139 52.5631C11.3749 52.6786 11.6754 52.6958 11.9503 52.6111C12.0444 52.7226 12.1632 52.8148 12.2991 52.8818C12.435 52.9488 12.5849 52.989 12.739 52.9998C12.8931 53.0106 13.048 52.9918 13.1936 52.9446C13.3392 52.8974 13.4723 52.8229 13.5841 52.7258C13.7787 52.8949 14.0347 52.9932 14.3037 53.0021C14.5727 53.0111 14.836 52.9301 15.0437 52.7745C15.053 52.7673 15.0623 52.7602 15.0709 52.7524C15.1125 53.0188 15.2519 53.2645 15.4664 53.4497C15.681 53.635 15.9581 53.7489 16.2529 53.773C16.5476 53.7971 16.8427 53.73 17.0902 53.5825C17.3377 53.4351 17.5231 53.2159 17.6164 52.9606C17.642 52.8932 17.6606 52.8237 17.672 52.7531L17.6998 52.7751C17.8974 52.9218 18.1446 53.0022 18.3997 53.0027C18.683 53.0029 18.9554 52.9037 19.1602 52.7258C19.272 52.8229 19.4049 52.8974 19.5505 52.9446C19.696 52.9918 19.8509 53.0106 20.0049 52.9998C20.159 52.9889 20.3088 52.9487 20.4447 52.8817C20.5805 52.8148 20.6993 52.7225 20.7933 52.6111C21.0681 52.6958 21.3687 52.6786 21.6297 52.5631C21.8907 52.4477 22.0911 52.2433 22.1873 51.9944C22.4505 51.9662 22.6936 51.8526 22.872 51.6745C23.0504 51.4963 23.152 51.2657 23.1583 51.0249C23.4104 50.9012 23.6097 50.7045 23.7247 50.466C23.8396 50.2275 23.8635 49.9609 23.7925 49.7086C23.7216 49.4563 23.5599 49.2329 23.3331 49.0738C23.1064 48.9146 22.8276 48.829 22.5412 48.8305H22.5404Z" fill="#9CA7AE"/>
<path d="M16.3843 53.7783H16.3679C16.0883 53.7782 15.8159 53.6981 15.5892 53.5495C15.3624 53.4009 15.1928 53.1913 15.1044 52.9502C15.0827 52.893 15.0665 52.8342 15.0559 52.7745C15.0651 52.7673 15.0744 52.7602 15.083 52.7524C15.131 53.0359 15.2882 53.2946 15.5265 53.4825C15.7648 53.6704 16.0688 53.7752 16.3843 53.7783Z" fill="#9CA7AE"/>
<path d="M13.9051 48.5964C13.3529 48.4861 13.0212 48.7572 13.1203 49.1631L13.1025 49.1878C12.551 49.0775 12.2193 49.3492 12.3177 49.7552" fill="#9CA7AE"/>
<path d="M11.5116 49.108C10.9594 48.9978 10.6276 49.2695 10.7268 49.6754L10.709 49.7001C10.1575 49.5898 9.82573 49.8609 9.92418 50.2675" fill="#9CA7AE"/>
<path d="M13.1988 50.51C12.6466 50.3998 12.3149 50.6715 12.414 51.0774L12.3962 51.1021C11.8447 50.9918 11.513 51.2629 11.6114 51.6695" fill="#9CA7AE"/>
<path d="M15.9405 49.108C15.389 48.9978 15.0573 49.2695 15.1558 49.6754L15.1379 49.7001C14.5857 49.5898 14.2547 49.8609 14.3531 50.2675" fill="#9CA7AE"/>
<path d="M17.7569 51.0288C17.3745 50.6507 16.9322 50.6994 16.7581 51.0839L16.7282 51.0949C16.3458 50.7169 15.9034 50.7655 15.7294 51.15" fill="#9CA7AE"/>
<path d="M15.3527 51.9276C14.971 51.5489 14.5279 51.5975 14.3539 51.982L14.3239 51.9931C13.9415 51.615 13.4984 51.6636 13.3251 52.0482" fill="#9CA7AE"/>
<path d="M20.204 51.7369C19.8223 51.3582 19.3792 51.4075 19.2052 51.792L19.1752 51.8031C18.7935 51.4244 18.3505 51.4736 18.1764 51.8575" fill="#9CA7AE"/>
<path d="M20.1811 49.7824C19.7374 49.464 19.3086 49.5755 19.203 49.9808L19.1752 49.9958C18.7322 49.6774 18.3034 49.7889 18.1971 50.1942" fill="#9CA7AE"/>
<path d="M19.0596 48.7591C18.7186 48.3493 18.2749 48.3597 18.0608 48.7273L18.0302 48.7358C17.6891 48.3259 17.2454 48.3363 17.0314 48.704" fill="#9CA7AE"/>
<path d="M16.8095 46.9265C16.2573 46.8163 15.9255 47.088 16.0247 47.4939L16.0069 47.5186C15.4554 47.4083 15.1236 47.6794 15.2221 48.086" fill="#9CA7AE"/>
<path d="M20.7455 48.8551C21.2969 48.7449 21.6287 49.0159 21.5302 49.4225L21.5481 49.4472C22.1003 49.3369 22.4313 49.608 22.3328 50.0139" fill="#9CA7AE"/>
<path d="M20.1811 49.7798C20.7326 49.6696 21.0644 49.9413 20.9659 50.3472L20.9838 50.3719C21.5359 50.2616 21.867 50.5327 21.7685 50.9393" fill="#9CA7AE"/>
<path d="M13.9051 48.5964C13.3529 48.4861 13.0212 48.7572 13.1203 49.1631L13.1025 49.1878C12.551 49.0775 12.2193 49.3492 12.3177 49.7552M11.5116 49.108C10.9594 48.9978 10.6276 49.2695 10.7268 49.6754L10.709 49.7001C10.1575 49.5898 9.82573 49.8609 9.92418 50.2675M13.1988 50.51C12.6466 50.3998 12.3149 50.6715 12.414 51.0774L12.3962 51.1021C11.8447 50.9918 11.513 51.2629 11.6114 51.6695M15.9405 49.108C15.389 48.9978 15.0573 49.2695 15.1558 49.6754L15.1379 49.7001C14.5857 49.5898 14.2547 49.8609 14.3531 50.2675M17.7569 51.0288C17.3745 50.6507 16.9322 50.6994 16.7581 51.0839L16.7282 51.0949C16.3458 50.7169 15.9034 50.7655 15.7294 51.15M15.3527 51.9276C14.971 51.5489 14.5279 51.5975 14.3539 51.982L14.3239 51.9931C13.9415 51.615 13.4984 51.6636 13.3251 52.0482M20.204 51.7369C19.8223 51.3582 19.3792 51.4075 19.2052 51.792L19.1752 51.8031C18.7935 51.4244 18.3505 51.4736 18.1764 51.8575M20.1811 49.7824C19.7374 49.464 19.3086 49.5755 19.203 49.9808L19.1752 49.9958C18.7322 49.6774 18.3034 49.7889 18.1971 50.1942M19.0596 48.7591C18.7186 48.3493 18.2749 48.3597 18.0608 48.7273L18.0302 48.7358C17.6891 48.3259 17.2454 48.3363 17.0314 48.704M16.8095 46.9265C16.2573 46.8163 15.9255 47.088 16.0247 47.4939L16.0069 47.5186C15.4554 47.4083 15.1236 47.6794 15.2221 48.086M20.7455 48.8551C21.2969 48.7449 21.6287 49.0159 21.5302 49.4225L21.5481 49.4472C22.1003 49.3369 22.4313 49.608 22.3328 50.0139M20.1811 49.7798C20.7326 49.6696 21.0644 49.9413 20.9659 50.3472L20.9838 50.3719C21.5359 50.2616 21.867 50.5327 21.7685 50.9393M22.5404 48.8305C22.4583 48.8303 22.3763 48.8375 22.2957 48.8519C22.2213 48.6546 22.081 48.4835 21.8944 48.3622C21.7078 48.241 21.4842 48.1757 21.2549 48.1755C21.0394 48.1748 20.8286 48.2324 20.6491 48.3409C20.6097 48.1835 20.5289 48.0371 20.4136 47.9143C20.2984 47.7915 20.1521 47.6958 19.9874 47.6356C19.8226 47.5753 19.6443 47.5521 19.4676 47.5681C19.2909 47.5841 19.121 47.6388 18.9726 47.7274C18.9535 47.479 18.8333 47.246 18.6355 47.0738C18.4376 46.9017 18.1763 46.8027 17.9024 46.7962H17.8711C17.8754 46.6143 17.8398 46.4334 17.7662 46.2642C17.6926 46.095 17.5826 45.9409 17.4427 45.8109C17.3027 45.6808 17.1355 45.5775 16.951 45.507C16.7665 45.4364 16.5684 45.4001 16.3682 45.4001C16.1681 45.4001 15.9699 45.4364 15.7854 45.507C15.6009 45.5775 15.4338 45.6808 15.2938 45.8109C15.1538 45.9409 15.0438 46.095 14.9702 46.2642C14.8967 46.4334 14.861 46.6143 14.8654 46.7962H14.834C14.5602 46.8027 14.2988 46.9017 14.101 47.0738C13.9031 47.246 13.7829 47.479 13.7639 47.7274C13.6154 47.6388 13.4456 47.5841 13.2689 47.5681C13.0922 47.5521 12.9138 47.5753 12.7491 47.6356C12.5843 47.6958 12.4381 47.7915 12.3228 47.9143C12.2076 48.0371 12.1268 48.1835 12.0873 48.3409C11.9471 48.2568 11.7876 48.203 11.6211 48.1835C11.4545 48.1641 11.2852 48.1796 11.1262 48.2288C10.9672 48.278 10.8227 48.3596 10.7038 48.4673C10.5848 48.5751 10.4946 48.7062 10.44 48.8506C10.3596 48.8362 10.2779 48.829 10.196 48.8292C9.9096 48.8285 9.63118 48.9148 9.40498 49.0745C9.17877 49.2341 9.01778 49.4579 8.94759 49.7103C8.87739 49.9627 8.90203 50.2292 9.01758 50.4674C9.13313 50.7055 9.33296 50.9018 9.5853 51.0249C9.59155 51.2657 9.69322 51.4963 9.8716 51.6745C10.05 51.8526 10.2931 51.9662 10.5563 51.9944C10.6525 52.2433 10.8528 52.4477 11.1139 52.5631C11.3749 52.6786 11.6754 52.6958 11.9503 52.6111C12.0444 52.7226 12.1632 52.8148 12.2991 52.8818C12.435 52.9488 12.5849 52.989 12.739 52.9998C12.8931 53.0106 13.048 52.9918 13.1936 52.9446C13.3392 52.8974 13.4723 52.8229 13.5841 52.7258C13.7787 52.8949 14.0347 52.9932 14.3037 53.0021C14.5727 53.0111 14.836 52.9301 15.0437 52.7745C15.053 52.7673 15.0623 52.7602 15.0709 52.7524C15.1125 53.0188 15.2519 53.2645 15.4664 53.4497C15.681 53.635 15.9581 53.7489 16.2529 53.773C16.5476 53.7971 16.8427 53.73 17.0902 53.5825C17.3377 53.4351 17.5231 53.2159 17.6164 52.9606C17.642 52.8932 17.6606 52.8237 17.672 52.7531L17.6998 52.7751C17.8974 52.9218 18.1446 53.0022 18.3997 53.0027C18.683 53.0029 18.9554 52.9037 19.1602 52.7258C19.272 52.8229 19.4049 52.8974 19.5505 52.9446C19.696 52.9918 19.8509 53.0106 20.0049 52.9998C20.159 52.9889 20.3088 52.9487 20.4447 52.8817C20.5805 52.8148 20.6993 52.7225 20.7933 52.6111C21.0681 52.6958 21.3687 52.6786 21.6297 52.5631C21.8907 52.4477 22.0911 52.2433 22.1873 51.9944C22.4505 51.9662 22.6936 51.8526 22.872 51.6745C23.0504 51.4963 23.152 51.2657 23.1583 51.0249C23.4104 50.9012 23.6097 50.7045 23.7247 50.466C23.8396 50.2275 23.8635 49.9609 23.7925 49.7086C23.7216 49.4563 23.5599 49.2329 23.3331 49.0738C23.1064 48.9146 22.8276 48.829 22.5412 48.8305H22.5404ZM16.3843 53.7783H16.3679C16.0883 53.7782 15.8159 53.6981 15.5892 53.5495C15.3624 53.4009 15.1928 53.1913 15.1044 52.9502C15.0827 52.893 15.0665 52.8342 15.0559 52.7745C15.0651 52.7673 15.0744 52.7602 15.083 52.7524C15.131 53.0359 15.2882 53.2946 15.5265 53.4825C15.7648 53.6704 16.0688 53.7752 16.3843 53.7783Z" stroke="black" stroke-width="0.22" stroke-linecap="round" stroke-linejoin="round"/>
<path d="M34.118 21.9732C34.0359 21.973 33.9539 21.9802 33.8733 21.9946C33.7989 21.7973 33.6586 21.6262 33.472 21.5049C33.2854 21.3837 33.0618 21.3184 32.8324 21.3182C32.617 21.3175 32.4061 21.3751 32.2267 21.4836C32.1872 21.3262 32.1064 21.1798 31.9912 21.057C31.8759 20.9342 31.7297 20.8385 31.565 20.7783C31.4002 20.718 31.2219 20.6948 31.0451 20.7108C30.8684 20.7268 30.6986 20.7815 30.5502 20.8701C30.5311 20.6217 30.4109 20.3887 30.213 20.2165C30.0152 20.0444 29.7538 19.9454 29.48 19.9389H29.4486C29.453 19.757 29.4173 19.5761 29.3438 19.4069C29.2702 19.2377 29.1602 19.0836 29.0202 18.9536C28.8802 18.8235 28.7131 18.7202 28.5286 18.6497C28.3441 18.5791 28.146 18.5428 27.9458 18.5428C27.7456 18.5428 27.5475 18.5791 27.363 18.6497C27.1785 18.7202 27.0113 18.8235 26.8714 18.9536C26.7314 19.0836 26.6214 19.2377 26.5478 19.4069C26.4742 19.5761 26.4386 19.757 26.443 19.9389H26.4116C26.1377 19.9454 25.8764 20.0444 25.6785 20.2165C25.4807 20.3887 25.3605 20.6217 25.3414 20.8701C25.193 20.7815 25.0232 20.7268 24.8464 20.7108C24.6697 20.6948 24.4914 20.718 24.3266 20.7783C24.1619 20.8385 24.0156 20.9342 23.9004 21.057C23.7852 21.1798 23.7044 21.3262 23.6649 21.4836C23.5247 21.3995 23.3652 21.3457 23.1986 21.3262C23.032 21.3068 22.8628 21.3223 22.7038 21.3715C22.5448 21.4207 22.4003 21.5023 22.2814 21.61C22.1624 21.7178 22.0722 21.8489 22.0176 21.9933C21.9372 21.9789 21.8555 21.9717 21.7736 21.9719C21.4872 21.9712 21.2088 22.0575 20.9826 22.2172C20.7563 22.3768 20.5954 22.6006 20.5252 22.853C20.455 23.1054 20.4796 23.3719 20.5952 23.6101C20.7107 23.8482 20.9105 24.0445 21.1629 24.1676C21.1691 24.4084 21.2708 24.639 21.4492 24.8172C21.6276 24.9953 21.8707 25.1089 22.1339 25.1371C22.2301 25.386 22.4304 25.5904 22.6914 25.7058C22.9524 25.8213 23.253 25.8385 23.5279 25.7538C23.622 25.8653 23.7408 25.9575 23.8767 26.0245C24.0126 26.0915 24.1625 26.1317 24.3166 26.1425C24.4707 26.1533 24.6256 26.1345 24.7712 26.0873C24.9168 26.0401 25.0498 25.9656 25.1616 25.8685C25.3563 26.0376 25.6123 26.1359 25.8813 26.1448C26.1503 26.1538 26.4136 26.0728 26.6213 25.9172C26.6306 25.91 26.6399 25.9029 26.6484 25.8951C26.69 26.1615 26.8294 26.4072 27.044 26.5924C27.2586 26.7777 27.5357 26.8916 27.8305 26.9157C28.1252 26.9398 28.4203 26.8727 28.6678 26.7252C28.9153 26.5778 29.1007 26.3586 29.1939 26.1033C29.2196 26.0359 29.2382 25.9664 29.2496 25.8958L29.2774 25.9178C29.475 26.0645 29.7221 26.1449 29.9773 26.1454C30.2606 26.1456 30.533 26.0464 30.7378 25.8685C30.8495 25.9656 30.9825 26.0401 31.128 26.0873C31.2736 26.1345 31.4284 26.1533 31.5825 26.1425C31.7366 26.1316 31.8864 26.0914 32.0222 26.0244C32.1581 25.9575 32.2768 25.8652 32.3708 25.7538C32.6457 25.8385 32.9463 25.8213 33.2073 25.7058C33.4683 25.5904 33.6687 25.386 33.7649 25.1371C34.028 25.1089 34.2712 24.9953 34.4495 24.8172C34.6279 24.639 34.7296 24.4084 34.7359 24.1676C34.9879 24.0439 35.1873 23.8472 35.3022 23.6087C35.4172 23.3702 35.4411 23.1036 35.3701 22.8513C35.2992 22.599 35.1375 22.3756 34.9107 22.2165C34.684 22.0573 34.4052 21.9717 34.1187 21.9732H34.118Z" fill="#9CA7AE"/>
<path d="M27.9618 26.921H27.9454C27.6659 26.9209 27.3935 26.8408 27.1667 26.6922C26.94 26.5436 26.7704 26.334 26.682 26.0929C26.6603 26.0357 26.644 25.9769 26.6334 25.9172C26.6427 25.91 26.652 25.9029 26.6606 25.8951C26.7086 26.1786 26.8657 26.4373 27.1041 26.6252C27.3424 26.8131 27.6464 26.9179 27.9618 26.921Z" fill="#9CA7AE"/>
<path d="M25.4827 21.7391C24.9305 21.6288 24.5988 21.8999 24.6979 22.3058L24.6801 22.3305C24.1286 22.2202 23.7969 22.4919 23.8953 22.8979" fill="#9CA7AE"/>
<path d="M23.0891 22.2507C22.5369 22.1405 22.2052 22.4122 22.3044 22.8181L22.2865 22.8428C21.735 22.7325 21.4033 23.0036 21.5018 23.4102" fill="#9CA7AE"/>
<path d="M24.7764 23.6527C24.2242 23.5425 23.8925 23.8142 23.9916 24.2201L23.9738 24.2448C23.4223 24.1345 23.0906 24.4056 23.189 24.8122" fill="#9CA7AE"/>
<path d="M27.5181 22.2507C26.9666 22.1405 26.6349 22.4122 26.7333 22.8181L26.7155 22.8428C26.1633 22.7325 25.8323 23.0036 25.9307 23.4102" fill="#9CA7AE"/>
<path d="M29.3345 24.1715C28.9521 23.7934 28.5098 23.8421 28.3357 24.2266L28.3057 24.2376C27.9233 23.8596 27.481 23.9082 27.3069 24.2927" fill="#9CA7AE"/>
<path d="M26.9302 25.0703C26.5485 24.6916 26.1055 24.7402 25.9314 25.1247L25.9015 25.1358C25.5191 24.7577 25.076 24.8063 24.9027 25.1909" fill="#9CA7AE"/>
<path d="M31.7815 24.8796C31.3999 24.5009 30.9568 24.5502 30.7827 24.9347L30.7528 24.9458C30.3711 24.5671 29.9281 24.6163 29.754 25.0002" fill="#9CA7AE"/>
<path d="M31.7587 22.9251C31.315 22.6067 30.8862 22.7182 30.7806 23.1235L30.7528 23.1385C30.3097 22.8201 29.881 22.9316 29.7747 23.3369" fill="#9CA7AE"/>
<path d="M30.6372 21.9018C30.2962 21.492 29.8524 21.5024 29.6384 21.87L29.6077 21.8785C29.2667 21.4686 28.823 21.479 28.6089 21.8467" fill="#9CA7AE"/>
<path d="M28.3871 20.0692C27.8349 19.959 27.5031 20.2307 27.6023 20.6366L27.5844 20.6613C27.033 20.551 26.7012 20.8221 26.7997 21.2287" fill="#9CA7AE"/>
<path d="M32.323 21.9978C32.8745 21.8876 33.2063 22.1586 33.1078 22.5652L33.1256 22.5899C33.6778 22.4796 34.0089 22.7507 33.9104 23.1566" fill="#9CA7AE"/>
<path d="M31.7587 22.9225C32.3102 22.8123 32.6419 23.084 32.5435 23.4899L32.5613 23.5146C33.1135 23.4043 33.4446 23.6754 33.3461 24.082" fill="#9CA7AE"/>
<path d="M25.4827 21.7391C24.9305 21.6288 24.5988 21.8999 24.6979 22.3058L24.6801 22.3305C24.1286 22.2202 23.7969 22.4919 23.8953 22.8979M23.0891 22.2507C22.5369 22.1405 22.2052 22.4122 22.3044 22.8181L22.2865 22.8428C21.735 22.7325 21.4033 23.0036 21.5018 23.4102M24.7764 23.6527C24.2242 23.5425 23.8925 23.8142 23.9916 24.2201L23.9738 24.2448C23.4223 24.1345 23.0906 24.4056 23.189 24.8122M27.5181 22.2507C26.9666 22.1405 26.6349 22.4122 26.7333 22.8181L26.7155 22.8428C26.1633 22.7325 25.8323 23.0036 25.9307 23.4102M29.3345 24.1715C28.9521 23.7934 28.5098 23.8421 28.3357 24.2266L28.3057 24.2376C27.9233 23.8596 27.481 23.9082 27.3069 24.2927M26.9302 25.0703C26.5485 24.6916 26.1055 24.7402 25.9314 25.1247L25.9015 25.1358C25.5191 24.7577 25.076 24.8063 24.9027 25.1909M31.7815 24.8796C31.3999 24.5009 30.9568 24.5502 30.7827 24.9347L30.7528 24.9458C30.3711 24.5671 29.9281 24.6163 29.754 25.0002M31.7587 22.9251C31.315 22.6067 30.8862 22.7182 30.7806 23.1235L30.7528 23.1385C30.3097 22.8201 29.881 22.9316 29.7747 23.3369M30.6372 21.9018C30.2962 21.492 29.8524 21.5024 29.6384 21.87L29.6077 21.8785C29.2667 21.4686 28.823 21.479 28.6089 21.8467M28.3871 20.0692C27.8349 19.959 27.5031 20.2307 27.6023 20.6366L27.5844 20.6613C27.033 20.551 26.7012 20.8221 26.7997 21.2287M32.323 21.9978C32.8745 21.8876 33.2063 22.1586 33.1078 22.5652L33.1256 22.5899C33.6778 22.4796 34.0089 22.7507 33.9104 23.1566M31.7587 22.9225C32.3102 22.8123 32.6419 23.084 32.5435 23.4899L32.5613 23.5146C33.1135 23.4043 33.4446 23.6754 33.3461 24.082M34.118 21.9732C34.0359 21.973 33.9539 21.9802 33.8733 21.9946C33.7989 21.7973 33.6586 21.6262 33.472 21.5049C33.2854 21.3837 33.0618 21.3184 32.8324 21.3182C32.617 21.3175 32.4061 21.3751 32.2267 21.4836C32.1872 21.3262 32.1064 21.1798 31.9912 21.057C31.8759 20.9342 31.7297 20.8385 31.565 20.7783C31.4002 20.718 31.2219 20.6948 31.0451 20.7108C30.8684 20.7268 30.6986 20.7815 30.5502 20.8701C30.5311 20.6217 30.4109 20.3887 30.213 20.2165C30.0152 20.0444 29.7538 19.9454 29.48 19.9389H29.4486C29.453 19.757 29.4173 19.5761 29.3438 19.4069C29.2702 19.2377 29.1602 19.0836 29.0202 18.9536C28.8802 18.8235 28.7131 18.7202 28.5286 18.6497C28.3441 18.5791 28.146 18.5428 27.9458 18.5428C27.7456 18.5428 27.5475 18.5791 27.363 18.6497C27.1785 18.7202 27.0113 18.8235 26.8714 18.9536C26.7314 19.0836 26.6214 19.2377 26.5478 19.4069C26.4742 19.5761 26.4386 19.757 26.443 19.9389H26.4116C26.1377 19.9454 25.8764 20.0444 25.6785 20.2165C25.4807 20.3887 25.3605 20.6217 25.3414 20.8701C25.193 20.7815 25.0232 20.7268 24.8464 20.7108C24.6697 20.6948 24.4914 20.718 24.3266 20.7783C24.1619 20.8385 24.0156 20.9342 23.9004 21.057C23.7852 21.1798 23.7044 21.3262 23.6649 21.4836C23.5247 21.3995 23.3652 21.3457 23.1986 21.3262C23.032 21.3068 22.8628 21.3223 22.7038 21.3715C22.5448 21.4207 22.4003 21.5023 22.2814 21.61C22.1624 21.7178 22.0722 21.8489 22.0176 21.9933C21.9372 21.9789 21.8555 21.9717 21.7736 21.9719C21.4872 21.9712 21.2088 22.0575 20.9826 22.2172C20.7563 22.3768 20.5954 22.6006 20.5252 22.853C20.455 23.1054 20.4796 23.3719 20.5952 23.6101C20.7107 23.8482 20.9105 24.0445 21.1629 24.1676C21.1691 24.4084 21.2708 24.639 21.4492 24.8172C21.6276 24.9953 21.8707 25.1089 22.1339 25.1371C22.2301 25.386 22.4304 25.5904 22.6914 25.7058C22.9524 25.8213 23.253 25.8385 23.5279 25.7538C23.622 25.8653 23.7408 25.9575 23.8767 26.0245C24.0126 26.0915 24.1625 26.1317 24.3166 26.1425C24.4707 26.1533 24.6256 26.1345 24.7712 26.0873C24.9168 26.0401 25.0498 25.9656 25.1616 25.8685C25.3563 26.0376 25.6123 26.1359 25.8813 26.1448C26.1503 26.1538 26.4136 26.0728 26.6213 25.9172C26.6306 25.91 26.6399 25.9029 26.6484 25.8951C26.69 26.1615 26.8294 26.4072 27.044 26.5924C27.2586 26.7777 27.5357 26.8916 27.8305 26.9157C28.1252 26.9398 28.4203 26.8727 28.6678 26.7252C28.9153 26.5778 29.1007 26.3586 29.1939 26.1033C29.2196 26.0359 29.2382 25.9664 29.2496 25.8958L29.2774 25.9178C29.475 26.0645 29.7221 26.1449 29.9773 26.1454C30.2606 26.1456 30.533 26.0464 30.7378 25.8685C30.8495 25.9656 30.9825 26.0401 31.128 26.0873C31.2736 26.1345 31.4284 26.1533 31.5825 26.1425C31.7366 26.1316 31.8864 26.0914 32.0222 26.0244C32.1581 25.9575 32.2768 25.8652 32.3708 25.7538C32.6457 25.8385 32.9463 25.8213 33.2073 25.7058C33.4683 25.5904 33.6687 25.386 33.7649 25.1371C34.028 25.1089 34.2712 24.9953 34.4495 24.8172C34.6279 24.639 34.7296 24.4084 34.7359 24.1676C34.9879 24.0439 35.1873 23.8472 35.3022 23.6087C35.4172 23.3702 35.4411 23.1036 35.3701 22.8513C35.2992 22.599 35.1375 22.3756 34.9107 22.2165C34.684 22.0573 34.4052 21.9717 34.1187 21.9732H34.118ZM27.9618 26.921H27.9454C27.6659 26.9209 27.3935 26.8408 27.1667 26.6922C26.94 26.5436 26.7704 26.334 26.682 26.0929C26.6603 26.0357 26.644 25.9769 26.6334 25.9172C26.6427 25.91 26.652 25.9029 26.6606 25.8951C26.7086 26.1786 26.8657 26.4373 27.1041 26.6252C27.3424 26.8131 27.6464 26.9179 27.9618 26.921Z" stroke="black" stroke-width="0.22" stroke-linecap="round" stroke-linejoin="round"/>
<path d="M55.4365 23.0605C55.0462 22.6698 54.413 22.6694 54.0222 23.0597L47.6546 29.42C47.2639 29.8103 47.2635 30.4435 47.6538 30.8342C48.0441 31.225 48.6773 31.2253 49.068 30.835L54.7281 25.1814L60.3817 30.8416C60.772 31.2323 61.4052 31.2327 61.7959 30.8424C62.1867 30.4521 62.187 29.8189 61.7967 29.4282L55.4365 23.0605ZM55.7123 52.5898L55.7289 23.7678L53.7289 23.7667L53.7123 52.5886L55.7123 52.5898Z" fill="black"/>
<path d="M34.695 51.1093C34.3089 51.5042 34.3161 52.1373 34.7111 52.5234L41.147 58.8146C41.5419 59.2006 42.1751 59.1934 42.5611 58.7985C42.9472 58.4035 42.94 57.7704 42.545 57.3844L36.8242 51.7922L42.4164 46.0714C42.8024 45.6764 42.7952 45.0433 42.4003 44.6573C42.0054 44.2712 41.3722 44.2784 40.9862 44.6733L34.695 51.1093ZM54.6737 50.5891L35.3987 50.8084L35.4215 52.8082L54.6964 52.589L54.6737 50.5891Z" fill="black"/>
<ellipse cx="54.4295" cy="51.3003" rx="4.87885" ry="4.92583" fill="black"/>
<defs>
<radialGradient id="paint0_radial_66_1346" cx="0" cy="0" r="1" gradientUnits="userSpaceOnUse" gradientTransform="translate(54.7123 52) rotate(90) scale(51.284)">
<stop offset="0.583333" stop-color="#D9D9D9"/>
<stop offset="0.583433" stop-color="#5A697B"/>
</radialGradient>
<radialGradient id="paint1_radial_66_1346" cx="0" cy="0" r="1" gradientUnits="userSpaceOnUse" gradientTransform="translate(96.1052 48.6519) rotate(-90.283) scale(7.89977 7.80036)">
<stop stop-color="#FFC50F"/>
<stop offset="1" stop-color="#FFE029"/>
</radialGradient>
<radialGradient id="paint2_radial_66_1346" cx="0" cy="0" r="1" gradientUnits="userSpaceOnUse" gradientTransform="translate(83.7637 79.5627) rotate(-90.283) scale(7.89977 7.80036)">
<stop stop-color="#FFC50F"/>
<stop offset="1" stop-color="#FFE029"/>
</radialGradient>
<radialGradient id="paint3_radial_66_1346" cx="0" cy="0" r="1" gradientUnits="userSpaceOnUse" gradientTransform="translate(54.7407 91.5711) rotate(-90.2664) scale(8.95306 8.32039)">
<stop stop-color="#FFC50F"/>
<stop offset="1" stop-color="#FFE029"/>
</radialGradient>
<linearGradient id="paint4_linear_66_1346" x1="50.7277" y1="13.9727" x2="51.6165" y2="14.1018" gradientUnits="userSpaceOnUse">
<stop offset="0.02" stop-color="white"/>
<stop offset="1" stop-color="#2F5D7D"/>
</linearGradient>
<linearGradient id="paint5_linear_66_1346" x1="47.5367" y1="12.3806" x2="48.2434" y2="12.4736" gradientUnits="userSpaceOnUse">
<stop offset="0.02" stop-color="white"/>
<stop offset="1" stop-color="#2F5D7D"/>
</linearGradient>
<linearGradient id="paint6_linear_66_1346" x1="49.1288" y1="13.4115" x2="49.891" y2="13.5151" gradientUnits="userSpaceOnUse">
<stop offset="0.02" stop-color="white"/>
<stop offset="1" stop-color="#2F5D7D"/>
</linearGradient>
<linearGradient id="paint7_linear_66_1346" x1="57.7756" y1="13.9727" x2="58.6645" y2="14.1018" gradientUnits="userSpaceOnUse">
<stop offset="0.02" stop-color="white"/>
<stop offset="1" stop-color="#2F5D7D"/>
</linearGradient>
<linearGradient id="paint8_linear_66_1346" x1="61.1457" y1="12.3806" x2="61.8511" y2="12.4732" gradientUnits="userSpaceOnUse">
<stop offset="0.02" stop-color="white"/>
<stop offset="1" stop-color="#2F5D7D"/>
</linearGradient>
<linearGradient id="paint9_linear_66_1346" x1="59.4997" y1="13.4115" x2="60.2616" y2="13.515" gradientUnits="userSpaceOnUse">
<stop offset="0.02" stop-color="white"/>
<stop offset="1" stop-color="#2F5D7D"/>
</linearGradient>
<linearGradient id="paint10_linear_66_1346" x1="28.0764" y1="70.4979" x2="20.0268" y2="84.4401" gradientUnits="userSpaceOnUse">
<stop stop-color="#FFF33B"/>
<stop offset="1" stop-color="#FDC70C"/>
</linearGradient>
<linearGradient id="paint11_linear_66_1346" x1="16.9829" y1="43.8021" x2="9.54416" y2="58.0796" gradientUnits="userSpaceOnUse">
<stop stop-color="#FFF33B"/>
<stop offset="1" stop-color="#FDC70C"/>
</linearGradient>
<linearGradient id="paint12_linear_66_1346" x1="26.5605" y1="17.9802" x2="19.1217" y2="32.2577" gradientUnits="userSpaceOnUse">
<stop stop-color="#FFF33B"/>
<stop offset="1" stop-color="#FDC70C"/>
</linearGradient>
</defs>
</svg>
