<svg width="118" height="73" viewBox="0 0 118 73" fill="none" xmlns="http://www.w3.org/2000/svg">
<path d="M106.957 29.6752C106.319 29.674 105.682 29.7353 105.055 29.8582C104.477 28.1718 103.386 26.708 101.936 25.6712C100.486 24.6344 98.7476 24.0762 96.9648 24.0745C95.29 24.0689 93.6514 24.5611 92.2569 25.4885C91.95 24.1427 91.3219 22.8912 90.4261 21.8409C89.5304 20.7906 88.3937 19.9728 87.1132 19.4574C85.8327 18.9419 84.4465 18.7441 83.0729 18.8809C81.6993 19.0176 80.3793 19.4849 79.2256 20.2427C79.0774 18.1189 78.1432 16.1264 76.6053 14.6541C75.0673 13.1818 73.036 12.3353 70.9077 12.2798H70.6637C70.6976 10.7244 70.4206 9.1779 69.8488 7.73103C69.277 6.28416 68.4219 4.96606 67.3339 3.85405C66.2459 2.74205 64.9467 1.85853 63.5126 1.25535C62.0786 0.652168 60.5385 0.341461 58.9827 0.341461C57.427 0.341461 55.8869 0.652168 54.4528 1.25535C53.0187 1.85853 51.7196 2.74205 50.6315 3.85405C49.5435 4.96606 48.6885 6.28416 48.1167 7.73103C47.5449 9.1779 47.2678 10.7244 47.3017 12.2798H47.0577C44.9294 12.3353 42.8981 13.1818 41.3602 14.6541C39.8222 16.1264 38.888 18.1189 38.7399 20.2427C37.5861 19.4849 36.2661 19.0176 34.8925 18.8809C33.519 18.7441 32.1327 18.9419 30.8522 19.4574C29.5717 19.9728 28.435 20.7906 27.5393 21.8409C26.6436 22.8912 26.0154 24.1427 25.7086 25.4885C24.619 24.7695 23.3794 24.3093 22.0846 24.1432C20.7899 23.9771 19.4742 24.1094 18.2385 24.5301C17.0027 24.9507 15.8796 25.6485 14.9551 26.5701C14.0306 27.4917 13.3292 28.6127 12.9046 29.8471C12.28 29.7242 11.6448 29.6629 11.0081 29.6641C8.78212 29.6582 6.61801 30.3966 4.85982 31.7618C3.10163 33.1271 1.85028 35.0409 1.30469 37.1991C0.759102 39.3572 0.950593 41.6358 1.84871 43.6726C2.74683 45.7094 4.30004 47.3875 6.26143 48.4402C6.31003 50.4993 7.10023 52.4717 8.48677 53.9947C9.87331 55.5178 11.763 56.4892 13.8085 56.7304C14.5563 58.859 16.1136 60.6067 18.1423 61.5941C20.171 62.5814 22.5073 62.7287 24.6439 62.0039C25.375 62.9573 26.2988 63.7461 27.355 64.3188C28.4112 64.8915 29.5762 65.2353 30.7742 65.3279C31.9721 65.4205 33.1761 65.2598 34.3078 64.8562C35.4395 64.4526 36.4735 63.8151 37.3424 62.9854C38.8552 64.4307 40.8454 65.2713 42.9362 65.348C45.0271 65.4246 47.0735 64.732 48.688 63.4013C48.7601 63.3403 48.8322 63.2793 48.8987 63.2127C49.2222 65.4901 50.3057 67.5914 51.9734 69.1756C53.6412 70.7598 55.7953 71.734 58.0863 71.9402C60.3773 72.1463 62.6707 71.5722 64.5944 70.3111C66.5182 69.05 67.9593 67.1758 68.6841 64.9928C68.8834 64.4161 69.0282 63.822 69.1166 63.2183L69.3329 63.4068C70.8686 64.6615 72.7897 65.3488 74.7728 65.3532C76.9745 65.3544 79.0919 64.5063 80.684 62.9854C81.5525 63.815 82.586 64.4524 83.7172 64.8559C84.8485 65.2595 86.0521 65.4202 87.2496 65.3276C88.4471 65.235 89.6116 64.8912 90.6674 64.3185C91.7231 63.7458 92.6464 62.9572 93.377 62.0039C95.5136 62.7287 97.8499 62.5814 99.8785 61.5941C101.907 60.6067 103.465 58.859 104.212 56.7304C106.258 56.4892 108.148 55.5178 109.534 53.9947C110.921 52.4717 111.711 50.4993 111.759 48.4402C113.719 47.3827 115.268 45.7004 116.162 43.6609C117.055 41.6214 117.241 39.3417 116.689 37.1845C116.138 35.0273 114.881 33.1164 113.119 31.7557C111.356 30.395 109.189 29.6627 106.963 29.6752H106.957Z" fill="url(#paint0_linear_73_11935)" stroke="#231F20" stroke-width="0.5" stroke-linecap="round" stroke-linejoin="round"/>
<path d="M59.1075 71.9853H58.9799C56.8072 71.9841 54.6898 71.2996 52.9273 70.0288C51.1649 68.758 49.8468 66.9652 49.1593 64.904C48.9908 64.4148 48.8647 63.9121 48.7823 63.4013C48.8543 63.3403 48.9264 63.2793 48.993 63.2127C49.366 65.6363 50.5877 67.8487 52.4402 69.4554C54.2926 71.0621 56.6555 71.9586 59.1075 71.9853Z" stroke="#231F20" stroke-width="0.5" stroke-linecap="round" stroke-linejoin="round"/>
<path d="M39.8378 27.6733C35.5458 26.7306 32.9673 29.0485 33.738 32.5199L33.5994 32.7306C29.313 31.7879 26.7344 34.1113 27.4997 37.5827" stroke="#231F20" stroke-width="0.5" stroke-linecap="round" stroke-linejoin="round"/>
<path d="M21.2336 32.0485C16.9415 31.1058 14.363 33.4293 15.1338 36.9006L14.9952 37.1113C10.7087 36.1686 8.13017 38.4865 8.89541 41.9634" stroke="#231F20" stroke-width="0.5" stroke-linecap="round" stroke-linejoin="round"/>
<path d="M34.348 44.0373C30.056 43.0946 27.4775 45.4181 28.2483 48.8894L28.1096 49.1001C23.8232 48.1574 21.2446 50.4753 22.0099 53.9522" stroke="#231F20" stroke-width="0.5" stroke-linecap="round" stroke-linejoin="round"/>
<path d="M55.6583 32.0485C51.3719 31.1058 48.7934 33.4293 49.5586 36.9006L49.42 37.1113C45.128 36.1686 42.555 38.4865 43.3202 41.9634" stroke="#231F20" stroke-width="0.5" stroke-linecap="round" stroke-linejoin="round"/>
<path d="M69.7765 48.4735C66.8043 45.2406 63.3662 45.6565 62.0132 48.9448L61.7803 49.0391C58.808 45.8062 55.37 46.2221 54.017 49.5105" stroke="#231F20" stroke-width="0.5" stroke-linecap="round" stroke-linejoin="round"/>
<path d="M51.0891 56.1592C48.1224 52.9208 44.6788 53.3367 43.3258 56.625L43.0929 56.7192C40.1206 53.4864 36.677 53.9023 35.3295 57.1906" stroke="#231F20" stroke-width="0.5" stroke-linecap="round" stroke-linejoin="round"/>
<path d="M88.7966 54.5289C85.8299 51.2905 82.3864 51.7119 81.0333 55.0003L80.8004 55.0945C77.8337 51.8561 74.3901 52.2775 73.0371 55.5603" stroke="#231F20" stroke-width="0.5" stroke-linecap="round" stroke-linejoin="round"/>
<path d="M88.6192 37.8156C85.1701 35.0929 81.8374 36.0467 81.0167 39.5124L80.8004 39.64C77.3568 36.9173 74.0241 37.871 73.1979 41.3368" stroke="#231F20" stroke-width="0.5" stroke-linecap="round" stroke-linejoin="round"/>
<path d="M79.9021 29.0652C77.2515 25.5606 73.8023 25.6493 72.1388 28.7935L71.9003 28.8656C69.2497 25.361 65.8006 25.4497 64.137 28.5938" stroke="#231F20" stroke-width="0.5" stroke-linecap="round" stroke-linejoin="round"/>
<path d="M62.4124 13.3944C58.1204 12.4517 55.5419 14.7752 56.3127 18.2465L56.1741 18.4572C51.8876 17.5145 49.3091 19.8324 50.0743 23.3093" stroke="#231F20" stroke-width="0.5" stroke-linecap="round" stroke-linejoin="round"/>
<path d="M93.0055 29.8859C97.2919 28.9432 99.8705 31.2611 99.1052 34.738L99.2438 34.9487C103.536 34.006 106.109 36.3239 105.344 39.7952" stroke="#231F20" stroke-width="0.5" stroke-linecap="round" stroke-linejoin="round"/>
<path d="M88.6192 37.7934C92.9057 36.8507 95.4842 39.1741 94.719 42.6455L94.8576 42.8562C99.1496 41.9135 101.723 44.2314 100.957 47.7082" stroke="#231F20" stroke-width="0.5" stroke-linecap="round" stroke-linejoin="round"/>
<defs>
<linearGradient id="paint0_linear_73_11935" x1="57.882" y1="0.945333" x2="59.9614" y2="72.5897" gradientUnits="userSpaceOnUse">
<stop stop-color="#D1D3D4"/>
<stop offset="0.18" stop-color="#CED0D2"/>
<stop offset="0.33" stop-color="#C4C8CB"/>
<stop offset="0.46" stop-color="#B4BBBF"/>
<stop offset="0.551983" stop-color="#A4AEB4"/>
<stop offset="0.552083" stop-color="#A4AEB4"/>
<stop offset="0.5799" stop-color="#A0AAB0"/>
<stop offset="0.58" stop-color="#9CA7AE"/>
<stop offset="0.746279" stop-color="#7E8E99"/>
<stop offset="0.975446" stop-color="#59707F"/>
</linearGradient>
</defs>
</svg>
