<?xml version="1.0" encoding="utf-8"?>
<svg viewBox="75.9671 36.1575 269.0237 94.2261" width="269.0237" height="94.2261" xmlns="http://www.w3.org/2000/svg">
  <g id="_x5F_Logo_x5F_Title" transform="matrix(0.647308, 0, 0, 0.664135, 50.321993, 16.657805)" style="">
    <g>
      <g>
        <linearGradient id="SVGID_26_" gradientUnits="userSpaceOnUse" x1="56.3587" y1="64.1329" x2="130.8441" y2="64.1329">
          <stop offset="0" style="stop-color:#FFF33B"/>
          <stop offset="0.0595" style="stop-color:#FFE029"/>
          <stop offset="0.1303" style="stop-color:#FFD217"/>
          <stop offset="0.2032" style="stop-color:#FEC90E"/>
          <stop offset="0.2809" style="stop-color:#FDC70C"/>
          <stop offset="0.6685" style="stop-color:#F3903F"/>
          <stop offset="0.8876" style="stop-color:#ED683C"/>
          <stop offset="1" style="stop-color:#E93E3A"/>
        </linearGradient>
        <path fill="url(#SVGID_26_)" stroke="#13364D" stroke-linejoin="round" stroke-miterlimit="10" d="M62.71,35.08 c5.44,0,8.17,0,13.61,0c7.11,18.54,10.67,27.8,17.79,46.34c4.08-10.17,6.12-15.26,10.2-25.44c3.85-9.58,6.38-16.55,7.6-20.9 c5.93,0,8.89,0,14.82,0c0,0.84,0,1.26,0,2.1c-2.41,0.06-4.09,0.48-5.04,1.27c-0.95,0.79-1.43,2.23-1.43,4.34 c0,0.29,0.01,0.63,0.04,1.01c1.26,13.99,1.89,20.98,3.16,34.97c0.39,4.29,1.03,7.06,1.93,8.28s2.72,1.88,5.46,1.97 c0,0.84,0,1.26,0,2.1c-8.17,0-12.26,0-20.43,0c0-0.84,0-1.26,0-2.1c2.08-0.06,3.54-0.5,4.4-1.31c0.86-0.82,1.29-2.41,1.29-4.78 c0-0.47-0.03-0.96-0.08-1.49c-1.3-13.92-1.96-20.88-3.26-34.8c-4.72,8.85-8.09,15.78-10.11,20.77 c-4.17,10.31-6.25,15.46-10.42,25.77c-0.75,0-1.12,0-1.87,0c-6.48-17-12.95-34.01-19.43-51.01c-0.56,6.29-0.85,9.44-1.41,15.73 c-0.64,7.1-0.95,12.72-0.95,16.87c0,9.23,2.19,13.98,6.56,14.24c0,0.84,0,1.26,0,2.1c-7.51,0-11.26,0-18.77,0 c0-0.84,0-1.26,0-2.1c1.94-0.47,3.47-1.77,4.61-3.92c1.13-2.15,2.3-5.97,3.51-11.48c1.2-5.51,2.08-11.39,2.64-17.64 c0.42-4.66,0.62-6.99,1.04-11.66c0.03-0.56,0.04-1.15,0.04-1.8c0-2.07-0.39-3.47-1.16-4.19s-2.21-1.1-4.32-1.16 C62.71,36.34,62.71,35.92,62.71,35.08z"/>
        <linearGradient id="SVGID_27_" gradientUnits="userSpaceOnUse" x1="133.7921" y1="73.6215" x2="170.7829" y2="73.6215">
          <stop offset="0" style="stop-color:#FFF33B"/>
          <stop offset="0.0595" style="stop-color:#FFE029"/>
          <stop offset="0.1303" style="stop-color:#FFD217"/>
          <stop offset="0.2032" style="stop-color:#FEC90E"/>
          <stop offset="0.2809" style="stop-color:#FDC70C"/>
          <stop offset="0.6685" style="stop-color:#F3903F"/>
          <stop offset="0.8876" style="stop-color:#ED683C"/>
          <stop offset="1" style="stop-color:#E93E3A"/>
        </linearGradient>
        <path fill="url(#SVGID_27_)" stroke="#13364D" stroke-linejoin="round" stroke-miterlimit="10" d="M137.82,56.42 c6.38-4.44,12.38-6.66,18.01-6.66c2.63,0,4.53,0.61,5.7,1.84c1.16,1.23,1.73,3.3,1.7,6.22c0,10.96,0,15.72,0.03,31.29 c0,1.87,0.57,2.87,1.7,3.14c1.1,0.26,3.04-1.03,5.82-4.9c0,1.75,0.01,2.63,0.01,4.31c-4.2,5.82-7.64,6.31-10.3,5.55 c-2.38-0.68-3.58-2.18-3.58-5.55c0-3.12-0.01-4.95-0.01-8.38c-3.45,4.55-6.38,7.06-8.78,8.36s-4.66,1.65-6.8,1.37 c-2.08-0.27-3.85-1.22-5.32-3.01c-1.47-1.8-2.2-3.91-2.2-6.39c0-6.4,7.69-13.19,23.08-20.53c0-2.1,0-3.16,0-5.26 c0-1.61-0.46-2.94-1.37-3.99c-0.91-1.05-2.17-1.58-3.78-1.58c-2.74,0-5.18,1.4-7.31,4.21c-2.13,2.8-3.4,6.3-3.82,10.47 c-1.11,0-1.67,0-2.78,0C137.82,62.73,137.82,60.63,137.82,56.42z M157.33,66.63c-5.13,1.11-9.3,3.02-12.49,5.72 c-3.19,2.7-4.79,5.4-4.79,8.4c0,1.92,0.54,3.49,1.6,4.75c1.07,1.26,2.47,2.02,4.19,2.26c3.19,0.45,5.89-1.06,8.09-5.33 C156.15,78.16,157.28,72.85,157.33,66.63z"/>
        <linearGradient id="SVGID_28_" gradientUnits="userSpaceOnUse" x1="173.4428" y1="78.2001" x2="216.5893" y2="78.2001">
          <stop offset="0" style="stop-color:#FFF33B"/>
          <stop offset="0.0595" style="stop-color:#FFE029"/>
          <stop offset="0.1303" style="stop-color:#FFD217"/>
          <stop offset="0.2032" style="stop-color:#FEC90E"/>
          <stop offset="0.2809" style="stop-color:#FDC70C"/>
          <stop offset="0.6685" style="stop-color:#F3903F"/>
          <stop offset="0.8876" style="stop-color:#ED683C"/>
          <stop offset="1" style="stop-color:#E93E3A"/>
        </linearGradient>
        <path fill="url(#SVGID_28_)" stroke="#13364D" stroke-linejoin="round" stroke-miterlimit="10" d="M173.44,54.36 c4.3-1.86,6.46-2.79,10.76-4.65c0.7,0,1.04,0,1.74,0c0,5.78,0,8.67,0,14.45c3.99-5.62,7.27-9.43,9.84-11.44 c2.57-2.01,5.01-3.01,7.31-3.01c4.68,0,7.02,3.17,7.02,9.51c0,9.19-0.03,9.93,0.05,30.15c0.02,5.72,0.54,9.45,1.56,11.18 c1.02,1.73,2.64,2.38,4.87,2.04c0.01,1.41,0.01,2.07,0.01,3.19c-5.82,1.19-8.7,1.05-14.48,0.43c0-1.13,0-1.78-0.01-3.21 c1.16,0.02,1.74-1.09,1.73-3.8c-0.07-21.32-0.08-28.56-0.08-39.38c0-1.52-0.37-2.74-1.12-3.65c-0.75-0.92-1.72-1.38-2.91-1.38 c-3.49,0-6.73,2.6-9.74,7.81c-3,5.21-4.52,9.48-4.48,22.04c0.02,6.37,0.53,10.79,1.54,12.9c1,2.11,2.78,3.41,5.33,3.99 c0,1.37,0.01,2.01,0.01,3.12c-7.55-1.56-11.33-2.72-18.88-4.95c0-0.99,0-1.55,0-2.72c2.23,0.52,3.83,0.24,4.81-1.06 c0.97-1.3,1.45-4.28,1.44-8.89c-0.05-16.06-0.03-18.29-0.03-27.25c0-2.89-0.91-4.34-2.72-4.34c-0.66,0-1.84,0.37-3.55,1.1 C173.44,55.67,173.44,55.24,173.44,54.36z"/>
        <linearGradient id="SVGID_29_" gradientUnits="userSpaceOnUse" x1="219.3631" y1="70.2107" x2="242.2402" y2="70.2107">
          <stop offset="0" style="stop-color:#FFF33B"/>
          <stop offset="0.0595" style="stop-color:#FFE029"/>
          <stop offset="0.1303" style="stop-color:#FFD217"/>
          <stop offset="0.2032" style="stop-color:#FEC90E"/>
          <stop offset="0.2809" style="stop-color:#FDC70C"/>
          <stop offset="0.6685" style="stop-color:#F3903F"/>
          <stop offset="0.8876" style="stop-color:#ED683C"/>
          <stop offset="1" style="stop-color:#E93E3A"/>
        </linearGradient>
        <path fill="url(#SVGID_29_)" stroke="#13364D" stroke-linejoin="round" stroke-miterlimit="10" d="M234.64,37.18 c0,0.91,0,1.37,0,2.28c-1.74,0.44-2.62,2.51-2.62,6.22c0,2.51,0.2,4.27,0.6,5.26c0.4,0.99,1.11,1.81,2.12,2.45 c1.01,0.64,2.36,0.96,4.05,0.96c1.38,0,2.07,0,3.45,0c0,0.79,0,1.18,0,1.97c-4.07,0-6.1,0-10.17,0c0,11.25-0.01,14.98,0.2,34.05 c0.02,1.53,0.2,2.61,0.56,3.23c0.36,0.62,0.89,0.78,1.59,0.52c1.37-0.52,3.39-3.16,6.04-7.31c0.3-0.47,0.53-0.8,0.7-1.02 c0.03,1.44,0.04,2.17,0.06,3.57c-4.65,7.85-8.45,12.29-11.3,13.53c-1.32,0.58-2.32,0.48-2.99-0.67 c-0.67-1.15-1.02-3.44-1.05-7.24c-0.16-21.48-0.17-26.77-0.17-38.65c-2.54,0-3.81,0-6.35,0c0-0.79,0-1.18,0-1.97 c2.44,0,4.17-0.51,5.19-1.53c1.02-1.02,1.54-2.82,1.54-5.39c0-2.65,0-3.97,0-6.62C229.51,39.36,231.22,38.64,234.64,37.18z"/>
        <linearGradient id="SVGID_30_" gradientUnits="userSpaceOnUse" x1="245.6812" y1="70.951" x2="282.4567" y2="70.951">
          <stop offset="0" style="stop-color:#FFF33B"/>
          <stop offset="0.0595" style="stop-color:#FFE029"/>
          <stop offset="0.1303" style="stop-color:#FFD217"/>
          <stop offset="0.2032" style="stop-color:#FEC90E"/>
          <stop offset="0.2809" style="stop-color:#FDC70C"/>
          <stop offset="0.6685" style="stop-color:#F3903F"/>
          <stop offset="0.8876" style="stop-color:#ED683C"/>
          <stop offset="1" style="stop-color:#E93E3A"/>
        </linearGradient>
        <path fill="url(#SVGID_30_)" stroke="#13364D" stroke-linejoin="round" stroke-miterlimit="10" d="M249.42,56.42 c6.38-4.44,12.38-6.66,18.01-6.66c2.63,0,4.53,0.62,5.7,1.84c1.16,1.23,1.73,3.3,1.71,6.22c0,10.96,0.02,16.5,0.27,22.29 c0.03,0.7,0.6,1.03,1.7,0.99c1.08-0.03,2.94-0.81,5.63-1.84c0.01,0.52,0.01,0.78,0.02,1.35c-4.05,1.85-7.31,3.89-9.92,4.25 c-2.33,0.32-3.55-0.4-3.63-2.21c-0.07-1.67-0.11-2.42-0.19-4c-3.33,2.59-6.15,5.52-8.49,7.7c-2.34,2.18-4.58,3.87-6.73,4.89 c-2.09,0.99-3.9,1.29-5.43,0.25c-1.53-1.03-2.33-3.27-2.4-6.38c-0.18-8.02,7.41-14.71,22.8-22.04c0-2.1,0-3.16,0-5.26 c0-1.61-0.46-2.94-1.37-3.99c-0.91-1.05-2.17-1.58-3.78-1.58c-2.74,0-5.18,1.4-7.31,4.21s-3.4,6.3-3.82,10.47 c-1.11,0-1.67,0-2.78,0C249.42,62.73,249.42,60.63,249.42,56.42z M268.94,66.63c-5.13,1.11-9.29,3.02-12.49,5.72 c-3.19,2.7-4.65,4.94-4.56,7.91c0.06,1.89,0.64,3.33,1.75,4.07c1.11,0.75,2.52,0.73,4.25,0.17c3.19-1.03,5.82-3.19,7.91-5.81 C267.88,76.08,268.88,72.85,268.94,66.63z"/>
        <linearGradient id="SVGID_31_" gradientUnits="userSpaceOnUse" x1="285.1711" y1="67.062" x2="333.8171" y2="67.062">
          <stop offset="0" style="stop-color:#FFF33B"/>
          <stop offset="0.0595" style="stop-color:#FFE029"/>
          <stop offset="0.1303" style="stop-color:#FFD217"/>
          <stop offset="0.2032" style="stop-color:#FEC90E"/>
          <stop offset="0.2809" style="stop-color:#FDC70C"/>
          <stop offset="0.6685" style="stop-color:#F3903F"/>
          <stop offset="0.8876" style="stop-color:#ED683C"/>
          <stop offset="1" style="stop-color:#E93E3A"/>
        </linearGradient>
        <path fill="url(#SVGID_31_)" stroke="#13364D" stroke-linejoin="round" stroke-miterlimit="10" d="M285.17,35.08 c10.56,0,15.84,0,26.41,0c3.93,0,6.87,0.8,8.82,2.41c1.95,1.61,2.93,4.02,2.93,7.23c0,3.59-1.1,6.95-3.3,10.06 c-2.2,3.11-5.5,6-9.9,8.66c3.7,6.05,5.3,8.31,9.88,16.3c5.14,8.95,9.85,15.42,13.49,16.55c0.14,1.16,0.2,1.72,0.32,2.77 c-4.1-1.03-6.17-1.58-10.35-2.74c-2.09-0.58-4.11-2.6-6.07-6.03c-8.34-14.7-11.65-19.12-18.23-29.92c0,8.69-0.07,13.69,0.52,21 c0.3,3.76,2.74,6.54,7.29,7.97c0.07,0.87,0.11,1.31,0.18,2.2c-8.75-2.68-14.17-4.87-21.94-6.97c0-0.72,0-1.04,0-1.63 c2.39,0.51,4.4,0.89,5.29,0.45c0.89-0.44,1.29-1.56,1.21-3.27c-0.45-9.84-0.22-20.82-0.22-36.02c0-2.83-0.47-4.68-1.41-5.54 c-0.94-0.86-2.57-1.32-4.9-1.38C285.17,36.34,285.17,35.92,285.17,35.08z M299.16,39.37c0,7.3,0,10.94,0,18.24 c3.24,2.48,6.02,3.72,8.35,3.72c2.44,0,4.26-0.87,5.48-2.6c1.22-1.73,1.83-4.32,1.83-7.76c0-4.2-0.9-7.54-2.7-10.04 c-1.8-2.49-3.99-3.74-6.56-3.74C303.29,37.18,301.16,37.91,299.16,39.37z"/>
        <linearGradient id="SVGID_32_" gradientUnits="userSpaceOnUse" x1="335.9873" y1="78.0843" x2="372.8955" y2="78.0843">
          <stop offset="0" style="stop-color:#FFF33B"/>
          <stop offset="0.0595" style="stop-color:#FFE029"/>
          <stop offset="0.1303" style="stop-color:#FFD217"/>
          <stop offset="0.2032" style="stop-color:#FEC90E"/>
          <stop offset="0.2809" style="stop-color:#FDC70C"/>
          <stop offset="0.6685" style="stop-color:#F3903F"/>
          <stop offset="0.8876" style="stop-color:#ED683C"/>
          <stop offset="1" style="stop-color:#E93E3A"/>
        </linearGradient>
        <path fill="url(#SVGID_32_)" stroke="#13364D" stroke-linejoin="round" stroke-miterlimit="10" d="M338.48,56.42 c6.38-4.44,12.38-6.66,18.01-6.66c2.63,0,4.53,0.61,5.7,1.84c1.16,1.23,1.73,3.3,1.71,6.22c0,10.96-0.37,15,1.46,37.16 c0.22,2.66,0.88,3.88,2,3.91c1.09,0.03,2.79-2.49,5.12-8.11c0.17,2.24,0.26,3.37,0.43,5.5c-3.48,8.73-6.83,10.39-9.28,10.09 c-2.2-0.27-3.41-1.58-3.86-6.39c-0.42-4.45-0.7-7.34-1.17-12.57c-2.68,7.35-4.96,11.8-7.03,13.85c-2.07,2.05-4.21,2.39-6.34,1.93 c-2.07-0.44-3.95-1.74-5.71-4.44c-1.76-2.7-2.91-6.08-3.38-10.09c-1.23-10.35,6.03-18.25,21.42-25.59c0-2.1,0-3.16,0-5.26 c0-1.61-0.46-2.94-1.37-3.99c-0.91-1.05-2.17-1.58-3.78-1.58c-2.74,0-5.18,1.4-7.31,4.21c-2.13,2.8-3.4,6.3-3.82,10.47 c-1.11,0-1.67,0-2.78,0C338.48,62.73,338.48,60.63,338.48,56.42z M358,66.63c-5.13,1.11-9.3,3.02-12.49,5.72 c-3.19,2.7-4.22,7.13-3.67,12.02c0.35,3.13,1.18,5.76,2.46,7.8c1.28,2.04,2.77,3.2,4.47,3.47c3.15,0.5,5.39-2.36,6.89-9.21 C357.15,79.58,357.94,72.85,358,66.63z"/>
        <linearGradient id="SVGID_33_" gradientUnits="userSpaceOnUse" x1="369.7077" y1="88.2476" x2="410.31" y2="88.2476">
          <stop offset="0" style="stop-color:#FFF33B"/>
          <stop offset="0.0595" style="stop-color:#FFE029"/>
          <stop offset="0.1303" style="stop-color:#FFD217"/>
          <stop offset="0.2032" style="stop-color:#FEC90E"/>
          <stop offset="0.2809" style="stop-color:#FDC70C"/>
          <stop offset="0.6685" style="stop-color:#F3903F"/>
          <stop offset="0.8876" style="stop-color:#ED683C"/>
          <stop offset="1" style="stop-color:#E93E3A"/>
        </linearGradient>
        <path fill="url(#SVGID_33_)" stroke="#13364D" stroke-linejoin="round" stroke-miterlimit="10" d="M369.71,50.99 c5.38,0,8.07,0,13.45,0c0,0.84,0,1.26,0,2.1c-1.05,0.06-1.58,0.41-1.58,1.05c0,0.35,0.08,0.72,0.25,1.1 c4.11,10.79,5.71,13.29,10.88,31.92c1.13-8.27,1.84-11.77,3.48-16.32c1.84-5.14,2.77-9.42,2.76-12.8 c-0.01-1.78-0.48-3.05-1.41-3.81s-2.44-1.14-4.55-1.14c0-0.84,0-1.26,0-2.1c6.93,0,10.39,0,17.31,0c0,0.84,0,1.26,0,2.1 c-1.77,0.12-3.14,0.72-4.1,1.82c-0.96,1.1-2.18,3.5-3.67,7.21c-7.37,15.91-8.3,35.42-11.31,52.43 c-1.07,6.02-4.56,9.4-10.21,10.96c-2.68-2.53-4.29-3.24-7.58-5.83c0.71-0.71,1.07-1.09,1.78-1.9c2.71,2.43,5.25,2.94,7.77,2.39 c1.32-0.29,2.46-0.95,3.41-2c0.95-1.05,1.6-2.21,1.95-3.58c0.35-1.36,0.76-3.68,1.56-9.26c0.17-1.17,0.29-1.59,0.5-2.57 c-5.09-14.01-8.41-29.23-12.93-41.12c-1.22-3.21-2.38-5.43-3.49-6.66c-1.11-1.23-2.53-1.86-4.28-1.88 C369.71,52.25,369.71,51.83,369.71,50.99z"/>
        <linearGradient id="SVGID_34_" gradientUnits="userSpaceOnUse" x1="413.0995" y1="72.2826" x2="438.4571" y2="72.2826">
          <stop offset="0" style="stop-color:#FFF33B"/>
          <stop offset="0.0595" style="stop-color:#FFE029"/>
          <stop offset="0.1303" style="stop-color:#FFD217"/>
          <stop offset="0.2032" style="stop-color:#FEC90E"/>
          <stop offset="0.2809" style="stop-color:#FDC70C"/>
          <stop offset="0.6685" style="stop-color:#F3903F"/>
          <stop offset="0.8876" style="stop-color:#ED683C"/>
          <stop offset="1" style="stop-color:#E93E3A"/>
        </linearGradient>
        <path fill="url(#SVGID_34_)" stroke="#13364D" stroke-linejoin="round" stroke-miterlimit="10" d="M415.91,78.1 c0.31,4.59,1.48,8.52,3.34,10.7c1.86,2.18,4.01,2.74,6.52,2.28c2.08-0.38,3.79-1.34,5.12-2.92c1.33-1.58,1.99-3.44,1.98-5.64 c-0.01-1.96-0.53-3.62-1.56-4.9c-1.03-1.28-3.11-2.89-6.17-4.93c-2.19-1.46-4.18-2.83-5.98-4.1c-1.8-1.27-3.04-2.58-3.74-3.88 c-0.7-1.31-1.08-2.66-1.08-4.03c0-2.83,1.24-5.36,3.72-7.58c2.48-2.22,5.76-3.33,9.86-3.33c2.52,0,5.23,0.58,8.14,1.75 c0,4.59,0,6.89,0,11.48c-1.2,0-1.79,0-2.99,0c-0.03-3.24-0.89-5.84-2.57-7.8c-1.69-1.96-3.63-2.94-5.81-2.94 c-1.55,0-2.76,0.52-3.63,1.56c-0.87,1.04-1.31,2.26-1.31,3.66c0,1.58,0.53,2.94,1.49,4.08c0.97,1.14,2.92,2.72,5.85,4.65 c5.04,3.36,8.21,5.75,9.47,7.09c1.27,1.36,1.91,3.25,1.91,5.56c0,3.66-1.53,6.83-4.55,9.81c-3.02,2.99-6.47,4.78-10.34,5.64 c-2.88,0.64-6.16,0.79-9.95-0.22c-0.15-5.64-0.37-9.75-0.51-15.84C414.22,78.18,414.78,78.15,415.91,78.1z"/>
      </g>
    </g>
    <g>
      <g>
        <g>
          <linearGradient id="SVGID_35_" gradientUnits="userSpaceOnUse" x1="106.6418" y1="139.1101" x2="177.0867" y2="139.1101">
            <stop offset="0.0189" style="stop-color:#52839A"/>
            <stop offset="1" style="stop-color:#2F5D7D"/>
          </linearGradient>
          <path fill="url(#SVGID_35_)" stroke="#000000" stroke-miterlimit="10" d="M106.64,114.79c0.89,0.09,1.72,0.57,2.52,1.41 c0.8,0.84,1.63,2.64,2.71,5.16c1.07,2.52,1.72,4.45,1.91,5.1c3.71,13.32,7.94,26.05,12.58,39.06c0.86,0,1.29,0,2.16,0 c3.04-7.32,4.55-10.99,7.59-18.31c1.51-3.63,3.37-7.74,5.57-11.66c3.85,9.94,7.47,19.94,11.1,29.96c0.89,0,1.34,0,2.23,0 c4.66-11.11,9.25-22.25,13.93-33.36c1.23-3.4,2.76-6.87,4.07-8.09c1.31-1.22,2.63-1.16,4.08-1.18 c-0.03-0.01-0.05,0.01-0.09,0.01c-6.56-0.89-9.81-1.38-16.36-2.38c-0.04,0.78-0.07,1.16-0.1,1.92c2.17,0.24,3.69,0.68,4.56,1.28 c0.88,0.6,1.29,1.55,1.24,3.63c-0.07,2.7-1,6.61-2.92,11.05c-2.49,5.77-4.13,9.63-7.16,16.93 c-4.07-11.14-8.65-21.95-12.49-33.18c-0.08-0.34-0.11-0.64-0.1-0.89c0.05-0.86,0.6-1.22,1.64-1.06 c0.05-0.82,0.08-1.23,0.13-2.07c-5.13-0.95-7.69-1.49-12.82-2.45c-0.06,0.84-0.09,1.26-0.15,2.08c4.04,1.01,5.79,4.54,5.86,9.65 c0.06,4-0.61,8.28-2.3,12.87c-2.31,6.28-3.65,9.15-6.13,15.09c-4.38-12.44-8.08-24.95-11.75-37.62 c-0.08-0.31-0.11-0.59-0.1-0.84c0.06-0.89,0.55-1.32,1.45-1.23c0.06-0.82,0.09-1.24,0.16-2.08c-5.1-0.64-7.67-0.87-12.86-0.9 C106.74,113.55,106.7,113.96,106.64,114.79z"/>
          <linearGradient id="SVGID_36_" gradientUnits="userSpaceOnUse" x1="174.91" y1="146.1086" x2="205.117" y2="146.1086">
            <stop offset="0.0189" style="stop-color:#52839A"/>
            <stop offset="1" style="stop-color:#2F5D7D"/>
          </linearGradient>
          <path fill="url(#SVGID_36_)" stroke="#000000" stroke-miterlimit="10" d="M205.12,152.65c-4.44,4.88-8.79,7.32-13.06,7.32 c-3.42,0-6.3-1.4-8.63-4.19c-2.33-2.79-3.45-6.43-3.5-10.43c-0.01-0.41,0.01-1.04,0.03-1.86c9.6,0,14.41-0.04,24.02-0.09 c-0.19-3.34-1.54-6.64-3.89-10.77c-2.35-4.13-5.07-5.52-9.3-5.27c-4.83,0.29-8.6,3.46-11.59,8.19 c-2.72,4.29-4.28,9.05-4.28,13.88c0,4.19,1.41,7.82,4.24,10.87c2.83,3.05,6.09,4.58,9.78,4.58c5.26,0,10.65-3.3,16.18-9.9 C205.12,154.05,205.12,153.58,205.12,152.65z M180.21,141.98c0.27-2.11,1.17-3.82,2.78-5.93c1.61-2.1,3.57-3.76,5.83-4.18 c2.16-0.4,4.07,0.57,5.78,2.73c1.71,2.16,2.82,4.78,3.21,7.24C190.76,141.92,187.24,141.96,180.21,141.98z"/>
          <linearGradient id="SVGID_37_" gradientUnits="userSpaceOnUse" x1="208.7627" y1="145.386" x2="241.8717" y2="145.386">
            <stop offset="0.0189" style="stop-color:#52839A"/>
            <stop offset="1" style="stop-color:#2F5D7D"/>
          </linearGradient>
          <path fill="url(#SVGID_37_)" stroke="#000000" stroke-miterlimit="10" d="M212.37,144.35c1,0,1.5,0,2.49-0.01 c0.36-3.32,1.42-5.88,3.3-9.82c1.89-3.95,4.15-6.12,6.66-5.68c1.47,0.26,2.62,1.26,3.44,2.77c0.82,1.52,1.22,3.23,1.2,4.97 c-0.02,2.27-0.03,2.96-0.02,4.64c-13.79,5.9-20.69,11.43-20.69,16.55c0,1.98,0.66,3.66,1.97,5.04c1.31,1.38,2.9,2.07,4.76,2.07 c1.91,0,3.94-0.68,6.08-2.05c2.15-1.37,4.77-3.56,7.87-6.57c0,2.09,0,3.14,0,5.23c0,2.26,1.07,3.39,3.2,3.39 c2.38,0,5.46-1.77,9.23-5.27c0-0.87,0-1.31,0-2.18c-2.49,2.15-4.23,3.25-5.21,3.25c-1.01,0-1.52-0.53-1.52-1.59 c0-8.84-0.16-11.99,0.06-22.17c0.08-2.71-0.39-5.17-1.42-6.85c-1.03-1.68-2.75-3.02-5.16-3.77c-5.15-1.6-10.82,1.58-16.46,8.33 C212.31,140.7,212.35,141.03,212.37,144.35z M226.82,155.92c-1.98,2.86-4.39,4.29-7.25,4.29c-1.54,0-2.79-0.44-3.75-1.31 c-0.96-0.87-1.44-2.04-1.44-3.5c0-2.29,1.43-4.52,4.29-6.7c2.86-2.18,6.59-3.73,11.19-4.63 C229.81,149.12,228.79,153.06,226.82,155.92z"/>
          <linearGradient id="SVGID_38_" gradientUnits="userSpaceOnUse" x1="243.4921" y1="141.9549" x2="264.1801" y2="141.9549">
            <stop offset="0.0189" style="stop-color:#52839A"/>
            <stop offset="1" style="stop-color:#2F5D7D"/>
          </linearGradient>
          <path fill="url(#SVGID_38_)" stroke="#000000" stroke-miterlimit="10" d="M250.01,124.74c-0.04,3.23-0.05,4.6-0.14,6.23 c-0.09,1.59-0.61,2.62-1.57,3.19c-0.96,0.57-2.54,0.84-4.75,0.6c-0.02,0.61-0.04,0.91-0.06,1.5c2.29,0.13,3.44,0.16,5.74,0.17 c-0.41,7.36-0.2,13.91-0.18,23.36c0,1.67,0.3,2.94,0.88,3.8c0.58,0.86,1.46,1.29,2.63,1.29c2.51,0,5.89-1.86,10.08-5.23 c-0.01-0.78-0.01-1.17-0.02-1.94c-0.15,0.09-0.36,0.23-0.63,0.42c-2.38,1.74-4.19,2.66-5.4,2.65c-0.62,0-1.08-0.19-1.4-0.56 c-0.31-0.37-0.47-0.91-0.47-1.62c-0.04-8.81-0.15-16.19,0.24-22.35c3.67-0.24,5.5-0.45,9.17-1.26c0.02-0.49,0.03-0.71,0.05-1.13 c-1.24,0.33-1.86,0.46-3.1,0.68c-1.52,0.27-2.72,0.25-3.61,0.01s-1.5-0.62-1.82-1.12c-0.33-0.5-0.45-1.38-0.36-2.97 c0.13-2.35,1.03-7.38,2.64-8.31c0.03-1.19,0.05-1.83,0.09-3.11C254.79,121.91,253.2,123.05,250.01,124.74z"/>
          <linearGradient id="SVGID_39_" gradientUnits="userSpaceOnUse" x1="266.3721" y1="134.2239" x2="305.062" y2="134.2239">
            <stop offset="0.0189" style="stop-color:#52839A"/>
            <stop offset="1" style="stop-color:#2F5D7D"/>
          </linearGradient>
          <path fill="url(#SVGID_39_)" stroke="#000000" stroke-miterlimit="10" d="M267.74,113.19c-0.05,1.17-0.08,1.78-0.12,2.93 c1.34-1.23,2.51-1.95,3.51-2.27c1.8-0.56,2.65,0.31,2.61,2.25c-0.85,13.73-1.93,27.31-1.83,41.07c0.03,1.94-0.41,3.26-1.32,3.96 c-0.91,0.7-2.32,1.07-4.23,1.11c0,0.65,0.01,0.98,0.01,1.64c6.77,0.02,10.15,0.03,16.92,0.05c-0.01-0.64-0.01-0.96-0.02-1.58 c-0.59,0-0.89,0-1.48-0.01c-3.03-0.01-4.57-2.22-4.65-6.49c-0.09-4.56,1.39-9.9,5.06-15.63c2.71-4.22,5.84-10.55,8.94-10.5 c1.32,0.02,2.19,0.88,2.62,2.49c0.43,1.61,0.4,4.03,0.09,6.54c-1.71,13.87-0.41,14.55-0.23,21.93c0.02,1.07-0.51,1.65-1.6,1.69 c0.01,0.61,0.02,0.92,0.02,1.56c5.21,0,7.81-0.01,13.02-0.01c-0.01-0.64-0.01-0.94-0.02-1.55c-2.08-0.04-3.56-0.42-4.43-1.12 s-1.33-1.92-1.38-3.62c-0.19-6.19-1.29-6.92,0.42-19.52c0.59-4.35,0.8-8.96,0.12-11.81c-0.66-2.81-1.98-4.3-3.89-4.47 c-2.3-0.2-5.09,1.9-8.3,5.81c-3.21,3.91-6.73,9.1-9.9,14.56c0.65-11.09,2.32-22.08,2.43-33.2c0.03-1.68,0.57-2.65,1.66-3.18 c-0.02-0.59-0.03-0.86-0.08-1.31C276.25,106.67,273.45,108.25,267.74,113.19z"/>
          <linearGradient id="SVGID_40_" gradientUnits="userSpaceOnUse" x1="307.8539" y1="147.4348" x2="338.2348" y2="147.4348">
            <stop offset="0.0189" style="stop-color:#52839A"/>
            <stop offset="1" style="stop-color:#2F5D7D"/>
          </linearGradient>
          <path fill="url(#SVGID_40_)" stroke="#000000" stroke-miterlimit="10" d="M338.18,154.3c-4.32,4.16-8.6,6.15-12.87,6.15 c-3.42,0-6.33-1.2-8.74-3.53c-2.41-2.33-3.53-5.86-3.7-9.24c-0.02-0.34-0.02-0.89,0.02-1.68c9.52,0.42,14.36,0.39,24.03,0.27 c-0.08-2.55-0.66-5.08-2.38-8.42c-1.71-3.34-4.64-6.94-8.35-7.71c-4.62-0.95-10.33,1.9-14.36,7.11 c-4.47,5.79-4.01,9.85-3.93,14.22c0.06,3.79,1.61,6.62,4.5,9.26c2.89,2.64,6.16,4.16,9.85,4.16c5.26,0,10.62-3.13,15.98-8.64 C338.21,155.49,338.2,155.1,338.18,154.3z M313.23,144.5c0.42-2.18,1.78-4.63,3.81-6.98c2.03-2.35,4.15-3.28,6.42-2.92 c2.17,0.34,4,1.76,5.28,3.96c1.28,2.2,1.83,4.54,2.06,6.52C323.7,145.09,320.17,145.03,313.23,144.5z"/>
          <linearGradient id="SVGID_41_" gradientUnits="userSpaceOnUse" x1="341.793" y1="149.1803" x2="370.7493" y2="149.1803">
            <stop offset="0.0189" style="stop-color:#52839A"/>
            <stop offset="1" style="stop-color:#2F5D7D"/>
          </linearGradient>
          <path fill="url(#SVGID_41_)" stroke="#000000" stroke-miterlimit="10" d="M342.33,140.12c1.7-0.56,2.91-0.83,3.59-0.82 c1.66,0.01,2.16,1.21,1.81,2.97c-0.71,6.36-0.54,9.26-0.34,15.38c0.06,1.71-0.36,2.93-1.23,3.61c-0.88,0.69-2.33,1.07-4.37,1.11 c0.01,0.61,0.02,0.92,0.02,1.55c7.74,0,11.61,0,19.34,0c-0.01-0.64-0.01-0.94-0.02-1.55c-3.25,0-5.46-0.41-6.63-1.19 c-1.17-0.78-1.8-2.41-1.88-4.89c-0.13-4.19,0.75-8,3.24-11.22c2.49-3.22,5.19-5.28,7.83-5.51c2.6-0.23,3.33,1.4,2.79,5 c1.06-0.02,1.59-0.02,2.64-0.03c0.58-3.69,0.89-4.8,1.61-8.35c-1.08-0.31-1.62-0.73-2.43-0.76c-2.11-0.08-4.28,0.56-6.68,2.07 s-5.56,4.07-8.56,7.41c0.46-3.62,1.52-5.54,2.1-10.34c-0.67-0.05-1.01-0.08-1.68-0.13c-4.2,1.31-6.38,2.12-10.77,3.77 C342.58,139,342.49,139.38,342.33,140.12z"/>
        </g>
      </g>
    </g>
  </g>
</svg>