<svg xmlns="http://www.w3.org/2000/svg" xmlns:xlink="http://www.w3.org/1999/xlink" viewBox="0 0 424.02 417.59"><defs><style>.cls-1{fill:url(#linear-gradient);}.cls-2{fill:#13364d;}.cls-3{fill:#414042;}.cls-4{fill:#2f5d7d;}.cls-5{fill:url(#New_Gradient_Swatch_1);}.cls-6{fill:url(#linear-gradient-2);}.cls-7{fill:url(#New_Gradient_Swatch_1-2);}.cls-8{fill:url(#linear-gradient-3);}.cls-9{fill:url(#New_Gradient_Swatch_6);}.cls-10{fill:url(#New_Gradient_Swatch_1-3);}.cls-11{fill:url(#linear-gradient-4);}.cls-12{fill:url(#Orange_Yellow);}.cls-13{fill:url(#Orange_Yellow-2);}.cls-14{fill:url(#Orange_Yellow-3);}.cls-15{fill:none;}.cls-15,.cls-60{stroke:#231f20;stroke-linecap:round;stroke-linejoin:round;stroke-width:0.5px;}.cls-16{fill:url(#New_Gradient_Swatch_1-4);}.cls-17{fill:url(#New_Gradient_Swatch_1-5);}.cls-18{fill:url(#New_Gradient_Swatch_1-6);}.cls-19{fill:url(#New_Gradient_Swatch_1-7);}.cls-20{fill:url(#New_Gradient_Swatch_1-8);}.cls-21{fill:url(#New_Gradient_Swatch_1-9);}.cls-22{fill:url(#New_Gradient_Swatch_1-10);}.cls-23{fill:url(#New_Gradient_Swatch_1-11);}.cls-24{fill:url(#New_Gradient_Swatch_1-12);}.cls-25{fill:url(#New_Gradient_Swatch_1-13);}.cls-26{fill:url(#New_Gradient_Swatch_1-14);}.cls-27{fill:url(#New_Gradient_Swatch_1-15);}.cls-28{fill:url(#New_Gradient_Swatch_1-16);}.cls-29{fill:url(#New_Gradient_Swatch_1-17);}.cls-30{fill:url(#New_Gradient_Swatch_1-18);}.cls-31{fill:url(#New_Gradient_Swatch_1-19);}.cls-32{fill:url(#New_Gradient_Swatch_1-20);}.cls-33{fill:url(#New_Gradient_Swatch_1-21);}.cls-34{fill:url(#New_Gradient_Swatch_1-22);}.cls-35{fill:url(#New_Gradient_Swatch_1-23);}.cls-36{fill:url(#New_Gradient_Swatch_1-24);}.cls-37{fill:url(#New_Gradient_Swatch_1-25);}.cls-38{fill:url(#New_Gradient_Swatch_1-26);}.cls-39{fill:url(#New_Gradient_Swatch_1-27);}.cls-40{fill:url(#New_Gradient_Swatch_1-28);}.cls-41{fill:url(#New_Gradient_Swatch_1-29);}.cls-42{fill:url(#New_Gradient_Swatch_1-30);}.cls-43{fill:url(#New_Gradient_Swatch_1-31);}.cls-44{fill:url(#New_Gradient_Swatch_1-32);}.cls-45{fill:url(#New_Gradient_Swatch_1-33);}.cls-46{fill:url(#New_Gradient_Swatch_1-34);}.cls-47{fill:url(#New_Gradient_Swatch_1-35);}.cls-48{fill:url(#New_Gradient_Swatch_1-36);}.cls-49{fill:url(#New_Gradient_Swatch_1-37);}.cls-50{fill:url(#New_Gradient_Swatch_1-38);}.cls-51{fill:url(#New_Gradient_Swatch_1-39);}.cls-52{fill:url(#New_Gradient_Swatch_1-40);}.cls-53{fill:url(#New_Gradient_Swatch_1-41);}.cls-54{fill:url(#New_Gradient_Swatch_1-42);}.cls-55{fill:url(#New_Gradient_Swatch_1-43);}.cls-56{fill:url(#New_Gradient_Swatch_1-44);}.cls-57{fill:url(#New_Gradient_Swatch_1-45);}.cls-58{fill:url(#New_Gradient_Swatch_1-46);}.cls-59{fill:url(#New_Gradient_Swatch_1-47);}.cls-60{fill:url(#linear-gradient-5);}.cls-61{fill:#d1d3d4;}.cls-62{fill:#231f20;}</style><linearGradient id="linear-gradient" x1="253.72" y1="211.74" x2="454.84" y2="211.74" gradientUnits="userSpaceOnUse"><stop offset="0" stop-color="#13364d"/><stop offset="0.1" stop-color="#1c4a6a"/><stop offset="0.35" stop-color="#307aae"/><stop offset="0.47" stop-color="#388dc9"/><stop offset="0.55" stop-color="#67a5d0"/><stop offset="0.64" stop-color="#93bbd7"/><stop offset="0.73" stop-color="#b5ccdd"/><stop offset="0.82" stop-color="#ced9e1"/><stop offset="0.9" stop-color="#dde0e3"/><stop offset="0.96" stop-color="#e2e3e4"/></linearGradient><linearGradient id="New_Gradient_Swatch_1" x1="259.56" y1="347.47" x2="274.58" y2="347.47" gradientUnits="userSpaceOnUse"><stop offset="0.02" stop-color="#52839a"/><stop offset="1" stop-color="#2f5d7d"/></linearGradient><linearGradient id="linear-gradient-2" x1="244.52" y1="113.44" x2="259.44" y2="113.44" gradientUnits="userSpaceOnUse"><stop offset="0" stop-color="#2f5d7d"/><stop offset="1" stop-color="#2f5d7d"/></linearGradient><linearGradient id="New_Gradient_Swatch_1-2" x1="234.8" y1="78.87" x2="253.81" y2="78.87" xlink:href="#New_Gradient_Swatch_1"/><linearGradient id="linear-gradient-3" x1="240.87" y1="107.89" x2="244.52" y2="107.89" xlink:href="#linear-gradient-2"/><linearGradient id="New_Gradient_Swatch_6" x1="32.56" y1="211.87" x2="233.68" y2="211.87" gradientUnits="userSpaceOnUse"><stop offset="0.04" stop-color="#e2e3e4"/><stop offset="0.1" stop-color="#dde0e3"/><stop offset="0.18" stop-color="#ced9e1"/><stop offset="0.27" stop-color="#b5ccdd"/><stop offset="0.36" stop-color="#93bbd7"/><stop offset="0.45" stop-color="#67a5d0"/><stop offset="0.53" stop-color="#388dc9"/><stop offset="0.65" stop-color="#307aae"/><stop offset="0.9" stop-color="#1c4a6a"/><stop offset="1" stop-color="#13364d"/></linearGradient><linearGradient id="New_Gradient_Swatch_1-3" x1="213.66" y1="347.47" x2="228.67" y2="347.47" xlink:href="#New_Gradient_Swatch_1"/><linearGradient id="linear-gradient-4" x1="199.65" y1="271.82" x2="202.09" y2="271.82" xlink:href="#linear-gradient-2"/><linearGradient id="Orange_Yellow" x1="197.25" y1="273.14" x2="199.38" y2="273.14" gradientUnits="userSpaceOnUse"><stop offset="0" stop-color="#fff33b"/><stop offset="0.04" stop-color="#fee72e"/><stop offset="0.12" stop-color="#fed51b"/><stop offset="0.2" stop-color="#fdca10"/><stop offset="0.28" stop-color="#fdc70c"/><stop offset="0.67" stop-color="#f3903f"/><stop offset="0.89" stop-color="#ed683c"/><stop offset="1" stop-color="#e93e3a"/></linearGradient><linearGradient id="Orange_Yellow-2" x1="197.11" y1="274.09" x2="197.25" y2="274.09" xlink:href="#Orange_Yellow"/><linearGradient id="Orange_Yellow-3" x1="197" y1="274.21" x2="197.11" y2="274.21" xlink:href="#Orange_Yellow"/><linearGradient id="New_Gradient_Swatch_1-4" x1="185.24" y1="335.69" x2="199.92" y2="335.69" gradientTransform="translate(28.74 -19.79) rotate(6.65)" xlink:href="#New_Gradient_Swatch_1"/><linearGradient id="New_Gradient_Swatch_1-5" x1="116.16" y1="318.49" x2="130.85" y2="318.49" gradientTransform="matrix(0.78, 0.09, -0.1, 0.87, 59.38, 10.98)" xlink:href="#New_Gradient_Swatch_1"/><linearGradient id="New_Gradient_Swatch_1-6" x1="149.7" y1="334.94" x2="164.38" y2="334.94" gradientTransform="matrix(0.85, 0.1, -0.11, 0.91, 52.4, 1.88)" xlink:href="#New_Gradient_Swatch_1"/><linearGradient id="New_Gradient_Swatch_1-7" x1="-451.83" y1="363.24" x2="-437.14" y2="363.24" gradientTransform="matrix(0.78, 0.09, -0.1, 0.87, 489.32, 10.98)" xlink:href="#New_Gradient_Swatch_1"/><linearGradient id="New_Gradient_Swatch_1-8" x1="-479.88" y1="345.97" x2="-466.23" y2="345.97" gradientTransform="matrix(0.78, 0.09, -0.1, 0.87, 489.32, 10.98)" xlink:href="#New_Gradient_Swatch_1"/><linearGradient id="New_Gradient_Swatch_1-9" x1="-533.9" y1="329.69" x2="-520.25" y2="329.69" gradientTransform="matrix(0.73, 0.09, -0.09, 0.81, 483.03, 25.52)" xlink:href="#New_Gradient_Swatch_1"/><linearGradient id="New_Gradient_Swatch_1-10" x1="-644.67" y1="316.78" x2="-631.02" y2="316.78" gradientTransform="matrix(0.61, 0.07, -0.09, 0.75, 468.08, 39.57)" xlink:href="#New_Gradient_Swatch_1"/><linearGradient id="New_Gradient_Swatch_1-11" x1="198.53" y1="385.61" x2="213.22" y2="385.61" gradientTransform="translate(28.74 -19.79) rotate(6.65)" xlink:href="#New_Gradient_Swatch_1"/><linearGradient id="New_Gradient_Swatch_1-12" x1="231.37" y1="395.23" x2="246.05" y2="395.23" gradientTransform="translate(-7.95 -0.6) rotate(1.45)" xlink:href="#New_Gradient_Swatch_1"/><linearGradient id="New_Gradient_Swatch_1-13" x1="185.38" y1="396.39" x2="200.07" y2="396.39" gradientTransform="matrix(-1, 0.03, 0.03, 1, 448.74, -0.6)" xlink:href="#New_Gradient_Swatch_1"/><linearGradient id="New_Gradient_Swatch_1-14" x1="133.01" y1="375.56" x2="147.7" y2="375.56" gradientTransform="matrix(0.78, 0.09, -0.1, 0.87, 59.38, 10.98)" xlink:href="#New_Gradient_Swatch_1"/><linearGradient id="New_Gradient_Swatch_1-15" x1="165.28" y1="389.56" x2="179.96" y2="389.56" gradientTransform="matrix(0.85, 0.1, -0.11, 0.91, 52.4, 1.88)" xlink:href="#New_Gradient_Swatch_1"/><linearGradient id="New_Gradient_Swatch_1-16" x1="-434.97" y1="420.31" x2="-420.29" y2="420.31" gradientTransform="matrix(0.78, 0.09, -0.1, 0.87, 489.32, 10.98)" xlink:href="#New_Gradient_Swatch_1"/><linearGradient id="New_Gradient_Swatch_1-17" x1="-463.03" y1="403.04" x2="-449.38" y2="403.04" gradientTransform="matrix(0.78, 0.09, -0.1, 0.87, 489.32, 10.98)" xlink:href="#New_Gradient_Swatch_1"/><linearGradient id="New_Gradient_Swatch_1-18" x1="-515.87" y1="390.59" x2="-502.22" y2="390.59" gradientTransform="matrix(0.73, 0.09, -0.09, 0.81, 483.03, 25.52)" xlink:href="#New_Gradient_Swatch_1"/><linearGradient id="New_Gradient_Swatch_1-19" x1="-623.17" y1="382.46" x2="-609.52" y2="382.46" gradientTransform="matrix(0.61, 0.07, -0.09, 0.75, 468.08, 39.57)" xlink:href="#New_Gradient_Swatch_1"/><linearGradient id="New_Gradient_Swatch_1-20" x1="204.72" y1="438.75" x2="219.41" y2="438.75" gradientTransform="translate(28.74 -19.79) rotate(6.65)" xlink:href="#New_Gradient_Swatch_1"/><linearGradient id="New_Gradient_Swatch_1-21" x1="140.87" y1="436.31" x2="155.55" y2="436.31" gradientTransform="matrix(0.78, 0.09, -0.1, 0.87, 59.38, 10.98)" xlink:href="#New_Gradient_Swatch_1"/><linearGradient id="New_Gradient_Swatch_1-22" x1="172.54" y1="447.7" x2="187.23" y2="447.7" gradientTransform="matrix(0.85, 0.1, -0.11, 0.91, 52.4, 1.88)" xlink:href="#New_Gradient_Swatch_1"/><linearGradient id="New_Gradient_Swatch_1-23" x1="-427.12" y1="481.06" x2="-412.43" y2="481.06" gradientTransform="matrix(0.78, 0.09, -0.1, 0.87, 489.32, 10.98)" xlink:href="#New_Gradient_Swatch_1"/><linearGradient id="New_Gradient_Swatch_1-24" x1="-455.17" y1="463.79" x2="-441.52" y2="463.79" gradientTransform="matrix(0.78, 0.09, -0.1, 0.87, 489.32, 10.98)" xlink:href="#New_Gradient_Swatch_1"/><linearGradient id="New_Gradient_Swatch_1-25" x1="-507.46" y1="455.42" x2="-493.81" y2="455.42" gradientTransform="matrix(0.73, 0.09, -0.09, 0.81, 483.03, 25.52)" xlink:href="#New_Gradient_Swatch_1"/><linearGradient id="New_Gradient_Swatch_1-26" x1="-613.14" y1="452.37" x2="-599.49" y2="452.37" gradientTransform="matrix(0.61, 0.07, -0.09, 0.75, 468.08, 39.57)" xlink:href="#New_Gradient_Swatch_1"/><linearGradient id="New_Gradient_Swatch_1-27" x1="-62.09" y1="364.52" x2="-47.4" y2="364.52" gradientTransform="matrix(-0.99, 0.12, 0.12, 0.99, 209.36, -19.79)" xlink:href="#New_Gradient_Swatch_1"/><linearGradient id="New_Gradient_Swatch_1-28" x1="-197.4" y1="351.46" x2="-182.72" y2="351.46" gradientTransform="matrix(-0.78, 0.09, 0.1, 0.87, 178.72, 10.98)" xlink:href="#New_Gradient_Swatch_1"/><linearGradient id="New_Gradient_Swatch_1-29" x1="-140.2" y1="366.49" x2="-125.51" y2="366.49" gradientTransform="matrix(-0.85, 0.1, 0.11, 0.91, 185.7, 1.88)" xlink:href="#New_Gradient_Swatch_1"/><linearGradient id="New_Gradient_Swatch_1-30" x1="-765.39" y1="396.21" x2="-750.7" y2="396.21" gradientTransform="matrix(-0.78, 0.09, 0.1, 0.87, -251.22, 10.98)" xlink:href="#New_Gradient_Swatch_1"/><linearGradient id="New_Gradient_Swatch_1-31" x1="-793.44" y1="378.94" x2="-779.79" y2="378.94" gradientTransform="matrix(-0.78, 0.09, 0.1, 0.87, -251.22, 10.98)" xlink:href="#New_Gradient_Swatch_1"/><linearGradient id="New_Gradient_Swatch_1-32" x1="-869.47" y1="364.87" x2="-855.82" y2="364.87" gradientTransform="matrix(-0.73, 0.09, 0.09, 0.81, -244.93, 25.52)" xlink:href="#New_Gradient_Swatch_1"/><linearGradient id="New_Gradient_Swatch_1-33" x1="-1044.77" y1="354.72" x2="-1031.12" y2="354.72" gradientTransform="matrix(-0.61, 0.07, 0.09, 0.75, -229.98, 39.57)" xlink:href="#New_Gradient_Swatch_1"/><linearGradient id="New_Gradient_Swatch_1-34" x1="-48.8" y1="414.44" x2="-34.11" y2="414.44" gradientTransform="matrix(-0.99, 0.12, 0.12, 0.99, 209.36, -19.79)" xlink:href="#New_Gradient_Swatch_1"/><linearGradient id="New_Gradient_Swatch_1-35" x1="-180.55" y1="408.52" x2="-165.87" y2="408.52" gradientTransform="matrix(-0.78, 0.09, 0.1, 0.87, 178.72, 10.98)" xlink:href="#New_Gradient_Swatch_1"/><linearGradient id="New_Gradient_Swatch_1-36" x1="-124.62" y1="421.11" x2="-109.93" y2="421.11" gradientTransform="matrix(-0.85, 0.1, 0.11, 0.91, 185.7, 1.88)" xlink:href="#New_Gradient_Swatch_1"/><linearGradient id="New_Gradient_Swatch_1-37" x1="-748.54" y1="453.28" x2="-733.85" y2="453.28" gradientTransform="matrix(-0.78, 0.09, 0.1, 0.87, -251.22, 10.98)" xlink:href="#New_Gradient_Swatch_1"/><linearGradient id="New_Gradient_Swatch_1-38" x1="-776.59" y1="436" x2="-762.94" y2="436" gradientTransform="matrix(-0.78, 0.09, 0.1, 0.87, -251.22, 10.98)" xlink:href="#New_Gradient_Swatch_1"/><linearGradient id="New_Gradient_Swatch_1-39" x1="-851.44" y1="425.77" x2="-837.79" y2="425.77" gradientTransform="matrix(-0.73, 0.09, 0.09, 0.81, -244.93, 25.52)" xlink:href="#New_Gradient_Swatch_1"/><linearGradient id="New_Gradient_Swatch_1-40" x1="-1023.27" y1="420.4" x2="-1009.62" y2="420.4" gradientTransform="matrix(-0.61, 0.07, 0.09, 0.75, -229.98, 39.57)" xlink:href="#New_Gradient_Swatch_1"/><linearGradient id="New_Gradient_Swatch_1-41" x1="-42.6" y1="467.59" x2="-27.91" y2="467.59" gradientTransform="matrix(-0.99, 0.12, 0.12, 0.99, 209.36, -19.79)" xlink:href="#New_Gradient_Swatch_1"/><linearGradient id="New_Gradient_Swatch_1-42" x1="-172.7" y1="469.28" x2="-158.01" y2="469.28" gradientTransform="matrix(-0.78, 0.09, 0.1, 0.87, 178.72, 10.98)" xlink:href="#New_Gradient_Swatch_1"/><linearGradient id="New_Gradient_Swatch_1-43" x1="-117.36" y1="479.25" x2="-102.67" y2="479.25" gradientTransform="matrix(-0.85, 0.1, 0.11, 0.91, 185.7, 1.88)" xlink:href="#New_Gradient_Swatch_1"/><linearGradient id="New_Gradient_Swatch_1-44" x1="-740.68" y1="514.03" x2="-726" y2="514.03" gradientTransform="matrix(-0.78, 0.09, 0.1, 0.87, -251.22, 10.98)" xlink:href="#New_Gradient_Swatch_1"/><linearGradient id="New_Gradient_Swatch_1-45" x1="-768.73" y1="496.76" x2="-755.08" y2="496.76" gradientTransform="matrix(-0.78, 0.09, 0.1, 0.87, -251.22, 10.98)" xlink:href="#New_Gradient_Swatch_1"/><linearGradient id="New_Gradient_Swatch_1-46" x1="-843.03" y1="490.6" x2="-829.38" y2="490.6" gradientTransform="matrix(-0.73, 0.09, 0.09, 0.81, -244.93, 25.52)" xlink:href="#New_Gradient_Swatch_1"/><linearGradient id="New_Gradient_Swatch_1-47" x1="-1013.25" y1="490.31" x2="-999.6" y2="490.31" gradientTransform="matrix(-0.61, 0.07, 0.09, 0.75, -229.98, 39.57)" xlink:href="#New_Gradient_Swatch_1"/><linearGradient id="linear-gradient-5" x1="241.78" y1="109.62" x2="248.66" y2="346.39" gradientUnits="userSpaceOnUse"><stop offset="0" stop-color="#d1d3d4"/><stop offset="0.18" stop-color="#ced0d2"/><stop offset="0.33" stop-color="#c4c8cb"/><stop offset="0.46" stop-color="#b4bbbf"/><stop offset="0.58" stop-color="#9ca7ae"/><stop offset="0.7" stop-color="#7e8e99"/><stop offset="0.81" stop-color="#59707f"/><stop offset="0.92" stop-color="#2e4c60"/><stop offset="0.97" stop-color="#13364d"/></linearGradient></defs><g id="Layer_2" data-name="Layer 2"><path class="cls-1" d="M268.93,99.26s104.85,93.1,185.91,75.42c0,0-9,59.28-133.78,132.37,0,0-33.45,8.63-47,17.17l1.68-9.51h0a56.87,56.87,0,0,0,6.36-8.79c3-2.29,5.6-4.58,6.27-6,3.58-7.39,7.43-18.37,2.63-24.78.08-1.36.12-2.72.12-4.11,0-1.79-.06-3.57-.2-5.33l.2-.28c1.86-17.29-4.63-26.44-10.23-31.21a52.07,52.07,0,0,0-14.83-15.35,155.57,155.57,0,0,0,5.53-39.46c.06-4.09-.06-8.14-.34-12.1a165.85,165.85,0,0,0-2.47-24.19l-2-12.84-2.88.28s3.69-1.07-5.3-12.37c-1.38-1.74-3-3.72-4.88-6l0-.06C254.24,111.13,260,99.54,268.93,99.26Z" transform="translate(-31.76 -45.82)"/><path class="cls-2" d="M281.73,234.24c5.6,4.77,12.23,14.19,10.37,31.48h-.18A67.14,67.14,0,0,0,281.73,234.24Z" transform="translate(-31.76 -45.82)"/><path class="cls-2" d="M206.51,234.24c4.12-6.42,9.92-12.8,15.84-16.67,4,1.69,3.64,6,5.44,8.6,8.7,12.65,9.09,3.06,16.83,3.59s10.62,4.84,15.53-8.65c1.07-2.93,5.82,1.13,6.75-2.22a52.07,52.07,0,0,1,14.83,15.35,67.14,67.14,0,0,1,10.19,31.49c.14,1.76.2,3.54.2,5.33,0,1.39,0,2.75-.12,4.11a9.16,9.16,0,0,0-.76-.91c-.42-.43-3.18-3.33-5.09-2.58-3.85,1.51,1.75,15.42-5,21.23-1.21,1-4.93,7.8-8.14,13.82a8.56,8.56,0,0,0-5.54-1.66c-4.37.22-7.75,3.49-7.56,7.32s3.72,6.65,8,6.57h.28c4.37-.2,7.75-3.48,7.56-7.32,0-.17,0-.35-.05-.53,2-1.35,4.76-3.26,7.26-5.18a56.87,56.87,0,0,1-6.36,8.79,47.38,47.38,0,0,1-15.25,11.69c-.21.12-.43.22-.65.32a39.79,39.79,0,0,1-33.12,0c-.22-.1-.44-.2-.65-.32a46,46,0,0,1-12.2-8.49,8.52,8.52,0,0,0,4.61,1,9.8,9.8,0,0,0,1.55-.2c3.59-.81,6.18-3.75,6-7.12-.19-3.83-3.88-6.76-8.25-6.56a8.77,8.77,0,0,0-3.75,1c-3.14-5.86-6.64-12.19-7.81-13.2-6.73-5.81-1.13-19.72-5-21.23a2.68,2.68,0,0,0-2.44.43l-.27.16a11.53,11.53,0,0,0-2.13,1.75l-.14.14-.11.1a9.16,9.16,0,0,0-.76.91c-.08-1.36-.12-2.72-.12-4.11,0-1.79.06-3.57.2-5.33A67.14,67.14,0,0,1,206.51,234.24Z" transform="translate(-31.76 -45.82)"/><path class="cls-3" d="M276.59,314.71l-1.68,9.51a15.75,15.75,0,0,0-4.87,4.22l-.14-.09c-1.65-1.82-4.68-1.32-7.67-.12l-.9-1.83a47.38,47.38,0,0,0,15.25-11.69Z" transform="translate(-31.76 -45.82)"/><path class="cls-2" d="M275.73,311.63c.19,3.84-3.19,7.12-7.56,7.32h-.28l-.06-2.48h0c.28-.22,5.05-4,4.9-3.51.36-.19,1.46-.88,2.94-1.86C275.7,311.28,275.72,311.46,275.73,311.63Z" transform="translate(-31.76 -45.82)"/><path class="cls-4" d="M270.36,152.75a144.68,144.68,0,0,1,1.73,14.58" transform="translate(-31.76 -45.82)"/><path class="cls-4" d="M266.43,218.57c-.77-.5-1.56-1-2.36-1.43" transform="translate(-31.76 -45.82)"/><path class="cls-5" d="M269.9,328.65c-5.75,9.66,14.36,31.42-1.65,37.64C268.25,366.29,247.65,365.9,269.9,328.65Z" transform="translate(-31.76 -45.82)"/><path class="cls-2" d="M267.49,305.07a8.56,8.56,0,0,1,5.54,1.66c-2.55,4.77-4.77,9.09-5.19,9.74h0l.06,2.48c-4.24.08-7.77-2.8-8-6.57S263.12,305.29,267.49,305.07Z" transform="translate(-31.76 -45.82)"/><path class="cls-6" d="M259.25,119.3a34.56,34.56,0,0,0-4.85-6.7c-.26-.27-.52-.53-.78-.77h0c-2.84-2.72-5.9-4.21-9.1-4.24h.1a14,14,0,0,1,9.19,3.84h0c.26.22.52.46.78.71l0,.06c1.88,2.29,3.5,4.27,4.88,6" transform="translate(-31.76 -45.82)"/><path class="cls-3" d="M261.33,326.4l.9,1.83-.68.28a44.53,44.53,0,0,0-7.65,4.54H234.34a44.53,44.53,0,0,0-7.65-4.54l-.68-.28.9-1.83c.21.12.43.22.65.32a39.79,39.79,0,0,0,33.12,0C260.9,326.62,261.12,326.52,261.33,326.4Z" transform="translate(-31.76 -45.82)"/><path class="cls-7" d="M253.81,111.42a14,14,0,0,0-9.19-3.84h-.19a10.92,10.92,0,0,0-3.56.61l-.25.1a16.81,16.81,0,0,0-5.74,3.63l-.08-.08c10.43-62.66,9.94-60.09,9.84-66C245.05,52.26,253.51,109.42,253.81,111.42Z" transform="translate(-31.76 -45.82)"/><path class="cls-8" d="M244.43,107.58h.09a12,12,0,0,0-3.65.61A10.92,10.92,0,0,1,244.43,107.58Z" transform="translate(-31.76 -45.82)"/><path id="Left_Wing" data-name="Left Wing" class="cls-9" d="M233.68,112.2l-1.76,2.14c-12,14.67-8.69,14.63-11.38,15.79l-1.24,12a145.84,145.84,0,0,0-2.08,14.53v0a145.22,145.22,0,0,0-1.79,22.73,134,134,0,0,0,6.3,39.19,52.1,52.1,0,0,0-15.22,15.62c-5.6,4.77-12.23,14.19-10.37,31.48h.18c-.14,1.76-.2,3.54-.2,5.33,0,1.39,0,2.75.12,4.11a10.25,10.25,0,0,0-.89,1.45c-2.19,6.47.6,17,3.68,23.33.67,1.39,3.3,3.68,6.27,6a56.64,56.64,0,0,0,6.35,8.79,6.42,6.42,0,0,0,1.07,1.62l-.22.19,1.37,7.76-.13.19c-13.26-8.61-47.4-17.42-47.4-17.42C41.55,234,32.56,174.68,32.56,174.68c81.06,17.68,185.91-75.42,185.91-75.42C227.8,99.55,233.68,112.2,233.68,112.2Z" transform="translate(-31.76 -45.82)"/><path class="cls-3" d="M226.91,326.4l-.9,1.83c-3-1.2-6-1.7-7.67.12l-.14.09a15.28,15.28,0,0,0-4.46-4l.13-.19-1.37-7.76-.85-1.81a43.53,43.53,0,0,0,3.06,3.2A46,46,0,0,0,226.91,326.4Z" transform="translate(-31.76 -45.82)"/><path class="cls-2" d="M226.88,311.63c.17,3.37-2.42,6.31-6,7.12l-.46-2.27h0c-.43-.68-2.84-5.35-5.52-10.36a8.77,8.77,0,0,1,3.75-1C223,304.87,226.69,307.8,226.88,311.63Z" transform="translate(-31.76 -45.82)"/><path class="cls-2" d="M220.41,316.48l.46,2.27a9.8,9.8,0,0,1-1.55.2,8.52,8.52,0,0,1-4.61-1c-1.06-1-2.08-2.09-3.06-3.2a6.1,6.1,0,0,1-.58-2.32,6,6,0,0,1,.27-2.11c2.08,1.41,3.7,2.44,4.16,2.68-.15-.49,4.62,3.29,4.9,3.51Z" transform="translate(-31.76 -45.82)"/><path class="cls-10" d="M218.34,328.65c22.25,37.25,1.65,37.64,1.65,37.64C204,360.07,224.09,338.31,218.34,328.65Z" transform="translate(-31.76 -45.82)"/><path class="cls-2" d="M211.07,312.39a6.1,6.1,0,0,0,.58,2.32,56.64,56.64,0,0,1-6.35-8.79c2,1.55,4.21,3.11,6,4.36A6,6,0,0,0,211.07,312.39Z" transform="translate(-31.76 -45.82)"/><path class="cls-11" d="M202.09,271.68a2.91,2.91,0,0,0-2.44.43A2.68,2.68,0,0,1,202.09,271.68Z" transform="translate(-31.76 -45.82)"/><path class="cls-2" d="M206.51,234.24a67.14,67.14,0,0,0-10.19,31.49h-.18C194.28,248.43,200.91,239,206.51,234.24Z" transform="translate(-31.76 -45.82)"/><path class="cls-12" d="M199.38,272.27a14.1,14.1,0,0,0-2.13,1.75A11.53,11.53,0,0,1,199.38,272.27Z" transform="translate(-31.76 -45.82)"/><path class="cls-13" d="M197.25,274l-.14.14Z" transform="translate(-31.76 -45.82)"/><path class="cls-14" d="M197.11,274.16l-.11.1Z" transform="translate(-31.76 -45.82)"/><path class="cls-15" d="M265.8,129.74h-.44a21.27,21.27,0,0,0-21.06-21.27h.22A21.28,21.28,0,0,1,265.8,129.74Z" transform="translate(-31.76 -45.82)"/><path class="cls-15" d="M226.85,224.79l-.49-.16a15.08,15.08,0,0,1-2.77-1.26,15.25,15.25,0,0,0,2.09-1.45c.13-.11.26-.22.38-.34A18.82,18.82,0,0,0,226.85,224.79Z" transform="translate(-31.76 -45.82)"/><path class="cls-15" d="M262.91,221.93a16.3,16.3,0,0,1-.68,2.69,18.67,18.67,0,0,1-17.71,12.78h-.22a18.69,18.69,0,0,0,17.44-12.61,17.6,17.6,0,0,0,.78-3.2Z" transform="translate(-31.76 -45.82)"/><path class="cls-15" d="M244.3,108.47a21.27,21.27,0,0,0-21.07,21.27h-.44a21.28,21.28,0,0,1,21.28-21.28Z" transform="translate(-31.76 -45.82)"/><path class="cls-15" d="M265,223.37a14.4,14.4,0,0,1-2.77,1.25l-.49.17a17.6,17.6,0,0,0,.78-3.2l.39.34A15.19,15.19,0,0,0,265,223.37Z" transform="translate(-31.76 -45.82)"/></g><g id="Rain"><path class="cls-16" d="M180.29,312.61c17.34,48.6-2.7,46.16-2.7,46.16C162.77,348.92,184.77,325.21,180.29,312.61Z" transform="translate(-31.76 -45.82)"/><path class="cls-17" d="M123.36,278.6c13.31,42.24-2.5,40.36-2.5,40.36C109.23,310.53,126.79,289.55,123.36,278.6Z" transform="translate(-31.76 -45.82)"/><path class="cls-18" d="M149.41,300.17c14.53,44.22-2.57,42.18-2.57,42.18C134.24,333.48,153.16,311.63,149.41,300.17Z" transform="translate(-31.76 -45.82)"/><path class="cls-19" d="M103.78,265.6c13.31,42.24-2.5,40.36-2.5,40.36C89.65,297.53,107.21,276.55,103.78,265.6Z" transform="translate(-31.76 -45.82)"/><path class="cls-20" d="M83.18,249.41c12.37,39.27-2.32,37.52-2.32,37.52C70.05,279.1,86.38,259.59,83.18,249.41Z" transform="translate(-31.76 -45.82)"/><path class="cls-21" d="M65.43,231.2C77,268,63.25,266.36,63.25,266.36,53.15,259,68.41,240.74,65.43,231.2Z" transform="translate(-31.76 -45.82)"/><path class="cls-22" d="M48.38,216.64c9.32,34-2.19,32.58-2.19,32.58C37.78,242.53,50.79,225.44,48.38,216.64Z" transform="translate(-31.76 -45.82)"/><path class="cls-23" d="M187.71,363.73c17.34,48.6-2.7,46.16-2.7,46.16C170.19,400,192.19,376.33,187.71,363.73Z" transform="translate(-31.76 -45.82)"/><path class="cls-24" d="M217.71,377.38c21.67,46.83,1.5,46.22,1.5,46.22C203.56,415.13,223.31,389.52,217.71,377.38Z" transform="translate(-31.76 -45.82)"/><path class="cls-25" d="M269.08,377.38c-21.67,46.83-1.5,46.22-1.5,46.22C283.23,415.13,263.48,389.52,269.08,377.38Z" transform="translate(-31.76 -45.82)"/><path class="cls-26" d="M130.78,329.72c13.31,42.24-2.5,40.36-2.5,40.36C116.65,361.66,134.21,340.67,130.78,329.72Z" transform="translate(-31.76 -45.82)"/><path class="cls-27" d="M156.83,351.29c14.53,44.23-2.57,42.18-2.57,42.18C141.66,384.6,160.58,362.76,156.83,351.29Z" transform="translate(-31.76 -45.82)"/><path class="cls-28" d="M111.2,316.72c13.31,42.24-2.5,40.36-2.5,40.36C97.07,348.66,114.63,327.67,111.2,316.72Z" transform="translate(-31.76 -45.82)"/><path class="cls-29" d="M90.6,300.54c12.37,39.26-2.32,37.51-2.32,37.51C77.47,330.22,93.8,310.72,90.6,300.54Z" transform="translate(-31.76 -45.82)"/><path class="cls-30" d="M72.85,282.32c11.55,36.79-2.18,35.16-2.18,35.16C60.57,310.15,75.83,291.86,72.85,282.32Z" transform="translate(-31.76 -45.82)"/><path class="cls-31" d="M55.8,267.76c9.32,33.95-2.19,32.58-2.19,32.58C45.2,293.65,58.21,276.56,55.8,267.76Z" transform="translate(-31.76 -45.82)"/><path class="cls-32" d="M187.71,417.23c17.34,48.6-2.7,46.17-2.7,46.17C170.19,453.55,192.19,429.84,187.71,417.23Z" transform="translate(-31.76 -45.82)"/><path class="cls-33" d="M130.78,383.22c13.31,42.25-2.5,40.37-2.5,40.37C116.65,415.16,134.21,394.18,130.78,383.22Z" transform="translate(-31.76 -45.82)"/><path class="cls-34" d="M156.83,404.79C171.36,449,154.26,447,154.26,447,141.66,438.11,160.58,416.26,156.83,404.79Z" transform="translate(-31.76 -45.82)"/><path class="cls-35" d="M111.2,370.22c13.31,42.25-2.5,40.37-2.5,40.37C97.07,402.16,114.63,381.18,111.2,370.22Z" transform="translate(-31.76 -45.82)"/><path class="cls-36" d="M90.6,354c12.37,39.27-2.32,37.52-2.32,37.52C77.47,383.73,93.8,364.22,90.6,354Z" transform="translate(-31.76 -45.82)"/><path class="cls-37" d="M72.85,335.83C84.4,372.62,70.67,371,70.67,371,60.57,363.65,75.83,345.37,72.85,335.83Z" transform="translate(-31.76 -45.82)"/><path class="cls-38" d="M55.8,321.26c9.32,34-2.19,32.58-2.19,32.58C45.2,347.15,58.21,330.07,55.8,321.26Z" transform="translate(-31.76 -45.82)"/><path class="cls-39" d="M306.81,312.61c-17.34,48.6,2.69,46.16,2.69,46.16C324.33,348.92,302.33,325.21,306.81,312.61Z" transform="translate(-31.76 -45.82)"/><path class="cls-40" d="M363.74,278.6c-13.31,42.24,2.49,40.36,2.49,40.36C377.87,310.53,360.3,289.55,363.74,278.6Z" transform="translate(-31.76 -45.82)"/><path class="cls-41" d="M337.69,300.17c-14.53,44.22,2.56,42.18,2.56,42.18C352.86,333.48,333.94,311.63,337.69,300.17Z" transform="translate(-31.76 -45.82)"/><path class="cls-42" d="M383.32,265.6C370,307.84,385.81,306,385.81,306,397.45,297.53,379.88,276.55,383.32,265.6Z" transform="translate(-31.76 -45.82)"/><path class="cls-43" d="M403.92,249.41c-12.37,39.27,2.32,37.52,2.32,37.52C417.05,279.1,400.72,259.59,403.92,249.41Z" transform="translate(-31.76 -45.82)"/><path class="cls-44" d="M421.66,231.2c-11.54,36.79,2.18,35.16,2.18,35.16C433.94,259,418.68,240.74,421.66,231.2Z" transform="translate(-31.76 -45.82)"/><path class="cls-45" d="M438.72,216.64c-9.33,34,2.19,32.58,2.19,32.58C449.31,242.53,436.31,225.44,438.72,216.64Z" transform="translate(-31.76 -45.82)"/><path class="cls-46" d="M299.39,363.73c-17.34,48.6,2.69,46.16,2.69,46.16C316.91,400,294.91,376.33,299.39,363.73Z" transform="translate(-31.76 -45.82)"/><path class="cls-47" d="M356.32,329.72c-13.31,42.24,2.49,40.36,2.49,40.36C370.45,361.66,352.88,340.67,356.32,329.72Z" transform="translate(-31.76 -45.82)"/><path class="cls-48" d="M330.27,351.29c-14.53,44.23,2.56,42.18,2.56,42.18C345.44,384.6,326.52,362.76,330.27,351.29Z" transform="translate(-31.76 -45.82)"/><path class="cls-49" d="M375.9,316.72c-13.31,42.24,2.49,40.36,2.49,40.36C390,348.66,372.46,327.67,375.9,316.72Z" transform="translate(-31.76 -45.82)"/><path class="cls-50" d="M396.5,300.54c-12.37,39.26,2.32,37.51,2.32,37.51C409.63,330.22,393.3,310.72,396.5,300.54Z" transform="translate(-31.76 -45.82)"/><path class="cls-51" d="M414.24,282.32c-11.54,36.79,2.18,35.16,2.18,35.16C426.52,310.15,411.26,291.86,414.24,282.32Z" transform="translate(-31.76 -45.82)"/><path class="cls-52" d="M431.3,267.76c-9.33,33.95,2.19,32.58,2.19,32.58C441.89,293.65,428.89,276.56,431.3,267.76Z" transform="translate(-31.76 -45.82)"/><path class="cls-53" d="M299.39,417.23c-17.34,48.6,2.69,46.17,2.69,46.17C316.91,453.55,294.91,429.84,299.39,417.23Z" transform="translate(-31.76 -45.82)"/><path class="cls-54" d="M356.32,383.22c-13.31,42.25,2.49,40.37,2.49,40.37C370.45,415.16,352.88,394.18,356.32,383.22Z" transform="translate(-31.76 -45.82)"/><path class="cls-55" d="M330.27,404.79C315.74,449,332.83,447,332.83,447,345.44,438.11,326.52,416.26,330.27,404.79Z" transform="translate(-31.76 -45.82)"/><path class="cls-56" d="M375.9,370.22c-13.31,42.25,2.49,40.37,2.49,40.37C390,402.16,372.46,381.18,375.9,370.22Z" transform="translate(-31.76 -45.82)"/><path class="cls-57" d="M396.5,354c-12.37,39.27,2.32,37.52,2.32,37.52C409.63,383.73,393.3,364.22,396.5,354Z" transform="translate(-31.76 -45.82)"/><path class="cls-58" d="M414.24,335.83C402.7,372.62,416.42,371,416.42,371,426.52,363.65,411.26,345.37,414.24,335.83Z" transform="translate(-31.76 -45.82)"/><path class="cls-59" d="M431.3,321.26c-9.33,34,2.19,32.58,2.19,32.58C441.89,347.15,428.89,330.07,431.3,321.26Z" transform="translate(-31.76 -45.82)"/></g><g id="Cloud"><path class="cls-60" d="M368.18,206a19.62,19.62,0,0,0-4.73.56c-2.86-10.38-10.78-17.87-20.09-17.87a18.2,18.2,0,0,0-11.69,4.38c-2.15-11.79-10.62-20.58-20.72-20.58a18.24,18.24,0,0,0-11.64,4.35c-.74-13.53-9.64-24.27-20.6-24.65a6,6,0,0,0-.61,0c0-20-10.21-44-33.58-44-20.29,0-26.36,21.59-26.36,41.64-.21,0-.72,2.59-.91,2.61-11,.37-17.63,10.89-18.37,24.42a18.24,18.24,0,0,0-11.64-4.35c-10.1,0-18.57,8.79-20.72,20.58a18.33,18.33,0,0,0-11.69-4.38c-9.31,0-17.23,7.49-20.11,17.87A19.46,19.46,0,0,0,130,206c-13.71,0-98-45.24-98-28.16,0,11.72,25.22,74,63.76,81.88.24,13.29,30.68,28.5,41.07,30,2.91,10.32,10.8,17.73,20.07,17.73a17.47,17.47,0,0,0,6.84-1.4c3.62,10.2,10.63,2.58,15.42,7.51,6,6.14,4.56,13.24,17.24,7.64,3.82,4.55,12.06,7.26,16.53,5.86,1.2-.38,4.57,2.18,5.26,4,4.56,12.12,30.8,15.37,41.72,11.91,10.62-3.36,15.44-16.42,16.67-16.16,10.48,2.2,10.51-7.17,14.33-6.5,8.56,1.48,9.23-1.29,13-5.82,3.82,4.55,7.94,1.93,13.62,1.93,6.87,0,13-4.07,16.86-10.36a17.47,17.47,0,0,0,6.84,1.4c9.28,0,17.17-7.41,20.07-17.73,10.39-1.51,31.14-18.14,31.39-31.42,30.48-1,62.79-68.35,62.79-80.07C455.53,161.14,381.89,206,368.18,206Z" transform="translate(-31.76 -45.82)"/><path class="cls-15" d="M349,256.13" transform="translate(-31.76 -45.82)"/><path class="cls-15" d="M358.74,265.39" transform="translate(-31.76 -45.82)"/><path class="cls-15" d="M349,256.13" transform="translate(-31.76 -45.82)"/><path class="cls-15" d="M358.74,265.39" transform="translate(-31.76 -45.82)"/><path class="cls-15" d="M201.49,199.77c-10.65-2.91-17.06,4.27-15.13,15l-.34.65c-10.65-2.92-17.06,4.26-15.13,15" transform="translate(-31.76 -45.82)"/><path class="cls-15" d="M155.26,213.32c-10.65-2.91-17,4.27-15.13,15l-.34.65c-10.65-2.92-17,4.26-15.13,15" transform="translate(-31.76 -45.82)"/><path class="cls-15" d="M187.86,250.38c-10.66-2.92-17.06,4.26-15.13,15l-.34.66c-10.66-2.92-17.06,4.26-15.13,15" transform="translate(-31.76 -45.82)"/><path class="cls-15" d="M240.79,213.32c-10.65-2.91-17.06,4.27-15.13,15l-.34.65c-10.65-2.92-17.06,4.26-15.13,15" transform="translate(-31.76 -45.82)"/><path class="cls-15" d="M275.84,264.18c-7.37-10-15.92-8.72-19.3,1.46l-.58.29c-7.38-10-15.93-8.72-19.31,1.45" transform="translate(-31.76 -45.82)"/><path class="cls-15" d="M229.44,287.94c-7.37-10-15.92-8.72-19.3,1.45l-.58.29c-7.38-10-15.93-8.72-19.31,1.46" transform="translate(-31.76 -45.82)"/><path class="cls-15" d="M323.08,282.9c-7.37-10-15.92-8.72-19.3,1.45l-.58.29c-7.38-10-15.93-8.72-19.31,1.46" transform="translate(-31.76 -45.82)"/><path class="cls-15" d="M322.63,231.17c-8.55-8.43-16.83-5.47-18.88,5.25l-.53.4c-8.55-8.44-16.83-5.47-18.88,5.24" transform="translate(-31.76 -45.82)"/><path class="cls-15" d="M301,204.05c-6.57-10.84-15.18-10.57-19.32-.84l-.6.22c-6.58-10.84-15.19-10.57-19.33-.84" transform="translate(-31.76 -45.82)"/><path class="cls-15" d="M257.55,155.59c-10.65-2.92-17.05,4.26-15.13,15l-.34.66c-10.65-2.92-17.05,4.26-15.13,15" transform="translate(-31.76 -45.82)"/><path class="cls-15" d="M333.52,206.63c10.65-2.92,17.06,4.26,15.13,15l.34.65c10.65-2.92,17.06,4.26,15.13,15" transform="translate(-31.76 -45.82)"/><path class="cls-15" d="M322.63,231.11c10.65-2.92,17.05,4.26,15.13,15l.34.65c10.65-2.92,17,4.26,15.13,15" transform="translate(-31.76 -45.82)"/><path class="cls-61" d="M292,277.29c4.8,6.47.79,17.54-2.79,25-.67,1.41-3.3,3.72-6.27,6-2.5,1.94-5.23,3.86-7.26,5.23a6.67,6.67,0,0,0-2.65-4.41c3.21-6.08,6.93-12.89,8.14-13.95,6.73-5.87,1.13-19.9,5-21.43,1.91-.76,4.67,2.17,5.09,2.61A8.24,8.24,0,0,1,292,277.29Z" transform="translate(-31.76 -45.82)"/><path class="cls-62" d="M273,309.14a6.67,6.67,0,0,1,2.65,4.41c-1.48,1-2.58,1.68-2.94,1.87.15-.49-4.62,3.32-4.9,3.55C268.26,318.31,270.48,314,273,309.14Z" transform="translate(-31.76 -45.82)"/><path class="cls-62" d="M220.4,319c-.28-.23-5.05-4-4.9-3.55-.46-.24-2.08-1.27-4.16-2.7a7.28,7.28,0,0,1,3.54-4.21C217.56,313.57,220,318.28,220.4,319Z" transform="translate(-31.76 -45.82)"/><path class="cls-61" d="M205.3,308.32c-3-2.31-5.6-4.62-6.27-6-3.08-6.43-5.87-17-3.68-23.55a10.84,10.84,0,0,1,.89-1.45,8.24,8.24,0,0,1,.76-.92l.11-.11.14-.14a14.7,14.7,0,0,1,2.13-1.76l.27-.16a2.88,2.88,0,0,1,2.44-.44c3.85,1.53-1.75,15.56,5,21.43,1.17,1,4.67,7.41,7.81,13.32a7.28,7.28,0,0,0-3.54,4.21C209.51,311.45,207.33,309.89,205.3,308.32Z" transform="translate(-31.76 -45.82)"/></g></svg>