<svg width="145" height="147" viewBox="0 0 145 147" fill="none" xmlns="http://www.w3.org/2000/svg">
<path d="M49.9674 128.092C144.069 125.861 164.396 42.0477 81.7443 12.9333C81.2838 12.771 80.8557 13.2907 81.1358 13.6906C104.758 47.4247 101.593 99.277 49.7061 127.135C49.2414 127.384 49.4402 128.104 49.9674 128.092Z" fill="url(#paint0_linear_57_689)"/>
<path d="M34.2608 31.7558C34.4028 30.9242 35.5973 30.9242 35.7394 31.7558L36.6128 36.8692C36.703 37.3973 37.1197 37.8092 37.6489 37.8932L42.7429 38.7023C43.586 38.8363 43.586 40.0499 42.7429 40.1838L37.6489 40.9929C37.1197 41.0769 36.703 41.4888 36.6128 42.0169L35.7394 47.1303C35.5973 47.9619 34.4028 47.9619 34.2608 47.1303L33.3873 42.0169C33.2971 41.4888 32.8804 41.0769 32.3513 40.9929L27.2573 40.1838C26.4141 40.0499 26.4141 38.8363 27.2573 38.7023L32.3513 37.8932C32.8804 37.8092 33.2971 37.3973 33.3873 36.8692L34.2608 31.7558Z" fill="white" stroke="#231F20" stroke-width="0.5"/>
<path d="M35.2608 103.756C35.4028 102.924 36.5973 102.924 36.7394 103.756L37.6128 108.869C37.703 109.397 38.1197 109.809 38.6489 109.893L43.7429 110.702C44.586 110.836 44.586 112.05 43.7429 112.184L38.6489 112.993C38.1197 113.077 37.703 113.489 37.6128 114.017L36.7394 119.13C36.5973 119.962 35.4028 119.962 35.2608 119.13L34.3873 114.017C34.2971 113.489 33.8804 113.077 33.3512 112.993L28.2573 112.184C27.4141 112.05 27.4141 110.836 28.2573 110.702L33.3513 109.893C33.8804 109.809 34.2971 109.397 34.3873 108.869L35.2608 103.756Z" fill="white" stroke="#231F20" stroke-width="0.5"/>
<path d="M54.792 55.7271C55.0262 55.057 55.9739 55.057 56.2081 55.7271L57.2013 58.5694C57.3321 58.9438 57.6328 59.2339 58.0117 59.3511L60.84 60.2266C61.5443 60.4446 61.5443 61.4415 60.84 61.6595L58.0117 62.535C57.6328 62.6522 57.3321 62.9423 57.2013 63.3167L56.2081 66.159C55.9739 66.8291 55.0262 66.8291 54.792 66.159L53.7988 63.3167C53.668 62.9423 53.3673 62.6522 52.9884 62.535L50.1602 61.6595C49.4559 61.4415 49.4559 60.4446 50.1602 60.2266L52.9884 59.3511C53.3673 59.2339 53.668 58.9438 53.7988 58.5694L54.792 55.7271Z" fill="white" stroke="#231F20" stroke-width="0.5"/>
<path d="M54.792 84.7271C55.0262 84.057 55.9739 84.057 56.2081 84.7271L57.2013 87.5694C57.3321 87.9438 57.6328 88.2339 58.0117 88.3511L60.84 89.2266C61.5443 89.4446 61.5443 90.4415 60.84 90.6595L58.0117 91.535C57.6328 91.6522 57.3321 91.9423 57.2013 92.3167L56.2081 95.159C55.9739 95.8291 55.0262 95.8291 54.792 95.159L53.7988 92.3167C53.668 91.9423 53.3673 91.6522 52.9884 91.535L50.1602 90.6595C49.4559 90.4415 49.4559 89.4446 50.1602 89.2266L52.9884 88.3511C53.3673 88.2339 53.668 87.9438 53.7988 87.5694L54.792 84.7271Z" fill="white" stroke="#231F20" stroke-width="0.5"/>
<path d="M71.3458 72.6216C71.6323 72.1105 72.3678 72.1105 72.6543 72.6216L73.6619 74.4192C73.7892 74.6463 73.9842 74.828 74.2197 74.9389L75.9727 75.7645C76.5466 76.0348 76.5466 76.8513 75.9727 77.1216L74.2197 77.9472C73.9842 78.0581 73.7892 78.2398 73.6619 78.4669L72.6543 80.2645C72.3678 80.7756 71.6323 80.7756 71.3458 80.2645L70.3382 78.4669C70.2109 78.2398 70.0159 78.0581 69.7804 77.9472L68.0274 77.1216C67.4535 76.8513 67.4535 76.0348 68.0274 75.7645L69.7804 74.9389C70.0159 74.828 70.2109 74.6463 70.3382 74.4192L71.3458 72.6216Z" fill="white" stroke="#231F20" stroke-width="0.5"/>
<defs>
<linearGradient id="paint0_linear_57_689" x1="109.047" y1="18.8284" x2="82.9528" y2="135.957" gradientUnits="userSpaceOnUse">
<stop stop-color="#FFF33B"/>
<stop offset="1" stop-color="#FDC70C"/>
</linearGradient>
</defs>
</svg>
