<svg width="128" height="92" viewBox="0 0 128 92" fill="none" xmlns="http://www.w3.org/2000/svg">
<path d="M25.1498 91.6864C99.1458 89.6706 115.112 23.7466 50.1766 0.642105C49.7166 0.478428 49.2897 0.998764 49.5676 1.4002C68.0045 28.0276 65.4528 68.701 24.8863 90.7301C24.4228 90.9817 24.6226 91.7007 25.1498 91.6864Z" fill="url(#paint0_linear_73_11904)"/>
<path d="M50.3251 16.4845C50.0279 16.4839 49.7314 16.5142 49.4397 16.5749C49.1704 15.7422 48.6628 15.0194 47.9876 14.5074C47.3124 13.9955 46.5034 13.7198 45.6734 13.719C44.8938 13.7163 44.131 13.9593 43.4818 14.4172C43.339 13.7527 43.0466 13.1347 42.6296 12.6161C42.2126 12.0975 41.6835 11.6937 41.0874 11.4391C40.4913 11.1846 39.846 11.0869 39.2065 11.1545C38.5671 11.222 37.9526 11.4527 37.4155 11.8269C37.3466 10.7782 36.9117 9.79434 36.1957 9.06735C35.4798 8.34035 34.5342 7.92237 33.5434 7.89496H33.4299C33.4456 7.12693 33.3167 6.36329 33.0505 5.64885C32.7843 4.93441 32.3863 4.28355 31.8798 3.73446C31.3733 3.18537 30.7685 2.74911 30.1009 2.45126C29.4333 2.15342 28.7164 2 27.9921 2C27.2679 2 26.551 2.15342 25.8834 2.45126C25.2158 2.74911 24.611 3.18537 24.1045 3.73446C23.598 4.28355 23.2 4.93441 22.9338 5.64885C22.6676 6.36329 22.5386 7.12693 22.5544 7.89496H22.4408C21.4501 7.92237 20.5045 8.34035 19.7885 9.06735C19.0726 9.79434 18.6377 10.7782 18.5687 11.8269C18.0317 11.4527 17.4172 11.222 16.7777 11.1545C16.1383 11.0869 15.493 11.1846 14.8969 11.4391C14.3008 11.6937 13.7717 12.0975 13.3547 12.6161C12.9377 13.1347 12.6453 13.7527 12.5024 14.4172C11.9953 14.0622 11.4182 13.835 10.8155 13.7529C10.2127 13.6709 9.60026 13.7362 9.025 13.9439C8.44973 14.1517 7.9269 14.4962 7.49652 14.9513C7.06614 15.4064 6.73963 15.9599 6.54199 16.5694C6.25121 16.5087 5.95551 16.4785 5.65915 16.4791C4.6229 16.4761 3.61547 16.8407 2.797 17.5149C1.97854 18.189 1.39601 19.1341 1.14203 20.1997C0.888049 21.2654 0.977192 22.3905 1.39528 23.3962C1.81337 24.402 2.53642 25.2306 3.44948 25.7504C3.4721 26.7672 3.83995 27.7411 4.48541 28.4931C5.13087 29.2452 6.01055 29.7249 6.96276 29.844C7.31089 30.895 8.03585 31.758 8.98024 32.2456C9.92462 32.7331 11.0122 32.8058 12.0068 32.4479C12.3472 32.9187 12.7772 33.3082 13.2689 33.591C13.7606 33.8738 14.3029 34.0436 14.8606 34.0893C15.4182 34.135 15.9787 34.0556 16.5055 33.8564C17.0324 33.6571 17.5137 33.3423 17.9182 32.9326C18.6224 33.6463 19.5489 34.0613 20.5222 34.0992C21.4956 34.137 22.4482 33.795 23.1998 33.1379C23.2333 33.1078 23.2669 33.0777 23.2979 33.0448C23.4484 34.1694 23.9528 35.207 24.7292 35.9892C25.5056 36.7715 26.5083 37.2525 27.5748 37.3543C28.6413 37.4561 29.709 37.1726 30.6045 36.5499C31.5 35.9272 32.1709 35.0018 32.5083 33.9238C32.6011 33.639 32.6685 33.3457 32.7097 33.0476L32.8103 33.1407C33.5252 33.7602 34.4195 34.0996 35.3427 34.1018C36.3676 34.1024 37.3533 33.6836 38.0945 32.9326C38.4988 33.3422 38.9799 33.657 39.5065 33.8562C40.0331 34.0555 40.5934 34.1349 41.1508 34.0891C41.7083 34.0434 42.2504 33.8736 42.7419 33.5909C43.2334 33.3081 43.6632 32.9186 44.0033 32.4479C44.9979 32.8058 46.0855 32.7331 47.0299 32.2456C47.9742 31.758 48.6992 30.895 49.0473 29.844C49.9995 29.7249 50.8792 29.2452 51.5247 28.4931C52.1701 27.7411 52.538 26.7672 52.5606 25.7504C53.4728 25.2282 54.1941 24.3976 54.61 23.3905C55.0258 22.3834 55.1123 21.2577 54.8556 20.1925C54.5989 19.1273 54.0138 18.1837 53.1933 17.5119C52.3729 16.84 51.3642 16.4784 50.3277 16.4845H50.3251Z" fill="url(#paint1_linear_73_11904)" stroke="#231F20" stroke-width="0.5" stroke-linecap="round" stroke-linejoin="round"/>
<path d="M28.0502 37.3766H27.9909C26.9794 37.376 25.9937 37.038 25.1733 36.4105C24.3528 35.783 23.7392 34.8978 23.4192 33.88C23.3407 33.6384 23.282 33.3902 23.2437 33.138C23.2772 33.1078 23.3108 33.0777 23.3417 33.0449C23.5154 34.2416 24.0841 35.334 24.9465 36.1274C25.8088 36.9207 26.9088 37.3634 28.0502 37.3766Z" stroke="#231F20" stroke-width="0.5" stroke-linecap="round" stroke-linejoin="round"/>
<path d="M19.0798 15.4961C17.0818 15.0306 15.8815 16.1751 16.2403 17.8892L16.1758 17.9933C14.1803 17.5278 12.98 18.6751 13.3362 20.3891" stroke="#231F20" stroke-width="0.5" stroke-linecap="round" stroke-linejoin="round"/>
<path d="M10.4192 17.6565C8.42123 17.191 7.22088 18.3383 7.57969 20.0523L7.51516 20.1564C5.51974 19.6909 4.31938 20.8354 4.67562 22.5523" stroke="#231F20" stroke-width="0.5" stroke-linecap="round" stroke-linejoin="round"/>
<path d="M16.5243 23.5763C14.5263 23.1108 13.3259 24.2581 13.6847 25.9722L13.6202 26.0762C11.6248 25.6108 10.4244 26.7553 10.7807 28.4721" stroke="#231F20" stroke-width="0.5" stroke-linecap="round" stroke-linejoin="round"/>
<path d="M26.4446 17.6565C24.4492 17.191 23.2488 18.3383 23.6051 20.0523L23.5405 20.1564C21.5425 19.6909 20.3447 20.8354 20.701 22.5523" stroke="#231F20" stroke-width="0.5" stroke-linecap="round" stroke-linejoin="round"/>
<path d="M33.0169 25.7669C31.6332 24.1705 30.0328 24.3759 29.4029 25.9996L29.2945 26.0462C27.9108 24.4498 26.3104 24.6552 25.6805 26.2789" stroke="#231F20" stroke-width="0.5" stroke-linecap="round" stroke-linejoin="round"/>
<path d="M24.3175 29.5619C22.9365 27.9628 21.3334 28.1682 20.7035 29.7919L20.5951 29.8385C19.2115 28.2421 17.6085 28.4475 16.9812 30.0712" stroke="#231F20" stroke-width="0.5" stroke-linecap="round" stroke-linejoin="round"/>
<path d="M41.871 28.7569C40.49 27.1578 38.8869 27.3659 38.2571 28.9896L38.1487 29.0362C36.7676 27.4371 35.1646 27.6452 34.5347 29.2662" stroke="#231F20" stroke-width="0.5" stroke-linecap="round" stroke-linejoin="round"/>
<path d="M41.7884 20.5041C40.1828 19.1597 38.6314 19.6307 38.2493 21.342L38.1487 21.405C36.5456 20.0606 34.9942 20.5315 34.6096 22.2429" stroke="#231F20" stroke-width="0.5" stroke-linecap="round" stroke-linejoin="round"/>
<path d="M37.7305 16.1833C36.4966 14.4528 34.891 14.4966 34.1165 16.0491L34.0055 16.0847C32.7716 14.3542 31.166 14.398 30.3916 15.9506" stroke="#231F20" stroke-width="0.5" stroke-linecap="round" stroke-linejoin="round"/>
<path d="M29.5887 8.44534C27.5907 7.97985 26.3904 9.12714 26.7492 10.8412L26.6847 10.9453C24.6892 10.4798 23.4889 11.6243 23.8451 13.3411" stroke="#231F20" stroke-width="0.5" stroke-linecap="round" stroke-linejoin="round"/>
<path d="M43.8303 16.5886C45.8257 16.1231 47.0261 17.2677 46.6699 18.9845L46.7344 19.0885C48.7324 18.623 49.9302 19.7676 49.5739 21.4817" stroke="#231F20" stroke-width="0.5" stroke-linecap="round" stroke-linejoin="round"/>
<path d="M41.7885 20.4932C43.7839 20.0277 44.9842 21.175 44.628 22.8891L44.6925 22.9931C46.6905 22.5276 47.8883 23.6722 47.5321 25.389" stroke="#231F20" stroke-width="0.5" stroke-linecap="round" stroke-linejoin="round"/>
<path d="M102.617 19.102C102.348 19.1015 102.08 19.1289 101.816 19.1838C101.573 18.4305 101.113 17.7767 100.503 17.3136C99.892 16.8505 99.1602 16.6012 98.4095 16.6005C97.7043 16.598 97.0143 16.8178 96.4271 17.232C96.2979 16.6309 96.0334 16.0719 95.6562 15.6028C95.279 15.1337 94.8004 14.7684 94.2612 14.5382C93.722 14.308 93.1382 14.2196 92.5599 14.2807C91.9815 14.3418 91.4256 14.5505 90.9398 14.889C90.8774 13.9403 90.484 13.0504 89.8364 12.3928C89.1888 11.7352 88.3335 11.3571 87.4373 11.3323H87.3346C87.3488 10.6376 87.2321 9.94683 86.9914 9.30058C86.7506 8.65433 86.3906 8.06559 85.9324 7.56891C85.4742 7.07223 84.9272 6.67761 84.3233 6.40819C83.7195 6.13878 83.0709 6 82.4158 6C81.7607 6 81.1122 6.13878 80.5084 6.40819C79.9045 6.67761 79.3574 7.07223 78.8993 7.56891C78.4411 8.06559 78.0811 8.65433 77.8403 9.30058C77.5995 9.94683 77.4829 10.6376 77.4971 11.3323H77.3944C76.4982 11.3571 75.6428 11.7352 74.9953 12.3928C74.3477 13.0504 73.9543 13.9403 73.8919 14.889C73.4061 14.5505 72.8502 14.3418 72.2718 14.2807C71.6934 14.2196 71.1097 14.308 70.5705 14.5382C70.0313 14.7684 69.5527 15.1337 69.1755 15.6028C68.7983 16.0719 68.5338 16.6309 68.4046 17.232C67.9458 16.9109 67.4238 16.7053 66.8786 16.6311C66.3334 16.5569 65.7794 16.616 65.2591 16.8039C64.7387 16.9918 64.2658 17.3035 63.8765 17.7151C63.4872 18.1268 63.1918 18.6274 63.0131 19.1788C62.75 19.1239 62.4826 19.0965 62.2145 19.0971C61.2771 19.0944 60.3659 19.4242 59.6255 20.034C58.8852 20.6438 58.3582 21.4987 58.1285 22.4626C57.8988 23.4265 57.9794 24.4443 58.3576 25.354C58.7358 26.2638 59.3898 27.0133 60.2157 27.4835C60.2362 28.4032 60.5689 29.2842 61.1528 29.9644C61.7366 30.6447 62.5323 31.0786 63.3937 31.1863C63.7086 32.1371 64.3643 32.9177 65.2186 33.3587C66.0728 33.7997 67.0566 33.8655 67.9563 33.5418C68.2642 33.9676 68.6531 34.3199 69.0979 34.5757C69.5427 34.8315 70.0332 34.9851 70.5377 35.0265C71.0421 35.0678 71.5491 34.996 72.0256 34.8157C72.5021 34.6355 72.9375 34.3508 73.3035 33.9801C73.9405 34.6257 74.7785 35.0012 75.6589 35.0354C76.5393 35.0696 77.401 34.7603 78.0809 34.1659C78.1112 34.1387 78.1416 34.1114 78.1696 34.0817C78.3058 35.0989 78.7621 36.0374 79.4643 36.745C80.1666 37.4526 81.0737 37.8878 82.0384 37.9798C83.0031 38.0719 83.9688 37.8155 84.7789 37.2522C85.5889 36.6889 86.1958 35.8518 86.5009 34.8767C86.5849 34.6192 86.6459 34.3538 86.6831 34.0842L86.7741 34.1684C87.4208 34.7288 88.2297 35.0358 89.0648 35.0377C89.9919 35.0383 90.8835 34.6595 91.5539 33.9801C91.9196 34.3507 92.3548 34.6354 92.8312 34.8156C93.3075 34.9959 93.8143 35.0677 94.3186 35.0263C94.8228 34.985 95.3132 34.8314 95.7578 34.5756C96.2023 34.3198 96.5911 33.9675 96.8988 33.5418C97.7984 33.8655 98.7822 33.7997 99.6365 33.3587C100.491 32.9177 101.146 32.1371 101.461 31.1863C102.323 31.0786 103.118 30.6447 103.702 29.9644C104.286 29.2842 104.619 28.4032 104.639 27.4835C105.464 27.0112 106.117 26.2598 106.493 25.3488C106.869 24.4378 106.947 23.4196 106.715 22.4561C106.483 21.4926 105.954 20.6391 105.212 20.0313C104.47 19.4235 103.557 19.0964 102.62 19.102H102.617Z" fill="url(#paint2_linear_73_11904)" stroke="#231F20" stroke-width="0.5" stroke-linecap="round" stroke-linejoin="round"/>
<path d="M82.4684 38H82.4147C81.4997 37.9995 80.6081 37.6938 79.866 37.1262C79.1239 36.5586 78.5688 35.7578 78.2794 34.8372C78.2084 34.6187 78.1553 34.3941 78.1206 34.1659C78.1509 34.1387 78.1813 34.1114 78.2093 34.0817C78.3664 35.1642 78.8808 36.1524 79.6609 36.87C80.4409 37.5877 81.4359 37.9881 82.4684 38Z" stroke="#231F20" stroke-width="0.5" stroke-linecap="round" stroke-linejoin="round"/>
<path d="M74.3542 18.2079C72.5469 17.7868 71.4611 18.8221 71.7857 20.3726L71.7273 20.4667C69.9223 20.0457 68.8365 21.0835 69.1588 22.6339" stroke="#231F20" stroke-width="0.5" stroke-linecap="round" stroke-linejoin="round"/>
<path d="M66.5202 20.1621C64.7129 19.741 63.6271 20.7788 63.9517 22.3293L63.8933 22.4234C62.0884 22.0023 61.0026 23.0376 61.3248 24.5906" stroke="#231F20" stroke-width="0.5" stroke-linecap="round" stroke-linejoin="round"/>
<path d="M72.0426 25.5169C70.2353 25.0959 69.1495 26.1337 69.474 27.6841L69.4157 27.7783C67.6107 27.3572 66.5249 28.3925 66.8472 29.9455" stroke="#231F20" stroke-width="0.5" stroke-linecap="round" stroke-linejoin="round"/>
<path d="M81.016 20.1621C79.211 19.741 78.1253 20.7788 78.4475 22.3293L78.3891 22.4234C76.5818 22.0023 75.4984 23.0376 75.8206 24.5906" stroke="#231F20" stroke-width="0.5" stroke-linecap="round" stroke-linejoin="round"/>
<path d="M86.961 27.4984C85.7094 26.0544 84.2617 26.2402 83.6919 27.7089L83.5939 27.751C82.3423 26.3071 80.8946 26.4928 80.3249 27.9616" stroke="#231F20" stroke-width="0.5" stroke-linecap="round" stroke-linejoin="round"/>
<path d="M79.0919 30.9312C77.8427 29.4848 76.3926 29.6705 75.8229 31.1393L75.7248 31.1814C74.4733 29.7374 73.0232 29.9232 72.4558 31.3919" stroke="#231F20" stroke-width="0.5" stroke-linecap="round" stroke-linejoin="round"/>
<path d="M94.97 30.203C93.7208 28.7566 92.2708 28.9448 91.701 30.4136L91.6029 30.4557C90.3537 29.0092 88.9037 29.1974 88.3339 30.6637" stroke="#231F20" stroke-width="0.5" stroke-linecap="round" stroke-linejoin="round"/>
<path d="M94.8953 22.738C93.4429 21.5218 92.0396 21.9479 91.694 23.4959L91.6029 23.5528C90.1529 22.3367 88.7496 22.7627 88.4016 24.3107" stroke="#231F20" stroke-width="0.5" stroke-linecap="round" stroke-linejoin="round"/>
<path d="M91.2247 18.8295C90.1085 17.2642 88.6562 17.3038 87.9557 18.7082L87.8553 18.7404C86.7391 17.175 85.2867 17.2147 84.5862 18.619" stroke="#231F20" stroke-width="0.5" stroke-linecap="round" stroke-linejoin="round"/>
<path d="M83.86 11.8301C82.0527 11.4091 80.967 12.4469 81.2915 13.9973L81.2331 14.0915C79.4282 13.6704 78.3424 14.7057 78.6646 16.2587" stroke="#231F20" stroke-width="0.5" stroke-linecap="round" stroke-linejoin="round"/>
<path d="M96.7423 19.1961C98.5473 18.7751 99.6331 19.8104 99.3108 21.3633L99.3692 21.4574C101.176 21.0364 102.26 22.0717 101.938 23.6222" stroke="#231F20" stroke-width="0.5" stroke-linecap="round" stroke-linejoin="round"/>
<path d="M94.8953 22.7281C96.7003 22.307 97.7861 23.3448 97.4638 24.8953L97.5222 24.9894C99.3295 24.5683 100.413 25.6036 100.091 27.1566" stroke="#231F20" stroke-width="0.5" stroke-linecap="round" stroke-linejoin="round"/>
<path d="M81.9053 49.5172C81.4419 49.5163 80.9795 49.5626 80.5248 49.6554C80.1049 48.3818 79.3134 47.2764 78.2607 46.4934C77.208 45.7104 75.9466 45.2888 74.6526 45.2876C73.437 45.2834 72.2477 45.655 71.2355 46.3554C71.0128 45.3391 70.5569 44.3939 69.9068 43.6008C69.2566 42.8076 68.4316 42.19 67.5022 41.8007C66.5728 41.4114 65.5666 41.262 64.5697 41.3653C63.5727 41.4686 62.6146 41.8215 61.7772 42.3938C61.6697 40.7899 60.9916 39.2851 59.8754 38.1733C58.7592 37.0614 57.2848 36.4221 55.74 36.3802H55.563C55.5876 35.2056 55.3865 34.0377 54.9714 32.945C54.5564 31.8523 53.9358 30.8569 53.1461 30.0171C52.3564 29.1773 51.4135 28.5101 50.3726 28.0545C49.3317 27.599 48.2139 27.3644 47.0847 27.3644C45.9555 27.3644 44.8377 27.599 43.7968 28.0545C42.756 28.5101 41.813 29.1773 41.0233 30.0171C40.2336 30.8569 39.613 31.8523 39.198 32.945C38.783 34.0377 38.5819 35.2056 38.6065 36.3802H38.4294C36.8846 36.4221 35.4103 37.0614 34.294 38.1733C33.1778 39.2851 32.4998 40.7899 32.3922 42.3938C31.5548 41.8215 30.5967 41.4686 29.5998 41.3653C28.6028 41.262 27.5966 41.4114 26.6672 41.8007C25.7378 42.19 24.9128 42.8076 24.2627 43.6008C23.6126 44.3939 23.1567 45.3391 22.9339 46.3554C22.1431 45.8124 21.2434 45.4649 20.3036 45.3394C19.3639 45.214 18.409 45.3139 17.512 45.6316C16.6151 45.9493 15.7999 46.4763 15.1289 47.1723C14.4579 47.8683 13.9488 48.7148 13.6406 49.647C13.1873 49.5542 12.7262 49.5079 12.2642 49.5088C10.6485 49.5044 9.07775 50.062 7.80163 51.093C6.52552 52.1241 5.61727 53.5694 5.22128 55.1992C4.82528 56.8291 4.96427 58.5498 5.61613 60.088C6.268 61.6262 7.39534 62.8936 8.81894 63.6886C8.85422 65.2436 9.42775 66.7331 10.4341 67.8833C11.4405 69.0335 12.8121 69.7671 14.2967 69.9492C14.8395 71.5568 15.9698 72.8767 17.4422 73.6223C18.9147 74.368 20.6104 74.4792 22.1611 73.9318C22.6918 74.6518 23.3623 75.2475 24.1289 75.68C24.8955 76.1125 25.7411 76.3722 26.6106 76.4421C27.4801 76.5121 28.354 76.3907 29.1753 76.0859C29.9967 75.781 30.7472 75.2997 31.3779 74.673C32.4759 75.7646 33.9204 76.3994 35.438 76.4573C36.9555 76.5151 38.4408 75.9921 39.6127 74.9871C39.665 74.941 39.7173 74.895 39.7656 74.8447C40.0004 76.5646 40.7868 78.1515 41.9973 79.3479C43.2078 80.5443 44.7713 81.28 46.4341 81.4357C48.0969 81.5913 49.7615 81.1578 51.1578 80.2054C52.5541 79.253 53.6001 77.8377 54.1261 76.189C54.2708 75.7535 54.3759 75.3048 54.44 74.8489L54.597 74.9913C55.7117 75.9388 57.106 76.4579 58.5453 76.4612C60.1434 76.4621 61.6802 75.8216 62.8358 74.673C63.4661 75.2996 64.2163 75.7809 65.0374 76.0857C65.8584 76.3904 66.732 76.5118 67.6012 76.4419C68.4703 76.372 69.3156 76.1123 70.0818 75.6798C70.8481 75.2473 71.5182 74.6517 72.0485 73.9318C73.5993 74.4792 75.295 74.368 76.7674 73.6223C78.2399 72.8767 79.3702 71.5568 79.913 69.9492C81.3976 69.7671 82.7692 69.0335 83.7756 67.8833C84.7819 66.7331 85.3555 65.2436 85.3907 63.6886C86.8129 62.8899 87.9376 61.6195 88.586 60.0792C89.2343 58.539 89.3691 56.8174 88.9689 55.1882C88.5687 53.5591 87.6564 52.116 86.3772 51.0884C85.098 50.0608 83.5254 49.5078 81.9093 49.5172H81.9053Z" fill="url(#paint3_linear_73_11904)" stroke="#231F20" stroke-width="0.5" stroke-linecap="round" stroke-linejoin="round"/>
<path d="M47.1753 81.4698H47.0827C45.5057 81.4688 43.9688 80.952 42.6896 79.9922C41.4105 79.0325 40.4537 77.6786 39.9548 76.122C39.8325 75.7526 39.7409 75.3729 39.6811 74.9871C39.7334 74.941 39.7857 74.895 39.834 74.8447C40.1048 76.675 40.9915 78.3458 42.336 79.5592C43.6806 80.7725 45.3956 81.4496 47.1753 81.4698Z" stroke="#231F20" stroke-width="0.5" stroke-linecap="round" stroke-linejoin="round"/>
<path d="M33.1891 48.0054C30.0739 47.2935 28.2024 49.044 28.7618 51.6655L28.6612 51.8246C25.55 51.1127 23.6785 52.8674 24.2339 55.4889" stroke="#231F20" stroke-width="0.5" stroke-linecap="round" stroke-linejoin="round"/>
<path d="M19.6859 51.3096C16.5707 50.5976 14.6991 52.3523 15.2586 54.9738L15.158 55.133C12.0468 54.4211 10.1753 56.1715 10.7307 58.7973" stroke="#231F20" stroke-width="0.5" stroke-linecap="round" stroke-linejoin="round"/>
<path d="M29.2045 60.3635C26.0893 59.6515 24.2178 61.4062 24.7773 64.0277L24.6766 64.1869C21.5655 63.475 19.6939 65.2254 20.2494 67.8512" stroke="#231F20" stroke-width="0.5" stroke-linecap="round" stroke-linejoin="round"/>
<path d="M44.6718 51.3096C41.5607 50.5976 39.6891 52.3523 40.2446 54.9738L40.1439 55.133C37.0287 54.4211 35.1612 56.1715 35.7167 58.7973" stroke="#231F20" stroke-width="0.5" stroke-linecap="round" stroke-linejoin="round"/>
<path d="M54.919 63.7137C52.7617 61.2722 50.2663 61.5863 49.2843 64.0697L49.1152 64.1408C46.958 61.6994 44.4626 62.0135 43.4805 64.4968" stroke="#231F20" stroke-width="0.5" stroke-linecap="round" stroke-linejoin="round"/>
<path d="M41.3554 69.5179C39.2021 67.0723 36.7027 67.3863 35.7207 69.8697L35.5517 69.9409C33.3944 67.4994 30.895 67.8135 29.9169 70.2968" stroke="#231F20" stroke-width="0.5" stroke-linecap="round" stroke-linejoin="round"/>
<path d="M68.7241 68.2867C66.5708 65.8411 64.0714 66.1593 63.0893 68.6427L62.9203 68.7139C60.767 66.2682 58.2676 66.5865 57.2856 69.0656" stroke="#231F20" stroke-width="0.5" stroke-linecap="round" stroke-linejoin="round"/>
<path d="M68.5952 55.6648C66.0918 53.6086 63.6729 54.3289 63.0773 56.9463L62.9203 57.0426C60.4209 54.9864 58.002 55.7067 57.4023 58.324" stroke="#231F20" stroke-width="0.5" stroke-linecap="round" stroke-linejoin="round"/>
<path d="M62.2683 49.0565C60.3445 46.4099 57.841 46.4769 56.6336 48.8513L56.4605 48.9058C54.5367 46.2591 52.0332 46.3261 50.8258 48.7006" stroke="#231F20" stroke-width="0.5" stroke-linecap="round" stroke-linejoin="round"/>
<path d="M49.574 37.2219C46.4588 36.51 44.5873 38.2647 45.1468 40.8862L45.0461 41.0454C41.935 40.3334 40.0634 42.0839 40.6189 44.7096" stroke="#231F20" stroke-width="0.5" stroke-linecap="round" stroke-linejoin="round"/>
<path d="M71.7789 49.6763C74.89 48.9644 76.7616 50.7149 76.2061 53.3406L76.3068 53.4997C79.422 52.7878 81.2895 54.5383 80.734 57.1598" stroke="#231F20" stroke-width="0.5" stroke-linecap="round" stroke-linejoin="round"/>
<path d="M68.5953 55.6481C71.7064 54.9361 73.578 56.6908 73.0226 59.3123L73.1232 59.4715C76.2384 58.7596 78.1059 60.51 77.5505 63.1358" stroke="#231F20" stroke-width="0.5" stroke-linecap="round" stroke-linejoin="round"/>
<path d="M122.325 32.4845C122.028 32.4839 121.731 32.5142 121.44 32.5749C121.171 31.7422 120.663 31.0194 119.988 30.5074C119.313 29.9955 118.504 29.7198 117.674 29.719C116.894 29.7163 116.131 29.9593 115.482 30.4172C115.339 29.7527 115.047 29.1347 114.63 28.6161C114.213 28.0975 113.684 27.6937 113.088 27.4391C112.491 27.1846 111.846 27.0869 111.207 27.1545C110.567 27.222 109.953 27.4527 109.416 27.8269C109.347 26.7782 108.912 25.7943 108.196 25.0673C107.48 24.3403 106.534 23.9224 105.544 23.895H105.43C105.446 23.1269 105.317 22.3633 105.051 21.6489C104.784 20.9344 104.386 20.2836 103.88 19.7345C103.373 19.1854 102.769 18.7491 102.101 18.4513C101.433 18.1534 100.716 18 99.9923 18C99.268 18 98.5511 18.1534 97.8835 18.4513C97.2159 18.7491 96.6111 19.1854 96.1046 19.7345C95.5981 20.2836 95.2001 20.9344 94.9339 21.6489C94.6678 22.3633 94.5388 23.1269 94.5545 23.895H94.441C93.4502 23.9224 92.5046 24.3403 91.7887 25.0673C91.0727 25.7943 90.6379 26.7782 90.5689 27.8269C90.0318 27.4527 89.4173 27.222 88.7779 27.1545C88.1384 27.0869 87.4931 27.1846 86.897 27.4391C86.3009 27.6937 85.7718 28.0975 85.3548 28.6161C84.9378 29.1347 84.6454 29.7527 84.5026 30.4172C83.9954 30.0622 83.4183 29.835 82.8156 29.7529C82.2128 29.6709 81.6004 29.7362 81.0251 29.9439C80.4499 30.1517 79.927 30.4962 79.4966 30.9513C79.0663 31.4064 78.7398 31.9599 78.5421 32.5694C78.2513 32.5087 77.9556 32.4785 77.6593 32.4791C76.623 32.4761 75.6156 32.8407 74.7971 33.5149C73.9787 34.189 73.3961 35.1341 73.1422 36.1997C72.8882 37.2654 72.9773 38.3905 73.3954 39.3962C73.8135 40.402 74.5365 41.2306 75.4496 41.7504C75.4722 42.7672 75.8401 43.7411 76.4855 44.4931C77.131 45.2452 78.0107 45.7249 78.9629 45.844C79.311 46.895 80.036 47.758 80.9804 48.2456C81.9247 48.7331 83.0123 48.8058 84.0069 48.4479C84.3473 48.9187 84.7773 49.3082 85.269 49.591C85.7607 49.8738 86.303 50.0436 86.8607 50.0893C87.4184 50.135 87.9788 50.0556 88.5057 49.8564C89.0325 49.6571 89.5138 49.3423 89.9183 48.9326C90.6226 49.6463 91.549 50.0613 92.5224 50.0992C93.4957 50.137 94.4483 49.795 95.1999 49.1379C95.2335 49.1078 95.267 49.0777 95.298 49.0448C95.4486 50.1694 95.953 51.207 96.7293 51.9892C97.5057 52.7715 98.5085 53.2525 99.575 53.3543C100.641 53.4561 101.709 53.1726 102.605 52.5499C103.5 51.9272 104.171 51.0018 104.508 49.9238C104.601 49.639 104.669 49.3457 104.71 49.0476L104.81 49.1407C105.525 49.7602 106.42 50.0996 107.343 50.1018C108.368 50.1024 109.353 49.6836 110.095 48.9326C110.499 49.3422 110.98 49.657 111.507 49.8562C112.033 50.0555 112.594 50.1349 113.151 50.0891C113.708 50.0434 114.251 49.8736 114.742 49.5909C115.233 49.3081 115.663 48.9186 116.003 48.4479C116.998 48.8058 118.086 48.7331 119.03 48.2456C119.974 47.758 120.699 46.895 121.047 45.844C122 45.7249 122.879 45.2452 123.525 44.4931C124.17 43.7411 124.538 42.7672 124.561 41.7504C125.473 41.2282 126.194 40.3976 126.61 39.3905C127.026 38.3834 127.112 37.2577 126.856 36.1925C126.599 35.1273 126.014 34.1837 125.193 33.5119C124.373 32.84 123.364 32.4784 122.328 32.4845H122.325Z" fill="url(#paint4_linear_73_11904)" stroke="#231F20" stroke-width="0.5" stroke-linecap="round" stroke-linejoin="round"/>
<path d="M100.05 53.3766H99.991C98.9795 53.376 97.9938 53.038 97.1734 52.4105C96.353 51.783 95.7393 50.8978 95.4193 49.88C95.3409 49.6384 95.2821 49.3902 95.2438 49.138C95.2773 49.1078 95.3109 49.0777 95.3419 49.0449C95.5155 50.2416 96.0842 51.334 96.9466 52.1274C97.8089 52.9207 98.9089 53.3634 100.05 53.3766Z" stroke="#231F20" stroke-width="0.5" stroke-linecap="round" stroke-linejoin="round"/>
<path d="M91.08 31.4961C89.082 31.0306 87.8816 32.1751 88.2404 33.8892L88.1759 33.9933C86.1805 33.5278 84.9801 34.6751 85.3364 36.3891" stroke="#231F20" stroke-width="0.5" stroke-linecap="round" stroke-linejoin="round"/>
<path d="M82.4194 33.6565C80.4214 33.191 79.221 34.3383 79.5798 36.0523L79.5153 36.1564C77.5199 35.6909 76.3195 36.8354 76.6757 38.5523" stroke="#231F20" stroke-width="0.5" stroke-linecap="round" stroke-linejoin="round"/>
<path d="M88.5244 39.5763C86.5264 39.1108 85.326 40.2581 85.6849 41.9722L85.6203 42.0762C83.6249 41.6108 82.4245 42.7553 82.7808 44.4721" stroke="#231F20" stroke-width="0.5" stroke-linecap="round" stroke-linejoin="round"/>
<path d="M98.4447 33.6565C96.4493 33.191 95.2489 34.3383 95.6052 36.0523L95.5406 36.1564C93.5426 35.6909 92.3449 36.8354 92.7011 38.5523" stroke="#231F20" stroke-width="0.5" stroke-linecap="round" stroke-linejoin="round"/>
<path d="M105.017 41.7669C103.633 40.1705 102.033 40.3759 101.403 41.9996L101.295 42.0462C99.911 40.4498 98.3105 40.6552 97.6806 42.2789" stroke="#231F20" stroke-width="0.5" stroke-linecap="round" stroke-linejoin="round"/>
<path d="M96.3176 45.5619C94.9366 43.9628 93.3335 44.1682 92.7037 45.7919L92.5953 45.8385C91.2116 44.2421 89.6086 44.4475 88.9813 46.0712" stroke="#231F20" stroke-width="0.5" stroke-linecap="round" stroke-linejoin="round"/>
<path d="M113.871 44.7569C112.49 43.1578 110.887 43.3659 110.257 44.9896L110.149 45.0362C108.768 43.4371 107.165 43.6452 106.535 45.2662" stroke="#231F20" stroke-width="0.5" stroke-linecap="round" stroke-linejoin="round"/>
<path d="M113.789 36.5041C112.183 35.1597 110.632 35.6307 110.249 37.342L110.149 37.405C108.546 36.0606 106.994 36.5315 106.61 38.2429" stroke="#231F20" stroke-width="0.5" stroke-linecap="round" stroke-linejoin="round"/>
<path d="M109.731 32.1833C108.497 30.4528 106.891 30.4966 106.117 32.0491L106.006 32.0847C104.772 30.3542 103.166 30.398 102.392 31.9506" stroke="#231F20" stroke-width="0.5" stroke-linecap="round" stroke-linejoin="round"/>
<path d="M101.589 24.4453C99.5908 23.9799 98.3905 25.1271 98.7493 26.8412L98.6848 26.9453C96.6894 26.4798 95.489 27.6243 95.8452 29.3411" stroke="#231F20" stroke-width="0.5" stroke-linecap="round" stroke-linejoin="round"/>
<path d="M115.83 32.5886C117.826 32.1231 119.026 33.2677 118.67 34.9845L118.735 35.0885C120.733 34.623 121.93 35.7676 121.574 37.4817" stroke="#231F20" stroke-width="0.5" stroke-linecap="round" stroke-linejoin="round"/>
<path d="M113.789 36.4932C115.784 36.0277 116.984 37.175 116.628 38.8891L116.693 38.9931C118.691 38.5276 119.888 39.6722 119.532 41.389" stroke="#231F20" stroke-width="0.5" stroke-linecap="round" stroke-linejoin="round"/>
<defs>
<linearGradient id="paint0_linear_73_11904" x1="71.4762" y1="5.19745" x2="50.818" y2="97.9241" gradientUnits="userSpaceOnUse">
<stop stop-color="#FFF33B"/>
<stop offset="1" stop-color="#FDC70C"/>
</linearGradient>
<linearGradient id="paint1_linear_73_11904" x1="27.4797" y1="2.29818" x2="28.5688" y2="37.6713" gradientUnits="userSpaceOnUse">
<stop stop-color="#D1D3D4"/>
<stop offset="0.18" stop-color="#CED0D2"/>
<stop offset="0.33" stop-color="#C4C8CB"/>
<stop offset="0.46" stop-color="#B4BBBF"/>
<stop offset="0.746279" stop-color="#677076"/>
<stop offset="0.975446" stop-color="#4A555D"/>
</linearGradient>
<linearGradient id="paint2_linear_73_11904" x1="81.9523" y1="6.26972" x2="82.9374" y2="38.2666" gradientUnits="userSpaceOnUse">
<stop stop-color="#D1D3D4"/>
<stop offset="0.18" stop-color="#CED0D2"/>
<stop offset="0.33" stop-color="#C4C8CB"/>
<stop offset="0.46" stop-color="#B4BBBF"/>
<stop offset="0.551983" stop-color="#A4AEB4"/>
<stop offset="0.552083" stop-color="#A4AEB4"/>
<stop offset="0.5799" stop-color="#A0AAB0"/>
<stop offset="0.58" stop-color="#9CA7AE"/>
<stop offset="0.746279" stop-color="#58636A"/>
<stop offset="0.975446" stop-color="#45535C"/>
</linearGradient>
<linearGradient id="paint3_linear_73_11904" x1="46.2858" y1="27.8204" x2="47.9197" y2="81.9225" gradientUnits="userSpaceOnUse">
<stop stop-color="#D1D3D4"/>
<stop offset="0.18" stop-color="#CED0D2"/>
<stop offset="0.33" stop-color="#C4C8CB"/>
<stop offset="0.46" stop-color="#B4BBBF"/>
<stop offset="0.657738" stop-color="#A4AEB4"/>
<stop offset="0.975446" stop-color="#91989D"/>
</linearGradient>
<linearGradient id="paint4_linear_73_11904" x1="99.4799" y1="18.2982" x2="100.569" y2="53.6713" gradientUnits="userSpaceOnUse">
<stop stop-color="#D1D3D4"/>
<stop offset="0.18" stop-color="#CED0D2"/>
<stop offset="0.33" stop-color="#C4C8CB"/>
<stop offset="0.46" stop-color="#B4BBBF"/>
<stop offset="0.551983" stop-color="#A4AEB4"/>
<stop offset="0.552083" stop-color="#A4AEB4"/>
<stop offset="0.5799" stop-color="#A0AAB0"/>
<stop offset="0.58" stop-color="#9CA7AE"/>
<stop offset="0.746279" stop-color="#7E8E99"/>
<stop offset="0.975446" stop-color="#59707F"/>
</linearGradient>
</defs>
</svg>
