<svg width="104" height="104" viewBox="0 0 104 104" fill="none" xmlns="http://www.w3.org/2000/svg">
<g clip-path="url(#clip0_67_2287)">
<path d="M103.272 52.1766C103.272 80.4943 80.3181 103.45 52.003 103.45C23.6879 103.45 0.734033 80.4943 0.734033 52.1766C0.734033 23.859 23.6879 0.902979 52.003 0.902979C80.3181 0.902979 103.272 23.859 103.272 52.1766Z" fill="url(#paint0_radial_67_2287)" stroke="black" stroke-width="0.2"/>
<line x1="0.634033" y1="52.1212" x2="103.372" y2="52.1212" stroke="black" stroke-width="0.5"/>
<path d="M92.4453 52.1766C92.4453 73.9706 74.7794 91.638 52.9875 91.638C31.1956 91.638 13.5297 73.9706 13.5297 52.1766C13.5297 30.3826 31.1956 12.7152 52.9875 12.7152C74.7794 12.7152 92.4453 30.3826 92.4453 52.1766Z" stroke="black"/>
<path d="M81.8692 52.1766C81.8692 68.1291 68.9384 81.061 52.9875 81.061C37.0366 81.061 24.1057 68.1291 24.1057 52.1766C24.1057 36.2241 37.0366 23.2922 52.9875 23.2922C68.9384 23.2922 81.8692 36.2241 81.8692 52.1766Z" stroke="black"/>
<path d="M70.9197 52.1766C70.9197 62.0813 62.8911 70.1105 52.9875 70.1105C43.0838 70.1105 35.0552 62.0813 35.0552 52.1766C35.0552 42.2719 43.0838 34.2427 52.9875 34.2427C62.8911 34.2427 70.9197 42.2719 70.9197 52.1766Z" stroke="black"/>
<ellipse cx="52.9875" cy="52.1766" rx="5.98374" ry="5.98428" fill="black"/>
<path d="M52.3313 52.0679L51.5108 1.37247C51.5108 1.37247 63.6327 0.36202 77.0001 7.88607C90.3675 15.4101 95.8984 26.4491 95.8984 26.4491L52.3313 52.0679Z" fill="url(#paint1_linear_67_2287)" fill-opacity="0.5"/>
<path d="M52.3313 52.0679L51.5108 1.37247C51.5108 1.37247 63.6327 0.36202 77.0001 7.88607C90.3675 15.4101 95.8984 26.4491 95.8984 26.4491L52.3313 52.0679Z" fill="url(#paint2_linear_67_2287)" fill-opacity="0.5"/>
<path d="M52.7316 51.7471C52.4943 51.8884 52.4166 52.1953 52.5579 52.4326C52.6993 52.6698 53.0062 52.7475 53.2434 52.6062L52.7316 51.7471ZM53.2434 52.6062L96.1198 27.0571L95.608 26.198L52.7316 51.7471L53.2434 52.6062Z" fill="white"/>
<ellipse cx="14.9577" cy="40.0054" rx="3.3108" ry="3.3111" fill="url(#paint3_radial_67_2287)"/>
<ellipse cx="74.4257" cy="18.4606" rx="3.3108" ry="3.3111" fill="url(#paint4_radial_67_2287)"/>
<ellipse cx="77.7365" cy="82.2737" rx="3.3108" ry="3.3111" fill="url(#paint5_radial_67_2287)"/>
<ellipse cx="33.7936" cy="29.994" rx="4.71405" ry="4.71448" fill="url(#paint6_radial_67_2287)"/>
<ellipse cx="42.2897" cy="78.9626" rx="4.71405" ry="4.71448" fill="url(#paint7_radial_67_2287)"/>
<ellipse cx="68.1932" cy="60.4804" rx="5.38212" ry="5.38261" fill="url(#paint8_radial_67_2287)"/>
<line x1="51.7967" y1="0.802979" x2="51.7967" y2="103.55" stroke="black" stroke-width="0.5"/>
</g>
<defs>
<radialGradient id="paint0_radial_67_2287" cx="0" cy="0" r="1" gradientUnits="userSpaceOnUse" gradientTransform="translate(52.003 52.1766) rotate(90) scale(51.3736 51.369)">
<stop stop-color="#4789A1"/>
<stop offset="1" stop-color="#2F5D7D"/>
</radialGradient>
<linearGradient id="paint1_linear_67_2287" x1="52.3318" y1="52.0682" x2="77.0638" y2="7.92159" gradientUnits="userSpaceOnUse">
<stop stop-color="#D9D9D9"/>
<stop offset="1" stop-color="#D9D9D9" stop-opacity="0"/>
</linearGradient>
<linearGradient id="paint2_linear_67_2287" x1="64.7686" y1="46.2238" x2="55.6838" y2="12.5429" gradientUnits="userSpaceOnUse">
<stop offset="0.0275294" stop-color="white"/>
<stop offset="1" stop-color="#2F5D7D"/>
</linearGradient>
<radialGradient id="paint3_radial_67_2287" cx="0" cy="0" r="1" gradientUnits="userSpaceOnUse" gradientTransform="translate(14.9577 40.0054) rotate(90) scale(3.3111 3.3108)">
<stop offset="0.427083" stop-color="white"/>
<stop offset="0.947916" stop-color="#D9D9D9" stop-opacity="0"/>
</radialGradient>
<radialGradient id="paint4_radial_67_2287" cx="0" cy="0" r="1" gradientUnits="userSpaceOnUse" gradientTransform="translate(74.4257 18.4606) rotate(90) scale(3.3111 3.3108)">
<stop offset="0.427083" stop-color="white"/>
<stop offset="0.947916" stop-color="#D9D9D9" stop-opacity="0"/>
</radialGradient>
<radialGradient id="paint5_radial_67_2287" cx="0" cy="0" r="1" gradientUnits="userSpaceOnUse" gradientTransform="translate(77.7365 82.2737) rotate(90) scale(3.3111 3.3108)">
<stop offset="0.427083" stop-color="white"/>
<stop offset="0.947916" stop-color="#D9D9D9" stop-opacity="0"/>
</radialGradient>
<radialGradient id="paint6_radial_67_2287" cx="0" cy="0" r="1" gradientUnits="userSpaceOnUse" gradientTransform="translate(33.7936 29.994) rotate(90) scale(4.71448 4.71405)">
<stop offset="0.427083" stop-color="white"/>
<stop offset="0.947916" stop-color="#D9D9D9" stop-opacity="0"/>
</radialGradient>
<radialGradient id="paint7_radial_67_2287" cx="0" cy="0" r="1" gradientUnits="userSpaceOnUse" gradientTransform="translate(42.2897 78.9626) rotate(90) scale(4.71448 4.71405)">
<stop offset="0.427083" stop-color="white"/>
<stop offset="0.947916" stop-color="#D9D9D9" stop-opacity="0"/>
</radialGradient>
<radialGradient id="paint8_radial_67_2287" cx="0" cy="0" r="1" gradientUnits="userSpaceOnUse" gradientTransform="translate(68.1932 60.4804) rotate(90) scale(5.38261 5.38212)">
<stop offset="0.427083" stop-color="white"/>
<stop offset="0.947916" stop-color="#D9D9D9" stop-opacity="0"/>
</radialGradient>
<clipPath id="clip0_67_2287">
<rect width="104" height="104" fill="white"/>
</clipPath>
</defs>
</svg>
