<svg width="118" height="104" viewBox="0 0 118 104" fill="none" xmlns="http://www.w3.org/2000/svg">
<path d="M35.8673 65.9077C42.8488 81.6063 34.7583 80.8244 34.7583 80.8244C28.8138 77.6414 37.6695 69.9779 35.8673 65.9077Z" fill="url(#paint0_linear_66_1270)"/>
<path d="M49.192 70.3415C56.1734 86.04 48.0829 85.2581 48.0829 85.2581C42.1384 82.0752 50.9942 74.4117 49.192 70.3415Z" fill="url(#paint1_linear_66_1270)"/>
<path d="M67.8394 70.3415C60.858 86.04 68.9485 85.2581 68.9485 85.2581C74.893 82.0752 66.0372 74.4117 67.8394 70.3415Z" fill="url(#paint2_linear_66_1270)"/>
<path d="M35.8673 82.1214C42.8488 97.8199 34.7583 97.0381 34.7583 97.0381C28.8138 93.8551 37.6695 86.1916 35.8673 82.1214Z" fill="url(#paint3_linear_66_1270)"/>
<path d="M49.192 86.5551C56.1734 102.254 48.0829 101.472 48.0829 101.472C42.1384 98.2889 50.9942 90.6253 49.192 86.5551Z" fill="url(#paint4_linear_66_1270)"/>
<path d="M67.8394 86.5551C60.858 102.254 68.9485 101.472 68.9485 101.472C74.893 98.2889 66.0373 90.6253 67.8394 86.5551Z" fill="url(#paint5_linear_66_1270)"/>
<path d="M14.4239 55.1278C19.7806 68.7746 13.4147 68.1646 13.4147 68.1646C8.73452 65.4253 15.8047 58.6435 14.4239 55.1278Z" fill="url(#paint6_linear_66_1270)"/>
<path d="M14.4239 71.3415C19.7806 84.9883 13.4147 84.3783 13.4147 84.3783C8.73452 81.639 15.8047 74.8571 14.4239 71.3415Z" fill="url(#paint7_linear_66_1270)"/>
<path d="M25.0208 62.4308C30.8711 76.7154 23.9894 76.0555 23.9894 76.0555C18.91 73.1886 26.5291 66.1351 25.0208 62.4308Z" fill="url(#paint8_linear_66_1270)"/>
<path d="M25.0208 78.6445C30.8711 92.929 23.9894 92.2692 23.9894 92.2692C18.91 89.4023 26.5291 82.3487 25.0208 78.6445Z" fill="url(#paint9_linear_66_1270)"/>
<path d="M81.7319 65.9077C74.7505 81.6063 82.841 80.8244 82.841 80.8244C88.7855 77.6414 79.9297 69.9779 81.7319 65.9077Z" fill="url(#paint10_linear_66_1270)"/>
<path d="M81.7319 82.1214C74.7505 97.8199 82.841 97.0381 82.841 97.0381C88.7855 93.8551 79.9297 86.1916 81.7319 82.1214Z" fill="url(#paint11_linear_66_1270)"/>
<path d="M103.181 55.1278C97.8187 68.7746 104.185 68.1646 104.185 68.1646C108.848 65.4253 101.795 58.6435 103.181 55.1278Z" fill="url(#paint12_linear_66_1270)"/>
<path d="M103.181 71.3415C97.8187 84.9883 104.185 84.3783 104.185 84.3783C108.848 81.639 101.795 74.8571 103.181 71.3415Z" fill="url(#paint13_linear_66_1270)"/>
<path d="M92.5839 62.4308C86.7337 76.7154 93.6153 76.0555 93.6153 76.0555C98.6892 73.1886 91.0701 66.1351 92.5839 62.4308Z" fill="url(#paint14_linear_66_1270)"/>
<path d="M92.5839 78.6445C86.7337 92.929 93.6153 92.2692 93.6153 92.2692C98.6892 89.4023 91.0701 82.3487 92.5839 78.6445Z" fill="url(#paint15_linear_66_1270)"/>
<path d="M106.957 29.6752C106.319 29.674 105.682 29.7353 105.055 29.8582C104.477 28.1718 103.386 26.708 101.936 25.6712C100.485 24.6344 98.7475 24.0762 96.9647 24.0745C95.2899 24.0689 93.6513 24.5611 92.2568 25.4885C91.9499 24.1427 91.3218 22.8912 90.426 21.8409C89.5303 20.7906 88.3937 19.9728 87.1132 19.4574C85.8326 18.9419 84.4464 18.7441 83.0728 18.8809C81.6992 19.0176 80.3792 19.4849 79.2255 20.2427C79.0773 18.1189 78.1431 16.1264 76.6052 14.6541C75.0673 13.1818 73.036 12.3353 70.9076 12.2798H70.6637C70.6975 10.7244 70.4205 9.1779 69.8487 7.73103C69.2769 6.28416 68.4219 4.96606 67.3338 3.85405C66.2458 2.74205 64.9466 1.85853 63.5125 1.25535C62.0785 0.652168 60.5384 0.341461 58.9826 0.341461C57.4269 0.341461 55.8868 0.652168 54.4527 1.25535C53.0186 1.85853 51.7195 2.74205 50.6314 3.85405C49.5434 4.96606 48.6884 6.28416 48.1166 7.73103C47.5448 9.1779 47.2677 10.7244 47.3016 12.2798H47.0576C44.9293 12.3353 42.898 13.1818 41.3601 14.6541C39.8222 16.1264 38.888 18.1189 38.7398 20.2427C37.586 19.4849 36.266 19.0176 34.8924 18.8809C33.5189 18.7441 32.1326 18.9419 30.8521 19.4574C29.5716 19.9728 28.4349 20.7906 27.5392 21.8409C26.6435 22.8912 26.0153 24.1427 25.7085 25.4885C24.6189 24.7695 23.3793 24.3093 22.0845 24.1432C20.7898 23.9771 19.4741 24.1094 18.2384 24.5301C17.0026 24.9507 15.8795 25.6485 14.955 26.5701C14.0305 27.4917 13.3291 28.6127 12.9045 29.8471C12.2799 29.7242 11.6447 29.6629 11.0081 29.6641C8.78203 29.6582 6.61792 30.3966 4.85973 31.7618C3.10154 33.1271 1.85019 35.0409 1.3046 37.1991C0.75901 39.3572 0.950501 41.6358 1.84862 43.6726C2.74674 45.7094 4.29995 47.3875 6.26133 48.4402C6.30994 50.4993 7.10014 52.4717 8.48668 53.9947C9.87322 55.5178 11.7629 56.4892 13.8084 56.7304C14.5562 58.859 16.1136 60.6067 18.1422 61.5941C20.1709 62.5814 22.5072 62.7287 24.6438 62.0039C25.3749 62.9573 26.2987 63.7461 27.3549 64.3188C28.4111 64.8915 29.5761 65.2353 30.7741 65.3279C31.972 65.4205 33.176 65.2598 34.3077 64.8562C35.4394 64.4526 36.4734 63.8151 37.3424 62.9854C38.8551 64.4307 40.8453 65.2713 42.9361 65.348C45.027 65.4246 47.0734 64.732 48.6879 63.4013C48.76 63.3403 48.8321 63.2793 48.8986 63.2127C49.2221 65.4901 50.3056 67.5914 51.9733 69.1756C53.6411 70.7598 55.7952 71.734 58.0862 71.9402C60.3772 72.1463 62.6706 71.5722 64.5944 70.3111C66.5181 69.05 67.9593 67.1758 68.684 64.9928C68.8833 64.4161 69.0281 63.822 69.1165 63.2183L69.3328 63.4068C70.8685 64.6615 72.7896 65.3488 74.7727 65.3532C76.9744 65.3544 79.0918 64.5063 80.6839 62.9854C81.5524 63.815 82.5859 64.4524 83.7172 64.8559C84.8484 65.2595 86.052 65.4202 87.2495 65.3276C88.447 65.235 89.6115 64.8912 90.6673 64.3185C91.723 63.7458 92.6463 62.9572 93.3769 62.0039C95.5135 62.7287 97.8498 62.5814 99.8785 61.5941C101.907 60.6067 103.464 58.859 104.212 56.7304C106.258 56.4892 108.147 55.5178 109.534 53.9947C110.921 52.4717 111.711 50.4993 111.759 48.4402C113.719 47.3827 115.268 45.7004 116.162 43.6609C117.055 41.6214 117.241 39.3417 116.689 37.1845C116.138 35.0273 114.881 33.1164 113.119 31.7557C111.356 30.395 109.189 29.6627 106.963 29.6752H106.957Z" fill="url(#paint16_linear_66_1270)" stroke="#231F20" stroke-width="0.5" stroke-linecap="round" stroke-linejoin="round"/>
<path d="M59.1074 71.9853H58.9799C56.8071 71.9841 54.6897 71.2996 52.9273 70.0288C51.1648 68.758 49.8467 66.9652 49.1592 64.904C48.9907 64.4148 48.8646 63.9121 48.7822 63.4013C48.8543 63.3403 48.9263 63.2793 48.9929 63.2127C49.366 65.6363 50.5876 67.8487 52.4401 69.4554C54.2925 71.0621 56.6554 71.9586 59.1074 71.9853Z" stroke="#231F20" stroke-width="0.5" stroke-linecap="round" stroke-linejoin="round"/>
<path d="M39.8377 27.6733C35.5457 26.7306 32.9672 29.0485 33.738 32.5199L33.5993 32.7306C29.3129 31.7879 26.7343 34.1113 27.4996 37.5827" stroke="#231F20" stroke-width="0.5" stroke-linecap="round" stroke-linejoin="round"/>
<path d="M21.2335 32.0485C16.9415 31.1058 14.3629 33.4293 15.1337 36.9006L14.9951 37.1113C10.7086 36.1686 8.13008 38.4865 8.89532 41.9634" stroke="#231F20" stroke-width="0.5" stroke-linecap="round" stroke-linejoin="round"/>
<path d="M34.3479 44.0373C30.0559 43.0946 27.4774 45.4181 28.2482 48.8894L28.1095 49.1001C23.8231 48.1574 21.2446 50.4753 22.0098 53.9522" stroke="#231F20" stroke-width="0.5" stroke-linecap="round" stroke-linejoin="round"/>
<path d="M55.6583 32.0485C51.3718 31.1058 48.7933 33.4293 49.5585 36.9006L49.4199 37.1113C45.1279 36.1686 42.5549 38.4865 43.3201 41.9634" stroke="#231F20" stroke-width="0.5" stroke-linecap="round" stroke-linejoin="round"/>
<path d="M69.7764 48.4735C66.8042 45.2406 63.3661 45.6565 62.0131 48.9448L61.7802 49.0391C58.8079 45.8062 55.3699 46.2221 54.0168 49.5105" stroke="#231F20" stroke-width="0.5" stroke-linecap="round" stroke-linejoin="round"/>
<path d="M51.089 56.1592C48.1223 52.9208 44.6787 53.3367 43.3257 56.625L43.0928 56.7192C40.1205 53.4864 36.6769 53.9023 35.3294 57.1906" stroke="#231F20" stroke-width="0.5" stroke-linecap="round" stroke-linejoin="round"/>
<path d="M88.7966 54.5289C85.8299 51.2905 82.3863 51.7119 81.0332 55.0003L80.8003 55.0945C77.8336 51.8561 74.3901 52.2775 73.037 55.5603" stroke="#231F20" stroke-width="0.5" stroke-linecap="round" stroke-linejoin="round"/>
<path d="M88.6191 37.8156C85.17 35.0929 81.8373 36.0467 81.0166 39.5124L80.8003 39.64C77.3568 36.9173 74.0241 37.871 73.1978 41.3368" stroke="#231F20" stroke-width="0.5" stroke-linecap="round" stroke-linejoin="round"/>
<path d="M79.902 29.0652C77.2514 25.5606 73.8022 25.6493 72.1387 28.7935L71.9002 28.8656C69.2496 25.361 65.8005 25.4497 64.1369 28.5938" stroke="#231F20" stroke-width="0.5" stroke-linecap="round" stroke-linejoin="round"/>
<path d="M62.4124 13.3944C58.1203 12.4517 55.5418 14.7752 56.3126 18.2465L56.174 18.4572C51.8875 17.5145 49.309 19.8324 50.0742 23.3093" stroke="#231F20" stroke-width="0.5" stroke-linecap="round" stroke-linejoin="round"/>
<path d="M93.0054 29.8859C97.2918 28.9432 99.8704 31.2611 99.1051 34.738L99.2438 34.9487C103.536 34.006 106.109 36.3239 105.344 39.7952" stroke="#231F20" stroke-width="0.5" stroke-linecap="round" stroke-linejoin="round"/>
<path d="M88.6191 37.7934C92.9055 36.8507 95.4841 39.1741 94.7188 42.6455L94.8575 42.8562C99.1495 41.9135 101.722 44.2314 100.957 47.7082" stroke="#231F20" stroke-width="0.5" stroke-linecap="round" stroke-linejoin="round"/>
<defs>
<linearGradient id="paint0_linear_66_1270" x1="32.8708" y1="73.565" x2="38.725" y2="74.3205" gradientUnits="userSpaceOnUse">
<stop offset="0.172619" stop-color="white"/>
<stop offset="1" stop-color="#2F5D7D"/>
</linearGradient>
<linearGradient id="paint1_linear_66_1270" x1="46.1955" y1="77.9987" x2="52.0496" y2="78.7542" gradientUnits="userSpaceOnUse">
<stop offset="0.172619" stop-color="white"/>
<stop offset="1" stop-color="#2F5D7D"/>
</linearGradient>
<linearGradient id="paint2_linear_66_1270" x1="70.8359" y1="77.9987" x2="64.9818" y2="78.7542" gradientUnits="userSpaceOnUse">
<stop offset="0.172619" stop-color="white"/>
<stop offset="1" stop-color="#2F5D7D"/>
</linearGradient>
<linearGradient id="paint3_linear_66_1270" x1="32.8708" y1="89.7787" x2="38.725" y2="90.5342" gradientUnits="userSpaceOnUse">
<stop offset="0.172619" stop-color="white"/>
<stop offset="1" stop-color="#2F5D7D"/>
</linearGradient>
<linearGradient id="paint4_linear_66_1270" x1="46.1955" y1="94.2124" x2="52.0496" y2="94.9679" gradientUnits="userSpaceOnUse">
<stop offset="0.172619" stop-color="white"/>
<stop offset="1" stop-color="#2F5D7D"/>
</linearGradient>
<linearGradient id="paint5_linear_66_1270" x1="70.8359" y1="94.2124" x2="64.9818" y2="94.9679" gradientUnits="userSpaceOnUse">
<stop offset="0.172619" stop-color="white"/>
<stop offset="1" stop-color="#2F5D7D"/>
</linearGradient>
<linearGradient id="paint6_linear_66_1270" x1="11.9463" y1="61.8193" x2="16.5967" y2="62.3632" gradientUnits="userSpaceOnUse">
<stop offset="0.172619" stop-color="white"/>
<stop offset="1" stop-color="#2F5D7D"/>
</linearGradient>
<linearGradient id="paint7_linear_66_1270" x1="11.9463" y1="78.033" x2="16.5967" y2="78.5769" gradientUnits="userSpaceOnUse">
<stop offset="0.172619" stop-color="white"/>
<stop offset="1" stop-color="#2F5D7D"/>
</linearGradient>
<linearGradient id="paint8_linear_66_1270" x1="22.386" y1="69.4243" x2="27.4038" y2="70.0308" gradientUnits="userSpaceOnUse">
<stop offset="0.172619" stop-color="white"/>
<stop offset="1" stop-color="#2F5D7D"/>
</linearGradient>
<linearGradient id="paint9_linear_66_1270" x1="22.386" y1="85.638" x2="27.4038" y2="86.2445" gradientUnits="userSpaceOnUse">
<stop offset="0.172619" stop-color="white"/>
<stop offset="1" stop-color="#2F5D7D"/>
</linearGradient>
<linearGradient id="paint10_linear_66_1270" x1="79.0879" y1="73.565" x2="84.9421" y2="74.3205" gradientUnits="userSpaceOnUse">
<stop offset="0.172619" stop-color="white"/>
<stop offset="1" stop-color="#2F5D7D"/>
</linearGradient>
<linearGradient id="paint11_linear_66_1270" x1="79.0879" y1="89.7787" x2="84.9421" y2="90.5342" gradientUnits="userSpaceOnUse">
<stop offset="0.172619" stop-color="white"/>
<stop offset="1" stop-color="#2F5D7D"/>
</linearGradient>
<linearGradient id="paint12_linear_66_1270" x1="101.187" y1="61.8193" x2="105.829" y2="62.3612" gradientUnits="userSpaceOnUse">
<stop offset="0.172619" stop-color="white"/>
<stop offset="1" stop-color="#2F5D7D"/>
</linearGradient>
<linearGradient id="paint13_linear_66_1270" x1="101.187" y1="78.033" x2="105.829" y2="78.5749" gradientUnits="userSpaceOnUse">
<stop offset="0.172619" stop-color="white"/>
<stop offset="1" stop-color="#2F5D7D"/>
</linearGradient>
<linearGradient id="paint14_linear_66_1270" x1="90.3937" y1="69.4243" x2="95.4086" y2="70.0301" gradientUnits="userSpaceOnUse">
<stop offset="0.172619" stop-color="white"/>
<stop offset="1" stop-color="#2F5D7D"/>
</linearGradient>
<linearGradient id="paint15_linear_66_1270" x1="90.3937" y1="85.638" x2="95.4086" y2="86.2438" gradientUnits="userSpaceOnUse">
<stop offset="0.172619" stop-color="white"/>
<stop offset="1" stop-color="#2F5D7D"/>
</linearGradient>
<linearGradient id="paint16_linear_66_1270" x1="57.8819" y1="0.945333" x2="59.9613" y2="72.5897" gradientUnits="userSpaceOnUse">
<stop stop-color="#D1D3D4"/>
<stop offset="0.18" stop-color="#CED0D2"/>
<stop offset="0.33" stop-color="#C4C8CB"/>
<stop offset="0.46" stop-color="#B4BBBF"/>
<stop offset="0.58" stop-color="#9CA7AE"/>
<stop offset="0.7" stop-color="#7E8E99"/>
<stop offset="0.81" stop-color="#59707F"/>
<stop offset="0.92" stop-color="#2E4C60"/>
<stop offset="0.97" stop-color="#13364D"/>
</linearGradient>
</defs>
</svg>
