<svg width="118" height="102" viewBox="0 0 118 102" fill="none" xmlns="http://www.w3.org/2000/svg">
<line x1="20.9296" y1="65.0085" x2="23.2493" y2="68.4234" stroke="#9CA7AE" stroke-width="0.6" stroke-linecap="round"/>
<line x1="31.5528" y1="72.9317" x2="33.8725" y2="76.3465" stroke="#9CA7AE" stroke-width="0.6" stroke-linecap="round"/>
<line x1="16.7579" y1="77.0938" x2="19.0777" y2="80.5086" stroke="#9CA7AE" stroke-width="0.6" stroke-linecap="round"/>
<line x1="27.9253" y1="82.659" x2="30.245" y2="86.0739" stroke="#9CA7AE" stroke-width="0.6" stroke-linecap="round"/>
<line x1="39.0304" y1="91.1233" x2="41.3501" y2="94.5382" stroke="#9CA7AE" stroke-width="0.6" stroke-linecap="round"/>
<line x1="52.9985" y1="86.8211" x2="55.3182" y2="90.236" stroke="#9CA7AE" stroke-width="0.6" stroke-linecap="round"/>
<line x1="41.6873" y1="79.5644" x2="44.007" y2="82.9792" stroke="#9CA7AE" stroke-width="0.6" stroke-linecap="round"/>
<line x1="45.2411" y1="69.2673" x2="47.5609" y2="72.6821" stroke="#9CA7AE" stroke-width="0.6" stroke-linecap="round"/>
<line x1="57.0664" y1="74.8873" x2="59.3861" y2="78.3021" stroke="#9CA7AE" stroke-width="0.6" stroke-linecap="round"/>
<line x1="70.9658" y1="71.2229" x2="73.2855" y2="74.6377" stroke="#9CA7AE" stroke-width="0.6" stroke-linecap="round"/>
<line x1="66.6066" y1="83.4755" x2="68.9264" y2="86.8903" stroke="#9CA7AE" stroke-width="0.6" stroke-linecap="round"/>
<line x1="81.4009" y1="79.5644" x2="83.7206" y2="82.9792" stroke="#9CA7AE" stroke-width="0.6" stroke-linecap="round"/>
<line x1="85.2509" y1="67.3117" x2="87.5707" y2="70.7266" stroke="#9CA7AE" stroke-width="0.6" stroke-linecap="round"/>
<line x1="98.3135" y1="62.4968" x2="100.633" y2="65.9117" stroke="#9CA7AE" stroke-width="0.6" stroke-linecap="round"/>
<line x1="95.1509" y1="75.134" x2="97.4707" y2="78.5488" stroke="#9CA7AE" stroke-width="0.6" stroke-linecap="round"/>
<path d="M106.923 30.3337C106.284 30.3325 105.647 30.3938 105.021 30.5167C104.442 28.8303 103.352 27.3666 101.901 26.3297C100.451 25.2929 98.7129 24.7347 96.9301 24.733C95.2553 24.7275 93.6167 25.2196 92.2222 26.1471C91.9153 24.8013 91.2872 23.5497 90.3914 22.4995C89.4957 21.4492 88.359 20.6314 87.0785 20.1159C85.798 19.6004 84.4118 19.4026 83.0382 19.5394C81.6646 19.6762 80.3446 20.1434 79.1909 20.9013C79.0427 18.7774 78.1085 16.7849 76.5706 15.3126C75.0326 13.8403 73.0014 12.9938 70.873 12.9383H70.6291C70.6629 11.3829 70.3859 9.83644 69.8141 8.38957C69.2423 6.9427 68.3872 5.6246 67.2992 4.51259C66.2112 3.40058 64.912 2.51707 63.4779 1.91389C62.0439 1.31071 60.5038 1 58.948 1C57.3923 1 55.8522 1.31071 54.4181 1.91389C52.984 2.51707 51.6849 3.40058 50.5968 4.51259C49.5088 5.6246 48.6538 6.9427 48.082 8.38957C47.5102 9.83644 47.2331 11.3829 47.267 12.9383H47.023C44.8947 12.9938 42.8634 13.8403 41.3255 15.3126C39.7875 16.7849 38.8534 18.7774 38.7052 20.9013C37.5514 20.1434 36.2314 19.6762 34.8578 19.5394C33.4843 19.4026 32.098 19.6004 30.8175 20.1159C29.537 20.6314 28.4003 21.4492 27.5046 22.4995C26.6089 23.5497 25.9807 24.8013 25.6739 26.1471C24.5843 25.4281 23.3447 24.9679 22.0499 24.8017C20.7552 24.6356 19.4395 24.7679 18.2038 25.1886C16.968 25.6093 15.8449 26.3071 14.9204 27.2287C13.9959 28.1503 13.2945 29.2712 12.8699 30.5056C12.2453 30.3827 11.6101 30.3214 10.9734 30.3226C8.74742 30.3167 6.58331 31.0551 4.82512 32.4204C3.06693 33.7857 1.81558 35.6995 1.26999 37.8576C0.724404 40.0157 0.915894 42.2943 1.81401 44.3311C2.71214 46.3679 4.26534 48.0461 6.22673 49.0988C6.27534 51.1579 7.06553 53.1302 8.45207 54.6533C9.83861 56.1763 11.7283 57.1477 13.7738 57.3889C14.5216 59.5175 16.0789 61.2653 18.1076 62.2526C20.1363 63.24 22.4726 63.3872 24.6092 62.6624C25.3403 63.6158 26.2641 64.4046 27.3203 64.9773C28.3765 65.55 29.5415 65.8939 30.7395 65.9865C31.9374 66.0791 33.1414 65.9183 34.2731 65.5147C35.4048 65.1111 36.4388 64.4737 37.3078 63.6439C38.8205 65.0893 40.8107 65.9299 42.9015 66.0065C44.9924 66.0831 47.0388 65.3905 48.6533 64.0598C48.7254 63.9988 48.7975 63.9378 48.864 63.8713C49.1875 66.1487 50.271 68.2499 51.9387 69.8342C53.6065 71.4184 55.7606 72.3926 58.0516 72.5987C60.3426 72.8048 62.636 72.2307 64.5597 70.9696C66.4835 69.7085 67.9247 67.8344 68.6494 65.6513C68.8487 65.0746 68.9935 64.4805 69.0819 63.8768L69.2982 64.0654C70.8339 65.32 72.755 66.0074 74.7381 66.0117C76.9398 66.013 79.0572 65.1648 80.6493 63.6439C81.5178 64.4735 82.5513 65.1109 83.6825 65.5145C84.8138 65.918 86.0174 66.0788 87.2149 65.9862C88.4124 65.8936 89.5769 65.5497 90.6327 64.977C91.6884 64.4044 92.6117 63.6157 93.3423 62.6624C95.4789 63.3872 97.8152 63.24 99.8438 62.2526C101.873 61.2653 103.43 59.5175 104.178 57.3889C106.223 57.1477 108.113 56.1763 109.499 54.6533C110.886 53.1302 111.676 51.1579 111.725 49.0988C113.684 48.0413 115.234 46.359 116.127 44.3195C117.02 42.2799 117.206 40.0003 116.655 37.8431C116.103 35.6858 114.846 33.7749 113.084 32.4142C111.321 31.0536 109.155 30.3212 106.928 30.3337H106.923Z" fill="url(#paint0_linear_73_11939)" stroke="#231F20" stroke-width="0.5" stroke-linecap="round" stroke-linejoin="round"/>
<path d="M59.0728 72.6438H58.9452C56.7725 72.6426 54.6551 71.9582 52.8926 70.6874C51.1302 69.4166 49.8121 67.6238 49.1246 65.5626C48.9561 65.0734 48.83 64.5706 48.7476 64.0598C48.8196 63.9988 48.8917 63.9378 48.9583 63.8713C49.3313 66.2949 50.553 68.5072 52.4055 70.1139C54.2579 71.7206 56.6208 72.6172 59.0728 72.6438Z" stroke="#231F20" stroke-width="0.5" stroke-linecap="round" stroke-linejoin="round"/>
<path d="M39.8031 28.3319C35.5111 27.3892 32.9326 29.7071 33.7033 33.1784L33.5647 33.3891C29.2783 32.4464 26.6997 34.7699 27.465 38.2412" stroke="#231F20" stroke-width="0.5" stroke-linecap="round" stroke-linejoin="round"/>
<path d="M21.1989 32.7071C16.9068 31.7644 14.3283 34.0878 15.0991 37.5592L14.9605 37.7699C10.674 36.8272 8.09547 39.1451 8.86071 42.6219" stroke="#231F20" stroke-width="0.5" stroke-linecap="round" stroke-linejoin="round"/>
<path d="M34.3133 44.6958C30.0213 43.7532 27.4428 46.0766 28.2136 49.5479L28.0749 49.7586C23.7885 48.816 21.2099 51.1339 21.9752 54.6107" stroke="#231F20" stroke-width="0.5" stroke-linecap="round" stroke-linejoin="round"/>
<path d="M55.6236 32.7071C51.3372 31.7644 48.7587 34.0878 49.5239 37.5592L49.3853 37.7699C45.0933 36.8272 42.5203 39.1451 43.2855 42.6219" stroke="#231F20" stroke-width="0.5" stroke-linecap="round" stroke-linejoin="round"/>
<path d="M69.7418 49.132C66.7696 45.8992 63.3315 46.3151 61.9785 49.6034L61.7456 49.6977C58.7733 46.4648 55.3353 46.8807 53.9823 50.169" stroke="#231F20" stroke-width="0.5" stroke-linecap="round" stroke-linejoin="round"/>
<path d="M51.0544 56.8177C48.0877 53.5793 44.6441 53.9952 43.2911 57.2835L43.0582 57.3778C40.0859 54.1449 36.6423 54.5608 35.2948 57.8491" stroke="#231F20" stroke-width="0.5" stroke-linecap="round" stroke-linejoin="round"/>
<path d="M88.7619 55.1874C85.7952 51.949 82.3517 52.3705 80.9986 55.6588L80.7657 55.7531C77.799 52.5146 74.3554 52.9361 73.0024 56.2189" stroke="#231F20" stroke-width="0.5" stroke-linecap="round" stroke-linejoin="round"/>
<path d="M88.5845 38.4741C85.1354 35.7514 81.8027 36.7052 80.982 40.171L80.7657 40.2985C77.3221 37.5758 73.9894 38.5296 73.1632 41.9954" stroke="#231F20" stroke-width="0.5" stroke-linecap="round" stroke-linejoin="round"/>
<path d="M79.8674 29.7237C77.2168 26.2191 73.7676 26.3079 72.1041 29.452L71.8656 29.5241C69.215 26.0195 65.7659 26.1082 64.1023 29.2524" stroke="#231F20" stroke-width="0.5" stroke-linecap="round" stroke-linejoin="round"/>
<path d="M62.3777 14.0529C58.0857 13.1102 55.5072 15.4337 56.278 18.905L56.1394 19.1157C51.8529 18.173 49.2744 20.4909 50.0396 23.9678" stroke="#231F20" stroke-width="0.5" stroke-linecap="round" stroke-linejoin="round"/>
<path d="M92.9708 30.5444C97.2572 29.6018 99.8358 31.9197 99.0705 35.3965L99.2091 35.6072C103.501 34.6645 106.074 36.9825 105.309 40.4538" stroke="#231F20" stroke-width="0.5" stroke-linecap="round" stroke-linejoin="round"/>
<path d="M88.5845 38.4519C92.871 37.5092 95.4495 39.8327 94.6843 43.304L94.8229 43.5147C99.1149 42.572 101.688 44.8899 100.923 48.3668" stroke="#231F20" stroke-width="0.5" stroke-linecap="round" stroke-linejoin="round"/>
<defs>
<linearGradient id="paint0_linear_73_11939" x1="57.8473" y1="1.60387" x2="59.9267" y2="73.2483" gradientUnits="userSpaceOnUse">
<stop stop-color="#D1D3D4"/>
<stop offset="0.18" stop-color="#CED0D2"/>
<stop offset="0.33" stop-color="#C4C8CB"/>
<stop offset="0.46" stop-color="#B4BBBF"/>
<stop offset="0.551983" stop-color="#A4AEB4"/>
<stop offset="0.552083" stop-color="#A4AEB4"/>
<stop offset="0.5799" stop-color="#A0AAB0"/>
<stop offset="0.58" stop-color="#9CA7AE"/>
<stop offset="0.746279" stop-color="#7E8E99"/>
<stop offset="0.975446" stop-color="#59707F"/>
</linearGradient>
</defs>
</svg>
