<svg width="26" height="66" viewBox="0 0 26 66" fill="none" xmlns="http://www.w3.org/2000/svg">
<mask id="path-1-inside-1_73_11449" fill="white">
<path fill-rule="evenodd" clip-rule="evenodd" d="M12.0779 0.431759C8.99377 0.431759 6.49362 2.93191 6.49362 6.016V41.6578C2.70379 43.8899 0.160645 48.0124 0.160645 52.7289C0.160645 59.8199 5.90902 65.5682 13 65.5682C20.091 65.5682 25.8393 59.8199 25.8393 52.7289C25.8393 48.0124 23.2962 43.89 19.5065 41.6579V6.016C19.5065 2.93191 17.0063 0.431759 13.9222 0.431759H12.0779Z"/>
</mask>
<path fill-rule="evenodd" clip-rule="evenodd" d="M12.0779 0.431759C8.99377 0.431759 6.49362 2.93191 6.49362 6.016V41.6578C2.70379 43.8899 0.160645 48.0124 0.160645 52.7289C0.160645 59.8199 5.90902 65.5682 13 65.5682C20.091 65.5682 25.8393 59.8199 25.8393 52.7289C25.8393 48.0124 23.2962 43.89 19.5065 41.6579V6.016C19.5065 2.93191 17.0063 0.431759 13.9222 0.431759H12.0779Z" fill="url(#paint0_linear_73_11449)"/>
<path d="M6.49362 41.6578L7.00111 42.5195L7.49362 42.2294V41.6578H6.49362ZM19.5065 41.6579H18.5065V42.2295L18.999 42.5195L19.5065 41.6579ZM7.49362 6.016C7.49362 3.48419 9.54606 1.43176 12.0779 1.43176V-0.568241C8.44149 -0.568241 5.49362 2.37962 5.49362 6.016H7.49362ZM7.49362 41.6578V6.016H5.49362V41.6578H7.49362ZM1.16064 52.7289C1.16064 48.381 3.50384 44.5792 7.00111 42.5195L5.98614 40.7962C1.90375 43.2005 -0.839355 47.6438 -0.839355 52.7289H1.16064ZM13 64.5682C6.4613 64.5682 1.16064 59.2676 1.16064 52.7289H-0.839355C-0.839355 60.3721 5.35673 66.5682 13 66.5682V64.5682ZM24.8393 52.7289C24.8393 59.2676 19.5387 64.5682 13 64.5682V66.5682C20.6433 66.5682 26.8393 60.3721 26.8393 52.7289H24.8393ZM18.999 42.5195C22.4962 44.5793 24.8393 48.381 24.8393 52.7289H26.8393C26.8393 47.6439 24.0963 43.2006 20.014 40.7962L18.999 42.5195ZM18.5065 6.016V41.6579H20.5065V6.016H18.5065ZM13.9222 1.43176C16.454 1.43176 18.5065 3.4842 18.5065 6.016H20.5065C20.5065 2.37963 17.5586 -0.568241 13.9222 -0.568241V1.43176ZM12.0779 1.43176H13.9222V-0.568241H12.0779V1.43176Z" fill="black" mask="url(#path-1-inside-1_73_11449)"/>
<circle cx="13" cy="52.7289" r="10.2857" fill="#E93E3A"/>
<path d="M8.61007 4.17772V4.17772C9.12446 0.148039 16.7612 15.7791 16.7612 19.8415V43.5502C16.7612 45.6158 15.2221 47.3577 13.1722 47.612V47.612C10.7411 47.9137 8.59171 46.0446 8.57801 43.5949C8.51696 32.6737 8.39075 5.89589 8.61007 4.17772Z" fill="#4789A1"/>
<path d="M8.61007 18.0142V18.0142C9.12446 13.9845 16.7612 29.6156 16.7612 33.678V57.3867C16.7612 59.4523 15.2221 61.1942 13.1722 61.4485V61.4485C10.7411 61.7502 8.59171 59.8811 8.57801 57.4314C8.51696 46.5102 8.39075 19.7324 8.61007 18.0142Z" fill="url(#paint1_linear_73_11449)"/>
<line x1="12.65" y1="50.2771" x2="12.65" y2="3.32234" stroke="black" stroke-width="0.7"/>
<circle cx="13" cy="51.6389" r="3.46022" fill="black"/>
<defs>
<linearGradient id="paint0_linear_73_11449" x1="6.49362" y1="3.69546" x2="19.5065" y2="3.69546" gradientUnits="userSpaceOnUse">
<stop offset="0.041666" stop-color="white" stop-opacity="0.2"/>
<stop offset="0.449418" stop-color="white"/>
<stop offset="1" stop-color="white" stop-opacity="0.2"/>
</linearGradient>
<linearGradient id="paint1_linear_73_11449" x1="12.6237" y1="17.7638" x2="12.6237" y2="62.0152" gradientUnits="userSpaceOnUse">
<stop stop-color="#ED683C"/>
<stop offset="0.666666" stop-color="#E93E3A"/>
</linearGradient>
</defs>
</svg>
