<svg width="58" height="52" viewBox="0 0 58 52" fill="none" xmlns="http://www.w3.org/2000/svg">
<path d="M38.8956 7.74939C40.4701 6.1749 42.6056 5.29035 44.8322 5.29035C47.0589 5.29035 49.1944 6.1749 50.7689 7.74939C52.3434 9.32389 53.2279 11.4594 53.2279 13.686C53.2279 15.9127 52.3434 18.0482 50.7689 19.6227C49.1944 21.1972 47.0589 22.0817 44.8322 22.0817H2.61296C2.04032 22.0817 1.49113 22.3092 1.08622 22.7141C0.681301 23.119 0.453821 23.6682 0.453821 24.2409C0.453821 24.8135 0.681301 25.3627 1.08622 25.7676C1.49113 26.1725 2.04032 26.4 2.61296 26.4H44.8322C47.3468 26.4 49.8049 25.6543 51.8957 24.2573C53.9865 22.8603 55.6161 20.8746 56.5784 18.5515C57.5407 16.2283 57.7925 13.6719 57.3019 11.2057C56.8113 8.7394 55.6004 6.47399 53.8224 4.69591C52.0443 2.91783 49.7789 1.70695 47.3126 1.21637C44.8463 0.725804 42.29 0.977583 39.9668 1.93987C37.6437 2.90216 35.658 4.53174 34.261 6.62254C32.8639 8.71334 32.1183 11.1715 32.1183 13.686C32.1183 14.2587 32.3458 14.8079 32.7507 15.2128C33.1556 15.6177 33.7048 15.8452 34.2774 15.8452C34.8501 15.8452 35.3993 15.6177 35.8042 15.2128C36.2091 14.8079 36.4366 14.2587 36.4366 13.686C36.4366 11.4594 37.3211 9.32389 38.8956 7.74939ZM17.9994 9.72195C18.5842 9.13716 19.3773 8.80863 20.2043 8.80863C21.0313 8.80863 21.8245 9.13716 22.4093 9.72195C22.9941 10.3067 23.3226 11.0999 23.3226 11.9269C23.3226 12.7539 22.9941 13.5471 22.4093 14.1319C21.8245 14.7166 21.0313 15.0452 20.2043 15.0452H2.61296C2.04032 15.0452 1.49113 15.2727 1.08622 15.6776C0.681301 16.0825 0.453821 16.6317 0.453821 17.2043C0.453821 17.777 0.681301 18.3261 1.08622 18.7311C1.49113 19.136 2.04032 19.3635 2.61296 19.3635H20.2043C21.6751 19.3635 23.1129 18.9273 24.3358 18.1102C25.5588 17.293 26.5119 16.1316 27.0748 14.7727C27.6377 13.4139 27.7849 11.9187 27.498 10.4761C27.211 9.03355 26.5028 7.70849 25.4628 6.66847C24.4227 5.62845 23.0977 4.92019 21.6551 4.63325C20.2126 4.3463 18.7173 4.49357 17.3585 5.05643C15.9996 5.61928 14.8382 6.57244 14.0211 7.79538C13.2039 9.01831 12.7678 10.4561 12.7678 11.9269C12.7678 12.4995 12.9953 13.0487 13.4002 13.4536C13.8051 13.8586 14.3543 14.086 14.9269 14.086C15.4996 14.086 16.0487 13.8586 16.4537 13.4536C16.8586 13.0487 17.0861 12.4995 17.0861 11.9269C17.0861 11.0999 17.4146 10.3067 17.9994 9.72195ZM1.08622 29.7507C0.6813 30.1556 0.453821 30.7048 0.453821 31.2774C0.453821 31.8501 0.681301 32.3992 1.08622 32.8042C1.49113 33.2091 2.04032 33.4366 2.61296 33.4366H37.9435C39.256 33.4366 40.5392 33.8258 41.6305 34.555C42.7219 35.2842 43.5725 36.3207 44.0748 37.5334C44.5771 38.7461 44.7086 40.0805 44.4525 41.3678C44.1964 42.6552 43.5644 43.8377 42.6362 44.7658C41.7081 45.694 40.5256 46.3261 39.2382 46.5821C37.9508 46.8382 36.6164 46.7068 35.4038 46.2045C34.1911 45.7022 33.1546 44.8515 32.4254 43.7602C31.6961 42.6688 31.3069 41.3857 31.3069 40.0731C31.3069 39.5005 31.0794 38.9513 30.6745 38.5464C30.2696 38.1414 29.7204 37.914 29.1478 37.914C28.5751 37.914 28.026 38.1414 27.621 38.5464C27.2161 38.9513 26.9886 39.5005 26.9886 40.0731C26.9886 42.2398 27.6311 44.3578 28.8349 46.1593C30.0386 47.9608 31.7495 49.3649 33.7512 50.194C35.753 51.0232 37.9556 51.2401 40.0806 50.8174C42.2057 50.3947 44.1576 49.3514 45.6897 47.8193C47.2217 46.2873 48.2651 44.3353 48.6878 42.2103C49.1105 40.0853 48.8935 37.8826 48.0644 35.8809C47.2353 33.8791 45.8311 32.1682 44.0296 30.9645C42.2281 29.7608 40.1101 29.1183 37.9435 29.1183H2.61296C2.04032 29.1183 1.49113 29.3458 1.08622 29.7507Z" fill="white" stroke="black" stroke-width="0.8"/>
</svg>
